<?xml version="1.0" encoding="UTF-8"?>
<svg id="Ebene_2" data-name="Ebene 2" xmlns="http://www.w3.org/2000/svg" viewBox="0 0 83 78.87">
  <defs>
    <style>
      .cls-1 {
        fill: none;
        stroke: #f39200;
        stroke-linecap: round;
        stroke-linejoin: round;
        stroke-width: 3px;
      }
    </style>
  </defs>
  <g id="Layer_1" data-name="Layer 1">
    <path class="cls-1" d="M8.1,8.11v59.55c0,4.78,14.95,9.71,33.4,9.71s33.4-4.92,33.4-9.71V8.11"/>
    <path class="cls-1" d="M53.49,14.28c-3.72.28-7.76.44-11.99.44-2.17,0-4.29-.04-6.35-.12"/>
    <path class="cls-1" d="M8.1,18.61h-3.25c-1.85,0-3.34,1.5-3.34,3.34v.61h0c0,20.77,19.23,37.6,40,37.6s40-16.83,40-37.6h0v-.61c0-1.85-1.5-3.34-3.34-3.34h-3.25"/>
    <path class="cls-1" d="M62.82,36.86c0,2-1.62,3.63-3.63,3.63h-.12c-2,0-3.63-1.62-3.63-3.63v-7.49c0-2-1.62-3.63-3.63-3.63h-.12c-2,0-3.63,1.62-3.63,3.63v2.51c0,2-1.62,3.63-3.63,3.63h0c-2,0-3.63-1.62-3.63-3.63v-4.67c0-2-1.62-3.63-3.63-3.63h-.12c-2,0-3.63,1.62-3.63,3.63v2s0,15.85,0,15.85c0,2-1.62,3.63-3.63,3.63h-.12c-2,0-3.63-1.62-3.63-3.63v-27.7c0-1.9-1.4-3.52-3.29-3.78-8.85-1.19-14.67-3.2-14.67-5.47,0-3.65,14.95-6.61,33.4-6.61s33.4,2.96,33.4,6.61c0,1.82-3.72,3.47-9.73,4.66-1.36.27-2.35,1.45-2.35,2.84v21.25Z"/>
    <path class="cls-1" d="M8.1,61.66c0,4.78,14.95,10.15,33.4,10.15s33.4-5.37,33.4-10.15"/>
  </g>
</svg>