<?xml version="1.0" encoding="UTF-8"?>
<svg id="Ebene_2" data-name="Ebene 2" xmlns="http://www.w3.org/2000/svg" viewBox="0 0 64.01 83">
  <defs>
    <style>
      .cls-1 {
        fill: none;
        stroke: #f39200;
        stroke-linecap: round;
        stroke-linejoin: round;
        stroke-width: 3px;
      }
    </style>
  </defs>
  <g id="Layer_1" data-name="Layer 1">
    <path class="cls-1" d="M2.25,65.44c-.49-1.35-.75-2.81-.75-4.33V3.68c0-1.2.97-2.18,2.18-2.18h21.15c1.2,0,2.18.97,2.18,2.18v57.44c0,7.04-5.71,12.75-12.75,12.75h0c-1.65,0-3.23-.31-4.68-.89"/>
    <line class="cls-1" x1="1.5" y1="13.34" x2="27" y2="13.34"/>
    <line class="cls-1" x1="1.5" y1="25.01" x2="27" y2="25.01"/>
    <line class="cls-1" x1="1.5" y1="36.69" x2="27" y2="36.69"/>
    <line class="cls-1" x1="1.5" y1="48.37" x2="27" y2="48.37"/>
    <path class="cls-1" d="M31.88,3.3l13.39,4.81c1.13.41,1.72,1.65,1.31,2.78l-20.19,54.09"/>
    <line class="cls-1" x1="31.82" y1="15.85" x2="43.21" y2="19.95"/>
    <line class="cls-1" x1="31.82" y1="28.26" x2="39.12" y2="30.89"/>
    <line class="cls-1" x1="31.82" y1="40.59" x2="35.04" y2="41.83"/>
    <path class="cls-1" d="M50.73,12.67l10.98,9.05c.93.76,1.06,2.14.29,3.06l-37.26,43.56"/>
    <line class="cls-1" x1="46.43" y1="24.46" x2="55.73" y2="32.12"/>
    <line class="cls-1" x1="42.25" y1="36.14" x2="48.14" y2="41"/>
    <line class="cls-1" x1="38.08" y1="47.75" x2="40.55" y2="49.87"/>
    <path class="cls-1" d="M21.96,76.27c-1.36,3-3.88,5.23-7.71,5.23-5.04,0-9.12-4.45-9.12-9.94s4.08-9.94,9.12-9.94"/>
    <line class="cls-1" x1="14.25" y1="64.62" x2="14.25" y2="58.65"/>
  </g>
</svg>