<?xml version="1.0" encoding="UTF-8"?>
<svg id="Ebene_2" data-name="Ebene 2" xmlns="http://www.w3.org/2000/svg" viewBox="0 0 83 79.79">
  <defs>
    <style>
      .cls-1 {
        fill: none;
        stroke: #f39200;
        stroke-linecap: round;
        stroke-linejoin: round;
        stroke-width: 3px;
      }
    </style>
  </defs>
  <g id="Layer_1" data-name="Layer 1">
    <path class="cls-1" d="M2.38,77.4c2.1,2.1,9.58.32,13.06-3.94,3.63-4.45,4.64-9.85,9.58-13.8,5.14-4.11,11.19-1.4,14.68.85,1.72,1.11,3.98.88,5.43-.57l4.91-4.91-12.64-12.64h0l-12.64-12.64-4.91,4.91c-1.45,1.45-1.68,3.7-.57,5.43,2.24,3.49,4.96,9.54.85,14.68-3.95,4.94-9.34,5.94-13.8,9.58-4.27,3.48-6.05,10.96-3.94,13.06h0Z"/>
    <path class="cls-1" d="M50.04,55.03l10.66-10.66c.78-.78.78-2.04,0-2.81l-22.47-22.47c-.78-.78-2.04-.78-2.81,0l-10.66,10.66"/>
    <line class="cls-1" x1="21.36" y1="33.15" x2="46.64" y2="58.43"/>
    <line class="cls-1" x1="40.37" y1="21.22" x2="33.71" y2="27.88"/>
    <line class="cls-1" x1="44.01" y1="24.86" x2="39.01" y2="29.86"/>
    <line class="cls-1" x1="47.65" y1="28.5" x2="38.77" y2="37.38"/>
    <line class="cls-1" x1="51.29" y1="32.14" x2="45.18" y2="38.25"/>
    <line class="cls-1" x1="54.93" y1="35.78" x2="47.71" y2="42.99"/>
    <line class="cls-1" x1="58.57" y1="39.42" x2="54.67" y2="43.31"/>
    <line class="cls-1" x1="36.25" y1="32.61" x2="36.24" y2="32.63"/>
    <line class="cls-1" x1="51.92" y1="46.07" x2="51.91" y2="46.08"/>
    <path class="cls-1" d="M65.43,39.64l15.34-15.34c.98-.98.98-2.58,0-3.56l-.06-.06c-.98-.98-2.58-.98-3.56,0l-5.24,5.24-2.03,2.03c-.98.98-2.58.98-3.56,0l-.06-.06c-.98-.98-.98-2.58,0-3.56l1.81-1.81.97-.97c.98-.98.98-2.58,0-3.56l-.06-.06c-.98-.98-2.58-.98-3.56,0l-3.14,3.14-4.47,4.47c-.98.98-2.58.98-3.56,0l-.06-.06c-.98-.98-.98-2.58,0-3.56l3.21-3.21,1.07-1.07c.98-.98.98-2.58,0-3.56h0c-.98-.98-2.58-.98-3.56,0l-.94.94-.29.29c-.98.98-2.58.98-3.56,0l-.06-.06c-.98-.98-.98-2.58,0-3.56l1.69-1.69,4.15-4.15c.98-.98.98-2.58,0-3.56l-.06-.06c-.98-.98-2.58-.98-3.56,0l-12.12,12.12"/>
    <line class="cls-1" x1="9.71" y1="70.07" x2="9.62" y2="70.16"/>
  </g>
</svg>