<?xml version="1.0" encoding="UTF-8"?>
<svg id="Ebene_2" data-name="Ebene 2" xmlns="http://www.w3.org/2000/svg" viewBox="0 0 83 72.51">
  <defs>
    <style>
      .cls-1 {
        fill: none;
        stroke: #f39200;
        stroke-linecap: round;
        stroke-linejoin: round;
        stroke-width: 3px;
      }
    </style>
  </defs>
  <g id="Layer_1" data-name="Layer 1">
    <path class="cls-1" d="M19.22,59.8v2.97c0,4.06,12.69,8.24,28.34,8.24s28.34-4.18,28.34-8.24V11.4"/>
    <path class="cls-1" d="M63.81,15.99c-4.39.61-9.7.98-15.43,1.01"/>
    <path class="cls-1" d="M23.53,45.79c6.32,6.02,15.01,9.77,24.03,9.77,17.62,0,33.94-14.28,33.94-31.9h0v-.51c0-1.57-1.27-2.84-2.84-2.84h-2.76"/>
    <path class="cls-1" d="M11.93,32.17c-2.55-1.85-4.41-4.64-4.92-7.77-.54-3.27.51-6.72,2.68-9.21,1.8-2.07,4.26-3.32,6.62-4.62,2.35-1.3,4.67-2.78,6.09-5.14.39-.65.71-1.34.95-2.06.14-.4.26-.81.35-1.23.02-.08.1-.63.15-.64.04,0,.19.16.22.19.16.15.31.3.46.45,1.24,1.29,2.33,2.73,3.3,4.23,1.48,2.29,2.67,4.79,3.41,7.41.89,3.14,1.11,6.44.53,9.66-.16.89-.38,1.76-.65,2.62-1.11,3.49-3.94,6.27-7.31,7.62-1.31.52-2.67.81-4.03.86"/>
    <path class="cls-1" d="M19.76,34.49s-1.07-.95-3.56-1.74c-2.21-.7-4.18-.72-4.18-.72l-3.46,5.14s2.25.1,5.7,1.2c3.45,1.1,5.35,2.31,5.35,2.31l.14-6.19Z"/>
    <path class="cls-1" d="M19.63,40.68c-.35,22.13-15.7,30.33-15.7,30.33,0,0-7.82-15.55,4.65-33.84"/>
    <path class="cls-1" d="M11.73,24.84c-.56-2.63.26-5.35,2.1-7.27,1.52-1.6,3.64-2.53,5.67-3.51"/>
    <path class="cls-1" d="M6.63,53.1c.63-3.02,1.71-6.27,3.44-9.66"/>
    <path class="cls-1" d="M33.13,6.57c4.23-.5,9.16-.78,14.43-.78,15.65,0,28.34,2.51,28.34,5.61,0,1.13-1.69,2.18-4.6,3.06-.89.27-1.52,1.08-1.52,2.01v16.68c0,1.48-1.2,2.68-2.68,2.68h-.09c-1.48,0-2.68-1.2-2.68-2.68v-5.54c0-1.48-1.2-2.68-2.68-2.68h-.09c-1.48,0-2.68,1.2-2.68,2.68v1.86c0,1.48-1.2,2.68-2.68,2.68h0c-1.48,0-2.68-1.2-2.68-2.68v-3.46c0-1.48-1.2-2.68-2.68-2.68h-.09c-1.48,0-2.68,1.2-2.68,2.68v1.48s0,11.73,0,11.73c0,1.48-1.2,2.68-2.68,2.68h-.09c-1.48,0-2.68-1.2-2.68-2.68v-19.6c0-1.5-1.18-2.74-2.68-2.82-1.24-.07-2.44-.15-3.61-.25"/>
  </g>
</svg>