<?xml version="1.0" encoding="UTF-8"?>
<svg id="Ebene_2" data-name="Ebene 2" xmlns="http://www.w3.org/2000/svg" viewBox="0 0 79.9 83">
  <defs>
    <style>
      .cls-1 {
        fill: none;
        stroke: #f39200;
        stroke-linecap: round;
        stroke-linejoin: round;
        stroke-width: 3px;
      }
    </style>
  </defs>
  <g id="Layer_1" data-name="Layer 1">
    <path class="cls-1" d="M14.84,68.16h50.22c1.46,0,2.65-3.69,2.65-8.24s-1.19-8.24-2.65-8.24H14.84c-1.46,0-2.65,3.69-2.65,8.24s1.19,8.24,2.65,8.24Z"/>
    <path class="cls-1" d="M12.19,59.96h-2.76c-1.26,0-2.27-1.02-2.27-2.27v-6.67c0-1.12.67-2.14,1.7-2.58l28.94-12.39c1.3-.56,2.15-1.84,2.15-3.26v-3.08"/>
    <path class="cls-1" d="M54.36,68.16c3.26-3.99,4.49-11.83,7.77-16.48"/>
    <path class="cls-1" d="M39.95,1.5h0c3.1,0,5.62,2.52,5.62,5.62v20.09c0,1.38-1.12,2.51-2.51,2.51h-6.22c-1.38,0-2.51-1.12-2.51-2.51V7.12c0-3.1,2.52-5.62,5.62-5.62Z"/>
    <path class="cls-1" d="M42.16,68.16c3.26-3.99,4.49-11.83,7.77-16.48"/>
    <path class="cls-1" d="M29.97,68.16c3.26-3.99,4.49-11.83,7.77-16.48"/>
    <path class="cls-1" d="M17.78,68.16c3.26-3.99,4.49-11.83,7.77-16.48"/>
    <line class="cls-1" x1="39.95" y1="7.97" x2="39.95" y2="8.26"/>
    <line class="cls-1" x1="14.84" y1="68.16" x2="1.5" y2="81.5"/>
    <line class="cls-1" x1="65.06" y1="68.16" x2="78.4" y2="81.5"/>
  </g>
</svg>