<?xml version="1.0" encoding="UTF-8"?>
<svg id="Ebene_2" data-name="Ebene 2" xmlns="http://www.w3.org/2000/svg" viewBox="0 0 83 70.04">
  <defs>
    <style>
      .cls-1 {
        fill: none;
        stroke: #f39200;
        stroke-linecap: round;
        stroke-linejoin: round;
        stroke-width: 3px;
      }
    </style>
  </defs>
  <g id="Layer_1" data-name="Layer 1">
    <path class="cls-1" d="M16.94,68.54c2.57,0,6.04-5.65,5.57-10.38-.5-4.94-3.18-7.84-2.58-13.27.63-5.65,5.98-7.68,9.48-8.45,1.73-.38,2.96-1.89,2.96-3.66v-5.99H1.5v5.99c0,1.77,1.24,3.29,2.96,3.66,3.5.76,8.85,2.8,9.48,8.45.6,5.42-2.08,8.33-2.58,13.27-.48,4.73,3,10.38,5.57,10.38h0Z"/>
    <path class="cls-1" d="M32.37,26.79v-13.02c0-.95-.77-1.72-1.72-1.72H3.22c-.95,0-1.72.77-1.72,1.72v13.02"/>
    <line class="cls-1" x1="1.5" y1="30.94" x2="32.37" y2="30.94"/>
    <line class="cls-1" x1="6.97" y1="12.05" x2="6.97" y2="17.19"/>
    <line class="cls-1" x1="11.95" y1="12.05" x2="11.95" y2="20.93"/>
    <line class="cls-1" x1="16.94" y1="12.05" x2="16.94" y2="17.55"/>
    <line class="cls-1" x1="21.92" y1="12.05" x2="21.92" y2="18.9"/>
    <line class="cls-1" x1="26.9" y1="12.05" x2="26.9" y2="15.84"/>
    <line class="cls-1" x1="6.97" y1="21.56" x2="6.97" y2="21.58"/>
    <line class="cls-1" x1="26.9" y1="20.2" x2="26.9" y2="20.22"/>
    <path class="cls-1" d="M37.68,18.07h36.1c1.47,0,2.66-3.71,2.66-8.29s-1.19-8.29-2.66-8.29H23.27c-1.16,0-2.15,2.32-2.51,5.55"/>
    <path class="cls-1" d="M76.44,9.74h2.77c1.26,0,2.29,1.02,2.29,2.29v6.71c0,1.13-.67,2.15-1.71,2.6l-29.1,12.46c-1.31.56-2.16,1.85-2.16,3.28v3.1"/>
    <path class="cls-1" d="M34.04,1.5c-1.19,1.45-2.11,3.41-2.95,5.55"/>
    <path class="cls-1" d="M48.52,68.54h0c-3.12,0-5.65-2.53-5.65-5.65v-20.2c0-1.39,1.13-2.52,2.52-2.52h6.26c1.39,0,2.52,1.13,2.52,2.52v20.2c0,3.12-2.53,5.65-5.65,5.65Z"/>
    <path class="cls-1" d="M46.3,1.5c-3.28,4.02-4.52,11.9-7.81,16.57"/>
    <path class="cls-1" d="M58.56,1.5c-3.28,4.02-4.52,11.9-7.81,16.57"/>
    <path class="cls-1" d="M70.83,1.5c-3.28,4.02-4.52,11.9-7.81,16.57"/>
    <line class="cls-1" x1="16.94" y1="61.12" x2="16.94" y2="61.13"/>
    <line class="cls-1" x1="48.52" y1="61.11" x2="48.52" y2="61.13"/>
  </g>
</svg>