<?xml version="1.0" encoding="UTF-8"?>
<svg id="Ebene_2" data-name="Ebene 2" xmlns="http://www.w3.org/2000/svg" viewBox="0 0 75.66 83">
  <defs>
    <style>
      .cls-1 {
        fill: none;
        stroke: #f39200;
        stroke-linecap: round;
        stroke-linejoin: round;
        stroke-width: 3px;
      }
    </style>
  </defs>
  <g id="Layer_1" data-name="Layer 1">
    <path class="cls-1" d="M64.95,1.5H4.68c-1.75,0-3.18,4.43-3.18,9.89s1.42,9.89,3.18,9.89h60.27c1.75,0,3.18-4.43,3.18-9.89s-1.42-9.89-3.18-9.89Z"/>
    <path class="cls-1" d="M68.13,11.34h3.31c1.51,0,2.73,1.22,2.73,2.73v8c0,1.35-.8,2.57-2.04,3.1l-34.73,14.87c-1.56.67-2.58,2.21-2.58,3.91v3.7"/>
    <path class="cls-1" d="M17.53,1.5c-3.92,4.79-5.39,14.2-9.32,19.78"/>
    <path class="cls-1" d="M34.81,81.5h0c-3.72,0-6.74-3.02-6.74-6.74v-24.11c0-1.66,1.35-3.01,3.01-3.01h7.47c1.66,0,3.01,1.35,3.01,3.01v24.11c0,3.72-3.02,6.74-6.74,6.74Z"/>
    <path class="cls-1" d="M37.18,73.84c0-1.31-1.06-2.37-2.37-2.37s-2.37,1.06-2.37,2.37,1.06,2.37,2.37,2.37,2.37-1.06,2.37-2.37Z"/>
    <path class="cls-1" d="M32.16,1.5c-3.92,4.79-5.39,14.2-9.32,19.78"/>
    <path class="cls-1" d="M46.79,1.5c-3.92,4.79-5.39,14.2-9.32,19.78"/>
    <path class="cls-1" d="M61.43,1.5c-3.92,4.79-5.39,14.2-9.32,19.78"/>
  </g>
</svg>