<?xml version="1.0" encoding="UTF-8"?>
<svg id="Ebene_2" data-name="Ebene 2" xmlns="http://www.w3.org/2000/svg" viewBox="0 0 83 80.01">
  <defs>
    <style>
      .cls-1 {
        fill: none;
        stroke: #f39200;
        stroke-linecap: round;
        stroke-linejoin: round;
        stroke-width: 3px;
      }
    </style>
  </defs>
  <g id="Layer_1" data-name="Layer 1">
    <path class="cls-1" d="M41.5,1.5c-2.78,0-6.53,6.1-6.01,11.22.54,5.33,3.44,9.56,2.78,15.42-.68,6.1-6.46,8.3-10.25,9.13-1.87.41-3.2,2.05-3.2,3.96v6.48h33.36v-6.48c0-1.91-1.34-3.55-3.2-3.96-3.79-.83-9.57-3.02-10.25-9.13-.65-5.86,2.24-10.08,2.78-15.42.52-5.11-3.24-11.22-6.01-11.22h0Z"/>
    <path class="cls-1" d="M24.82,47.7v14.07c0,1.02.83,1.86,1.86,1.86h29.65c1.02,0,1.86-.83,1.86-1.86v-14.07"/>
    <line class="cls-1" x1="58.18" y1="43.21" x2="24.82" y2="43.21"/>
    <line class="cls-1" x1="53.51" y1="63.62" x2="53.51" y2="54.83"/>
    <line class="cls-1" x1="48.7" y1="63.62" x2="48.7" y2="57.02"/>
    <line class="cls-1" x1="43.9" y1="63.62" x2="43.9" y2="51.91"/>
    <line class="cls-1" x1="39.1" y1="63.62" x2="39.1" y2="55.56"/>
    <line class="cls-1" x1="34.3" y1="63.62" x2="34.3" y2="54.1"/>
    <line class="cls-1" x1="29.49" y1="63.62" x2="29.49" y2="58.48"/>
    <line class="cls-1" x1="48.7" y1="53.39" x2="48.7" y2="53.37"/>
    <line class="cls-1" x1="29.49" y1="54.85" x2="29.49" y2="54.83"/>
    <path class="cls-1" d="M22.7,68.04c-3.43,3.73-9.98,8.79-21.2,10.47"/>
    <path class="cls-1" d="M60.25,67.99c3.42,3.74,9.98,8.83,21.25,10.52"/>
    <path class="cls-1" d="M32.12,69.41c-1.09,2.3-2.7,4.92-5.04,7.57"/>
    <path class="cls-1" d="M50.88,69.41c1.09,2.3,2.7,4.92,5.04,7.57"/>
    <line class="cls-1" x1="41.5" y1="10.92" x2="41.5" y2="10.62"/>
  </g>
</svg>