<?xml version="1.0" encoding="UTF-8"?>
<svg id="Ebene_2" data-name="Ebene 2" xmlns="http://www.w3.org/2000/svg" viewBox="0 0 794.49 272.78">
  <defs>
    <style>
      .cls-1, .cls-2, .cls-3, .cls-4, .cls-5, .cls-6 {
        stroke-width: 0px;
      }

      .cls-1, .cls-4 {
        fill: #8ab5e1;
      }

      .cls-2, .cls-3 {
        fill: #0075bf;
      }

      .cls-2, .cls-4, .cls-6 {
        fill-rule: evenodd;
      }

      .cls-5, .cls-6 {
        fill: #f39200;
      }
    </style>
  </defs>
  <g id="Ebene_1-2" data-name="Ebene 1">
    <path class="cls-3" d="M465.22,199.71v-41.4h-7.07v41c0,5.87-2.25,8.92-7.07,8.92-1.37,0-2.73-.48-3.94-.8v6.99c1.85.24,4.02.56,5.87.56,8.44,0,12.22-6.35,12.22-15.28h0Z"/>
    <path class="cls-3" d="M483.09,210.32c0-2.57-2.09-4.66-4.66-4.66s-4.66,2.09-4.66,4.66,2.09,4.66,4.66,4.66,4.66-2.09,4.66-4.66h0Z"/>
    <polygon class="cls-3" points="538.64 214.42 538.64 205.66 520.15 205.66 520.15 158.3 509.05 158.3 509.05 214.42 538.64 214.42 538.64 214.42"/>
    <path class="cls-2" d="M578.82,214.42c-.24-2.01-.4-4.9-.4-7.8v-19.7c0-6.35-2.01-14.71-16.08-14.71-5.47,0-10.21,1.29-13.59,3.05l.56,8.36c2.73-2.25,7-4.1,11.34-4.1,6.35,0,8.12,3.54,8.12,7.4v1.61h-3.86c-14.31,0-20.42,5.39-20.42,14.07,0,7.96,5.15,12.62,12.3,12.62,5.55,0,8.92-2.57,11.98-6.43h.08c0,.97.4,4.66.48,5.63h9.49ZM568.77,197.46c0,4.82-2.25,10.53-8.52,10.53-3.78,0-5.95-2.09-5.95-6.11,0-4.82,4.02-7.72,11.25-7.72.88,0,2.73,0,3.22.08v3.22h0Z"/>
    <path class="cls-3" d="M622.54,214.42v-28.94c0-9.08-5.23-13.26-12.38-13.26-6.43,0-9.57,3.86-11.09,7.31h-.16c0-1.21-.16-5.71-.24-6.59h-10.13c.16,2.41.4,5.63.4,8.68v32.8h10.69v-23.8c0-5.87,2.49-9.65,6.91-9.65,3.54,0,5.39,2.41,5.39,7.64v25.81h10.61Z"/>
    <path class="cls-2" d="M668.02,172.94h-10.05c-.16,1.13-.4,5.39-.4,6.43h-.16c-2.01-4.02-5.55-7.15-10.69-7.15-9.57,0-15.28,8.36-15.28,20.74,0,13.67,5.07,21.71,15.03,21.71,4.74,0,8.68-2.57,10.93-7.56h.16v4.74c0,7.48-3.05,12.3-11.42,12.3-4.98,0-9.33-2.01-12.14-3.7l-.4,9.17c2.57,1.04,9,2.65,13.91,2.65,12.7,0,20.1-6.59,20.1-19.62v-31.03c0-3.3.24-6.19.4-8.68h0ZM657.01,193.52c0,8.52-1.77,13.51-7.32,13.51s-7.31-5.07-7.31-13.75c0-8.2,2.01-13.1,7.15-13.1s7.48,4.74,7.48,13.35h0Z"/>
    <path class="cls-2" d="M711.01,196.73v-3.86c0-11.74-5.71-20.66-16.88-20.66s-17.61,9.24-17.61,21.38,5.23,21.71,19.13,21.63c4.98,0,9.73-1.12,13.1-2.41l-.32-8.12c-2.98,1.61-7.16,3.3-10.85,3.3-6.43,0-10.61-3.21-10.77-11.25h24.2ZM701.04,190.3h-14.39c.08-7.64,3.21-11.09,7.4-11.09,4.74,0,6.99,3.3,6.99,10.37v.72h0Z"/>
    <polygon class="cls-1" points="374.89 257.13 374.89 237.98 369.38 237.98 365.54 251.59 365.48 251.59 361.8 237.98 356.12 237.98 356.12 257.13 359.53 257.13 359.53 241.6 359.58 241.6 364.14 257.13 366.61 257.13 371.38 241.6 371.43 241.6 371.43 257.13 374.89 257.13 374.89 257.13"/>
    <path class="cls-4" d="M401.14,257.13l-6.17-19.15h-4.17l-6.39,19.15h3.7l1.37-4.53h6.48l1.26,4.53h3.92ZM395.16,249.72h-4.91l2.55-8.53h.06l2.3,8.53h0Z"/>
    <polygon class="cls-1" points="420.53 257.13 420.53 254.14 414.22 254.14 414.22 237.98 410.43 237.98 410.43 257.13 420.53 257.13 420.53 257.13"/>
    <polygon class="cls-1" points="440.94 257.13 440.94 254.2 433.97 254.2 433.97 248.74 440.26 248.74 440.26 245.8 433.97 245.8 433.97 240.89 440.58 240.89 440.58 237.95 430.24 237.95 430.24 257.13 440.94 257.13 440.94 257.13"/>
    <path class="cls-4" d="M464.17,257.13l-2.22-6.83c-.6-1.87-1.21-2.42-2.33-2.69v-.08c2.25-.49,3.73-2.06,3.73-4.47,0-2.66-1.34-5.08-5.76-5.08h-6.28v19.15h3.79v-8.07h.69c1.32,0,2.09.41,2.61,2.11l1.81,5.95h3.98ZM459.51,243.52c0,1.46-.99,2.69-2.83,2.69h-1.7v-5.41h1.67c1.81,0,2.85.99,2.85,2.72h0Z"/>
    <path class="cls-4" d="M486.25,251.81c0-2.63-1.51-4.25-3.73-4.61v-.05c1.92-.52,3.38-1.89,3.38-4.47,0-2.85-1.81-4.69-5.68-4.69h-6.06v19.15h5.98c3.92,0,6.12-2.09,6.12-5.32h0ZM482.21,243.25c0,1.84-1.18,2.69-3.16,2.69h-1.23v-5.24h1.59c1.87,0,2.8,1.02,2.8,2.55h0ZM482.57,251.54c0,1.65-.99,2.83-3.02,2.83h-1.73v-5.68h1.98c1.84,0,2.77,1.18,2.77,2.85h0Z"/>
    <polygon class="cls-1" points="507.46 257.13 507.46 254.2 500.49 254.2 500.49 248.74 506.77 248.74 506.77 245.8 500.49 245.8 500.49 240.89 507.1 240.89 507.1 237.95 496.75 237.95 496.75 257.13 507.46 257.13 507.46 257.13"/>
    <polygon class="cls-1" points="528.71 240.97 528.71 237.98 516.39 237.98 516.39 240.97 520.64 240.97 520.64 257.13 524.46 257.13 524.46 240.97 528.71 240.97 528.71 240.97"/>
    <path class="cls-4" d="M551.29,257.13l-2.22-6.83c-.6-1.87-1.21-2.42-2.33-2.69v-.08c2.25-.49,3.73-2.06,3.73-4.47,0-2.66-1.34-5.08-5.76-5.08h-6.28v19.15h3.79v-8.07h.69c1.32,0,2.09.41,2.61,2.11l1.81,5.95h3.98ZM546.62,243.52c0,1.46-.99,2.69-2.83,2.69h-1.7v-5.41h1.67c1.81,0,2.85.99,2.85,2.72h0Z"/>
    <polygon class="cls-1" points="565.05 257.13 565.05 237.98 561.26 237.98 561.26 257.13 565.05 257.13 565.05 257.13"/>
    <polygon class="cls-1" points="586.92 257.13 586.92 254.2 579.95 254.2 579.95 248.74 586.23 248.74 586.23 245.8 579.95 245.8 579.95 240.89 586.56 240.89 586.56 237.95 576.21 237.95 576.21 257.13 586.92 257.13 586.92 257.13"/>
    <path class="cls-4" d="M609.38,251.81c0-2.63-1.51-4.25-3.73-4.61v-.05c1.92-.52,3.37-1.89,3.37-4.47,0-2.85-1.81-4.69-5.68-4.69h-6.06v19.15h5.98c3.92,0,6.12-2.09,6.12-5.32h0ZM605.34,243.25c0,1.84-1.18,2.69-3.16,2.69h-1.24v-5.24h1.59c1.87,0,2.8,1.02,2.8,2.55h0ZM605.7,251.54c0,1.65-.99,2.83-3.02,2.83h-1.73v-5.68h1.98c1.84,0,2.77,1.18,2.77,2.85h0Z"/>
    <path class="cls-5" d="M789.46,117.7l-.84-2.15-.2,4.9-.25,5.32c-.39-1.64-.71-6.13-.71-6.13l-.57,5.54-.34-2.86-.35-2.12-.25-.25-.41,7.18-.33-2.21-.1.34-.59-2.46-.98,3.4-.22-3.48-.6,2.12c-.18-2.65-.47-8.2-.47-8.2-.84,4.39-.68,6.42-.68,6.42.06-1.18-.24-3.28-.6-4.41l-.69,6.11-.29-8.27-.94,5.74c-.3-2.17-1.01-6.37-1.08-8.54.15.31-.46,7.64-.44,10.86-.27-2.41-.21-3.89-.7-6.28l-.68,4.65-.39-5.54c.07.9-.38,3.29-.97,3.31-.82,2.03-.58,4.3-.56,6.44l-.25-1.77-.43.51-.46-13.27-.63,13.25-.68-2.66-.16-.2-.1.84-.31-4.85c-.74,1.06-.59,7.13-.88,8.3-.13-1.78-.15-3.57-.49-5.32-.63,1.26-.8,2.75-.69,4.14l-.49-2.96-.2.28-.39-1.61-.44-2.12c.14,1.37-.15,3.1-.15,3.1l-.21,2.83-1.23-12.28-.62,10.41-.41,1.75-.49-3.2c-.28,1.85-.27,3.73-.21,5.59-.08-1.87-.38-3.73-.58-5.59l-.13-4.88c-.12,1.94-.86,6.4-.86,6.4l-.08,1.69c-.5-1.96.15-3.96-.26-5.93l-.27,2.44-.17-1.02-.33-5.02-.27,4.19-.25.34c.08,1.88.44,3.79.1,5.66l-.33-1.89-.64,3.23c0-1.29-.06-2.17-.06-2.17l-.16-2.12-.33,3.2c-.21-1.65-.04-3.32-.25-4.97l-.2.48.1-4.47-.49-.49c.12,1.87,0,3.76-.35,5.6l-.51-2.39c-.12,1.55-.64,5.19-.53,6.75l-.43-3.44-.3.33-.15-6.51c.18,2.21-.36,2.78-.34,4.99-.57-2.47-.37-5.03-.22-7.54l-.08-1.08s-1.38.18-.74,2.02c-.4.56-.49,2.81-.49,2.81l-.51,7.99-.65-8.59c-.2-1.4.49-1.12.19-4.62,0,0-.33.65-.44-1.4-.14-.67-.59-.59-.59-.59-.42,3.96.07,8.49.03,12.46-1.64-2.4-.87-11.29-.81-15.21l-.77,4.45c0,.42.23,6.81-.43,7.84-.12-3.32-1.08-8.15-1.08-8.15.25-2.11,1.52-13.33-.32-16.47l-.19,1.85c.31-25.94-8.52-52.75-39.85-52.74L.12,45.44,0,0h709.33c48.02,0,91.44,46.56,84.4,94.64-.42,2.88.89,8.49.71,11.42l-.79-3.41c-.46,4.06-.34,2.98-.34,7.05-.93,1.28.08,4.58.08,4.58l-.13.97c.18,2.75-.89,3.35-.89,3.35,0,0-.31-9.49-.8-9.54-.31-.03-.46,9.49-.46,9.49l-.57,6.77c-.16-1.6-1.31-4.22-1.1-7.62h0ZM787.06,114.39c-.1.16-.22.18-.08.27.14.1.62,3.22.62,3.22l.15-3.2-.18-2.4c0,.08-.43,1.96-.43,1.96l-.08.14h0Z"/>
    <path class="cls-3" d="M772.2,269.94c-1.33-2.04-.4,1.14-3.1-.33,0,0,.31,1.89,1.74,1.87.89-.01,1.66-1.09,1.36-1.54h0ZM769.22,259.92c0,.85.69,1.54,1.54,1.54s1.54-.69,1.54-1.54-.69-1.54-1.54-1.54-1.54.69-1.54,1.54h0ZM789.37,193.3h-36.77c-.05.72-.29,2.77,2.04,3.64,2.57.8,5.35,1.08,7.42,2.59,12.4,8.91,5.09,17.89,4.2,29.99-.78,10.62-1.56,20.08-.29,29.31.47,3.43.72,6.86,3.14,9.51.81,1.01,1.64.16,1.71-.82v-3.78c-.39-1.07-1.18-.7-1.86-1.58-.37,1.23,1.11,2.88.35,3.95-1.61-1.11.24-3.77-1.68-5.25-1.26-.97-.63-3.56.08-4.73,0,0,.28,2,.81,1.69.48-.28.92-1.16,2.3-1.15,1.77.02,3.42,1.28,3,4.2-.15,1.08.68.53,1.02.18,1.15-1.16,1.42-2.56.7-4.25-.54-1.26-1.5-1.92-2.82-2.24-.59-.26-2.99-1.02-1.9-2.66-.73-13.62-.51-21.04,0-33.99.23-5.75.95-16.59-2.59-19.19-4.26-3.14-6.27-1.26-13.72-4.9h33.11c-.07.59-.13,1.11-.92,1.68-1.62,1.15-3.83,1.05-5.93,2.31-4.24,2.54-5.86,6.34-5.99,11.62.53-4.82,3.04-8.25,6.53-10.42,2.21-1.37,4.68-1.66,6.4-2.68,1.43-.85,1.67-2.09,1.66-3.04h0ZM772.69,271.75c-.3.47-.78,1.04-1.87,1.02-1.14-.02-1.62-.59-1.91-1.09-7.66-13.19-7.77-32.33-5.43-48,.85-5.66,3.37-9.88,2.15-15.91-.87-3.96-4.63-8.26-8.81-9.25-6.47-1.53-6.01-4.04-6.02-5.22h40.14c-.04,1.19-.04,4.05-5.86,5.22-4.38.89-7.88,5.32-8.88,9.25-1.56,6.29,1.21,9.93,2.03,15.86,2.15,15.64,2.57,35.2-5.55,48.12h0Z"/>
    <path class="cls-3" d="M768.86,250.85c-.2.46-.95.62-1.11.98-.57-.46-.34-6.07-.38-6.98-.37-7.99,1.63-22.27,1.63-22.27-.53,12.4-.28,20.75-.14,28.26h0Z"/>
    <path class="cls-1" d="M787.97,175.52c-.05-.15-.32-.08-.42-.08l.1.59c.1-.05.17-.06.26-.02l.05-.49h0ZM790.41,182.82c-.39-.54-.64-.49-1.09-.89l.25,10.44c.2-.05.64.1.69-.15.2-3.1.15-6.21.15-9.41h0ZM788.15,192.38v-10.2l-.25-.25-.1,10.44h.34ZM755.39,182.18h-.49l-.1,10.2.25.2c.2,0,.44.1.59-.1.1-3.05.1-6.85-.25-10.29h0ZM752.78,182.68c-.05-.34-.45-.6-.74-.55-.91.68-.59,6.05-.52,8.55.02.55-.02,2.39,1.02,1.9l.25-9.9h0ZM755.49,179.38c.15-.44-.15-.69-.59-.59-.29,0-.2.34-.2.59h.79ZM752.53,179.38c.15-.39-.2-.49-.44-.49,0,.3.1.59.44.49h0ZM755.39,176.17c.15-.44-.2-.69-.59-.59-.2.1-.25.2-.25.44.2.25.54.1.84.15h0ZM752.53,175.83c-.05-.25-.3-.1-.44-.15v.59c.15-.25.64.05.44-.44h0ZM790.51,173.56l-8.18-.1-31.18.34v.25c.89,1.18,1.91-.67,3.09-.03.2.3.8-.21.8.23,1.77-.39,3.94-.25,5.76-.1h29.21c.25-.15.64-.2.49-.59h0ZM786.72,175.93v-.49l-6.16-.1-23.89.34v.34c4.63.2,9.46.2,14.09,0l1.43.25v.34c-6.16.39-14.09.3-20.44.49v.34c.44.34.84,0,1.24-.25.75-.1,1.52-.25,2.06.25.49-.1,1.23.29,1.53-.34l4.48.1h28.72v-.35c-4.48-.15-9.21-.15-13.69,0l-1.28-.25.2-.44,11.72-.25h0ZM779.53,178.64c-7.29.1-15.32-.2-22.71.25v.35c4.83.2,10.44.2,14.63,0,.25.2.84.05.59.59-5.96.49-13.05.05-19.7.34-.39.05-.54.39-.59.74.39-.2.84-.15,1.18-.49.69.15,1.63-.29,2.12.34.54-.1,1.28.3,1.63-.34h4.97l.25.25,25.91-.1c.39-.2.94-.59,1.38-.25v-.25c-4.78-.25-9.31,0-14.53-.25l-.1-.34c1.48-.44,3.3-.15,4.97-.25v-.59h0ZM786.82,181.94c-10.44-.1-19.44-.05-29.73,0-.1,3.35-.16,6.92-.06,10.37,9.36-.1,20.38.37,30.04-.08-.05-3.4.2-7.29-.25-10.29h0ZM786.62,178.54h-6.31l-.2.59c2.17.15,4.78.25,6.7-.15.1-.2-.1-.29-.2-.44h0ZM787.56,178.4l.12.75h.41c.27-.13.16-.72.11-.76-.03-.03-.46-.17-.64,0h0ZM750.62,193.3s.09-7.13-.2-11.71c.39-.54.2-1.33.59-1.87.34-1.33-1.13-2.36-.1-3.55.3-1.33-1.05-2.21-.07-3.34h39.78c.89.64.28,2.25.33,3.19.39,1.67-.69,2.86,0,4.53.39.54.35,1.13.15,1.77-.18,3.75.21,7.48-.06,10.97h-40.43Z"/>
    <path class="cls-1" d="M781.12,191.2l-.12.25-.25-8.6s.35.51.57.9c.46.83-.2,7.45-.2,7.45h0Z"/>
    <path class="cls-1" d="M771.69,190.21c.19.93-1.01.9-1.28.74,0,0-.58-.44.21-.3.6.11.71-.95.04-1.03.49-.15.91-.04,1.03.59h0Z"/>
    <path class="cls-1" d="M758.76,190.21c.04.95-.88.89-1.15.74,0,0-.58-.44.21-.3.6.11.71-.95.04-1.03.49-.15.88.07.9.59h0Z"/>
    <path class="cls-1" d="M786.7,190.21c.05.95-1.01.9-1.28.74,0,0-.47-.41.31-.27.6.11.61-.98-.07-1.05.49-.15,1.01.07,1.03.59h0Z"/>
    <path class="cls-6" d="M790.68,154.23v4.85c.09-1.06.79-2.56.79-2.56,0,0,.44-1.85-.79-2.29h0ZM778.55,153.83c.48-.28-.05-2.09-.05-2.51l-.19,1.18c0,.49-.24,1.55.24,1.33h0ZM782.8,162.37c-.08-1.99-.33-10.18-.47-12.11v5.24s-.24,1.18-.24,1.18c-.15-.94-.14-3.17-.38-3.03-.44-1.03-.05-2.36-.34-3.45.02,14.65.01,22.2-.03,22.64h-.54l.08-.77s-.2-2.36-.2-2.27c-.1.1-.22-8.53-.33-8.09-.11.6-.71,2.09-.48,2.65.05.34-.5,3.4-.5,3.4-.25-10.12.03-10.96-.84-11.53-.27,0-.89,1.49-1.04,3.33-.14-1.71-1.12-4.77-1.34-5.13l-.2.39c.57,5.79.24,11.98.58,18.01h-4.51s.04-8.11.04-8.11c.05.29.54,4.12.54,4.12,0-.1.11-1.92.35-5.07.25.59,1.09,9.56,1.2,6.73-.04-4.67.73-7.41.71-9.05-.69-.54-.92-2.61-1.17-3.7l-.34,4.73s-.64-6.8-.49-6.99c-.79.54-.84,5.81-1.18,6.99-.2-.64-.71-10.6-.9-12.12-.05.25-.07,16.01-.26,22.47h-.75c0-5.16.14-4.73-.05-9.95,0,0-.5-4.03-.96-.43-.05.69-.56,3.67-.46,4.41-.46-4.32.11-9.43-.24-12.43-.41,2.08-.37,6.01-.37,6.01-.14-.34-.48-.38-.22-1.28.05.2.21-.55-.11-.9,0-.14-.23-2.01-.23-2.25-.1-.54.2-1.53-.25-2.02l-.15,5.32c-.15-1.04,0-2.02-.2-3.2-.68.7-1.03,5.55-1.04,5.34,0,0-.69-4.74-1.04-5.19,0,0-.63,6.23-.63,5.73-.05-1.23-.15-7.17-.4-8.6-.79,2.02-.62,10.95-.77,13.41-.49-2.12-.81-9.44-1.11-11.31-.44,1.23-.52,11.61-.52,11.61-.1-1.48-.19-2.18-.53-3.56l-.13,1.37c-.94,1.23-.8,3.98-1.24,5.46-.05-2.41-.34-11.2-.53-13.71-.34,2.18-.97,6.93-1.02,9.2-.1-2.06-.55-10.71-.76-12.61-.34,2.96.05,11.26-.24,14.31-.05-.39-.35-13.33-.59-15-.49,2.61-1.21,10.15-1.41,12.66l-.15-5.58c.05-.25.48-1.02.03-1.27-.05-1.48.1-3-.15-4.38l-.34,4.24c-.3-.89-.65-4.62-.69-5.42-.25.25-.82,10.11-.82,10.11,0,0-.37-13.5-.71-14.74,0,0,.05.49-.39-.1,0,0-.74,4.68-.44,5.42.09-.3.33,1.28.1,2.27l-.62,8.17c-.3-5.07-.61-9.1-.56-14.23l-.25-.2c-.29-5.07.39-9.95.49-15.37.25.05.54.44.69,0h2.02c0,.1,0,.25.15.35l.35-.35h8.96c0,.1,0,.25.15.35,0-.44.49-.35.79-.35.05.15-.1.35.15.44l.44-.44h5.22c0,.1-.05.25.1.35.84-.69,1.77-.15,2.76-.49,1.04.2,2.02.15,3.05.25-.05.1.05.15.1.25.1-.74.69-.05.98-.25l.2.25c.44-.64,1.58-.35,2.27-.25,0,.15-.05.3.1.34l.39-.34c-.05.15.15.25.2.34.15-.05.15-.2.15-.34.79.1,1.87-.2,2.36.25.54-.49,1.97-.05,2.81-.35l.74-.15.94.25c1.63-.3,3.7.1,5.07-.35.44.05.05,1.58.74.69l.79-.1c.32.6-.13,1.42.38,1.92-.37,1.08-.28,2.48-.13,3.64.16-.28.17-.59.33-1.41.1,4.48.56,6.44.02,10.63,0,0-.89,8.08-.94,11.23-.05.2-.34.3-.25.59,0,0-.25,7-1.38,9.56l.1.84c-.31.39-.22.91-.24,1.36h-.5s-.7-5.03-.65-6.46c0-.39.42-6.13-.26-6.53.1.49-.53,2.74-.71,3.11l-1.18-15.22c-.25,4.78-.69,19.51-.59,19.36l.34-.34c.35,1.63.32,4.08.34,3.89,0,0-.38,1.88-.2,2.02,0,0,.16.13.16.18h-1.16c.16-1.27-.19-4.08-.2-4.3-.27,2.02-.12,4.3-.12,4.3h-1.59s.75-4.66.06-5.01c-.79-.34-.79-4.14-.34-6.06,1.18-.34-.3-4.98-.25-5.91.05-2.32-.1-9.2-.39-12-.49,2.96-.24,15.5-.53,18.51h0Z"/>
    <path class="cls-5" d="M778.52,170.8l-.37.94c-.42-.66-.22-2.16-.22-2.16.5-1.09.11-2.73-.17-3.9,1.27.44.76,3.73.76,5.11h0Z"/>
    <path class="cls-5" d="M767.05,172.84c-.04-.09-.1-.18-.1-.28.49-.2-.51-.67-.36-1.07l.37-11.2c0,.33.21,2.26.41,2.21l.17,10.33h-.49Z"/>
    <path class="cls-5" d="M777.71,164.77c-.1.05-.15-.05-.25-.1-.1,0-.05-.89-.44-1.33.3-.69.37-1.38.57-2.83l.12,4.26h0Z"/>
    <path class="cls-6" d="M750.84,172.84l-.37-6.28c.17,1.57.26,1.77.44,3.31.13-1.28.37-1.64.37-3.03.19,1.83.72,3.25.22,6,.57,0-.66,0-.66,0h0Z"/>
    <path class="cls-5" d="M753.69,171.59l-.17-8.58c.37,3.67.88,3.49.69,5.73-.09,1.13-.52,2.85-.52,2.85h0Z"/>
    <path class="cls-5" d="M762.62,169c.77-.42-.33-.81.27-1.64.1,1.03,1.75,3.69-.07,4.45.06-.4.32-2.47-.2-2.81h0Z"/>
  </g>
</svg>