<?xml version="1.0" encoding="UTF-8"?>
<svg id="Ebene_2" xmlns="http://www.w3.org/2000/svg" viewBox="0 0 83 245.13">
  <defs>
    <style>
      .cls-1 {
        fill: #f39200;
      }

      .cls-2 {
        stroke: #dda458;
        stroke-miterlimit: 10;
        stroke-width: 5px;
      }

      .cls-2, .cls-3 {
        fill: none;
        stroke-linecap: round;
      }

      .cls-3 {
        stroke: #f39200;
        stroke-linejoin: round;
        stroke-width: 3px;
      }
    </style>
  </defs>
  <g id="Layer_1">
    <path class="cls-3" d="M8.1,174.37v59.55c0,4.78,14.95,9.71,33.4,9.71s33.4-4.92,33.4-9.71v-59.55"/>
    <path class="cls-3" d="M53.49,180.54c-3.72.28-7.76.44-11.99.44-2.17,0-4.29-.04-6.35-.12"/>
    <path class="cls-3" d="M62.82,203.13c0,2-1.62,3.63-3.63,3.63h-.12c-2,0-3.63-1.62-3.63-3.63v-7.49c0-2-1.62-3.63-3.63-3.63h-.12c-2,0-3.63,1.62-3.63,3.63v2.51c0,2-1.62,3.63-3.63,3.63h0c-2,0-3.63-1.62-3.63-3.63v-4.67c0-2-1.62-3.63-3.63-3.63h-.12c-2,0-3.63,1.62-3.63,3.63v2s0,15.85,0,15.85c0,2-1.62,3.63-3.63,3.63h-.12c-2,0-3.63-1.62-3.63-3.63v-27.7c0-1.9-1.4-3.52-3.29-3.78-8.85-1.19-14.67-3.2-14.67-5.47,0-3.65,14.95-6.61,33.4-6.61s33.4,2.96,33.4,6.61c0,1.82-3.72,3.47-9.73,4.66-1.36.27-2.35,1.45-2.35,2.84v21.25Z"/>
    <path class="cls-3" d="M8.1,227.92c0,4.78,14.95,10.15,33.4,10.15s33.4-5.37,33.4-10.15"/>
    <g>
      <path class="cls-1" d="M28.85,228.88c-.1,0-.19-.03-.24-.07-1.18-.89-1.54-4.59-1.8-4.59-.41,0-3.1,3.31-3.82,4.25-.17.22-.48.29-.82.29-1.99,0-1.51-1.01-2.59-6.1-1.42,2.21-3.05,5.28-3.75,6.58-.07.14-.38.24-.7.24-.34,0-.6-.1-.6-.34.1-.67,4.23-8.89,4.8-9.66.41-.53,1.01-.91,1.46-.91.24,0,.41.12.5.38.34,1.2.46,4.4,1.39,7.21,2.67-2.67,3.99-4.49,5.36-4.49.12,0,.24.02.31.07.36.26,1.85,5.07,1.85,6.2,0,.07-.02.12-.02.14-.07.36-.89.79-1.34.79Z"/>
      <path class="cls-1" d="M35.12,219.16c-.12,1.3,0,5.76,0,5.76,1.1-.24,3.05-.91,4.3-.96h.14c1.3,0,2.5.65,2.52.94v.02c0,.26-.7.77-1.27.77h-.22c-1.01,0-3.41.67-5.28,1.25-.07.24-.05.74.02,1.32.12.91.36,1.92.5,1.95h.02c.31,0,1.73-.77,2.52-.77.6,0,2.21.31,2.26.7.02.02,0,.05,0,.07-.24.75-3.7,1.63-4.18,1.87-.17.07-.41.12-.7.12-.5,0-1.1-.14-1.44-.55-.6-.75-.94-2.09-1.13-3.63-.48-3.82.02-8.89.02-9.1v-.1c-.02-.14-.1-.36-.12-.58-.02-.17-.02-.36.07-.58.12-.26.43-.34.79-.34.26,0,.53.05.74.1,1.56-.74,4.32-1.37,5.45-1.37.12,0,.24,0,.31.03.86.19,1.9.6,1.95,1.08.02,0,.02.03.02.03,0,.48-5.4,1.34-7.33,1.97Z"/>
      <path class="cls-1" d="M53.79,221.01c.02,1.23-.29,3.48-.29,6.61,0,.34-.72.65-1.18.65-.48,0-4.49-4.35-5.84-5.5-.02.31-.02.7-.02,1.1,0,1.15.05,2.55.05,3.6,0,.86.02,1.49-.31,1.49-.36,0-.98-.6-1.18-1.2,0-.1-.07-6.49-.1-7.97,0-.26.34-.41.67-.41.14,0,.26.02.34.07.41.31,4.95,5.12,5.84,5.81.17,0,.24-4.99.46-5.52.07-.17.24-.24.46-.24.41,0,1.08.38,1.08,1.01,0,.14.02.31.02.5Z"/>
      <path class="cls-1" d="M61.41,229.87c-.24.05-.55.07-.91.07-.98,0-2.19-.22-2.69-1.01-.48-.72-.82-1.9-.98-3.24-.29-2.28-.05-5.07.91-7.04.05-.1.14-.12.29-.12.5,0,1.49.65,1.51.89v.02c-.86,2.47-1.01,5.21-.77,7.11.17,1.39.53,2.31.98,2.31,2.69-.05,5.62-5.5,5.64-9.99.02-.38.79-.62,1.37-.62.29,0,.53.07.58.22.05.22.1.46.14.72.46,3.7-2.93,10.09-6.08,10.69ZM62.83,214.62c-.26.43-.91,1.15-1.25,1.15-.05,0-.07,0-.1-.02-.12-.07-.22-.36-.26-.75-.1-.94-.02-2.4.24-2.79.17-.22.48-.31.82-.31s.67.1.82.29c.12.12.19.31.22.53.07.53-.1,1.23-.48,1.9ZM66.65,215.55c-.24.41-.91,1.15-1.25,1.15-.02,0-.07,0-.1-.02-.1-.07-.17-.36-.22-.75-.14-1.22-.07-3.56.22-3.96.17-.24.48-.34.82-.34s.67.12.82.29c.1.12.17.34.19.62.12.84-.07,2.28-.48,3Z"/>
    </g>
    <path class="cls-3" d="M74.9,176.42h3.25c1.85,0,3.34-1.5,3.34-3.34v-.61h0c0-20.77-19.23-37.6-40-37.6-20.77,0-40,16.83-40,37.6h0v.61c0,1.85,1.5,3.34,3.34,3.34h3.25"/>
    <path class="cls-2" d="M30.78,2.5c2.08,14.5-3.64,69.8-.35,95.37s.92,42.68,9.78,42.68,7.36-15.73-7.4-15.84"/>
    <path class="cls-1" d="M43.05,133.42c2.24.14,7.09.75,8.07,1.09s-.57,2.96-.57,2.96c0,0-5.51-1.03-8.38-1.15s.89-2.9.89-2.9Z"/>
  </g>
</svg>