<?xml version="1.0" encoding="UTF-8"?>
<svg id="Ebene_2" data-name="Ebene 2" xmlns="http://www.w3.org/2000/svg" viewBox="0 0 2373.65 1492.74">
  <defs>
    <style>
      .cls-1 {
        fill: #f39200;
        stroke-width: 0px;
      }

      .cls-1, .cls-2 {
        fill-rule: evenodd;
      }

      .cls-2 {
        fill: none;
        stroke: #232323;
        stroke-linecap: round;
        stroke-linejoin: round;
        stroke-width: 8.4px;
      }
    </style>
  </defs>
  <g id="Layer_1" data-name="Layer 1">
    <path class="cls-1" d="M315.33,149.21c35.6,117.2,115.6,327.6,183.2,475.2,67.6,147.6,122.8,232.4,135.6,202,12.8-30.4-16.8-176-27.2-249.2-10.4-73.2-1.6-74,30.4-27.6,32,46.4,87.2,140,120.36,183.7,33.16,43.7,44.28,37.49,45.83,18.88,1.55-18.62-6.47-49.65-8.32-78.8s2.46-56.41,3.56-83.37c.66-16.05.18-32,.1-46.03-6.2-8.52-11.32-19.22-12.95-28.04-2.17-11.73,1.83-20.13,3.3-30.2,1.48-10.07.43-21.83-9.97-47.76-10.4-25.94-30.16-66.06-41.99-85.8-11.83-19.74-15.75-19.09-26.35-17.76-10.6,1.34-27.88,3.37-37.52-7.02-9.64-10.39-11.64-33.19-10.44-47.79,1.2-14.6,5.6-21,24.2-28.4,18.6-7.4,51.4-15.8,71.4-14,20,1.8,27.2,13.8,29.6,23.6,2.4,9.8,0,17.4-8.83,22.26-8.83,4.86-24.1,6.98-31.5,10.18-7.4,3.2-6.93,7.48-4.65,14.31,2.28,6.83,6.37,16.22,15.59,38.26,9.22,22.04,23.57,56.74,34.36,83.17,10.8,26.44,18.05,44.61,26.35,57.02,1.59,2.37,3.21,4.53,4.82,6.53,9.82,2.55,21.2,11.66,26.35,29.78,6.23,21.9,3.37,56.95,18.64,68.43,15.27,11.47,48.67-.63,67.27,12.11,18.6,12.75,22.4,50.35,20.63,76.06-1.77,25.71-9.11,39.53,1.79,42.73,10.9,3.2,40.04-4.22,56.41,25.07,16.37,29.29,19.97,95.29,32.97,133.09,13,37.8,35.4,47.4,70.2,83.4,34.8,36,82,98.4,98,67.6,16-30.8.8-154.8-42-281.6-42.8-126.8-113.2-256.4-173.6-384.8-60.4-128.4-110.8-255.6-140-306.4-29.2-50.8-37.2-25.2-36.4,12.4.8,37.6,10.4,87.2-10.4,90.8-20.8,3.6-72-38.8-113.6-75.2-41.6-36.4-73.6-66.8-92.4-32.8-18.8,34-24.4,132.4-26.4,188-2,55.6-.4,68.4-31.2,24-30.8-44.4-94-146-141.6-202.4C361.33,6.41,329.33-4.79,308.93,1.61c-20.4,6.4-29.2,30.4,6.4,147.6Z"/>
    <path class="cls-1" d="M1602.08,1454.86c-9.7-1.9-32.1-3.7-44.6-13-12.5-9.3-15.1-26.1-15.5-41.9-.4-15.8,1.4-30.6,2.6-46.6,1.2-16,1.8-33.2,3.5-45.3,1.7-12.1,4.5-19.1,17.9-23,13.4-3.9,37.4-4.7,52.25-6.46,14.85-1.76,20.54-4.47,14.34-5.37-6.2-.9-24.29.02-42.48-.26-18.18-.28-36.45-1.75-48.12-2.14-11.67-.39-16.75.31-19.33,14.54-2.59,14.23-2.68,42-1.61,65.79,1.07,23.79,3.31,43.59,4.23,59.56s.52,28.09,4.11,36.49c3.59,8.4,11.17,13.08,24.57,14.72,13.4,1.64,32.62.24,43.73-1.46,11.11-1.7,14.11-3.7,4.41-5.6Z"/>
    <path class="cls-1" d="M820.13,799.96c5.7,10.4,17.07,35.6,19.58,56.21,2.51,20.61-3.85,36.64,2.95,55.24,6.8,18.6,26.76,39.77,49.06,56.88,22.3,17.11,46.95,30.17,61.68,36.78,14.73,6.6,19.54,6.75,11.4,5.63-8.15-1.13-29.25-3.54-49.18-6.33-19.93-2.79-38.68-5.97-51.51-14.38-12.83-8.42-19.75-22.07-24.53-36.47-4.78-14.4-7.43-29.54-10.32-46.27-2.89-16.73-6.02-35.06-8.54-53.47-2.52-18.41-4.42-36.92-5.36-48.37-.94-11.45-.92-15.85,4.78-5.45Z"/>
    <path class="cls-1" d="M847.93,1014.67c-4.39,19.06-7.27,54.37-5.23,85.68,2.04,31.31,8.99,58.61,14.32,81.06,5.33,22.45,9.03,40.04,10.43,57.39,1.4,17.35.49,34.45.96,51.99.47,17.54,2.3,35.53,4.39,55.11,2.09,19.58,4.42,40.75,6.26,54.47,1.84,13.72,3.19,19.98,7.47,15.72,4.28-4.26,11.49-19.03,14.74-32.56,3.25-13.53,2.54-25.83-3.48-50.57-6.02-24.74-17.36-61.93-21.36-103.45-4-41.52-.67-87.38.2-117.68.87-30.3-.72-45.06-2.46-59.84-1.74-14.78-3.62-29.59-5.32-39.93-1.7-10.34-3.22-16.21-6.93-17.74-3.71-1.53-9.6,1.28-13.99,20.35Z"/>
    <path class="cls-2" d="M2369.45,1481.27h-45.58c-62.16,0-62.61,0-62.88-.16-.26-.16-.34-.47-38.88-153.36-38.54-152.89-115.53-458.36-154.36-612.19-38.83-153.83-39.48-156.02-39.81-157.12q-.33-1.1-25.47-2.37c-25.14-1.28-75.43-3.84-101.05-5.01-25.62-1.18-26.56-.97-27.03,0-.47.98-.47,2.75,23.22,160.38,23.69,157.63,80.81,511.62,94.91,628.93,14.1,117.31,14.23,122.83,14.39,123.9q.16,1.07,7.26,1.18c7.1.11,32.44.61,35.31.44,2.87-.17-1.35-10.03-15.45-117.6-14.1-107.57-76.81-464.47-102.46-619.59-25.65-155.13-25.75-155.73-25.8-156.18-.05-.45-.05-.75,16.44-1.04,16.49-.29,49.46-.59,65.95-.74q16.49-.15,24.29,30.47c7.8,30.62,23.41,91.86,30.77,122.48,7.36,30.62,6.48,30.62-10.44,30.74-16.92.12-49.86.36-67.09-1.7-17.22-2.06-18.72-6.42-18.28-9.99.44-3.57,2.82-6.35,19.46-6.05,16.64.29,47.52,3.66,62.67,5.93,15.15,2.27,14.56,3.45,21.18,27.59,6.62,24.14,20.46,71.25,25.47,94.36,5.01,23.11,1.18,22.23-16.88,23.6-18.06,1.37-50.34,5-68.16,4.85-17.81-.15-21.15-4.07-21.35-7.65-.2-3.58,2.75-6.82,18.94-8.44,16.19-1.62,45.64-1.62,63.01-1.33,17.37.29,22.67.88,26.06,4.42,3.39,3.53,4.86,10.01,13.1,37.39,8.24,27.38,23.26,75.67,30.18,99.96,6.92,24.29,5.74,24.58-15.81,26.03-21.55,1.44-63.48,4.04-85.11.99-21.63-3.04-22.95-11.73-3.16-15.97,19.79-4.24,60.68-4.04,80.69-2.17s19.12,5.4,26.93,33.37c7.8,27.97,24.29,80.38,30.47,107.61,6.18,27.23,2.06,29.3-20.15,32.29-22.22,2.99-62.52,6.91-83.28,5-20.76-1.91-21.96-9.66-7.26-14.42,14.71-4.76,45.33-6.52,67.41-6.52s35.63,1.77,49.17,29.44c13.54,27.68,27.09,81.26,33.56,110.41,6.48,29.15,5.89,33.86-15.04,38.63-20.93,4.77-62.2,9.61-86.2,10.79-24,1.18-30.72-1.3-30.09-6.47.63-5.17,8.61-13.03,30.1-16.12,21.49-3.09,56.5-1.42,76.36-.58,19.86.84,24.57.84,32.58,23.35,8,22.51,19.3,67.53,24.51,89.74,5.21,22.22,4.32,21.63-69.48,20.32-142.06-2.52-309.45-1.06-449.42-1.99-14.31-.1-6.48-8.1,20.9-153.84,27.38-145.74,79.2-436.64,105.05-582.63,25.85-145.99,22.73-132.33,25.72-132.17,2.99.16,9.1,1.56,11.23,4.6,2.12,3.05,3.25-7.01-18.29,125.47-21.54,132.48-62.76,392.76-84.7,529.08-21.93,136.32-24.58,148.69-25.47,155.02-.88,6.33,0,6.62,4.12,6.18,4.12-.44,11.48-1.62,16.93-11.04,5.45-9.42,8.98-27.09,11.63-42.1,2.65-15.02,4.42-27.38,17.81-35.63,13.4-8.24,38.42-12.37,63.32-13.06,24.89-.69,49.65,2.05,54.51,6.32,4.86,4.27-10.19,10.06-29.34,12.23-19.15,2.16-42.41.69-60.06-1.99-17.65-2.68-29.7-6.56-30.36-34.68-.67-28.12,10.04-80.48,17.12-106.9,7.08-26.42,10.53-26.89,29.6-28.06,19.07-1.17,53.76-3.05,72.29-.34,18.54,2.71,20.92,10.02,2.96,14.29-17.96,4.27-56.26,5.5-78.65,4.94-22.39-.56-28.87-2.92-28.72-30.59.15-27.68,6.92-80.67,19.43-107.91,12.51-27.23,30.77-28.71,49.46-29.3,18.7-.59,37.83-.29,48.29,1.62,10.45,1.91,12.22,5.45,7.95,8.24-4.27,2.8-14.57,4.86-31.11,5.74-16.54.88-39.32.59-52.57-3.97-13.25-4.56-16.97-13.4-15.45-40.63,1.52-27.23,8.3-72.87,14.92-96.42,6.62-23.55,13.1-25.03,24.73-24.73,11.63.29,28.41,2.36,37.39,5.74,8.98,3.39,10.16,8.1,6.77,10.6-3.39,2.5-11.34,2.8-23.41,1.47-12.07-1.32-28.27-4.27-36.66-10.89-8.39-6.62-8.98-16.93-5.59-40.48,3.39-23.55,10.75-60.36,17.37-80.97,6.62-20.61,12.51-25.03,19.43-27.24,6.92-2.21,14.87-2.21,19.73-.88,4.86,1.32,6.62,3.97,11.04,22.08,4.42,18.11,11.48,51.67,19.87,99.52,8.39,47.84,18.11,109.97,22.25,142.09,4.14,32.12,2.72,34.25-2.54,104.77-5.26,70.52-14.34,209.42-18.94,279.72-4.6,70.3-4.71,71.99-4.73,72.8-.02.81.06.74-17.41.63-83.07-.52-166.15-.4-249.22-.4-32.53,0-32.47.07-32.75.26-27.32,18.54-63.23,15.06-85.63,7.27-10.38-3.61-16.71-8.32-20.09-11.34-3.39-3.02-3.83-4.34-4.08-6.13-.25-1.79-.07,1.46-.78-15.29-.72-16.75-2.09-47.99-3.17-73.98-1.08-25.99-1.86-46.73-2.09-57.64-.22-10.91.12-12,5.54-10.96,5.42,1.04,15.92,4.2,30.82,5.96,14.89,1.76,34.18,2.13,50.26,1.58,16.08-.55,28.96-2.02,38.75-4.64,9.79-2.61,16.49-6.37,20-10.17,3.51-3.81,3.83-7.66,2.15-16.44-1.68-8.77-5.36-22.47-13.08-32.87-7.72-10.4-19.48-17.51-25.51-21.21-6.03-3.7-6.32-4-6.38-6.62-.06-2.63.1-7.59-8.31-10.2-8.42-2.61-25.42-2.87-35.22-1.34-9.8,1.52-12.4,4.83-13.62,7.37-1.22,2.54-1.08,4.3-.56,6.29.51,1.99,1.4,4.2,8.54,5.15,7.14.96,20.54.66,28.41.07,7.88-.59,10.23-1.47,11.11-3.17.88-1.69.29-4.2-3.9-5.74-4.2-1.55-12-2.13-21.94-1.32-9.94.81-22.75,1.53-32.76,7.43-28.86,17.04-35.44,34.96-41.37,61.46-2.36,10.53-2.36,14.94-.52,18.84,1.84,3.9,7.02,12.04,21.45,15.2,14.43,3.16,42.1,6.11,67.12,6.5,25.02.39,47.63-2.78,61.2-7.58s14.1-15.98,10.14-21.6c-3.97-5.62-14.18-9.41-29.59-11.83-15.41-2.41-36.02-3.44-59.97-3.22-23.95.22-51.24,1.7-66.45,5.57-24.74,6.29-22.37,32.48-5.06,43.18,37.72,23.3,108.99,11.6,151.68,6.17,5.33-.68,5.03.35,2.16,21.37-2.87,21.01-9.35,73.26-12.13,93.76s-2.89,20.5-4.61,23.13c-1.72,2.63-5.05,7.89-12.9,13.09-7.85,5.21-20.21,10.36-35.62,12.78-15.41,2.42-33.86,2.12-48.8-3.51-14.93-5.63-26.34-16.58-32.12-22.11-5.78-5.53-5.92-5.65-6.32-5.69-.4-.04-1.06-.01-29.1-.01-27.15,0-290.57-1.34-318.84.13-4.89.25-2.06,3.39-5.84,8.52-7.93,10.76-34.15-3.81-46.09-6.79-5.89-1.47-15.41-4.03-17.47-2.04-2.06,1.99-.91,5.27,2.33,8.07,3.24,2.8,10.71,4.4,18.29,5.8,7.58,1.4,16.03-.91,22.13-2.23,6.11-1.32,8.76-4.42,7.95-7.29-.81-2.87-5.08-5.52-9.72-7.51-4.64-1.99-9.64-3.31-15.31-4.86-5.67-1.55-12-3.31-17.81-3.17-5.82.15-11.11,2.21-13.91,1.47-2.8-.74-3.09-4.27-2.36-7.73.74-3.46,2.5-6.85,8.32-8.69,5.81-1.84,15.68-2.13,24.07.37,8.39,2.5,15.31,7.8,19.73,11.26,4.42,3.46,6.33,5.08,6.33,4.05s-1.91-4.71-4.2-9.35-4.93-10.23-5.89-17c-.96-6.77-.22-14.72.74-21.71.96-6.99,2.13-13.03-.44-19.28-2.58-6.26-8.91-12.73-13.4-22.52-4.49-9.79-7.14-22.89-11.85-39.31-4.71-16.41-11.48-36.14-14.35-50.35-2.87-14.21-1.84-22.89-6.48-32.17-4.64-9.27-14.94-19.14-19.06-31.06-4.12-11.92-2.06-25.91-4.12-41.37-2.06-15.46-8.24-32.39-13.84-49.83-5.59-17.44-10.6-35.4-16.19-49.83-5.59-14.43-11.78-25.32-15.75-34.74-3.97-9.42-5.74-17.37-9.57-19.58-3.83-2.21-9.72,1.32-16.78,3.39-7.07,2.06-15.31,2.65-28.71,1.62-13.4-1.03-31.95-3.68-48.87-6.77-16.93-3.09-32.24-6.62-43.87-8.39-11.63-1.77-19.58-1.77-24.14,2.06-4.56,3.83-5.74,11.48-6.04,23.55-.29,12.07.29,28.56,2.8,43.87,2.5,15.31,6.92,29.44,9.42,43.43,2.5,13.99,3.09,27.82,3.53,40.78.44,12.95.74,25.03,2.5,36.21,1.77,11.19,5.01,21.49,7.51,32.24,2.5,10.75,4.27,21.94,4.12,30.91-.15,8.98-2.21,15.75-2.94,27.68-.74,11.92-.15,29,1.77,44.75,1.91,15.75,5.15,30.18,6.92,44.9,1.77,14.72,2.06,29.74,3.53,41.07,1.47,11.34,4.12,18.99,5.74,24.22,1.62,5.23,2.21,8.02,5.15,9.35,2.94,1.32,8.24,1.18,13.98,1.03,5.74-.15,11.92-.29,17.59,1.69,2.95,1.04,21.22,13.9,21.04,15.19-.42,3.1,1.71,25.68-7.43,28.89-7.11,2.49-24.7-9.34-31.06-11.77-5.48-2.1-31.05-17.28-37.65-22.11-3.83-2.8-6.48-6.33-6.62-9.5-.15-3.16,2.21-5.96,5.45-6.85,3.24-.88,7.36.15,9.5,2.8,15.44,19.16,2.24,7.14,29.55,22.18,6.55,3.61,13.91,7.43,17.59,7.73,3.68.29,3.68-2.94,3.68-6.7s0-8.02,4.56-13.18c4.56-5.15,13.69-11.19,17-17.08,3.31-5.89.81-11.63-2.58-20.24-3.39-8.61-7.65-20.09-9.72-32.17-2.06-12.07-1.91-24.73-1.62-37.1.29-12.37.74-24.44-.44-39.38-1.18-14.94-3.97-32.75-5.15-48.43-1.18-15.68-.74-29.22-1.18-40.34-.44-11.11-1.77-19.8-.66-32.39,1.1-12.59,4.64-29.07,6.85-40.7,2.21-11.63,3.09-18.4,6.48-17.67,3.39.74,9.27,8.98,17.81,17.37,8.54,8.39,19.73,16.93,27.97,25.47,8.24,8.54,13.54,17.08,17.22,28.41,3.68,11.34,5.74,25.47,10.16,42.25,4.42,16.78,11.19,36.21,16.34,52.7,5.15,16.49,8.69,30.03,11.92,45.19,3.24,15.16,6.18,31.95,10.89,47.11,4.71,15.16,11.19,28.71,14.28,33.86,3.09,5.15,2.8,1.91,7.65-4.71,4.86-6.62,14.87-16.64,16.34-32.09,1.47-15.46-5.59-36.36-15.16-59.47-9.57-23.11-21.64-48.43-29.44-73.9-7.8-25.47-11.34-51.08-18.55-83.91-7.21-32.83-18.11-72.87-23.18-100.17-5.07-27.3-4.32-41.84-4.17-56.27.15-14.43-.31-28.73-.83-36.92-.52-8.18-1.11-10.24-3.76-18.93-2.65-8.69-7.36-24-9.42-38.72-2.06-14.72-1.47-28.85-.98-36.54.49-7.68.89-8.91,2.95-5.97,2.06,2.94,5.79,10.06,12.95,15.09,7.16,5.03,17.76,7.98,24.24,5.77,6.48-2.21,8.83-9.57,8.39-21.79-.44-12.22-3.68-29.3-5.59-39.97-1.91-10.67-2.5-14.94-3.53-15.68-1.03-.74-2.5,2.06-6.92,5.96-4.42,3.9-11.78,8.91-19.65,11.85-7.88,2.94-16.27,3.83-15.24.96,1.03-2.87,11.48-9.5,19.06-14.35,7.58-4.86,12.29-7.95,14.79-11.85,2.5-3.9,2.8-8.61,1.03-16.27-1.77-7.66-5.59-18.25-8.83-26.2-3.24-7.95-5.89-13.25-11.34-18.55-5.45-5.3-13.69-10.6-24.44-12.59-10.75-1.99-24-.66-31.87-.22-7.88.44-10.38,0-16.27-.96-5.89-.96-15.16-2.43-25.61-5.45-10.45-3.02-22.08-7.58-27.53-9.86-5.45-2.28-4.71-2.28-3.24-3.9,1.47-1.62,3.68-4.86,5.01-8.83,1.32-3.97,1.77-8.69.74-13.91-1.03-5.23-3.53-10.97-6.11-16.71-2.58-5.74-5.23-11.48-6.18-18.4-.96-6.92-.22-15.02,2.43-23.11,2.65-8.1,7.21-16.19,12.29-21.71,5.08-5.52,10.67-8.47,17.81-9.79,7.14-1.33,15.83-1.03,23.85,1.84,8.02,2.87,15.38,8.32,20.61,15.75,5.23,7.43,8.32,16.86,10.38,24.51,2.06,7.65,3.09,13.54,2.5,19.87-.59,6.33-2.8,13.1-5,19.73-2.21,6.62-4.42,13.1-6.55,18.33-2.13,5.23-4.2,9.2-8.61,11.19-4.42,1.99-11.19,1.99-15.46,1.99s-6.04,0-9.79-.59c-3.75-.59-9.5-1.77-15.31-3.36-5.81-1.59-11.7-3.61-19.06-3.9-7.36-.29-16.19,1.13-22.01-.88-5.81-2.01-8.61-7.46-10.45-10.55-1.84-3.09-2.72-3.83-5.74-4.12-3.02-.29-8.17-.15-11.78,1.91-3.61,2.06-5.67,6.04-8.92,8.37-3.25,2.33-7.7,3.01-8.59-.67-.88-3.68,1.8-11.72,8.51-17.14,6.71-5.42,17.46-8.22,22.17-10.87,4.71-2.65,3.39-5.15,1.1-12.22-2.28-7.07-5.52-18.7-6.99-28.71-1.47-10.01-1.18-18.4.65-30.6,1.83-12.2,5.19-28.21,7.34-35.52,2.15-7.3,3.09-5.9,7.06,2.97,3.97,8.87,10.97,25.21,14.5,33.42,3.54,8.21,3.61,8.28,3.03,9.33-.58,1.05-1.82,3.07-3.18,5.02-1.36,1.95-2.85,3.83-3.67,4.6-.83.77-.99.44-1.13.17-.14-.28-.25-.5-4.73-10.32-4.48-9.82-13.34-29.24-16.06-43.52-2.71-14.28.72-23.42,2.5-31.53,1.79-8.1,1.94-15.17.24-20.54-1.69-5.37-5.23-9.05-7.95-8.76-2.72.29-4.64,4.56-6.85,6.7-2.21,2.13-4.71,2.13-7.07-.66-2.36-2.8-4.56-8.39-16.71-38.28-12.15-29.88-34.23-84.06-45.93-113.35-11.7-29.3-13.03-33.71-13.91-36.13-.88-2.42-1.32-2.83-4.12-3.2-2.8-.37-7.95-.69-15-.05-7.05.63-15.99,2.22-21.77,3.03-5.78.82-8.39.87-10.05.96-1.66.09-2.36.22-4.32-3.26-1.97-3.49-5.21-10.59-5.91-14.86-.7-4.27,1.14-5.7,2.85-6.42,1.71-.72,3.29-.72,4.67,1.05,1.38,1.77,2.56,5.3,3.74,7.58,1.18,2.28,2.36,3.31,4.86,3.02,2.5-.29,6.33-1.91,21.05-7.88,14.72-5.96,40.34-16.27,53.66-22.01,13.32-5.74,14.35-6.92,12.9-11.88-1.45-4.96-5.38-13.7-7.65-18.29-2.26-4.59-2.85-5.03-7.91-3.72-5.06,1.32-14.6,4.39-25.37,8.28-10.77,3.89-22.77,8.6-32.3,12.32-9.53,3.72-16.6,6.44-19.17,9.97-2.58,3.53-.66,7.88,1.1,11.67,1.77,3.79,3.39,7.03,4.78,10.49,1.4,3.46,2.58,7.14,4.82,12.81,2.24,5.67,5.56,13.32,8.32,17.37,2.76,4.05,4.97,4.49,11.34,3.64,6.37-.85,16.89-2.98,23.48-3.9,6.59-.92,9.24-.63,12.55,3.35,3.31,3.97,7.29,11.63,18.11,39.01,10.82,27.38,28.49,74.49,37.32,98.04q8.83,23.55,5.08,24.44c-3.75.88-11.26,2.65-15.09,6.62-3.83,3.97-3.97,10.16-2.8,17.67,1.18,7.51,3.68,16.34,5.81,25.03,2.13,8.69,3.9,17.22,3.02,27.82-.88,10.6-4.42,23.26-7.51,35.55-3.09,12.29-5.74,24.22-7.21,39.82-1.47,15.6-1.77,34.89-.88,48.67.88,13.78,2.95,22.06,7.95,32.07,5.01,10.01,12.95,21.75,15.67,36.67,2.72,14.92.22,33.03,2.06,55.19,1.84,22.16,8.02,48.36,11.41,67.94,3.39,19.58,3.97,32.54,4.42,42.4.44,9.86.74,16.64,6.48,24.14,5.74,7.51,16.93,15.75,23.55,27.38,6.62,11.63,8.69,26.65,16.34,98.19,7.65,71.55,20.9,199.62,25.76,265.57,4.86,65.95,1.32,69.78-3.62,71.87-4.95,2.09-11.3,2.44-18.67,3.1-7.36.66-15.72,1.64-23.59,6.61s-15.22,13.96-18.9,18.45q-3.68,4.49-4.45,4.49H4.2"/>
  </g>
</svg>