<?xml version="1.0" encoding="UTF-8"?>
<svg id="Ebene_2" data-name="Ebene 2" xmlns="http://www.w3.org/2000/svg" viewBox="0 0 2069.86 1553.64">
  <defs>
    <style>
      .cls-1 {
        fill: none;
        stroke: #1c1c1c;
        stroke-miterlimit: 22.93;
        stroke-width: 8.4px;
      }

      .cls-2 {
        fill: #f39200;
        fill-rule: evenodd;
        stroke-width: 0px;
      }
    </style>
  </defs>
  <g id="Ebene_1-2" data-name="Ebene 1">
    <path class="cls-2" d="M1331.83,489.98c-16.72-.19-44.72.43-60.97,2.5-16.25,2.07-20.76,5.61-23.25,10.57-2.48,4.97-2.94,11.37,4.32,14.92,7.26,3.55,22.25,4.26,40.49,4.12,18.24-.15,39.74-1.15,52.84-3.5,13.09-2.35,17.78-6.05,18.74-10.68.96-4.63-1.81-10.2-5.92-13.48-4.11-3.28-9.54-4.27-26.26-4.45h0Z"/>
    <path class="cls-2" d="M1216.12,0h853.74v929.85c-19.18,6.32-39.58,8.77-58.78,9.6-46.45,2-85.9-5.5-114.74-31.75-28.84-26.25,12.3-71.25-12.09-106.5-24.39-35.25-54.93-60.75-85.9-68.5-30.97-7.75-2.97,2.25-25.03,0-22.06-2.25-9.33-16.75-25.87-28.25-16.54-11.5-36.9-20-54.93-24.5s-33.72-5-49.84-7.25c-16.12-2.25-32.66-6.25-48.14-15.5-15.48-9.25-29.91-23.75-42.84-38.5-12.94-14.75-24.39-29.75-34.15-41.25-9.76-11.5-17.82-19.5-26.51-26-8.7-6.5-18.03-11.5-26.94-10-8.91,1.5-17.39,9.5-26.3,16.5-8.91,7-18.24,13-27.15,12-8.91-1-17.39-9-23.12-18.75-5.73-9.75-8.7-21.25-12.3-29-3.61-7.75-7.85-11.75-16.19-16.58-8.34-4.83-20.78-10.5-33.02-13.45-12.24-2.95-24.28-3.18-34.63-3.13-10.35.05-19.01.37-25.23.78-6.22.41-9.99.92-15.68,1.21-5.7.29-13.32.36-18.62-8.11-5.3-8.47-8.27-25.47-12.08-42.97-3.82-17.5-8.48-35.5-11.24-78.75-2.76-43.25-3.61-111.75-4.67-150.25-1.06-38.5-2.33-47-1.48-62,.85-15,3.82-36.5,6.15-60.5,2.33-24,4.03-50.5,6.79-80.25.25-2.71.51-5.45.81-8.2h0Z"/>
    <path class="cls-1" d="M1087.42,1475.72c3.37-6.11,6.74-12.22,9.27-27.56,2.53-15.34,4.21-39.91,5.48-68.35,1.26-28.43,2.11-60.73,6.53-94.64,4.42-33.91,12.43-69.43,18.96-99.69,6.53-30.26,11.58-55.25,16.76-74.17,5.18-18.92,10.48-31.77,10.19-49.04-.28-17.27-6.14-38.96-9.07-48.5-2.93-9.53-2.93-6.91-4.33-8.32-1.4-1.4-4.21-6.83-7.78,2.58-3.57,9.41-7.9,33.66-7.48,53.04.42,19.38,5.6,33.88,10.64,52.44,5.04,18.56,9.96,41.16,16.91,74.51,6.95,33.35,15.94,77.44,20.71,115.28,4.77,37.84,5.34,69.43,5.76,96.39.42,26.96.7,49.28,3.09,64.94,2.39,15.66,6.88,24.64,12.43,29.84,5.55,5.2,12.15,6.6,18.96,7.3,6.81.7,13.83.7,18.89-.14,5.05-.84,8.14-2.53,10.53-4.84,2.39-2.32,4.07-5.27,6.46-7.65,2.39-2.39,5.48-4.21,7.3-3.3,1.83.91,2.39,4.56-.77,12.57-3.16,8-10.04,20.36-17.41,27.66-7.37,7.3-15.23,9.55-24.78,10.39-9.55.84-20.78.28-26.89-3.23-6.11-3.51-7.09-9.97-7.44-17.9-.35-7.93-.07-17.34.91-22.82.98-5.48,2.67-7.02,6.46-7.23,3.79-.21,9.69.91,16.99,1.83,7.3.91,16.01,1.62,23.24.84,7.23-.77,12.99-3.02,16.5-7.93,3.51-4.91,4.77-12.5,2.39-61.99-2.39-49.49-8.42-140.9-14.53-215.25-6.11-74.35-12.29-131.64-15.87-165.83-3.58-34.19-4.56-45.28-.91-63.19,3.65-17.9,11.94-42.61,16.43-66.55,4.49-23.94,5.2-47.11,6.39-62.48,1.19-15.38,2.88-22.96,6.95-33,4.07-10.04,10.53-22.54,14.32-32.72,3.79-10.18,4.91-18.04,4.25-25.2-.67-7.16-3.12-13.62-5.27-19.76-2.14-6.14-3.97-11.97-4.56-18.15-.6-6.18.04-12.71,3.23-21.62,3.19-8.92,8.95-20.22,15.06-31.28,6.11-11.06,12.57-21.87,17.2-31.1,4.63-9.23,7.44-16.88,9.72-23.03,2.28-6.14,4.04-10.78,8.21-16.39,4.18-5.62,10.78-12.22,15.06-16.92,4.28-4.7,6.25-7.51,12.01-10.95,5.76-3.44,15.31-7.51,22.47-11.09,7.16-3.58,11.94-6.67,14.53-9.62,2.6-2.95,3.02-5.76,3.09-8.42.07-2.67-.21-5.2-4.46-6.46-4.25-1.26-12.46-1.26-30.26-1.26h-62.1c-16.92,0-23.38,0-27.34-.88-3.97-.88-5.44-2.63-6.18-6.04-.74-3.4-.74-8.46-.14-12.95.6-4.49,1.79-8.43,5.09-11.55,3.3-3.12,8.71-5.44,25.56-6.6,16.85-1.16,45.14-1.16,61.29-.77,16.15.39,20.15,1.16,23.41,3.19,3.26,2.04,5.79,5.34,7.13,9.51,1.33,4.18,1.47,9.23.95,14.5-.53,5.27-1.72,10.74-2.95,14.78-1.23,4.04-2.49,6.63-6.39,9.2-3.9,2.56-10.43,5.09-19.45,8.67-9.02,3.58-20.54,8.21-26.43,13.34-5.9,5.12-6.18,10.74-6.18,15.23s.28,7.86,3.09,8.85c2.81.98,8.14-.42,12.5-1.12,4.35-.7,7.72-.7,11.02,3.3,3.3,4,6.53,12.01,7.72,18.96,1.19,6.95.35,12.85-2.53,17.41-2.88,4.56-7.79,7.79-11.58,11.23-3.79,3.44-6.46,7.09-7.93,13.34s-1.76,15.09-6.95,30.33c-5.2,15.23-15.3,36.86-22.18,49.99-6.88,13.13-10.53,17.76-12.92,18.04-2.39.28-3.51-3.79-6.04-10.39-2.53-6.6-6.46-15.73-9.27-21.27-2.81-5.55-4.49-7.51-8-7.09-3.51.42-8.85,3.23-14.88,7.02-6.04,3.79-12.78,8.57-19.8,12.78-7.02,4.21-14.32,7.86-19.31,11.44-4.98,3.58-7.65,7.09-7.79,13.06s2.25,14.39,5.41,24.99c3.16,10.6,7.09,23.38,9.06,35.88,1.97,12.5,1.97,24.71.14,36.93-1.83,12.22-5.48,24.43-10.46,40.37-4.98,15.94-11.3,35.59-16.36,46.83-5.05,11.23-8.85,14.04-20.43,16.43-11.58,2.39-30.96,4.35-43.25,4.63-12.29.28-17.48-1.12-21.13-11.16-3.65-10.04-5.76-28.71-9.34-53.43-3.58-24.71-8.64-55.46-12.36-73.79s-6.11-24.22-10.04-27.31c-3.93-3.09-9.41-3.37-12.92-.91-3.51,2.46-5.05,7.65-2.67,20.71,2.39,13.06,8.71,33.98,14.25,61.08,5.55,27.1,10.32,60.38,13.13,78,2.81,17.62,3.65,19.59,19.1,20.29,15.45.7,45.49.14,63.61-.91,18.11-1.05,24.29-2.6,30.12-7.44,5.83-4.84,11.3-12.99,18.18-29.7,6.88-16.71,15.16-41.98,18.81-65.08,3.65-23.1,2.67-44.02.7-59.74-1.97-15.73-4.91-26.26-8.57-34.82-3.65-8.56-8-15.16-13.9-18.39-5.9-3.23-13.34-3.09-21.41-.91-8.07,2.18-16.78,6.39-24.22,8.99-7.44,2.6-13.62,3.58-20.64,4.07-7.02.49-14.88.49-20.36-2.81-5.48-3.3-8.56-9.9-11.37-18.25-2.81-8.35-5.34-18.46-7.09-28.01-1.76-9.55-2.74-18.53-2.39-29.21.35-10.67,2.04-23.03,5.27-32.08,3.23-9.06,8-14.81,14.53-17.06,6.53-2.25,14.81-.98,21.55-.35,6.74.63,11.94.63,16.5,2.74,4.56,2.11,8.5,6.32,10.88,11.58,2.39,5.27,3.23,11.58,3.02,16.57-.21,4.98-1.47,8.64-7.02,17.48-5.55,8.85-15.38,22.89-24.29,31.73-8.92,8.85-16.92,12.5-24.71,14.04-7.79,1.54-15.37.98-20.71-5.41-5.34-6.39-8.42-18.6-8.57-32.72-.14-14.11,2.67-30.12,6.04-40.93,3.37-10.81,7.3-16.43,12.99-20.85,5.69-4.42,13.13-7.65,21.06-8.28,7.93-.63,16.36,1.33,21.62,1.97,5.27.63,7.37-.07,10.11-2.25,2.74-2.18,6.11-5.83,10.6-7.58,4.49-1.76,10.11-1.61,14.25.42,4.14,2.04,6.81,5.97,7.93,10.18,1.12,4.21.7,8.71-.7,15.09-1.4,6.39-3.79,14.67-4.63,20.92-.84,6.25-.14,10.46,1.9,18.18,2.04,7.72,5.41,18.96,5.34,27.17-.07,8.21-3.58,13.41-8.07,17.13-4.49,3.72-9.97,5.97-13.48,9.97-3.51,4-5.05,9.76-7.44,13.13-2.39,3.37-5.62,4.35-12.78,5.13-7.16.77-18.25,1.33-30.47,3.51-12.22,2.18-25.55,5.97-39.32,11.16-13.76,5.2-27.94,11.79-37.42,17.55-9.48,5.76-14.25,10.67-19.73,25.94-5.48,15.27-11.65,40.9-15.2,56.48-3.55,15.59-4.46,21.13-4.28,24.54.18,3.4,1.44,4.67,7.13,7.51,5.69,2.84,15.8,7.27,21.34,12.85,5.55,5.58,6.53,12.32,6.32,17.97-.21,5.65-1.61,10.21-8.85,26.68-7.23,16.46-20.29,44.83-27.49,64.03-7.2,19.2-8.53,29.24-9.09,38.47-.56,9.23-.35,17.66-2.56,24.4-2.21,6.74-6.85,11.79-9.93,15.73-3.09,3.93-4.63,6.74-4.21,10.39.42,3.65,2.81,8.14,3.76,11.62.95,3.48.46,5.93-2.46,8-2.91,2.07-8.25,3.76-14.64,2.91-6.39-.84-13.83-4.21-17.97-9.9-4.14-5.69-4.98-13.69-4.28-21.13.7-7.44,2.95-14.32,6.25-21.55,3.3-7.23,7.65-14.81,10.81-23.24,3.16-8.42,5.12-17.69,7.65-33.28,2.53-15.59,5.62-37.49,9.97-56.87,4.35-19.38,9.97-36.23,14.32-46.05,4.35-9.83,7.44-12.64,14.74-11.58,7.3,1.05,18.82,5.97,26.19,8.78,7.37,2.81,10.6,3.51,12.99,1.54,2.39-1.97,3.93-6.6,5.83-9.9,1.9-3.3,4.14-5.27,6.04-4.98,1.9.28,3.44,2.81,4.7,13.83,1.26,11.02,2.25,30.54,2.81,43.11.56,12.57.7,18.18-3.58,35.45-4.28,17.27-12.99,46.2-17.55,76.73-4.56,30.54-4.98,62.69-6.18,94.64-1.19,31.94-3.16,63.68-6.81,84.88-3.65,21.2-8.99,31.87-12.36,44.51-3.37,12.64-4.77,27.24-2.81,39.74,1.97,12.5,7.3,22.89,10.74,38.05,3.44,15.16,4.98,35.1,6.81,53.29,1.83,18.18,3.93,34.61,9.06,44.09,5.13,9.48,13.27,12,19.52,14.32,6.25,2.32,10.6,4.42,12.71,8.21,2.11,3.79,1.97,9.27-.14,13.83-2.11,4.56-6.18,8.21-12.57,10.04-6.39,1.83-15.09,1.83-24.92-2.39-9.83-4.21-20.78-12.64-27.73-20.99-6.95-8.35-9.9-16.64-10.39-23.38-.49-6.74,1.47-11.93,5.62-14.46,4.14-2.53,10.46-2.39,18.53.77,8.07,3.16,17.9,9.34,26.26,12.29,8.35,2.95,15.23,2.67,22.18,3.51,6.95.84,13.97,2.81,17.76,10.81,3.79,8,4.35,22.04,2.39,30.54-1.97,8.49-6.46,11.44-14.18,12.92-7.72,1.47-18.68,1.47-53.22,1.47s-92.67,0-122.3-.42c-29.63-.42-30.75-1.26-37.98-26.26-7.23-24.99-20.57-74.14-55.18-192.93-34.61-118.79-90.5-307.22-122.51-419.27-32.01-112.05-40.16-147.71-43.6-167.23-3.44-19.52-2.18-22.89.28-25.34,2.46-2.46,6.11-4,11.16,3.93,5.06,7.93,11.51,25.34,32.15,93.58,20.64,68.24,55.46,187.31,89.16,300.69,33.7,113.38,66.27,221.08,88.74,293.18,22.47,72.1,34.82,108.61,40.44,127.35,5.62,18.74,4.49,19.73-5.62,20.22-10.11.49-29.21.49-38.75.49s-9.55,0-17.69-26.82c-8.14-26.82-24.43-80.46-49-167.93-24.57-87.48-57.43-208.79-87.9-317.82-30.47-109.03-58.55-205.77-75.12-265.17-16.57-59.39-21.62-81.44-26.19-92.6-4.56-11.16-8.64-11.44-16.43-11.3-7.79.14-19.31.7-27.66,6.74-8.35,6.04-13.55,17.55-22.61,45.35-9.06,27.8-21.97,71.89-42.9,144.41-20.92,72.52-49.85,173.48-76.73,265.38-26.89,91.9-51.74,174.74-71.12,238.91-19.38,64.17-33.28,109.66-41.91,135.22-8.64,25.55-12.01,31.17-17.34,33.77-5.34,2.6-12.64,2.18-16.29-1.83-3.65-4-3.65-11.58,4.28-40.86,7.93-29.28,23.8-80.24,50.27-165.19,26.47-84.95,63.54-203.88,95.83-306.59,32.29-102.71,59.82-189.2,80.6-266.15,20.78-76.95,34.82-144.34,44.65-180.57,9.83-36.23,15.45-41.28,22.47-43.81,7.02-2.53,15.45-2.53,24.64,10.53,9.2,13.06,19.17,39.17,27.52,64.38,8.35,25.2,15.09,49.5,17.97,61.92,2.88,12.43,1.9,12.99-2.74,13.27-4.63.28-12.92.28-33.42,1.9-20.5,1.61-53.22,4.84-71.54,6.11-18.32,1.26-22.26.56-24.22-3.51-1.97-4.07-1.97-11.51-.7-17.06,1.26-5.55,3.79-9.2,30.47-11.86,26.68-2.67,77.51-4.35,102.78.28,25.27,4.63,24.99,15.59,24.15,23.31-.84,7.72-2.25,12.22-15.02,14.04-12.78,1.82-36.93.98-53.64-.35-16.71-1.33-25.98-3.16-58.13,91.27-32.15,94.43-87.2,285.11-125.95,426.36-38.75,141.25-61.22,233.08-73.72,282.16-12.5,49.07-15.02,55.39-24.99,58.55-9.97,3.16-27.38,3.16-79.75,3.16H0"/>
  </g>
</svg>