<?xml version="1.0" encoding="UTF-8"?>
<svg id="Ebene_2" data-name="Ebene 2" xmlns="http://www.w3.org/2000/svg" viewBox="0 0 1443.09 1432.8">
  <defs>
    <style>
      .cls-1 {
        fill: none;
        stroke: #1c1c1c;
        stroke-miterlimit: 2.61;
        stroke-width: 9.6px;
      }
    </style>
  </defs>
  <g id="Ebene_1-2" data-name="Ebene 1">
    <path class="cls-1" d="M0,1428c162.99,0,225.97,0,312.53-2.92,86.55-2.92,96.67-8.76,104.35-25.86,7.68-17.1,12.93-45.47,16.47-65.53,3.55-20.06,5.39-31.81,9.47-41.14s10.39-16.22,15.98-20.01c5.59-3.79,10.44-4.47,29.72-4.81,19.28-.34,52.99-.34,84.75-.34s61.59,0,80.24.15c18.65.15,26.13.44,30.06,1.12,3.93.68,4.32,1.75,4.52,4.81.19,3.06.19,8.11-.29,11.07-.49,2.96-1.46,3.84-9.33,4.23-7.87.39-22.63.29-61.73-.49-39.1-.78-102.53-2.23-135.56-3.64-33.03-1.41-35.65-2.77-36.82-4.86-1.17-2.09-.87-4.91,2.19-22.73,3.06-17.83,8.89-50.66,13.02-72.95,4.13-22.29,6.56-34.05,8.4-42.16,1.85-8.11,3.11-12.58,6.41-17.92,3.3-5.34,8.65-11.56,13.5-15.1,4.86-3.55,9.23-4.42,25.98-4.86,16.76-.44,45.9-.44,77.03-.44s64.26,0,82.08.19c17.83.19,20.35.58,21.61,2.91,1.26,2.33,1.26,6.61,1.21,9.76-.05,3.16-.15,5.2-1.55,6.31-1.41,1.12-4.13,1.31-41.04,1.41-36.91.1-108.02.1-143.96-1.26-35.94-1.36-36.72-4.08-34.14-20.84,2.57-16.76,8.5-47.55,11.46-62.95q2.96-15.4,4.71-25.21c1.75-9.81,5.25-29.43,9.76-41.82,4.52-12.39,10.05-17.53,15.35-20.11,5.29-2.57,10.35-2.57,21.37-2.57h56.44c28.41,0,68.24,0,88.4.1,20.16.1,20.64.29,20.89,2.91.24,2.62.24,7.67.19,10.69-.05,3.01-.15,3.98-1.94,4.57-1.8.58-5.29.78-39.68.87-34.39.1-99.67.1-131.92-2.62-32.25-2.72-31.47-8.16-26.42-34.29,5.05-26.13,14.38-72.95,23.75-101.41,9.37-28.46,18.8-38.56,24.92-43.81,6.12-5.25,8.94-5.63,14.86-5,5.93.63,14.96,2.28,21.37,3.06,6.41.78,10.2.68,11.41-1.21,1.21-1.89-.15-5.59-1.94-9.86-1.8-4.27-4.03-9.13-9.47-11.66-5.44-2.53-14.09-2.72-21.71-2.67-7.63.05-14.23.34-18.02,5.05-3.79,4.71-4.76,13.84-5,19.43-.24,5.59.24,7.63,9.13,8.84,8.89,1.21,26.18,1.6,37.79,1.85,11.61.24,17.53.34,19.77-1.21,2.23-1.55.78-4.76.05-8.16-.73-3.4-.73-6.99-2.19-10.05-1.46-3.06-4.37-5.59-6.07-7.92-1.7-2.33-2.19-4.47-1.41-10.01s2.82-14.47,8.11-37.79c5.29-23.31,13.84-61,18.89-86.36,5.05-25.35,6.61-38.37,6.99-47.79.39-9.42-.39-15.25-5.05-27.88-4.66-12.63-13.21-32.06-19.72-50.9-6.51-18.85-10.98-37.11-13.02-48.47-2.04-11.37-1.65-15.83-.1-18.65,1.55-2.82,4.27-3.98,7.09.49,2.82,4.47,5.73,14.57,12.14,31.67,6.41,17.1,16.32,41.19,23.99,59.16,7.67,17.97,13.11,29.82,15.83,39.63,2.72,9.81,2.72,17.58-.1,38.47-2.82,20.89-8.45,54.88-12.29,77.18-3.84,22.29-5.88,32.88-6.75,42.74-.87,9.86-.58,18.99,1.36,24.53,1.94,5.54,5.54,7.48,11.12,9.76,5.59,2.28,13.16,4.91,19.67,6.8,6.51,1.89,11.95,3.06,15.93,3.3,3.98.24,6.51-.44,7.19-1.7.68-1.26-.49-3.11-6.7-5.44-6.22-2.33-17.49-5.15-26.03-9.08-8.55-3.93-14.38-8.99-18.94-11.95-4.57-2.96-7.87-3.84-11.03,2.53-3.16,6.36-6.17,19.96-7.43,28.02-1.26,8.06-.78,10.59,1.41,12.58,2.19,1.99,6.07,3.45,19.23,4.27,13.16.83,35.6,1.02,48.81,1.02s17.19-.19,19.48-1.75c2.28-1.55,2.87-4.47,2.67-7.48-.19-3.01-1.17-6.12-3.11-8.35-1.94-2.23-4.86-3.59-6.31-6.7-1.46-3.11-1.46-7.97,2.14-38.27,3.59-30.31,10.78-86.07,16.13-121.33,5.34-35.26,8.84-50.03,9.03-61.68.19-11.66-2.91-20.21-7.29-33.61-4.37-13.41-10.01-31.67-13.7-51.78-3.69-20.11-5.44-42.06-8.01-55.47-2.57-13.41-5.97-18.26-11.12-20.59-5.15-2.33-12.05-2.14-19.82-2.28-7.77-.15-16.42-.63-27.2-3.84-10.78-3.21-23.7-9.13-31.33-14.13-7.63-5-9.96-9.08-10.3-15.69-.34-6.61,1.31-15.74,5.25-27.39,3.93-11.66,10.15-25.84,20.06-46.72,9.91-20.89,23.51-48.47,38.37-69.31,14.86-20.84,30.99-34.92,42.16-43.71,11.17-8.79,17.39-12.29,23.99-14.04,6.61-1.75,13.6-1.75,24.24.44,10.64,2.19,24.92,6.56,34.1,11.03,9.18,4.47,13.26,9.03,16.47,12.34,3.21,3.3,5.54,5.34,8.06,6.07,2.53.73,5.25.15,10.73-1.75,5.49-1.89,13.75-5.1,20.25-8.94,6.51-3.84,11.27-8.31,13.07-14.13,1.8-5.83.63-13.02-3.4-16.08-4.03-3.06-10.93-1.99-18.46-1.46-7.53.53-15.69.53-24.38-1.41-8.69-1.94-17.92-5.83-23.02-8.89-5.1-3.06-6.07-5.29-3.84-11.56,2.23-6.27,7.67-16.56,14.04-23.51,6.36-6.95,13.65-10.54,20.35-12.24,6.7-1.7,12.82-1.51,18.46-.1,5.63,1.41,10.78,4.03,14.57,8.31,3.79,4.27,6.22,10.2,8.4,13.26,2.19,3.06,4.13,3.25,5.39,1.26,1.26-1.99,1.85-6.17,2.38-8.5.53-2.33,1.02-2.82,4.03-1.51,3.01,1.31,8.55,4.42,11.51,8.26,2.96,3.84,3.35,8.4,3.5,12.19.15,3.79.05,6.8-2.09,10.93s-6.31,9.37-12,14.09c-5.68,4.71-12.87,8.89-18.55,11.46-5.68,2.57-9.86,3.55-17.68,3.93-7.82.39-19.28.19-29.14-2.62s-18.12-8.26-23.22-11.85c-5.1-3.59-7.04-5.34-9.23-4.81-2.19.53-4.61,3.35-5.93,7.33-1.31,3.98-1.51,9.13,1.55,15.74,3.06,6.61,9.37,14.67,15.06,22.2,5.68,7.53,10.73,14.52,13.99,21.81,3.25,7.29,4.71,14.86,6.56,22.1,1.85,7.24,4.08,14.13,4.47,20.98.39,6.85-1.07,13.65-8.01,32.25-6.95,18.6-19.38,49.01-26.76,68.43-7.38,19.43-9.71,27.88-12.58,34.82-2.87,6.95-6.27,12.39-11.32,14.81-5.05,2.43-11.75,1.85-17.87.92-6.12-.92-11.66-2.19-14.86-2.43-3.21-.24-4.08.53-4.37,3.55-.29,3.01,0,8.26,1.51,14.23,1.51,5.97,4.23,12.68,5.97,25.26,1.75,12.58,2.53,31.04,4.86,42.74,2.33,11.71,6.22,16.66,9.42,20.64,3.21,3.98,5.73,6.99,7.33,11.56,1.6,4.57,2.28,10.69,4.08,15.01,1.8,4.32,4.71,6.85,9.62,9.13,4.91,2.28,11.8,4.32,18.46,4.66,6.65.34,13.07-1.02,17.63-4.08,4.57-3.06,7.29-7.82,9.08-14.28,1.8-6.46,2.67-14.62,2.53-22.49-.15-7.87-1.31-15.45,3.11-29.38,4.42-13.94,14.42-34.24,31.08-69.5,16.66-35.26,39.97-85.48,52.8-113.22,12.82-27.73,15.15-32.98,15.4-39.1.24-6.12-1.6-13.11-2.48-18.65-.87-5.54-.78-9.62-.19-13.26.58-3.64,1.65-6.85,3.5-8.69,1.85-1.85,4.47-2.33,9.76-4.32,5.29-1.99,13.26-5.49,23.46-21.03,10.2-15.54,22.63-43.13,30.16-60.96,7.53-17.82,10.15-25.89,8.69-34.1-1.46-8.21-6.99-16.56-11.51-23.26-4.52-6.7-8.01-11.75-10.01-15.3-1.99-3.55-2.48-5.59-.63-9.57,1.85-3.98,6.02-9.91,16.37-8.6,10.35,1.31,26.86,9.86,40.65,17.19,13.79,7.33,24.87,13.45,32.74,15.01,7.87,1.55,12.53-1.46,15.06-5.88,2.53-4.42,2.91-10.25-3.01-15.54-5.93-5.29-18.16-10.05-31.52-15.69-13.36-5.63-27.83-12.14-36.72-15.64-8.89-3.5-12.19-3.98-16.03-3.69-3.84.29-8.21,1.36-11.36,3.21-3.16,1.85-5.1,4.47-6.36,7.43-1.26,2.96-1.85,6.27-1.51,9.08.34,2.82,1.6,5.15,5.63,9.33,4.03,4.18,10.83,10.2,15.98,15.25,5.15,5.05,8.64,9.13,10.83,12.19,2.19,3.06,3.06,5.1,2.62,7.48-.44,2.38-2.19,5.1-4.13,6.27-1.94,1.17-4.08.78-6.27.87-2.19.1-4.42.68-10.1,10.35-5.68,9.67-14.81,28.41-23.85,47.74-9.03,19.33-17.97,39.24-22.34,49.69-4.37,10.44-4.18,11.41-1.7,14.04,2.48,2.62,7.24,6.9,8.94,12.97,1.7,6.07.34,13.94-1.7,19.48-2.04,5.54-4.76,8.74-8.84,9.86-4.08,1.12-9.52.15-16.37-1.65-6.85-1.8-15.11-4.42-20.54-5.73-5.44-1.31-8.06-1.31-16.32-.53-8.26.78-22.15,2.33-31.86,2.82-9.71.49-15.25-.1-18.31-3.59-3.06-3.5-3.64-9.91-3.84-15.93-.19-6.02,0-11.66,3.93-16.8,3.93-5.15,11.61-9.81,17-12.77,5.39-2.96,8.5-4.23,17.53-3.06,9.03,1.17,23.99,4.76,31.96,7.97,7.97,3.21,8.94,6.02,9.33,11.22.39,5.2.19,12.77.15,19.96-.05,7.19.05,13.99-6.61,30.21-6.65,16.22-20.06,41.87-37.74,78.39-17.68,36.52-39.63,83.93-50.61,109.77-10.98,25.84-10.98,30.11-10.49,34,.49,3.89,1.46,7.38,2.62,11.37,1.17,3.98,2.53,8.45,2.43,14.18-.1,5.73-1.65,12.73-5.44,17.87-3.79,5.15-9.81,8.45-15.35,9.13-5.54.68-10.59-1.26-13.7-5.05-3.11-3.79-4.27-9.42-1.85-14.57,2.43-5.15,8.45-9.81,13.11-14.38,4.66-4.57,7.97-9.03,7.09-16.61-.87-7.58-5.93-18.26-8.35-31.38-2.43-13.11-2.23-28.66-2.72-38.95-.49-10.3-1.65-15.35-9.03-17.87-7.38-2.53-20.98-2.53-29.43-3.21-8.45-.68-11.75-2.04-13.31-6.61-1.55-4.57-1.36-12.34,3.59-29.24,4.95-16.9,14.67-42.94,19.43-57.12,4.76-14.18,4.57-16.51,2.23-18.17-2.33-1.65-6.8-2.62-14.09,11.95-7.29,14.57-17.39,44.68-24.09,61.59-6.7,16.9-10.01,20.59-20.4,22.34-10.39,1.75-27.88,1.55-43.13-4.47-15.25-6.02-28.27-17.87-36.33-22.24-8.06-4.37-11.17-1.26-17.19,9.62-6.02,10.88-14.96,29.53-20.01,47.79-5.05,18.26-6.22,36.14-7.58,50.32-1.36,14.18-2.91,24.67-6.41,41.96-3.5,17.29-8.94,41.38-11.85,60.32-2.91,18.94-3.3,32.74-4.66,56.54-1.36,23.8-3.69,57.6-4.76,91.12-1.07,33.51-.87,66.73.29,85.39,1.17,18.65,3.3,22.73,32.93,23.8,29.63,1.07,86.75-.87,120.94-3.21,34.19-2.33,45.46-5.05,49.93,27.2,4.47,32.25,2.14,99.47-1.75,180-3.89,80.53-9.33,174.37-12.82,243.33-3.5,68.97-5.05,113.07-9.13,137.16-4.08,24.09-10.69,28.17-14.96,29.43-4.27,1.26-6.22-.29-6.51-12.43-.29-12.14,1.07-34.87,5.15-117.34,4.08-82.47,10.88-224.68,18.75-356.99,7.87-132.3,16.8-254.7,22.24-317.84,5.44-63.14,7.38-67.03,10.69-68.97,3.3-1.94,7.97-1.94,19.04,49.93,11.07,51.87,28.56,155.62,43.52,263.64,14.96,108.02,27.39,220.31,36.82,290.54,9.42,70.23,15.83,98.4,20.4,114.24,4.57,15.83,7.29,19.33,13.7,23.7,6.41,4.37,16.51,9.62,22.05,8.84,5.54-.78,6.51-7.58,7.97-25.35,1.46-17.78,3.4-46.53,4.18-122.1.78-75.57.39-197.97.39-283.45s.39-134.05-.39-159.89c-.78-25.84-2.72-28.95-6.22-29.72-3.5-.78-8.55.78-11.85,25.06-3.3,24.28-4.86,71.3-6.12,156.3-1.26,85-2.23,207.98-2.43,289.28-.19,81.31.39,120.94,2.72,143.28,2.33,22.34,6.41,27.39,16.56,33.03,10.15,5.63,26.37,11.85,36.33,15.64,9.96,3.79,13.65,5.15,15.44,10.15,1.8,5,1.7,13.65.97,19.67-.73,6.02-2.09,9.42-5.73,13.02-3.64,3.59-9.57,7.38-27.1,9.28-17.53,1.89-46.68,1.89-64.55,1.7-17.87-.19-24.48-.58-28.17-2.33-3.69-1.75-4.47-4.86-4.86-9.52-.39-4.66-.39-10.88.97-14.18,1.36-3.3,4.08-3.69,24.43-3.89,20.35-.19,58.33-.19,88.35-.19s52.07,0,69.21-1.07c17.15-1.07,29.38-3.21,37.64-4.81,8.26-1.6,12.53-2.67,14.67-6.61,2.14-3.93,2.14-10.73,2.14-16.95s0-11.85-1.21-17.73c-1.21-5.88-3.64-12-5.39-16.03-1.75-4.03-2.82-5.97-11.95-6.95-9.13-.97-26.33-.97-36.86-1.31-10.54-.34-14.43-1.02-16.51-2.28-2.09-1.26-2.38-3.11-1.89-4.66.49-1.55,1.75-2.82,9.23-3.21,7.48-.39,21.18.1,30.4.24,9.23.15,13.99-.05,16.76-1.02,2.77-.97,3.55-2.72,1.8-5.05-1.75-2.33-6.02-5.25-14.43-6.61-8.4-1.36-20.93-1.17-30.41.3-9.48,1.47-15.89,4.2-19.44,6.83-3.55,2.62-4.22,5.13-4.55,18.14-.34,13.01-.34,36.52.15,50.6.49,14.09,1.46,18.75,4.13,22,2.67,3.25,7.04,5.1,14.86,6.07,7.82.97,19.09,1.07,29.68-.53,10.59-1.6,20.5-4.91,34.97-6.56,14.47-1.65,33.51-1.65,43.42-2.04,9.91-.39,10.69-1.17,9.42-5.93-1.26-4.76-4.57-13.5-7.29-20.45-2.72-6.95-4.86-12.09-10.64-16.66-5.78-4.57-15.2-8.55-20.5-11.46-5.29-2.91-6.46-4.76-10.35-14.67-3.89-9.91-10.49-27.88-13.31-37.98-2.82-10.1-1.85-12.34,0-13.31,1.85-.97,4.57-.68,10.05,7.82s13.74,25.21,18.51,36.43c4.76,11.22,6.02,16.95,4.91,22.1-1.12,5.15-4.61,9.71-6.99,13.94-2.38,4.23-3.64,8.11-2.33,15.64,1.31,7.53,5.2,18.7,9.33,25.16,4.13,6.46,8.5,8.21,14.04,9.08,5.54.87,12.24.87,46.77.87h290.71"/>
  </g>
</svg>