<?xml version="1.0" encoding="UTF-8"?>
<svg id="Ebene_2" data-name="Ebene 2" xmlns="http://www.w3.org/2000/svg" viewBox="0 0 3547.97 1057.85">
  <defs>
    <style>
      .cls-1 {
        fill: #0075bf;
        stroke-width: 0px;
      }
    </style>
  </defs>
  <g id="Layer_1" data-name="Layer 1">
    <path class="cls-1" d="M875.89,2.16c-.36-4.24-3.97-.73-5.64-1.85.19,11.71,1.82,8.87,3.28,17.52-.14,1.74-.43,3.12-.81,4.28-.83-.05-1.63-.11-2.4-.17v-.28c-.53.01-1.07.01-1.61.01-.98-.21-1.9-.55-1.62-3.78-1.87-1.67-1.4,2.12-1.92,3.59-.39-.04-.78-.07-1.14-.12-.04-.83-.07-1.67-.16-2.61-.78-.34-1.4,1.01-1.9,2.35-.56-.09-1.06-.17-1.51-.24-1.17-5.68-2.83-10.19-4.67-14.28-1.07,2.96-1.14,8.52-.75,13.51-4.26.76-3.71,3.16-9.39,5.16-.06.39-.2.76-.31,1.12-.03-1.12-.04-2.27.04-3.65.65-.27,1.22-.35,1.72-.32-1.31-1.3-2.89-2.55-4.96-3.46.02-5.79-2.91-4.54-2.45-11.39-2.7.02-5.38,6.55-8.05,11.43.2,1.21.25,3.01.06,5.77,1.4,6.24,6.78,2.94,10.47,3.72.22.52.4,1.11.57,1.72-3.9,3.18-10.79,3.26-15.86-.13v-1.45c-.42.06-.83.26-1.22.5-1.24-1.04-2.32-2.31-3.16-3.82-.25-1.94-.53-4.04-.79-5.84-5.04-5.91-9.26-15.41-11.78-6.55-1.04-1.55-2.44,5.08-3.3,9.34-.05-.02-.1-.05-.14-.07-.21-.56-.55-.98-1.14-1.07.14.21.31.48.46.71-.42-.23-.84-.46-1.27-.69.31-.06.56-.06.8-.01-1.03-1.54-1.67-2.29-.95-.07-9.18-4.87-22.31-8.97-33.93-9.28.15,1.07.57,2.6,1.12,4.23-3.45,4.48-6.66,9.52-10.64,12.78-1.5-.05-3.14-.1-4.89-.15-.01-5.99-.04-11.97-.05-17.97-3.69-1.3-4.62,10.47-4.88,17.85h-.41c-.08-1.66-.17-3.66-.3-6.18-2.66-.22-4.23,2.99-6.27,6.05-2.57-.04-5.25-.09-8.11-.12,0-.26,0-.52-.1-.93-.24.37-.47.65-.71.91-1.53-.01-3.15-.04-4.76-.05.38-.76.83-1.56,1.44-2.74-3.2-3.19-3,2.09-4.84-4.39-1.42-.76-2.39-.52-3.22.09,0,2.1.02,5.46.02,6.99-.88-.01-1.73-.02-2.63-.02.26-1.34.58-3.35,1-5.12-.51.71-1,1.41-1.6,1.93.53-10.22-65.46,3.93-63.82-8.94-4.02.04-8.04.07-12.07.11.05,2.44,1.05,2.61.82,5.69-1.2-4.15-3.65-5.33-4.86-9.46-3,.52-3.98,5.78-7.22,5.77-.01-3.17-.02-6.34-.03-9.51-2.77-.2-2.03,7.83-4.81,7.65-1.01-6.13,2.6-1.48,1.59-7.62-2.56,1.57-3.2,7.61-5.6,9.56.58,2.71,1.91,6.5,2.17,9.69-1.09,0-2.17.01-3.27.01-2.27-8.62-6.44-13.24-11.78-9.58,0,1.29,0,2.58,0,3.89.13.02.26.06.37.1.8-1.04,1.69-2,2.65-2.19.4-1.08.91-1.91,1.8-1.84-.38.74-.7,1.38-1,1.9.33.11.66.28,1,.63-.21,1.17-.49,2.01-.79,2.68.12.32.25.68.4,1.07.42.6.84,1.76,1.26,2.88.09.18.21.29.31.46h-.14c-.06-.16-.11-.3-.17-.46-.5-.91-.91-1.95-1.26-2.88-.26-.38-.53-.5-.79-.31-.9,1.5-1.78,1.78-1.59,3.65-3.62.01-7.28.01-10.96.01.65-1.06,1.33-2.05,1.67-3.83-1.18-3.45-3.2-2.55-4.68-.44.16.72.35,1.55.54,2.2.25-.28.55-.31.93.16-.23,1.59-.59,1-.93-.16-.33.38-.58,1.23-.78,2.08h-1.5c.18-1.18.7-2.51,1.37-3.66-2.75-5.88-3.08.82-5.54,3.66h-.78c-.14-.62-.23-.55-.3,0-5.67.01-11.41.02-17.19.04-.14-.41-.28-.79-.45-1.33-.3-.62-.48-.51-.46,1.08-.39-.3-.59-.15-.69.24-2.17,0-4.35.01-6.54.01.26-15-4.55-2.62-9.68-5.38-.06,3.09.83,3.87,1.4,5.39-1.2.01-2.4.01-3.61.01.61-3.37,2.63-3.43,2.2-9.21-2.66,4.66-19.33.45-24.44,4.01-1.19,8.97-4.61-1.66-5.47,2.71,2.06-1.54,2.46.89,3.2,2.54-2.18,0-4.36.01-6.54.01,0-.24,0-.44-.02-.74-1.89-5.62-6.4-7.91-8.85-1.83.88-14.9-9.35,13.39-8.05-2.45-3.49.02-7.03-16.42-10.52-16.4,0,1.9.01,3.8.02,5.71.99,1.26,2.04,8.97,3.08,14.99.16.31.36.54.53.78h-.38c-.05-.27-.1-.49-.15-.78-1.47-2.66-2.31-6.83-3.87-9.27-2.45,3.29.21,6.68.75,10.06h-.93c-1.11-1.45-1.4-1.71-2.26-.65.02.21.04.43.05.65-.65.01-1.3.01-1.94.01-1.39-5.51-1.45-14.22-5.33-13.79-.97,6.16,2.61,1.43,1.64,7.6-1.61.01-3.22.02-4.83.04-.88,5.56,1.92,2.32,1.77,6.17h-.88c-1.69-2.91-2.83-1.45-4.49.01h-2.72c.63-5.3,2.16-17.24,1.48-12.9-1.61.01-3.22.02-4.83.04,0,2.72.01,5.43.02,8.13.52.22,1.06.29,1.56.02.16-2.38-.26-6.11,1.65-4.38-.24,2.79-.89,3.97-1.65,4.38-.09,1.45-.39,2.4-1.55,1.35,0-.45,0-.91,0-1.38-1.99-.82-3.52-3.57.01,3.91,2.61,2.33.6-6.16,3.2-3.83.08,2.51-.49,3.52-1.01,4.65-2.03.01-4.06.01-6.08.01-.04-.27-.1-.49-.14-.79-.13.31-.25.54-.37.79-16.01.02-31.82.05-47.22.06.9-1.24,1.97-2.28,2.86-3.52.16.24.33.44.52.54.19-.05.37-.1.56-.16.4-1.21.62-2.62.49-4.49h4.85c.45,2.27-.75,2.48-1.62,3.1.08,0,.16-.01.23,0,2.16-.93,4.09-2,5.33-3.15-.56-.67-1.31-1.28-3.93-1.65-.89-2.93.67-2.78,1.76-3.22-.21-.4-.41-.77-.61-1.09-.41-.11-.86-.22-1.32-.33-1.15,1.05-1.93,2.56-2.25,4.63-2.33-3-4.2-3.11-5.96-2.13.31,2.06.68,4.52,1.23,6.29-5.61,1.17-10.67.78-9.35-2.89.22.23.44.45.7.7.32-.54.75-1.15,1.25-1.79v-3.21h-3.87c-.1-.15-.18-.24-.29-.41-.37-.38-.62-.33-.67.41h-.01s0,.01.01.02c0,.12-.02.2-.01.34-1.87-.7-1.09,1.8-.36,3.45.11.09.24.15.36.24.74,1.73.2,1.01-.36-.24-.27-.22-.58-.29-.85-.45v-3.2c-2.38.35-2.41,1.29-2.85,2.62-.31-.07-.59-.21-.79-.4-.17.22-.39.45-.64.68-.6-2.15-.38-5.3-3-4.91v3.85c-.82-.17-1.62-.4-2.42-.87.78-11.95-6.68-2.51-14.55-4.6-.21,3.91,4.1,2.69,2.43,8.28-4.58,2-2.32-3.79-6.06-2.76-.06-4.22,4.37-3.32,3.63-8.29-4.02,3.38-4.41.21-12.12,2.77-1.84,6.5-6.94-1.24-8.25,1.93,4.61-1.63,3.67,3.06,7.04,2.83-4.36,2.24-9.53,4.38-4.85,9.66h-7.27c-1.3-6.07,2.75-6.05,4.31-8.87-1.54-1.69-3.43-1.71-4.44-.71.17-.33.23-.84.13-1.63-2.83-4.08-9.62-5.78-13.34-1.37,1.4-10.82-14.14,9.66-12.12-1.84-1.4,0-2.8-.88-4.21-2.13-.56,1.59-.99,3.22-1.22,4.89h.25c.66-.59,1.21-.91,1.44,0h.11c-.03.13-.04.21-.06.33.04.22.06.51.06.84.48-1,1.83-5.79,1.2-2.09,2.06-.52,2.29,1.07,2.43,2.76h-3.63v-.67c-.17.35-.22.23-.06-.84-.01-.12-.02-.24-.05-.33h-1.44c-.09.07-.19.16-.28.24-.46,3.72.13,7.55,2.76,11.19h-6.01c-.19-1.82-.29-3.51-.32-5.1-.89.9-1.27-1.45-1.15-3.39-.34-.78-.68-1.67-1.02-2.63-2.21-1.94-3.45-4.98-5.78-6.76-4.2,2.68,1.48,5.51,1.2,8.28-3.11-1.94-3.3-2.43-4.94-1.46.04.23.09.44.1.68h-.38c-.55-1.61-1.68-2.5-2.76-3.44.52,1.51.72,3.5.77,5.27h0s0,.08,0,.13v-.13h-.48c.14.29.26.6.42.84.02-.01.04-.01.04-.02-.01.34-.04.69-.05.89h0c-.05.49-.04.41,0,0-2.18-.06-3.03-1.65-3.94-3.15-.41,1.37-1,1.84-2.11-2.37.96.5,1.54,1.41,2.11,2.37.59-1.98.78-5.83,1.52-.39h2c-2.19-3.98-2.11-10.56-8.07-10.26-1.5,4.45,3.93,1.04,2.43,5.51h-7.27c-1.5,4.46,3.92,1.05,2.41,5.52-4.53-5.04-6.18-.38-12.12,0-1.49,4.46,3.92-14.9,2.43-10.44h-7.27v5.91c.78.15,1.59.21,2.34.02.24-1.74-.37-4.43,2.5-3.17-.37,2.02-1.35,2.88-2.5,3.17-.14,1.05-.6,1.74-2.34.98v-1c-3-.61-5.3-2.63,0,2.83,3.92,1.71.93-4.45,4.84-2.76.17,3.17-2.58,3.04-2.75,5.8.11.06.21.1.33.18-.06.34-.19.62-.28.95.06.41.12.83.28,1.35h-.31c0-.15-.03-.33-.02-.45-1.52-.9-1.83.79-1.62,2.72h.56c.06.16.11.34.16.48.05-.01.09-.01.14-.01.83-1.16,1.97-1.94,3.51-2.28.51,3.37,2.81,4.69,4.71,6.49-1.68-.02-3.37-.05-4.98-.06-.59-.57-1.3-1.01-2.29-1.12.05-.12.11-.24.15-.45-.33-.05-.71-.04-1.1-.02-.03.05-.05.1-.08.13.06.15.13.24.19.34-.44.02-.92.09-1.45.22.13-.77.36-1.41.65-2.02.03-.04.06-.05.1-.08,0-.02,0-.05-.02-.07.17-.32.32-.66.53-.94-.01-.04-.04-.09-.06-.11-.21.01-.42.01-.64.04-.03-.17-.06-.34-.09-.51h-1.37c.07.16.09.34.07.55-.16-.01-.33.01-.48-.01-.36.15-.71.32-1.12.42.19-.22.31-.4.46-.6-.64-.33-.93-1.05-.46-2.62h1.52c-.61-1.17-4.02-.94-5.16-5.54-2.76,3.18-12.14,2.85-14.27,1.26v-.54c-1.22-.58-1.81-.38-2.1.2.68.83,1.37,1.58,2.1,2.19v5.65c-3.94-4.62-1.41-.48-1.07,3.16-13.94-.39-22.21-.91-22.85-1.61,1.56-5.24-2.09-4.5-2.41-7.58-.02-.22-.03-.45-.02-.72-5.2,5.9-13.53,17.39-16.97,13.19-.36-2.71,1.65-2.74,2.43-4.15-.11-2.17-3.09-1.07-2.43-4.13-4.57-.3-10.96,1.46-12.11-2.77-2.58,3.96-6.94,5.91-8.49,11.05-18.26,1.01-27.13-.7-36.37-9.96-1.27.19-4.28,1.17-7.24,1.61,0,.17-.01.35-.02.55-.06-.29-.17-.17-.36.21-.22.05-.44.08-.65.17-1.01,2.32-2.77,6.16-5.28,7.18-.83,1.88-1.17,2.74-1,.24.34-.02.68-.12,1-.24,1-2.32,2.76-6.16,5.28-7.18.14-.3.26-.58.38-.83-3.74.44-7.19-.13-6.66-4.48-3.05,1.12-4.82,3.72-7.28,5.52-.87,3.76,5.72-.99,4.86,2.76,1.12,5.43-4.22-4.49-2.43,1.69-5.4-1.1-8.06.94-10.91,2.76-.9-4.24,4.19-1.68,2.43-6.9-1.68-3.13-8.44-.51-12.12-1.38v.6c2.71.61,4.32,2.45,4.85,5.54h-.65c.29.62.51,1.35.65,2.15h-4.85v-2.15h4.2c-.81-1.8-2.2-2.93-4.2-3.38v-.29c-6.07-.49-12.4.28-18.35.95.56-2.39.83-3.88.17-1.45-3.32.26-2.48-4.72-6.86-3.16.3.83.73,2.94,1.27,5.15-5.71.46-10.84.37-14.74-1.67-.02-.52-.11-1.13-.28-1.83.02.77-.03,1.44-.11,2.07-.16.26-.3.51-.53.68-3.67-2.59-6.11-7.36-6.62-15.93h-9.7c-.04,8.05,1.64,18.25-4.85,18.24,1.39,1.33,3.71.38,6.08-.95.48-1.99.95-3.94,1.22-5.16-.09-.19-.11-.37-.02-.49.38-1.24.31-.78.02.49.29.66,1.46,1.66,3.03,2.68,2.51-1.32,4.39-1.61,4.22,2.22,1.87.79,3.72,1.23,5.13,1.05-2.91,3.02-8.02,3.55-9.97,7.67-2.41-1.55-5.15-1.51-7.54-1.62-.28-.61-.75-.99-1.43-1.12.24.4.43.74.62,1.06-1.3-.1-2.44-.35-3.33-1.01.99-.1,1.94-.18,2.71-.05-.93-1.63-2.09-3.77-3.07-4.89-.34.91-.8,1.78-1.4,2.6,0,.13.03.26.04.39-.89.07-1.73.1-2.36-.11.98-.68,1.71-1.43,2.33-2.2-.04-.88-.03-1.83.09-3.01.34-.15.8.13,1.3.66,1.59-3.8,1.04-8.61,2.34-15.1-.52-3.09-5.97-.56-8.48-1.38.21,8.5,2.69,6.45,4.84,12.74-.52,3.08-2.14,4.91-4.84,5.52v-2.77h-2.43c-1.47-.15-2.87-.41-2.43-2.76-3.82-1.67-1.13,4.08-4.59,2.82.09,1.07.12,2.07.07,2.99,7.44,6.95,10.68,3.68,16.65,12.75-4.54,1.28-6.19,5.84-12.12,5.51v-8.28c-4.91-1.89-3.84,3.01-7.26,2.77.33-4.91,2.43-7.78,2.74-12.75-.11-.1-.22-.18-.33-.28v-2.77c.11.04.16.02.26.06-.06-.71-.11-1.4-.26-2.22-2.71-.59-4.31,5.55-4.84,2.48v-.32c-1.74-4.45-4.39-7.89-7.28-11.05-2.48,3.28-1.51,11.06.23,14.9,1.3.1,2.63.19,3.4.9-.12,5.85-6.61,4.43-8.49,8.28-5.2-2.34-12.13-2.74-10.91-12.41.98-.2,1.84-.26,2.6-.22-1.96-.98-4.33-1.88-7.45-2.56.06-4.21-4.36-3.3-3.63-8.28-3.06,0-6.12,2.68-9.17,5.5v9.32c3.45,1.06,8.8-.04,12.8.37,3.08,3.63,3.08,10.17,0,13.82-2.29-1.55-5.57-1.95-6.06-5.54-2.53,2.87-4.62,2.78-6.74,1.75v798.17c.39-.25.81-.61,1.25-1.11-.23,2.29-.43,4.63.47,7.89-.53-.43-1.11-.66-1.72-.75v167.32c4.56-2.14,9.49-3.86,12.47-7.8,4.71,5.29,12.21-2.88,23.28,0-1.76,5.23,4.34,1.51,2.97,6.32-2.39.63-6.43,1.74-11.23,3,.07,2-.29,3.5-2.56,2.82,1.66.73,3.65,1.2,5.8,1.45,5.45-3.82,8.49-7.56,15.69-6.56-.43.6-.83,1.52-1.22,2.6-2.31.23-4.56.55-4.78,3.74,4.19-.66,7.94-2.05,9.97-3.99,4.41,1.88,4.55,8.63,9.7,9.66v9.67c.23,2.06,2.93,1.27,4.85,1.38,1.89-7.05,6.51-10.99,8.49-17.95.32.17.63.22.96.35-.46-.39-.93-.77-1.52-.96-.56,1.02-1.11,1.98-1.62,2.65-.42-1.28-.99-2.51-1.73-3.66.06-1.39.18-2.6.43-3.55,1.68.22,3.41.51,4.8.3,1.03-2.01,1.75-3.17,1.67-1.46-.18,1.29-.83,1.89-1.71,2.18-.4.8-.82,1.63-1.25,2.46,1.48.04,3.23.87,5.04,2.01-1.01-4.82-1.79-8.67-1-5.68,5.8-2.94,5.45,2.89,6.6,6.6,4.41-.82,8.27-2.49,10.85-1.93.44.01.87.05,1.25.17-1.85-3.13-2.83-7.26-2.16-13.29h4.86c-1.04,4.4,1.05,5.24,2.41,6.9,1.4,4.35-1.89,3.35-2.41,5.52,3.55-1.77,5.02,2.11,11.46,2.66.08-.33.14-.66.22-.99.7.07,1.45.18,2.16.28,1.87-2.93,4.1-5.45,3.13-11.61,2.49,4.63,2.51.96,6.06,0,.7,7.01,14.83-1.24,15.76,5.51,4.44-2.17-2.81-2.05-1.21-5.51,7.12,1.21,6.21-6.74,13.34-5.52v12.44c4.49,3.62,16.38-1.19,19.39,4.12,3.29,1-.87-6.51,2.42-5.52,3.88-.26,5.24,2.32,6.07,5.52.69-.76,1.55-1.32,2.53-1.74.2,5.74,1.99,3.78,3.9,2.98-.44-1.19-.92-2.35-1.59-3.17-.65,1.3-1.32,1.72-1.91.04.46-.17.93-.33,1.42-.45.16.13.34.24.48.41.09-.17.17-.37.26-.55.88-.17,1.79-.29,2.76-.35.74,2.9,5.28-.55,6.38,1.74-.27.87-.8,1.43-2.13,1.1.8.35,1.58.48,2.35.6-.03.52-.09,1.12-.26,1.89,1.96,1.26,2.29-.21,2.53-1.83,1.47-.15,2.93-.51,4.33-1.17,1.86,2.69,1.69,8.82,3.47,11.64,2.21-1.4,4.13-3.33,6.09-5.17-.28-.06-.53-.1-.93-.35.29-3.72-.04-7.65-.8-10.99,1.36-.88,2.75-1.61,4.15-2.18.01,3.3.17,6.57.51,8.41.33-.02.75.09,1.3.44-.56,1.74-1,1.22-1.3-.44-1.18.09-1.14,2.23-1.47,3.76.89-.77,1.8-1.5,2.78-2.12-.52,8.8,2.84,11.1,3.87,17.29,3.81-.83,2.97-9.45,5.16-12.96,7.75,2.99,5.16,2.99,12.91,0-.09,6.34-3.94,6.37-5.16,10.8,2.02,3.84,3.63,8.33,9.03,6.49,3.66.35-1.07-13.33,2.58-12.97,6.06-.06,4.12,13.27,7.75,17.29,4.44.24,3.29-8.89,7.74-8.65-2.58,15.13,6.05,11.47,6.46,21.62,2.03-.2,1-5.51,3.87-4.33v-12.96c1.29-9.36-1.44-12-2.58-17.29,3.28,1.84,2.65-2.85,2.56-6.67,5.01.18,10.57.33,16.69.45-.61,13.24,5.58,15.08,5.27,27.83,4.46-6.78,5.68-1.21,9.03,4.33,2.79.37.58-7.67,1.29-10.82-1.58-3.83-7.48-.44-5.16-10.8,4.71,5.66,4.26,3.34,6.45-4.32,5.44,1.7.27,21.17,6.45,21.61,4.47-4.22-1.58-8.63-1.29-12.96,2.86-1.19,1.84,4.12,3.87,4.32,4.39-9.08-1.04-12.46-3.2-18.86,1.55.01,3.17.02,4.76.04,6.15,7.4,13.93,13.79,21.66,5.86-1.7,10.06,4.28,7.23,2.58,17.29h2.58v-4.33c5.7-.89,3.11,12.08,7.74,12.97v-4.33c-.78-4.45,2.08-15.01-2.58-12.96,2.42-7.45,2.42-5.52,0-12.97,1.71.96,2.33.1,2.54-1.44,1.72,0,3.45-.01,5.2-.01.23,1.45.46,2.98.67,4.57h4.49c-.95,10.24,6.17,6.96,7.75,12.97,2.03-.2,1-5.51,3.87-4.33,1.79-8.74-2.8-6.83-2.58-12.96,7.68,1.55,10.27,11.61,12.9,21.61,2.99-.68,4.96.35,6.45,2.16v-19.45c2.94,3.01,6.91,4.28,9.04,8.64,4.72-3.39-3-3.22-1.29-8.64,3.23-1.78,11.11,4.21,10.32-4.32,3.65-.37,2.51,7.3,7.74,4.32,1.06-4.65-1.11-3.88-2.24-4.88.7-.01,1.4-.01,2.1-.02,4.43,6.73,9.01,13.19,14.02,18.92.07-.5.16-1.12.31-2.01.16.24.32.37.49.48,1.05-3.83,2.61-9.62,2.09-3.84.76.32,1.25.16,1.63-.15.41-.78.81-1.6,1.23-2.49-.3,1.01-.62,1.99-1.23,2.49-1.45,2.8-2.71,4.61-3.72,3.99-.21.71-.38,1.35-.53,1.84.88.99,1.72,2.02,2.63,2.96,3.16-1.9,4.73-6.47,10.32-4.32.22-5.41-2.89-5.24-3.87-8.65-1.45-.93-2.23-.72-2.75-.1,1.55-3.28,3.24-6.83,5.01-9.38,1.52-.01,3.03-.02,4.55-.05.37,2.37,1.04,4.22,2.23,5.2.52-.37.87-.7,1.12-1-.06-.76-.15-1.46-.24-2.17-.56-.57-1.34-1.18-1.87-2.04.51,0,1.01-.01,1.51-.01.14.63.26,1.32.36,2.05.66.66.98,1.28.24,2.17.38,5.26.25,11.41,2.75,13.01,4.44,13.4,10.34,8.68,20.65,5.28,1.79-8.74-2.8-6.83-2.58-12.96-1.9-8.22,5.77-.43,3.87-8.64,4.41,4.86,12.01,4.39,14.2,12.96,4.72-3.39-3-3.22-1.29-8.64h5.16c.04-10.02,4.34,12.07,2.58-.95h5.16c-1.3-.73-1.96-2.55-2.31-4.85,2.33-.04,4.66-.06,6.98-.1,1.87,5.29,4.87,8.66,12.11,4.95.53,7.76,8.27,3.43,7.74,12.96,6.77,1.63,17.87-4,20.65,4.32,4.53-8.26,13.68-8.77,18.06-17.28,4.18,6.91,10.82-3.74,20.65,0-1.59,6.99,4.17,1.65,2.58,8.65,14.32-7.16,26.58,7.05,33.55-8.65,4.28,6.83,12.89-2.04,18.07-6.49,3.42,12.22,11.82,6.44,17.29-.63,1.59-.02,3.2-.05,4.78-.07.14,3.41-.13,6.16-2.71,5.02,7.72,4.96,22.19,2.62,27.1-4.32,4.7,2.94,4.83,13.51,10.32,15.13v15.12c.24,3.21,3.12,1.99,5.16,2.16,2.01-11.04,6.93-17.19,9.03-28.09,10,7.85,20.36-5.37,24.53,0-.75-1.7-1.31-3.68-1.78-5.83,2.36-.02,4.65-.04,6.85-.05-.73,1.4-2.16,1.66-2.49,3.72,4.13-3.04,5.54,4.58,14.2,4.33,1.07-2.69,2.36-5.01,3.21-8.07,13.23.02,21.49.23,23.15.66,4.32,8.16,1.87,7.5,3.64,18.27,7.75-3.93,9.98-9.19,11.23-18.42,1.56,1.01,3.57,1.27,5.73,1.28v1.63c1.59,3.27,9.43-.6,9.7,4.15.63-1.54,1.73-2.52,3.13-3.18.32.44.61.94.84,1.52,1.25.56,1.47-.62,1.42-2.26,2.07-.43,4.5-.43,7.06-.28.2.82.38,1.65.54,2.54.1-.16.23-.27.33-.41v4.83c7.29,1.05,11.98-.88,16.33-3.18,1.47.05,2.9-.35,4.29-1.11v4.29c5.93.33,7.58-4.23,12.12-5.51-1.67,5.58,2.63,4.35,2.43,8.29,5.09,1.66,5.32-2.23,8.49-2.78h4.84s.11-.06.22-.1v2.17c.58-.98,1.27-1.76,2.01-2.46,2.11-.2,5.67-.39,10.59-.57,7.28.33,21.17.6,40.22.82.93,5.16.05,8.18,1.37,19.98,6.39-4.74,9.26-10.71,10.85-19.85,5.39.05,11.11.1,17.13.13.21.52.38,1.13.41,1.95.21-.73.48-1.35.77-1.94,4.33.02,8.8.06,13.42.08v6.18c8.52,1.77,13.69-2.04,18.73-6.1,1.05.01,2.14.01,3.21.01v6.08c4.55.35,6.74-3.26,9.42-6.05,1.04,0,2.07.01,3.12.01-.4,5.77,3.14,4.94,2.95,10.35,5.42,2.61,5.65-3.49,9.03-4.32h5.15c1.02-2.5,2.38-4.44,3.97-5.99,2.78.01,5.6.01,8.44.01-1.56,1.27-3.33,2.16-4.66,3.8,14.19,4.13,31.33,4.51,42.77-3.78,10.01,0,20.29,0,30.78-.02v5.97c4.17,2.67.98-7,5.16-4.33v-1.65c4.7-.01,9.43-.01,14.2-.02-.1,2.16-.2,4.32-.01,6,3.35,5.54,13.74,4.24,15.28-6.04,3.37-.01,6.76-.02,10.17-.04,2.53,1.58,4.29,4.46,4.23,10.39,7.99,1.85,6-13,15.49-8.65-1.61,13.5,3.56,15.64,6.45,21.61,5.01-1.7,8.67-5.63,10.32-12.96,4.45,4.06,3.3,4.06,7.74,0v4.32h2.58c.89-9.32,11.73-1.99,16.77-4.32.35,8.06,1.77,14.33,5.16,17.29.75-3.8-1.55-12.69,1.3-12.97h9.03c1.66-9.47,13.51-1.88,19.37-4.32v4.32h10.32c9.6-11.28,27.72-8.33,43.87-8.63-.54,10.99,9.77,3.8,7.75,17.28,11.16,2.15,15.68-6.86,19.35-17.28,8.03-2,10.15,9.19,15.49,0v8.63c4.17,1.23,6.49-.65,7.74-4.32,20.3,5.89,36.4,12.68,52.91-4.32,4.12-1.85,4.89,1.88,6.45,4.32,2.09-1.01,3.82-2.62,5.48-4.36-.06.55.1,1.22.59,2.05.11-.68.27-1.24.43-1.79-.09-.52-.14-.83-.18-1.13.03-.02.06-.06.09-.08.03.11.04.18.09.38.09,0,.16.02.23.04.14-.41.29-.77.45-1.11-.08.03-.14.07-.22.1.15-.16.3-.33.45-.49-.08.13-.16.24-.23.39.86-.18,1.82-.06,2.34.31v-1.52c-.52-.01-.94-.04-1.27-.05.42-.44.83-.89,1.27-1.3v1.35c2.13.06,5.31.11,5.23.17.09,1.96-1.57,2.99-3.4,3.99.42.26.81.52,1.2.76t-.03.01c-.04.07-.06.1-.11.16.06-.04.14-.09.19-.13,2.21,1.37,3.97,1.89,6.74-2.59v.56s.09-.01.14-.01c1.03,5.88-4.19,1.29-2.66,8.01h7.74c1.59,7-4.17,1.66-2.58,8.65,6.34.46,6.25-9.84,8.59-16.08h-2.14c-.78,8.54-.99,2.51-1.62-.59-.6,1.49-1.23,2.93-2.26,3.71.4-2.22.73-3.55,1.02-4.34.33-.07.68-.16,1.01-.26.08.26.16.55.23.89.15-.37.31-.73.46-1.1,1.27-.38,2.54-.83,3.8-1.33.01.6.02,1.18.02,1.89.46.43.85.79,1.2,1.12h1.3c0,.41-.06.73-.1,1.1,1.74,1.5,1.94.74,5.26-2.29.28,4.33-5.75,8.74-1.29,12.96,2.49-2.79,3.81-7.54,6.16-10.57.36-1.51.72-2.91,1.08-4.13-.1-2.18.09-4.72.56-5.45.15-.04.29-.09.43-.12.23.16.49.6.8,1.55-.6.5-1.2,2.01-1.79,4.02.04,1.07.16,2.01.35,2.63.44-.35.92-.67,1.45-.89-.68,2.05-1.15,1.94-1.45.89-.53.43-1,.93-1.43,1.5-1.65,6.84-3.28,15.63-4.87,17.06v6.47c5.6,0,11.18-18.73,16.78-18.73-2.15-18,14.4,14.05,12.9-2.88,2.37,4.13,5.9,4.79,9.01,3.32,6.28,8.19,10.72-5.01,18.03-2.21h.88c.16.5.32,1.07.46,1.77,6.19,3.02,7.95.95,10.27,2.01v.55c2.5,4.45,9.34,1.63,7.74,12.96,4.45.26,3.3-8.89,7.75-8.65h2.58c.59-7.16,6.95-13.4,11.67-12.53.01,1.43.3,1.55.73.89.1-.23.19-.37.28-.57,2.58,1.12,4.44,4.76,4.1,12.22v4.33h5.16v-12.97c4.45.26,3.3-8.89,7.75-8.65,3.97,1.62,1.57-7.45,6.45-4.32v30.25c4.17,2.67.98-6.99,5.16-4.32-1.79-8.76,2.8-6.84,2.58-12.97.14-.84.14-1.93.11-3.07,2.65,3.51,3.58,8.24,7.33,2.51-1.08-1.28-1.94-2.79-2.22-4.15,1.65-6.44,1.89.93,3.67,2.35.53-1.3,1.11-1.99,1.5-.19-.61.54-1.08.51-1.5.19-.31.74-.6,1.68-.84,2.51,2.37,2.37,5.62,3.39,7.5-.55-1.22-4.44-5.08-4.46-5.16-10.8.08-.04.19-.04.28-.07-.95-1.57-1.62-3.05-2.09-4.43,3.6.04,6.97.44,9.5,2.26,1.98,5.72,7.03-5.28,6.52,3.74-.41.61-.83,1.22-1.31,1.87-.47,3.73.75,3.34,2.5,1.95.73,2.97,1.27,7.63,1.37,11.01v.96s.02.01.03.01c0,.82-.01,1.55-.08,2.06v4.32h5.15v-5.13c6.09.3,10.84-4.48,13.69-12.17,1.99.89,2.82,3.74,3.03,7.61-.46,1.19-.88,2.32-1.17,3.3,3.86,2.18,4.91,9.05,9.03,10.8,1.59-7-4.17-1.66-2.58-8.65,4.45-.24,3.29,8.89,7.74,8.65v-10.8c.99-.01,1.82.23,2.58.57-.04,1.51-.15,3.12-.05,4.38,2.53,1.45,3.57.38,4.38-1.06,1.34,1.24,2.76,2.35,4.7,2.58,1.92-4.72,5.83-6.08,7.75-10.8.36,3.5-1.22,3.72-1.3,6.49h19.36c-2.7-14.61,12.52.8,11.61-10.8.95.57,1.76,1.38,2.57,2.18-.71-2.15-1.28-4.63-1.72-6.12,1.94-.93,3.59-.39,4.26,4.57v4.32c2.09.89,3.47.57,4.45-.41.25-.07.49-.11.76-.22,2.28-5.77,2.63-3.4,5.11-3.83v5.9c.56-4.82,2.28-7.69,5.16-8.63-.49,10.17,2.31,14.85,6.45,17.28,4.54-3.93,7.98-9.68,10.32-17.28.6.29,1.39.26,2.23.15,2.44,2.68,4.74,4.96,8.15,4.73,0-.16.01-.29.03-.45.47.85,1.1,1.23,1.82,1.28.96,6.9,2.96,13.47,7.19,12.39v-16.62c3.39-2.76,6.6-5.12,7.69-1h4.61c5.2,3.99,9.78,9.02,14.8,13.29-.71-4.79,2.46-3.07,2.58-6.49.07-.34.07-.57.12-.89-.21-1.57-.11-3.33-.1-5.04-.12-.34-.29-.6-.44-.88h.37c0,.08.04.13.05.22,0,.22.02.44.02.66.38,1.11.49,2.65.1,5.04.24,1.74.87,3.28,2.46,4.26,2.15,2.15,4.05,1.68,6.1.07,2.28.85,4.66,1.54,6.74,2.72h2.58c.16-6.21,1.61-10.25,6.45-8.64h1.79c.7,2.28,1.64,4.18,3.43,4.66,2.4-7.66,9.85-6.85,16.99-6.55-.02.51-.1,1.11-.28,1.89,2.16.82,3.83.83,5.28.45,1.42,4.79,3.53,11.4,5.1,9.73,4.08,10.04,10.8-.79,18.85-7.56.56-2.89,1.25-6.61,1.71-9.23-.33-.38-.66-.73-.99-1.09.76-.67,1.83-1,3.14-1.06,2.59,1.28,5.62,2.91,9.48,3.96v-3.33c.21,0,.39-.02.58-.04.73,1.06,1.47,3.87,2.2,6.5.12,2.11.04,3.63-.21,4.71,4.32,5.5,8.65,12.89,12.97,12.89-.78-7.78,3.94-6.36,3.87-12.96.95-.29,1.81-.63,2.63-.99-.09.52-.14,1.13-.11,1.85h2.58c.32-1.46.78-2.71,1.3-3.83.52-.33,1.03-.67,1.51-1.01-.26.01-.61-.1-.88-.11,1.69-2.99,3.96-4.99,6.22-7.01.76-.04,1.47-.12,2.1-.29v2.74h6.61c-1.72,6.22-2.59,17.62-.04,22.57,3.08-4.93,5.88-10.32,7.74-17.29v-.48c.56-4.83,2.28,4.78,5.16,3.84.15-1.24.21-2.35.28-3.46-.11.05-.16.02-.28.1v-4.32c.11-.17.23-.29.34-.45-.07-1.71-.26-3.22-.48-4.68,1.76-.4,3.62-.69,5.55-.9-1.49,1.27-3.15,2.95-5.07,5.58.06,1.41.03,2.99-.06,4.67,3.67-1.96.82,7.02,4.88,4.43-.48-3.68,1-4.08,2.58-4.33h2.58v-4.32c2.88.94,4.6,3.82,5.16,8.65-2.29,9.84-4.93,6.62-5.16,19.92,2.67-1.28,8.47,2.67,9.03-2.16-1.38-10.15-.8-17.66-2.48-23.62-.53.83-1.02,1.28-1.38,1.05-.13-1.87-.14-3.38-.1-4.73-.66-1.21-1.44-2.37-2.48-3.44.75-.37,1.77-.29,2.85-.13.18-.87.46-1.5.75-2.07,4.95-.01,10.02.12,14.92.05-1.15,4.1-2.62,7.65-1.8,15.03,2.07-5.13,5.4-6.73,9.23-6.95.15.77.14,1.72-.14,2.96,1.36.18,2.59.2,3.75.15.06.16.19.24.24.45.31-.26.69-.37,1.02-.57,2.14-.27,3.98-.88,5.54-1.82,5.27.88,10.38,1.12,13.98-3.13.23,1.16.46,2.39.68,3.58,3.49.57,7.11,1.18,10.73,1.52.52,1.19,1.02,2.43,1.44,3.8h2.58c-.09-1.52.09-2.61.37-3.54,1.62.02,3.24-.02,4.84-.22v-.48c2.14-.7,3.61-2.46,4.48-5.28h-3.13c.59-.78,1.05-1.79,1.17-3.37h1.21c.51.23.89.68,1.18,1.28-.13.71-.24,1.48-.43,2.09h.68c-.56,4.82-2.28,7.71-5.16,8.64v.96c3.92-1.37,11.12,2.76,12.9-2.17,1.87-8.17-3.55-4.15-2.58-10.8,3.03,2.84,5.87,6.02,11.61,4.33-1.91,9.67,3.78-5.85,2.58,2.63.93,5.87-6.08-1.55-5.16,4.33,2.61,2.84,4.49,6.88,7.75,8.65-.56-6.79,3.1-7.69,7.08-7-.11-.39-.24-.82-.39-1.32-2.67-1.6-4.54-7.61-5.62-11.23-.05-.02-.1-.02-.14-.05.02-.06.05-.11.07-.17.02.07.04.15.07.22,2.67,1.61,4.54,7.62,5.62,11.23.34.21.69.35,1.05.39.02.44.03.74.04,1.06,3.15.68,6.37,2.22,7.71,2.54,1.28-1.89,2.56-3.57,3.84-5.07,4.44,9.49,12.99,9.13,18.74,4.98l2.67-.72c2.31-.65,3.87-4.34,3.46-8.27-.19-1.73-.74-3.33-1.59-4.39l-1.77-1.2c-.66-.26-1.33-.65-1.99-.96,1.87-.23,3.87-.34,6.01-.37,3.24,2.45,5.8,4.82,9.86,2.32.53,1.83,1.22,3.4,2.01,4.82v10.94h5.16c.12-.77.27-1.49.43-2.18.31.57.63,1.16.91,1.79,1.22-6.6,8.03-3.84,12.9-4.32-.71-4.79,2.46-3.08,2.58-6.49-.04-.1-.09-.17-.14-.27.82.84,1.38,1.84,1.37,2.82,1.08-2.22,2.65-3.65,4.31-4.9,3.42,4.85,7.11,11.82,9.94,16.52-.23-6.13,4.36-4.22,2.58-12.97.95-1.52,2.3-2.48,3.9-3.1,8.59,5.16,19.25,9.65,23.14-.34,2.99,2.8,5.8,5.89,11.36,4.38-2.41,3.12-5.64,15.3-6.14,20.68,13.46-.52,28.91-8.07,38.65-16.58.01-.23.04-.46.06-.71.27-.15.46-.17.69-.27,1.12-2.15,2.04-3.49,1.89-1.41-.39.4-.88.79-1.31,1.2,3.74-1.04,3.16,5.13,6.47,4.8-1.22-7.8,5.08-3.01,7.75-4.32,1.19-5.44,3.57-9.34,6.4-11.86,5.5.02,10.87.04,16.1.05,1.69,1.91,2.92,4.55,3.3,7.97,1.36.69,2.34,1.43,3.15,2.16h-.4c-.51.4-.95.76-1.31,1.01.36,3.15,2.04,4.43,3.56,5.94-.52-1.73-.73-3.89-.83-5.96,2.06,2.24,2.79,4.29,6.15,5.01h2.58c10.69-15.03,28.74-9.78,42.01-16.57,3.22-.08,6.14-.17,8.78-.28,4.59,2.18,9.95,3.12,15.78,3.44v.45c2.07.43,3.63.26,4.83-.32,4.31.04,8.79-.12,13.33-.26,14.18,2.69,26.37,3.77,38.81-4.95,2.97-.9,4.09.3,5.11,1.61-1.57,1.37-3.39,2.27-4.78,3.91,2.86-1.19,1.83,4.12,3.87,4.32,8.5-19.83,23.55-3.35,40.01-6.47.64-3.99,1.79-7.13,4.12-8.29.47-.1.89-.19,1.38-.28.05-.07.1-.11.15-.17.63-.07,1.31-.07,2.09.1h14.42c-.93,1.06-1.59,2.4-.91,5.28h4.84c.62-2.35,1.79-4.08,3.44-5.28h2.72c.36-.28.74-.46,1.11-.69v6.29c1.42.23,1.32,2.18,1.22,4.15,5.91,5.29,10.1-3.18,16.96-1.39h2.43c-.36-1.99.37-2.72,1.57-2.91,5.15,4.28,9.79,9.58,12.84,14.01,1.81-1.72,2.57-5.18,4.14-7.27,1.52.07,3.24.13,5.03.19.78,8.05-4.32,6.28-2.73,15.72h6.45v-12.97c1.94-.99,3.95-1.77,5.99-2.46,19.15.48,46.04.83,68.72,1.66.9.43,1.84.79,2.71,1.29-1.35,10.97,7.41,16.28,11.61,10.8v-6.49c-5.23,2.99-4.09-4.69-7.74-4.32-.01-.39.04-.69.06-1.04,21.2.91,37.18,2.33,36.65,4.84,4.19.15,3.1-5.68,7.28-5.52h2.43c.13-1.06.56-2.07,1.17-3.01,3.9-.71,8.02-1.78,7.9,4.24h1.29c2.19.79,2.43-1.68,2.58-4.32.75,1.23,1.74,2.06,2.81,2.73,0,.12.01.22,0,.35v2.76h4.85v-1.51c4.12.5,8.96-.19,13.33-.11v4.39c3.93,1.69.93-4.48,4.86-2.77-.18-.6-.26-1.07-.31-1.52h1.56c-.3-1.56-.33-2.66-.24-3.59.66-.66,1.28-1.35,1.37-2.66,1.72-.9,4.58.13,6.61-.23h7.75c1.64-1.79,3.53-2.48,5.57-2.61.04.66.12,1.39.27,2.23,1.38-.51,2.93-.73,3.99-1.79.22.06.43.07.64.13.59,2.55.93,5.66.68,6.96v2.76h4.85v-7.86c4.54,1.67,9.26,3.39,13.68,2.34h5.78c3.79,1.44,8.88,6.77,9.7,12.96,6.64-3.12,10.46-10.97,14.33-18.74,5.99,2.22,8.89,7.94,17.11,7.63v-7.84c2.14.11,3.74-.4,5.03-1.3,1.06,1.34,1.94,2.91,2.24,3.62,3.12.35,9.47-7.29,10.91,0v2.76c4.23,1.23,5.35-1.1,6.31-3.61.63.44,1.32.71,2.13.68-.06,2.85.43,3.57,1.26,3.04v.8c.06-.38.2-.68.3-1.04.67-.62,1.52-1.91,2.48-3.61.61-.39,1.27-.69,2.06-.88-.46,6.51,2.16,9.5,6.06,11.05,4.26-2.5,7.5-6.18,9.7-11.05,1.27.43,3.43-.15,5.09-.16.06.38.06.72.14,1.12.23,0,.45-.44.68-1.06,1.13.18,1.82.88,1.37,2.88h2.42c1.9,2.55,6.46-.83,10.26-2.74.85,1.33,1.55,2.52,2.05,3.33.22-1.1,1.46-3.12,2.67-4.07.31.23.59.54.78,1.02h1.57c.15.72.21,1.68.14,3.05h2.58v-3.05h1.08c2.88,3.17,5.3,3.17,8.17,0h1.2c.12,3.62-1.32,9.85,1.16,9.52h6.45c0-4.82,1.04-7.89,2.94-9.52h11.8c7.87,2.91,13.63,2.95,18.8,9.52-.86-6.12,1.84-6.29,2.7-9.52h39.04c1.46,6.63,9.13,6.17,14.55,8.29h2.42c.16-3.99,1.52-6.57,6.07-5.54h4.85c-1.5-4.46,3.92-1.05,2.42-5.52,6.4-.13,5.07,4.43,9.7,0-1.79,5.26,5.41.28,3.63,5.52,7.3,1.88,8.91-2.72,14.55-2.76-1.15-5,4.78-1.93,7.27-2.77,4.72-3.37,9.03.78,18.18,2.45v-2.45c1.62,0,3.24,7.97,4.85,7.97,1.22-.55,2.34-1.23,3.44-1.94-.75.52-1.47,1.11-2.04,1.94,2.86-1.19,1.83,4.12,3.87,4.32,2.29-2.15,5.16-4.11,8.27-5.67-.18-1.28-.14-2.87.18-4.84h4.81c.09,3.22-2.95,2.88-2.78,6.19h2.42c.55-1.67,1.45-2.93,2.53-3.99,3.3-.8,6.63-1.05,9.7-.46,1.14-1.02,2.29-1.9,3.45-2.43.28-1.95,1.81-4.71,2.45-.63.04,0,.09-.02.14-.02-.05.06-.07.09-.11.15.04.24.08.45.11.76.7.1,1.4.28,2.09.49,1.42-1.38,2.88-2.8,4.29-4.17.04-.1.06-.16.09-.26.03-.29.07-.52.1-.8,1.59-.61,2.68-1.79,5.47-1.05,3.22.01,6.92-.51,8.49,1.39,1.3-1.19,2.61-2.37,3.6-3.91.93.07,1.86.05,2.77-.18-.2,1.71-.27,3.19-.28,4.58,12.2,11.5,23.38,35.9,30.73,24.24-.99-2.15-1.66-4.82-3.35-5.77,2.25-3,3.55-7.6,5.35-11.33,2.34.12,4.59.05,6.59-.56.19.44.42.82.75,1.02.18-.52.36-1.05.54-1.56.38-.18.77-.38,1.13-.6-.12.63-.19,1.35-.18,2.22-.68.27-1.12.17-1.49-.06-3.69,10.85-6.61,23.23-8.83,15.9-.16.32-.35.46-.51.73.88,1.93,2.01,3.45,4.39,2.88,4.31-5.76,6.42-15.18,9.03-23.78,1.94.12,4.43,1.05,7.23,2.41,1.2,1.43,2.31,2.94,3.14,4.79h2.42c-.06-.7.01-1.24.14-1.73,10.98,6.32,24.51,15.62,32.52,13.97.88-7.97,4.25-11.79,6.33-17.75.59.63,1.1,1.37,1.03,2.77,1.87.63,4.87.02,7.54-.23,3.5,7.1,11.41,7.47,17.19,5.22.12.62.24,1.26.36,1.84.78-1.27,1.81-2.12,2.97-2.76l.56-.11c.61-.11,1.13-.39,1.6-.77,3.73-1.02,8.43-.43,12.75-.45-.12,1.52.04,2.56.38,3.29.11-1.04.21-2.13.29-3.23v3.02h4.85c.48-2.06,1.29-3.76,2.73-4.74.26,1.15.52,2.24.78,3.23-.04-.45-.04-.96.01-1.57,4.06-.6,2.16-.76.78-2.39.83-.19,1.81-.23,2.97-.06h1.21c-.16-1.62.53-2.49,1.57-2.88.46.28.98.49,1.39.84.36-.26.7-.52,1.05-.8-.19.46-.38.91-.59,1.32,1.99,1.98,3.44,4.84,4.54,8.29-2.07-.13-3.6-1.43-4.81-3.21,2.76,7.56,5.34,15.05,7.4,11.85-.41,6.85,1.52-12.79,2.9-18.99.76-.38,1.5-.77,2.22-1.18h1.33c0-.06.02-.11.03-.17h4.01c0-.19,0-.4,0-.6h.81c2.41,1.1,5.45,2.48,8.64,3.66,1.27,7,2.8,14.16,4.59,12.96.61,2.05,1.2-4.24,1.8-11.01,3.17.72,6.18.9,8.62.15,1.47,5.55,2.73,9.9,3.77,6.54,8.83,3.34,10.94-7.85,15.48,0,2.01-11.15,35.91-.21,42.81-8.5,1.45.02,2.94.04,4.44.05.22.12.42.21.61.21.02.43.04.85.06,1.27,1.59-.18,3.38-.61,4.59-.24-.24.33-.51.67-.76,1.01v3.57h7.75c2.86,1.18,1.84-4.13,3.87-4.33.11,3.15-.47,7.41.9,8.41.14-1.18.44-1.34.88-.95,1.87-4.35,3.68-3.46,5.52-1.22.04-1.06.63-2.16,1.66-3.23-.01-.04-.03-.07-.04-.12.02.04.04.06.06.11,1.45-1.5,3.67-2.94,6.2-4.15,3.27.04,6.59.07,9.95.1.11.72.36,1.22.69,1.6.52,4.3,1.03,7.74,1.55,7.68,1.76.33,3.47.58,4.36-.55,1.3-.16,2.59-.32,3.89-.48,1.92.95,3.85.41,5.92-.54-.69,1.58-1.43,3.1-2.35,4.32,1.69.95,2.36,3.62,3.35,5.78.17-.28.36-.43.52-.73,1.86,6.15,4.22-1.57,7.1-10.62,1.48-.18,2.95-.37,4.42-.55.31-2.37.77-4.19,1.03-5.65.77,0,1.54.01,2.32.01-.47,1.66-.45,3.45-.31,5.26,1.73-.22,3.46-.43,5.18-.65h4.31v-.52c.16-.02.33-.05.5-.06-.14-1.21-.21-2.54-.21-3.95,1.05.01,2.11.02,3.17.04v1.39c.06-.01.12-.01.18-.02-.11.23-.28.4-.38.68.19.65.36,1.08.52,1.45.54-.06,1.08-.13,1.61-.19.19-.44.39-.95.6-1.44.16,2.68-.24,6.3,2.63,4.45-.38-2.99-1.33-4.32-2.46-4.84.28-.59.58-1.12.95-1.45.6,0,1.2,0,1.79.01,0,.01.02,0,.03.01-.48,1.27-.85,2.17-1.16,2.96.83-.11,1.66-.21,2.5-.32.05.55.12,1.06.06,1.8h5.16c4.91-4.28,10.23-3.29,16.39-1.56.03.05.03.1.06.15v-.13c1.76.5,3.57,1.04,5.48,1.55v-4.27c2.12.01,4.24.02,6.37.05.78,1.07,1.68,1.94,2.88,2.33.09-.87.24-1.61.43-2.32h.04c-.27,1.11-.38,3.05-.3,4.77.04-.13.07-.23.11-.35-.02.23-.06.44-.09.67,0-.11-.02-.21-.02-.32-.36,1.22-.73,2.61-1.08,4.12.19-.24.42-.44.63-.66-.09.43-.16.89-.24,1.29,1-.08,1.93-.28,2.02-1.88.14-.27.3-.63.46-1.15-.19.08-.34.23-.53.33-.04-.48-.05-.93-.21-1.61-.38-.18-.66-.55-.88-1,.53-1.73,1.08-3.04,1.62-3.47-.11-.33-.2-.51-.3-.73,3.72.02,7.43.04,11.14.06,5,5.73,9.51,9.22,12.62,7.54-.83-.46-1.51-1.21-2.01-2.07.55-1.04,1.45-1.57,2.09-2.48.46,3.71.8,7.62,4.34,6.52.36,1.01.92,1.87,1.8,2.44v-7.84h0c-.04,1.27.16,1.94.48,2.3-.02,1.06-.04,2.12-.04,3.18,3.02.06,5.46-2.18,7.65-4.74-.05.67-.13,1.33-.25,1.89,2.72.6,3.18-1.99,3.08-5.38.34-.41.68-.82,1.01-1.2.6.01,1.19.01,1.78.01,0,.77-.02,1.5-.14,2.08,1.99.74,2.72-.3,2.93-2.07,1.15.01,2.31.01,3.46.02v6.34c2.07.76,2.39-1.43,2.55-3.89.3.62.57,1.27.94,1.8.1.16.23.28.34.43-.19,1.66-.38,3.4-.58,4.94.44-1.56.88-3.07,1.22-4.12.08.08.18.15.26.23.39.99.71,1.17.95.8.76.51,1.62.85,2.6.93-.16-.51-.38-.9-.56-1.38-.05-1.66-.12-3.34-.14-4.95.02-.21.05-.42.07-.62,1.37,1.05,3.18,1.48,5.48,1.24-.4-.59-.8-1.13-1.21-1.71,3.7.02,7.35.04,10.97.05,1.65,2.13,2.98,4.8,3.43,3.06v-3.05c-1.12,1.28-2.07.89-2.93-.01.98.01,1.95.01,2.93.01V23.87c-7.52-1.49-16.66-1.64-17.47-7.99-2.83,6.91-4.14-2.94-9.65,0-1.13-5.18-2.68,10.35-4.63,16.02-.79,0-1.57,0-2.36.01-.63-5.94-1.25-22.81-1.87-19.85-1.69-1.58-3.02,13.84-3.96,19.86-1.62.01-3.24.01-4.86.02.04-1.95.09-3.93.09-5.77h-2.51c0-.06-.01-.11-.01-.17h-1.62c0,.1-.02.1-.03.17h-.35c-.85-3.3-2.31-24.47-2.04-17.91-1.28-2.8-2.89,3.78-4.61,10.43.75-1.56,1.71-2.69,3-2.82-.68,3.04-1.59,5.56-2.82,7.29.13.37.24.76.36,1.17-.21-.26-.43-.49-.65-.71-.49.6-1.04,1.08-1.64,1.4-.23.73-.46,1.4-.68,2-.73,3.17-1.37,5.19-2.61,2.79.85.87,1.74-.45,2.61-2.79.14-.59.27-1.19.42-1.84-.88.39-1.87.47-3.03.19-.95-5.02,3.87-4.9,0-5.71-.04-.54-.03-.99,0-1.39-.72,3.85-1.47,9.43-2.06,13.73-.82,0-1.63,0-2.44.01-.38-4.28-.51-10.29-.88-15.24-.22.63-.31,1.55-.24,2.89-4.21-.04-9,1.29-11.15-3.6-.74,5.11-1.52,12.11-1.86,16.02-1.01,0-2.01.01-3.03.01-.9-1.84-1.4-4.67-2.47-6.11-1.4,1.43-5.03,3.9-9.46,6.18-1.36,0-2.71.01-4.07.02,2.36-.44,4.32-1.2,5.49-2.39-.78-8.93-4.12-.83-4.83-9.94-7.33-2.12-22.13,5.59-28.34,6.12-.54-2.52-1.05-3.28-1.59-3.36.07,5.54,2.78,4.85,3.13,9.74h-.77c-1.15-1.99-2.2-5.57-3.17-9.55-.19.11-.41.23-.62.33-.56,1.72-.56,4.72-2.62,2.84-.68-1.06-1.2-2.49-1.69-4-.04.05-.08.11-.12.17.03-.11.06-.21.08-.3-.79-2.5-1.5-5.21-2.4-7.49.42,2.51.72,7.04,1.02,8.96-4.58-9.18-11.37-4.23-18.77,5.61,0,1.1.06,2.32.16,3.63-4.13.04-8.19.06-12.23.1-.09-.39-.18-.72-.24-1.18-.15.67-.15.48-.04-.32-.09-.65-.16-1.39-.21-2.21-.01-.1-.02-.13-.05-.23-.88-1.19-1.78-2.45-2.67-3.66-.44.17-.87.34-1.31.43-.01.26-.04.44-.07.66.03.06.05.07.07.13-.02,0-.06-.02-.08-.02-.4,3.59-1.35,1.16-1.53-.56-.72-.46-1.44-1.23-2.15-2.13-2.16.58-4.54.27-6.86-.68v2.22h-3.54c-.2-1.74-.22-3.13-.11-4.27-1.94-1.37-3.72-3.08-5.16-4.99-1.27.17-.63,4.85-2.41,3.8,1.58,3.22,4.81,2.57,4.82,9.51-2.71.87-6.09.13-9.33-.26-1.32,1.33-2.63,2.32-4.36,2.54l6.76,1.44c-11.08.09-21.57.17-31.3.24.2-.48.43-1.1.72-1.89-.63.2-1.1.68-1.22,1.89-1.73.01-3.45.03-5.12.04,1.22-.22,2.4-.57,3.47-1.15.06.24.07.2.05-.01,1.27-.67,2.45-1.56,3.53-2.72-.25.67-.48,1.34-.71,1.95.85-.24,1.96.06,3.02.24.14-.77.21-1.77.24-2.91-.24-.52-.43-1.07-.61-1.63l-52.03-11.08c-.75,7.47,2.8,4.8,1.61,13.32,7.92-.78,18.99-7.85,25.07,4.11-25.06.15-41.66.16-44.23-.1l-2.16-4.71c-7.46-2.77-6.24,4.61-9.95,6.65-.75-.98-.24-3.22-.56-4.61-4.08,1.55,1.03,3.27-.65,4.98-3.99-.27-9.29,1.67-11.46-3.05l-1.86,8.11c-.34.05-.69.07-1.05.12-1.3-.11-2.59-.22-3.89-.33.67-7.08-4.49-7.52-8.2-9.64-.33-.99-.71-2.12-1.14-3.44-3.02.59-4.02,3.12-4.66,5.83-2.2,2.11-4.37,3.65-6.61-.66-1.79.26-1.12,3.29-1.22,5.49-.39-.28-.78-.57-1.16-.88-.5-.98-.66-2.32-2.42-1.85-.08-.06-.16-.1-.24-.16.56-.52.97-1.32,1.01-2.17-.8-.05-1.97-.58-2.72-1.56l.75.98c.43,1.15,0,1.55-.52,2-.83-.32-1.67-.44-2.58-.16,4.6-11.55-7.08-10.05-12.66-10.43-5.18-1.01-4.61,4.85-6.78,7.43-1.39-1-2.59-2.21-3.43-3.84,2.17-2.44,6.19-4.19,3.26-8.6l-3.7,2.02c-1.23,2.04-2.39,4.4-3.58,6.63-1.82-.07-3.7-1.63-6.66-2.09-.43-.94-1.06-1.84-1.88-2.62-1.27,1.29-1.83,1.87-2.41,2.83-.11.02-.21.04-.33.07-1.17-2.59-2.64,1.94-4.4,6.38-2.31-.61-4.91-1.01-6.88.62-.68-5.12-1.36-11.36-2.05-9.78-2.22-.99-4.01,7.29-5.38,12.38-4.85-2.28-2.07-16.61-12.49-13.41,1.37,5.35-.46,6.8-3.27,7.18-1.11-5.12-2.19-12.36-1.89-8.89-1.93-2.05-4.36,2.73-6.96,7.56,1.15-1.13,2.58-1.95,4.53-2.04-.64,1.37-1.42,2.55-2.34,3.58-.83.09-1.59.26-2.29.52.04-.09.07-.16.11-.23-.07.09-.11.18-.18.27-.49.18-.98.39-1.37.71-2.17-.41-3.4-1.8-4.53-3.66.35-.3.68-.63.9-1.1-.34-.35-.74-.05-1.17.63-.63-1.1-1.25-2.33-2-3.63-1.1,1.12-3.92,1.44-4.53,3.56.19,4.02.85,8.04,1.87,12.02-.85,2.95-1.43,4.68-1.45,2.96-.93-.26-1.47-1.59-1.86-3.44h.1c-.05-.16-.13-.26-.18-.41-.51-2.68-.72-6.32-1.14-9.61.19-.23.37-.45.66-.56.85-2.76-.36-2.94-1.64-3.01.23.74.42,1.63.58,2.56-.14.41-.24.89-.14,1.58-6.12-.02-13.01.83-16.41-2.29.24-.79.48-1.54.7-2.1-.63.54-1.2,1.15-1.27,2.4-1.24,4.24-2.48,9.9-2.82,12.16.14-.04.25-.01.4-.04-.51,1.52-.58,1.26-.4.04-5.17.98-5.33-3.79-8.08-5.57-6.93,3.4-24.93,14.94-30.31,2.78,7.8,1.84,10.91,3.59,18.18,0-1.18-6.5-6.2-8.6-7.27-15.19-11.06-1.55-8.84,12.02-18.18,12.41-2.45-5.49-4.44-11.5-8.49-15.18-2.24-.37-3.3.61-4.12,1.83.16.18.33.27.48.48,2.08-4.68,4.83,3.22,8.29,10.17.36-.16.78-.22,1.41-.05-.14,4.77,4.99,3.52,4.84,8.29-2.3-1.04-4.37-4.5-6.25-8.24-1.72.71-.85,4.39-4.65,2.71-3.17-2.37-4.34-7.01-7.28-9.66,1.59-.61,2.23-2.32,3.15-3.69-6.86-7.39-17.26,7.93-28.64,15.33.5-2.45,1.78-3.95,3.67-4.66-3-1.18-5.55,3.33-7.99,7.87-.58.1-1.18.16-1.77.29-.7,1.12-1.4,2.12-2.11,2.9-.09.02-.17.06-.25.07-.21.26-.41.51-.61.77-.98.78-1.98,1.05-3.03.45.96-1.16,1.97-2.27,2.98-3.38-5.57,1.6-10.05,2.91-10.25-6.74h7.28c0-5.52-3.06-7.57-8.49-6.9-6.49,9.56-24.86,5.78-33.93,0-1.91.12-.95,3.52-3.65,2.76,2.4,2.34,7.26,1.88,7.28,6.9-9.26,1.43-100.77-3.11-106.12,2.76-7.74-1.32-10.35-8.46-19.41-8.28-5.44,6.69-14.08,9.72-26.66,8.28-1.32-3.54-3.87-5.71-8.48-5.51-1.5,4.45,3.92,1.05,2.42,5.51-4.91-1.89-3.83,3.01-7.28,2.77-8.46-12.18-27.02-6.12-39.99-5.52,1.79-6.18-3.55-4.23-2.43-9.66-5.48,4.73-11.66,4.15-20.6,6.9h-2.44c-5.42.66-8.48-1.39-8.48-6.9h-6.06c-2.63-.23-.55,4.89-1.21,6.9-3.52-3.15-6.18-3.15-9.7,0v-2.77h-2.43c.46,5.78-4.41,1.51-4.85,0-2.47,2.72-10.47,12.29-13.33,5.52h-2.43c-1.67,5.58,2.63,4.38,2.43,8.29-3.18.98-5.45,3-4.85,8.28h-10.91c-.36-2.71,1.64-2.74,2.43-4.15-3.78-.57-14.84,2.4-14.55,11.05-7.17-.11-6.36-9.33-10.91-12.44-.27-2.6,1.37-3.02,1.21-5.51h-1.21v2.77c-1.02-.33-4.69-.83-10.17-1.45,1.76.45,2.83.93,2.9,1.45-1.38,3.95-3.8,6.71-7.28,8.28-3.07,0-58.59-11.61-77.11-15.01,16.7.66,34.53,1.33,49.51,2.16-40.87-3.65-97.5-7.74-104.38-6.47.75,1.56,16.11,2.61,36.35,3.54-12.35,1.89-30.49,5.88-39.44,6.15-9.69-5.28-12.39-18.52-23.57-22.11-1.04,5.3-9.27,9.63-12.12,8.28h-2.43c-9.7-1.56-20.93,6.51-27.88,1.38h-7.27c-3.28-.4-8.98,1.94-7.27-4.13h-3.65c-7.6.54-17.76-1.82-21.81,2.76-.15-1.68-.37-3.27-2.43-2.76h-1.21c.17,5.72-8.44,1.44-12.12,2.76h-7.27c.11,2.17,3.08,1.09,2.42,4.15-6.64,2.5-3.05-6.65-9.7-4.15,1.37,1.67,3.45,2.5,2.43,6.9h-11.26c-2.9-2.21-5.66-4.73-5.02-15.32.66-.27,1.22-.35,1.72-.3-1.3-1.32-2.88-2.57-4.94-3.51.04-5.79-2.9-4.56-2.41-11.4-2.7,0-5.4,6.5-8.09,11.35.13.78.19,1.84.16,3.22-1.36,1.44-2.14,3.48-1.68,6-.51.19-3.4.38-8.19.56.29-.44.56-.8.86-1.28-.28-2.32-.72-5.58-1.07-8.13-5.02-5.95-9.21-15.49-11.75-6.65-1.8-2.71-4.76,19.29-4.02,10.57-5.03-.15-11.12,2.18-12.87-5.72-2.09.78-2.32,5.93-3.23,9.52-7.26-2.61-9.8-16-13.67-10.57-1,.87-1.38,2.21-1.54,3.74.25,2.11.18,3.46-.06,4.44.01,1.88-.06,3.69-.74,5.04-.26,0-.54,0-.8.01.19-2.46,1.1-3.22,1.54-5.05,0-1.51-.06-3.05.06-4.44-.03-.28-.03-.48-.08-.78-.06-3-2.04-1.49-1.61-5.71-4.76,5.72-8.87,13.03-14.74,16.16-.72,0-1.42.01-2.15.02V7c-4.07-1.49-4.83,13.14-5.01,20.03h-.24c-.09-1.89-.2-4.6-.38-8.41-3.42-.33-5.04,5.08-8.19,8.51-2.1.01-4.23.04-6.37.06-.06-.72-.1-1.3-.11-1.68-.09-.05-.18-.1-.25-.12-.42.02-.74-.32,0,0,.09-.01.16-.04.24-.1,0-.37.04-.41.11-.1.2-.23.31-.72.09-1.71-1.72,2.61-3.37,2.68-5.07,3.76-.52,0-1.04.01-1.57.01.75-2.41,1.31-3.18,2.62-5.68-3.2-3.22-3.02,2.06-4.83-4.43-1.42-.77-2.4-.55-3.22.06v7.55h-2.76c-.21.93-.36,1.17-.46,0h.46c.28-1.24.66-3.68,1.15-5.73-.51.71-1.02,1.41-1.61,1.91.56-10.21-65.47,3.35-63.79-9.5h-12.07c.04,2.44,1.03,2.62.8,5.71-1.2-4.16-3.64-5.37-4.83-9.51-3,.5-4,5.75-7.24,5.71V3.83c-2.77-.22-2.05,7.82-4.83,7.61-1-6.15,2.6-1.45,1.61-7.61-2.57,1.55-3.23,7.58-5.63,9.51.94,4.45,3.92,11.86.7,14.62h-.81c-1.8-11.71-6.46-18.86-12.77-14.62v3.89c.12.04.24.07.36.11.8-1.04,1.69-1.99,2.66-2.17.4-1.09.91-1.91,1.81-1.83-.38.74-.71,1.37-1,1.89.33.12.66.29,1,.65-.22,1.17-.5,2.01-.8,2.67.12.33.25.69.4,1.09.42.6.83,1.76,1.25,2.89.66,1.26,1.45,2.27,2.38,2.44-.06.15-.12.23-.19.33.54.28,1.15.66,1.92,1.12.14-.12.29-.18.44-.2.26-.51.57-.96,1.05-1.26-.33-2.66.36-.21-.06,2.22.03.04.04.06.06.11-.02-.02-.04-.04-.07-.05-.05.26-.16.49-.23.73-1.02,0-2.04.01-3.05.01-.87-.77-1.25-2.17-1.53-3.1-.49.01-.98.22-1.55.71.95-2.16,1.22-1.78,1.55-.71.09-.01.17-.01.25,0-.32-.61-.63-1.48-.96-2.37-.49-.93-.9-1.96-1.25-2.89-.26-.38-.53-.51-.79-.32-1.36,2.24-2.71,1.63-.41,7.97-1.83,1.38-6.28-8.93-5.63-1.7.46.84.84,1.65,1.19,2.43-3.09.02-6.16.04-9.21.05.19-5.06,2.45-5.26,3.19-9.02-1.17-3.46-3.2-2.57-4.68-.48.15.72.33,1.55.53,2.2.26-.28.56-.29.93.17-.24,1.59-.61.99-.93-.17-1.11,1.26-1.26,7.74-2.29,2.07.18-1.18.71-2.51,1.38-3.65-2.97-6.41-3.09,2.09-6.21,4.29-.46-3.57-.63,1.76-.49,4.61h-.43c-1.35-.73-1.69-1.62-2.06-2.48.19.85.36,1.67.53,2.49-4.79.01-9.51.04-14.13.05.06-.44.09-.85.22-1.37-.31-1.04-.66-2.27-.98-3.35-.23-.57-.46-1.24-.71-2.1-.29-.62-.48-.51-.46,1.09-1.23-.99-.72,2.48-.24,4.73.08.12.16.2.24.34.07.33.09.45.13.66h-.13c-.07-.28-.15-.61-.24-1-.46-.74-.93-1.24-1.42-1.52-.78.45-1.25.21-1.56-.44-.35.93-.92,1.93-1.87,2.99h-.55v-3.51c-.53-.22-1.07-.56-1.61-1.18.53-16.45-4.43-3.48-9.65-6.34-.14,5.3,2.61,3.8,1.64,11.06h-1.97c-.53-1.54-.52-4.37-2.09-3.45-.04-5.8,2.9-4.56,2.41-11.41-2.67,4.65-19.33.28-24.44,3.8-1.22,8.96-4.61-1.71-5.48,2.66,3.05-2.26,2.44,4.21,4.68,3.89-1.32,1.4-2.71,2.79-3.59,4.56h-3.24c.59-1.05,1.24-1.96,1.64-3.46-1.03-2.33-2.27-2.34-2.95-.99.11-.45.16-1.13.09-2.23-1.88-5.63-6.39-7.96-8.85-1.9.93-14.89-9.39,13.3-8.05-2.52-3.49,0-6.98-16.49-10.46-16.49v5.71c.98,1.26,2,8.99,3.03,15.01.27.5.57.94.9,1.32.18-.93.48-1.02.9.79-.33-.21-.63-.48-.9-.79-.11.55-.19,1.38-.22,2.32.33,1.55.65,2.65.98,3.22h-.91c-.08-.95-.1-2.13-.07-3.22-.23-1.07-.45-2.3-.68-3.63-1.46-2.67-2.29-6.85-3.83-9.3-2.79,3.71.98,7.6.8,11.41-2.08-2.68-2.2-3.35-3.29-2.02.03.32.06.6.06.96h-.8c-.22.28-.46.61-.75.99.01,1.73-.03,3.17-.05,3.88h0c-.01.17-.02.29-.02.36,0-.08,0-.19.02-.36-1.45-.1-2.01-2.27-2.61-4.35-.27,1.9-.68,2.56-1.4-3.27.63.7,1.03,1.96,1.4,3.27.39-2.72.52-8.02,1-.51h1.33c-1.45-5.5-1.4-14.56-5.35-14.16-.99,6.15,2.61,1.45,1.62,7.61h-4.83c-.99,6.15,2.61,1.45,1.61,7.61-3-6.94-4.11-.52-8.05,0-.99,6.15,2.61-20.52,1.61-14.38h-4.83v8.13c.52.22,1.06.29,1.56.04.16-2.38-.24-6.11,1.66-4.36-.25,2.79-.9,3.96-1.66,4.36-.1,1.45-.4,2.39-1.56,1.34v-1.38c-1.99-.84-3.51-3.61,0,3.91,2.61,2.35.62-6.16,3.22-3.8.11,4.37-1.71,4.17-1.82,8,.07.07.14.12.21.24-.04.49-.12.87-.18,1.32.04.56.08,1.13.18,1.85h-.48c-.18.73-.38,1.41-.62,1.98-.03-.3-.06-.62-.21-1.06-.49.21-1.22.72-2.04,1.24-.03-.55,0-1.23.13-2.16h1.01c-.4-1.61-2.66-1.29-3.42-7.61-1.82,4.36-3.41,3.93-4.83,1.72v5.6c-10.96,1.01-24.52.96-35.71-2.93v-8.29h-6.06c-1.59,6.43,4.02,4.62,2.43,11.05-5.61,1.32-5.65-3.68-8.49-5.54-2.61,2.57-6.45,5.62-10.76,8.22-.01-4.52-.03-8.43-.04-8.43-.89-.39-16.05,10.04-16.42,10.78l-3.54,2.98c-.61-.12-1.2-.29-1.78-.51,0-1.12,0-2.23-.01-3.34-.34-.05-.69-.11-1.03-.17-.52-.1-1.03-.17-1.55-.26,0-1.51-.01-3.02-.01-4.55-5.38,2.09-9.74-.56-13.7-5.36-1.07.01-2.15.02-3.22.02.05.66,0,1.11-.03,1.59-.52-.09-1.04-.17-1.56-.24.19.67.43,1.48.73,2.59-1.22,1.3-1.75-1.3-2.21-2.83-.33-.06-.68-.12-1-.18-.1.32-.21.73-.33,1.29.85,3.61,3.49,3.61,3.57,8.78l5.03,2.07h-5.31c-1.52-2.29-3.62-4.43-9.47-5.51h-1.59s0,0,0-.01c-.61-.07-1.2-.1-1.79-.15,1.03-1.16.16-3.56-.29-8.15-.63-.12-1.25,4.91-1.87,8.06-.48,0-.95-.01-1.42,0-1.57-6.77-2.87-11.69-3.89-6.85-.11-.27-.22-.4-.33-.65-.61,1.91-1.03,4.27-2.08,5.11.44.8.8,1.79,1.15,2.83-.46.06-.9.11-1.35.18-.64-.16-1.26-.11-1.88.28-.09.02-.16.02-.25.05-.77-.13-1.53-.27-2.31-.39-.56-.99-1.62-.76-2.72-.46-.36-.06-.71.82-1.05,1.85-.52.07-1.04.16-1.54.22-.06-1.07-.18-2.02-.35-2.83-.14,1.06-.28,2.04-.46,2.9-2,.21-3.92.27-5.71.05-.39-1.27-.78-2.52-1.17-3.15-.6.4-1.25.65-2.04.58-.21.59-.58.91-1.03,1.07-.04.11-.06.11-.11.2-.06-.04-.11-.09-.18-.11.09-.04.19-.06.29-.09.11-.33.24-.73.38-1.24.22.07.44.15.64.17.2-.5.3-1.17.18-2.3.61-.16,1.23.74,1.86,1.72.89-.6,1.68-1.43,2.7-1.71-1.59-1.04-2.99-2.29-3.9-3.62-.01.04-.03.06-.04.1.01-.05.02-.07.03-.11-.64-.94-1.02-1.9-1.04-2.83-1.14,1.99-2.28,2.78-3.45-1.04-.27.34-.46.21-.56-.84-.85.89-.48,4.63-.53,7.4-1.27-.16-.64-4.84-2.42-3.78-.54,0-1.08.01-1.62.01-1.07.01-2.14.02-3.21.04,0,1.05,0,2.1,0,3.15.16.28.33.59.48.88-.76.34-1.87-.02-2.87-.19-.01.37-.02.74-.04,1.11-.4.04-.83.62-1.67,1.77-.56,1.8-.92,2.79-.73.8-1.2-11.45-26.08-4.39-27.47-15.05-2.81,6.94-4.15-2.9-9.65.08-1.01-4.56-2.29,7.02-3.91,13.73-1.09,0-2.18,0-3.25.01-.58-7.11-1.16-20.11-1.7-17.49-1.53-1.4-2.71,10.79-3.6,17.71-1.77.11-3.5.27-5.15.5.02-1.35.05-2.72.04-4-.84,0-1.67.01-2.51.02,0-.06-.01-.11-.01-.17-.53,0-1.08,0-1.62.01,0,.1-.02.1-.03.17h-.35c-.85-3.29-2.39-24.45-2.09-17.9-1.29-2.79-2.88,3.82-4.58,10.47.75-1.57,1.71-2.71,3-2.84-.68,3.04-1.57,5.57-2.81,7.32.13.37.25.74.37,1.16-.21-.24-.43-.48-.66-.7-.48.6-1.03,1.1-1.64,1.41-.23.73-.45,1.4-.68,2.01-.73,3.17-1.35,5.21-2.6,2.8.85.87,1.73-.46,2.6-2.8.14-.6.27-1.21.41-1.85-.88.4-1.87.5-3.03.22-.98-5.01,3.85-4.93-.02-5.71-.04-.54-.04-.99-.01-1.39-.72,3.95-1.47,9.68-2.06,14.04-.75-.05-1.55-.11-2.4-.16-.4-4.27-.53-10.34-.94-15.33-.21.63-.3,1.56-.22,2.9-4.21,0-9,1.37-11.16-3.5-.69,4.83-1.4,11.3-1.75,15.31-1.12-.04-2.29-.07-3.49-.11-.68-1.77-1.17-4-2.09-5.22-1.14,1.17-3.75,3.06-7.07,4.98-.77-.02-1.56-.04-2.35-.06.53-.3,1.01-.63,1.39-1.02-.81-8.93-4.12-.79-4.86-9.9-7.33-2.05-22.11,5.78-28.31,6.38-.56-2.52-1.07-3.27-1.6-3.35.07,4.45,1.85,4.83,2.74,7.33-.49-.01-.97-.01-1.46-.02-.73-1.98-1.43-4.44-2.09-7.1-.2.11-.41.23-.62.33-.55,1.72-.54,4.72-2.61,2.87-.68-1.05-1.21-2.48-1.71-3.99-.04.05-.08.11-.11.17.02-.11.05-.21.08-.3-.8-2.5-1.53-5.2-2.43-7.46.43,2.5.74,7.02,1.05,8.95-4.61-9.14-11.39-4.12-18.76,5.78,0,.12.02.28.02.4-4.09-.05-8.28-.09-12.57-.13,0-.05,0-.09-.01-.13-.01-.1-.03-.13-.05-.23-.88-1.2-1.79-2.44-2.68-3.63-.43.17-.87.34-1.31.44-.01.26-.04.44-.06.66.03.06.04.07.07.13-.03,0-.06-.02-.08-.02-.39,3.58-1.35,1.17-1.53-.55-.73-.46-1.45-1.22-2.16-2.12-2.16.61-4.54.32-6.86-.62,0,.74,0,1.48,0,2.22-1.18.01-2.36.02-3.55.04-.2-1.74-.23-3.13-.12-4.27-1.95-1.35-3.74-3.05-5.18-4.94-1.27.18-.61,4.85-2.4,3.83,1.54,3.12,4.64,2.61,4.83,9.01-7.8-.07-15.86-.13-24.15-.19-2.25-3.24-4.34-6.88-8.03-6.68-.79,2.02-1.7,3.78-2.7,5.3.14.45.32.88.5,1.3-5.63-.04-11.35-.07-17.17-.11-.96-1.68-2.22-2.65-3.96-2.49-.19,1.21-.17,1.93-.08,2.46-3.17-.02-6.37-.04-9.59-.06-3.77-2.06-8.23-1.21-12.52-.07-2.46-.01-4.93-.02-7.41-.04.41-6.27-2.47-4.66-1.81-11.52-3.62,6.57-7.72,5.78-13.64,9.63-.54,0-1.07.01-1.61.01-3.61.94-5.65-1.85-5.67-9.46-1.35.01-2.68.02-4.02.04-1.74-.32-.34,6.74-.77,9.52-2.35-4.33-4.12-4.3-6.44.05,0-1.27,0-2.54-.01-3.8-.54.01-1.07.01-1.6.01.33,7.95-2.93,2.11-3.23.04-.51,1.16-1.37,3.24-2.36,5.28-12.87-.06-25.99-.11-39.3-.17-1.05-1.13-2.36-1.61-4.18-.9.08.33.19.58.29.89-2.85-.01-5.7-.02-8.55-.04-2.62-7.24-5.06-14.91-9.5-17.81-.66,7.32-6.11,13.32-8.01,11.49-.53,0-1.08,0-1.61.01-6.45-2.1-13.87,9.08-18.5,2.06-1.61.01-3.22.02-4.83.05-2.18-.55-5.95,2.72-4.85-5.67-.8.01-1.6.01-2.41.02-5.05.79-11.8-2.4-14.47,3.93-.1-2.33-.26-4.49-1.62-3.78h-.81c.14,7.88-5.59,2.04-8.03,3.88-.53,0-1.07.01-1.61.01-1.07.01-2.14.02-3.22.02.09,2.94,1.97,1.56,1.64,5.49-.81,0-1.62-.01-2.43-.01-1.18-2.21-.88-7.93-4.03-5.43.66,1.63,1.54,2.71,1.76,5.41-3.74-.01-7.49-.02-11.23-.04-1.25-3.52-4.02-3.37-6.27-4.48.76,1.22,1.64,2.16,1.95,4.45h-1.16c-.58-1.5-1.15-3.52-1.54-4.95-.13-.1-.28-.15-.4-.26-.33-2.33-.09-1.5.4.26.24.18.49.38.75.5-.65-1.04-1.2-2.32-1.16-4.99,2.28.32,1.54-6.44,4.81-3.84,0-1.89,0-3.79-.01-5.71-2.63-4.79-8.08-.07-7.2,9.57-4,3.24-8.62,5.02-14.47,3.93,1.06,2.96,1.56,4.49,1.81,5.41-1.95,0-3.9-.01-5.86-.02.23-.5.31-1.34.04-3.02-.52.46-1.45,2-2.36,3.02-.73-.01-1.46-.01-2.19-.01-.26-.87-.39-2.37-.29-4.87-7.47,1.68-17.09,2.02-24.95-3.58-.01-3.82-.02-7.61-.04-11.41-1.35.01-2.68.02-4.02.04-1.03,8.87,2.69,6.34,1.66,15.21-3.72,1.84-3.77-5.06-5.66-7.57-1.82,3.77-4.56,8.29-7.63,12.01-11.63-.05-23.2-.11-34.69-.16-.11-.62-.21-1.27-.28-1.95-4.07-1.06-8,.59-11.58,1.89-3.1-.02-6.18-.04-9.26-.05-1.54-1.26-2.93-3.47-4.12-7.33-1.26.18-.61,4.85-2.39,3.82.88,1.48,2.06,2.27,3.05,3.49-4.85-.02-9.68-.05-14.48-.07-.09-.76-.08-1.74.17-3.3-11.53,2.24-24.56-2.01-33.37,3.1-2.36-.01-4.71-.04-7.05-.05-8.22-5.23-19.07-1.05-25.6-13.89-.54.01-1.07.01-1.61.01-3.08.98-2.56,4.4-6.42,7.24-.2,2.62-.78,4.76-1.62,6.38-3.73-.04-7.44-.06-11.11-.1-1.48-2.21-2.7-5.35-3.36-9.52-1.67-1.13-5.59,3.13-4.84-3.76-2.07-.26-1.69,5.17-4.02,4.27.26.35.58.69.82,1.05.1,1.83-.48.65-1.18-1.24-.15-.07-.27-.1-.43-.23-.01-.21-.04-.4-.04-.61-6.1-7.44-15.75-14.01-24.14-14.39.34,4.94,2.56,16.45,4.08,18.56,1.07,0,2.15-.01,3.22-.02,3.94.5,5.06,6.89,8.05-.07-.33,3.11-.32,4.82-.12,5.78-4.81-.04-9.58-.09-14.28-.13-6.46-5.1-17.6,2.74-21-4.9,1.09-7.72-1.77-6-1.64-11.4-1.95,4.62-4.56,11.73-6.86,15.97-1.41-.02-2.83-.04-4.22-.05.32-1.52,1.1-1.98,1.47-3.38-.09-2.99-2.06-1.46-1.63-5.68-3.03-.4-7.28,2.06-8.06-3.73-1.47,4.73-3.82,7.39-5.08,12.61-5.8-.07-11.46-.16-16.98-.24-2.8-2.17-5.24-5.54-7.7-10.62-.83.28-2.83,1.66-4.8,2.28,0,.27,0,.55-.02.91-.23.05-.45.17-.66.35-.4,1.95-.98,4.67-1.76,6.83-.34,0-.68-.01-1.03-.01.68-2.79,1.59-5.79,2.78-6.82.09-.44.18-.82.24-1.16-2.48.65-4.76-.13-4.43-6.11-2.03,1.56-32.71,5.39-34.32,7.9-.56,5.18,33.31-1.65,32.75,3.52.75,7.23-30.34-5.08-31.06,1.96-2.04-.05-4.06-.1-6.03-.16.48-.72.81-1.82.31-4.87-1.13-4.33-5.6-.66-8.05-1.83v.83c1.51.7,2.48,2.66,2.98,5.74-.24,0-.49-.01-.73-.01-.55-1.4-1.29-2.33-2.24-2.76v-.43c-4.12-.63-8.41.54-12.44,1.5-.06.4-.11.82-.16,1.23-.95-.04-1.89-.07-2.82-.1-.03-.17-.05-.3-.08-.48-.97.18-1.92.32-2.83.37-.6-.02-1.17-.04-1.76-.06-2.09-.15-4.02-.8-5.6-2.55-.1.61-.28,1.02-.51,1.37-.07.35-.18.61-.26.93-5.81-.26-10.92-.52-15.24-.81.88-5.15.59-11.52,1.39-20.07ZM873.53,22.17v-.12c.13-.11.27-.04.42.15-.14,0-.28-.01-.42-.02ZM488.78,28.06c-.11-.65-.23-1.39-.36-2.4.49.52.83,1.44,1.13,2.4h-.78ZM489.94,28.06c.3-2.72.44-6.24.88,0h-.88ZM103.71,30.45c-.83.18-1.57-1.04-2.19-2.73,1.18-.12,2.37-.26,3.59-.39-.75,2.61-1.48,4.8-1.4,3.12ZM4.32,25.55v-5.52c4.17-1.07,5.79.77,4.85,5.52h-4.85ZM1506.73,1031.47c-.35-.54-.64-1.17-.86-1.91.3-.05.61-.07.86-.21v2.12ZM937.57,1020.21c-.78,0-1.58.01-2.35.01.72-.01,1.48-.02,2.22-.02.04,0,.09,0,.13.01ZM959.61,1020.07c-3.95.02-7.82.05-11.56.07.04-.04.09-.07.13-.11,3.73-.05,7.52-.1,11.43-.15v.18ZM1019.8,1019.79c.49-.22,1-.4,1.51-.57,1.68-.01,3.34-.04,5.03-.05-.07.19-.12.41-.2.6-2.13,0-4.24.01-6.34.02ZM1065.52,1019.61c.24-.26.46-.52.69-.79,8.65-.07,17.46-.13,26.43-.21-.02.3-.04.59-.06.9-9.19.02-18.21.06-27.06.1ZM1112.02,1019.44c-4.73.01-9.4.04-14.05.05.12-.32.24-.65.39-.91,4.52-.04,9.07-.07,13.65-.11,0,.32,0,.65,0,.98ZM1605.28,1028.88c-.12.15-.26.29-.38.45-.66,1.29-1.33,2.6-2,3.28-.23.45-.44.87-.63,1.23.48.76.93,1.71,1.28,3.04-.55.4-1.08.61-1.6.73.47.6.99,1.32,1.6,2.16-1.25.07-2.02-.65-2.63-1.65v-5.88c.24.22.48.45.72.73.43.22.85.07,1.27-.37.56-1.05,1.22-2.23,2-3.28.09-.16.16-.3.24-.45h.14ZM1879.65,1030.35c-.06-1.67-.01-3.17.15-4.48.28,2.06.18,3.45-.15,4.48ZM1874.52,1025.84c-.06,0-.12,0-.18.01.08-.04.15-.09.23-.12-.02.04-.03.07-.05.11ZM1695.11,1023.47v3.37c-.49-.73-.94-1.5-1.41-2.54.32-.43.7-.77,1.12-1.01.1.06.2.12.29.18ZM2173.47,1028.85c.04,1.05.16,2.3.41,3.95-1.33-2.17-2.42-3.17-3.45-3.49.82-.48,1.8-.68,3.03-.46ZM2179.39,1024.58c-.66.85-1.53.87-2.42.69.21-.22.41-.48.62-.71.61.01,1.2.01,1.8.01ZM3501.08,1028.36h-.58c.03-.22.05-.44.1-.65.14.26.33.41.48.65ZM3364.98,1024.15c-.27.11-.53.17-.8.12,0-.05,0-.07,0-.13.26.01.53.01.8.01ZM3193.78,1017.27c.05.34.09.65.15,1-.3-.13-.62-.23-.91-.38-.33-.21-.68-.4-.99-.62h1.75ZM3426.54,29.83c2,.99,5.99,1.94,10.4,2.46-3.19.02-6.37.05-9.53.07-.36-.76-.66-1.59-.86-2.54ZM3306.66,32.99c1-6.15-2.61-1.44-1.62-7.6,3.07-.26,4.76,2.72,5.64,7.6.52.12,1,.16,1.51.23-2.73.02-5.4.04-7.96.06.48-.89,1.13-1.33,2.43-.29ZM2989.85,37.94c.16-.11.33-.2.49-.31,0-.5.08-.88.12-1.32.04.54.04,1.04.14,1.65-.26-.04-.51,0-.75-.02ZM3001.51,43.5v-5.54c4.18-1.07,5.8.78,4.85,5.54h-4.85ZM2939.69,49.02h6.07v5.52c-2.29-1.54-5.57-1.94-6.07-5.52ZM2449.45,28.31c2.31.57,5.22.5,4.85,4.15-3.17.39-6.07.46-4.85-4.15ZM774.6,25.2c0-.83-.02-1.66-.02-2.48.07.12.14.24.21.37,0,.84-.06,1.56-.19,2.11.02,1.93-.07,3.78-.8,5.13-.23-.21-.47-.38-.71-.52.25-2.12,1.09-2.88,1.51-4.61ZM419.5,26.76c.01.44,0,.91-.01,1.4h-2.22c.74-.48,1.48-.95,2.24-1.4ZM2472.64,42.13c-2.28-.05-3.68-.46-3.79-1.4,2.2-.58,3.01.39,3.79,1.4ZM2312.48,28.31c-.49-1.68-.14-1.08.59.18.37.15.74.27,1.13.38-.97-.77-1.79-1.69-1.72-3.62.09,0,.15-.02.23-.04,2.29,1.15,5.61-.17,8.15.39.6,1.45,1,3.27,1.25,5.21-2.14-1.21-5.27-1.29-7.91-1.94,1.44,1.11,3.2,1.83,3.13,4.66-1.27.2-3.18-3.16-4.26-5.04-.19-.06-.41-.1-.59-.18ZM2306.41,32.45h-.83v-2.62c.53.65.9,1.49.83,2.62ZM2301.88,28.67c-1.02,1.49-1.85,3.07-2.45,3.78h-.28c-.12-2.19,1.2-3.41,2.73-3.78ZM1952.93,34.82c.15-.78.33-1.5.53-2.12-.01-.04-.02-.1-.04-.15-.57.06-1.18.22-1.67.09-.24.21-.46.45-.74.57.09-.23.16-.41.23-.61.84-.29,1.9-.33,1.93-1.54.08.54.16,1.06.25,1.49.03-.01.06-.01.09-.01.56-1.58,1.32-2.67,2.34-3.13.28,3.79,1.35,5.69,2.43,7.62-1.55-1.01-2.88-2.27-5.35-2.21ZM1652.15,29.55c.19.1.43.18.66.27h-.56c-.03-.1-.07-.17-.09-.27Z"/>
  </g>
</svg>