<?xml version="1.0" encoding="UTF-8"?>
<svg id="Ebene_2" data-name="Ebene 2" xmlns="http://www.w3.org/2000/svg" viewBox="0 0 1057.85 3547.97">
  <defs>
    <style>
      .cls-1 {
        fill: #0075bf;
        stroke-width: 0px;
      }
    </style>
  </defs>
  <g id="Layer_1" data-name="Layer 1">
    <path class="cls-1" d="M1055.69,875.89c4.24-.36.73-3.97,1.85-5.64-11.71.19-8.87,1.82-17.52,3.28-1.74-.14-3.12-.43-4.28-.81.05-.83.11-1.63.17-2.4h.28c-.01-.53-.01-1.07-.01-1.61.21-.98.55-1.9,3.78-1.62,1.67-1.87-2.12-1.4-3.59-1.92.04-.39.07-.78.12-1.14.83-.04,1.67-.07,2.61-.16.34-.78-1.01-1.4-2.35-1.9.09-.56.17-1.06.24-1.51,5.68-1.17,10.19-2.83,14.28-4.67-2.96-1.07-8.52-1.14-13.51-.75-.76-4.26-3.16-3.71-5.16-9.39-.39-.06-.76-.2-1.12-.31,1.12-.03,2.27-.04,3.65.04.27.65.35,1.22.32,1.72,1.3-1.31,2.55-2.89,3.46-4.96,5.79.02,4.54-2.91,11.39-2.45-.02-2.7-6.55-5.38-11.43-8.05-1.21.2-3.01.25-5.77.06-6.24,1.4-2.94,6.78-3.72,10.47-.52.22-1.11.4-1.72.57-3.18-3.9-3.26-10.79.13-15.86h1.45c-.06-.42-.26-.83-.5-1.22,1.04-1.24,2.31-2.32,3.82-3.16,1.94-.25,4.04-.53,5.84-.79,5.91-5.04,15.41-9.26,6.55-11.78,1.55-1.04-5.08-2.44-9.34-3.3.02-.05.05-.1.07-.14.56-.21.98-.55,1.07-1.14-.21.14-.48.31-.71.46.23-.42.46-.84.69-1.27.06.31.06.56.01.8,1.54-1.03,2.29-1.67.07-.95,4.87-9.18,8.97-22.31,9.28-33.93-1.07.15-2.6.57-4.23,1.12-4.48-3.45-9.52-6.66-12.78-10.64.05-1.5.1-3.14.15-4.89,5.99-.01,11.97-.04,17.97-.05,1.3-3.69-10.47-4.62-17.85-4.88v-.41c1.66-.08,3.66-.17,6.18-.3.22-2.66-2.99-4.23-6.05-6.27.04-2.57.09-5.25.12-8.11.26,0,.52,0,.93-.1-.37-.24-.65-.47-.91-.71.01-1.53.04-3.15.05-4.76.76.38,1.56.83,2.74,1.44,3.19-3.2-2.09-3,4.39-4.84.76-1.42.52-2.39-.09-3.22-2.1,0-5.46.02-6.99.02.01-.88.02-1.73.02-2.63,1.34.26,3.35.58,5.12,1-.71-.51-1.41-1-1.93-1.6,10.22.53-3.93-65.46,8.94-63.82-.04-4.02-.07-8.04-.11-12.07-2.44.05-2.61,1.05-5.69.82,4.15-1.2,5.33-3.65,9.46-4.86-.52-3-5.78-3.98-5.77-7.22,3.17-.01,6.34-.02,9.51-.03.2-2.77-7.83-2.03-7.65-4.81,6.13-1.01,1.48,2.6,7.62,1.59-1.57-2.56-7.61-3.2-9.56-5.6-2.71.58-6.5,1.91-9.69,2.17,0-1.09-.01-2.17-.01-3.27,8.62-2.27,13.24-6.44,9.58-11.78-1.29,0-2.58,0-3.89,0-.02.13-.06.26-.1.37,1.04.8,2,1.69,2.19,2.65,1.08.4,1.91.91,1.84,1.8-.74-.38-1.38-.7-1.9-1-.11.33-.28.66-.63,1-1.17-.21-2.01-.49-2.68-.79-.32.12-.68.25-1.07.4-.6.42-1.76.84-2.88,1.26-.18.09-.29.21-.46.31v-.14c.16-.06.3-.11.46-.17.91-.5,1.95-.91,2.88-1.26.38-.26.5-.53.31-.79-1.5-.9-1.78-1.78-3.65-1.59-.01-3.62-.01-7.28-.01-10.96,1.06.65,2.05,1.33,3.83,1.67,3.45-1.18,2.55-3.2.44-4.68-.72.16-1.55.35-2.2.54.28.25.31.55-.16.93-1.59-.23-1-.59.16-.93-.38-.33-1.23-.58-2.08-.78v-1.5c1.18.18,2.51.7,3.66,1.37,5.88-2.75-.82-3.08-3.66-5.54v-.78c.62-.14.55-.23,0-.3-.01-5.67-.02-11.41-.04-17.19.41-.14.79-.28,1.33-.45.62-.3.51-.48-1.08-.46.3-.39.15-.59-.24-.69,0-2.17-.01-4.35-.01-6.54,15,.26,2.62-4.55,5.38-9.68-3.09-.06-3.87.83-5.39,1.4-.01-1.2-.01-2.4-.01-3.61,3.37.61,3.43,2.63,9.21,2.2-4.66-2.66-.45-19.33-4.01-24.44-8.97-1.19,1.66-4.61-2.71-5.47,1.54,2.06-.89,2.46-2.54,3.2,0-2.18-.01-4.36-.01-6.54.24,0,.44,0,.74-.02,5.62-1.89,7.91-6.4,1.83-8.85,14.9.88-13.39-9.35,2.45-8.05-.02-3.49,16.42-7.03,16.4-10.52-1.9,0-3.8.01-5.71.02-1.26.99-8.97,2.04-14.99,3.08-.31.16-.54.36-.78.53v-.38c.27-.05.49-.1.78-.15,2.66-1.47,6.83-2.31,9.27-3.87-3.29-2.45-6.68.21-10.06.75v-.93c1.45-1.11,1.71-1.4.65-2.26-.21.02-.43.04-.65.05-.01-.65-.01-1.3-.01-1.94,5.51-1.39,14.22-1.45,13.79-5.33-6.16-.97-1.43,2.61-7.6,1.64-.01-1.61-.02-3.22-.04-4.83-5.56-.88-2.32,1.92-6.17,1.77v-.88c2.91-1.69,1.45-2.83-.01-4.49v-2.72c5.3.63,17.24,2.16,12.9,1.48-.01-1.61-.02-3.22-.04-4.83-2.72,0-5.43.01-8.13.02-.22.52-.29,1.06-.02,1.56,2.38.16,6.11-.26,4.38,1.65-2.79-.24-3.97-.89-4.38-1.65-1.45-.09-2.4-.39-1.35-1.55.45,0,.91,0,1.38,0,.82-1.99,3.57-3.52-3.91.01-2.33,2.61,6.16.6,3.83,3.2-2.51.08-3.52-.49-4.65-1.01-.01-2.03-.01-4.06-.01-6.08.27-.04.49-.1.79-.14-.31-.13-.54-.25-.79-.37-.02-16.01-.05-31.82-.06-47.22,1.24.9,2.28,1.97,3.52,2.86-.24.16-.44.33-.54.52.05.19.1.37.16.56,1.21.4,2.62.62,4.49.49v4.85c-2.27.45-2.48-.75-3.1-1.62,0,.08.01.16,0,.23.93,2.16,2,4.09,3.15,5.33.67-.56,1.28-1.31,1.65-3.93,2.93-.89,2.78.67,3.22,1.76.4-.21.77-.41,1.09-.61.11-.41.22-.86.33-1.32-1.05-1.15-2.56-1.93-4.63-2.25,3-2.33,3.11-4.2,2.13-5.96-2.06.31-4.52.68-6.29,1.23-1.17-5.61-.78-10.67,2.89-9.35-.23.22-.45.44-.7.7.54.32,1.15.75,1.79,1.25h3.21v-3.87c.15-.1.24-.18.41-.29.38-.37.33-.62-.41-.67h0s-.01,0-.02,0c-.12,0-.2-.02-.34-.01.7-1.87-1.8-1.09-3.45-.36-.09.11-.15.24-.24.36-1.73.74-1.01.2.24-.36.22-.27.29-.58.45-.85h3.2c-.35-2.38-1.29-2.41-2.62-2.85.07-.31.21-.59.4-.79-.22-.17-.45-.39-.68-.64,2.15-.6,5.3-.38,4.91-3h-3.85c.17-.82.4-1.62.87-2.42,11.95.78,2.51-6.68,4.6-14.55-3.91-.21-2.69,4.1-8.28,2.43-2-4.58,3.79-2.32,2.76-6.06,4.22-.06,3.32,4.37,8.29,3.63-3.38-4.02-.21-4.41-2.77-12.12-6.5-1.84,1.24-6.94-1.93-8.25,1.63,4.61-3.06,3.67-2.83,7.04-2.24-4.36-4.38-9.53-9.66-4.85v-7.27c6.07-1.3,6.05,2.75,8.87,4.31,1.69-1.54,1.71-3.43.71-4.44.33.17.84.23,1.63.13,4.08-2.83,5.78-9.62,1.37-13.34,10.82,1.4-9.66-14.14,1.84-12.12,0-1.4.88-2.8,2.13-4.21-1.59-.56-3.22-.99-4.89-1.22v.25c.59.66.91,1.21,0,1.44v.11c-.13-.03-.21-.04-.33-.06-.22.04-.51.06-.84.06,1,.48,5.79,1.83,2.09,1.2.52,2.06-1.07,2.29-2.76,2.43v-3.63h.67c-.35-.17-.23-.22.84-.06.12-.01.24-.02.33-.05v-1.44c-.07-.09-.16-.19-.24-.28-3.72-.46-7.55.13-11.19,2.76v-6.01c1.82-.19,3.51-.29,5.1-.32-.9-.89,1.45-1.27,3.39-1.15.78-.34,1.67-.68,2.63-1.02,1.94-2.21,4.98-3.45,6.76-5.78-2.68-4.2-5.51,1.48-8.28,1.2,1.94-3.11,2.43-3.3,1.46-4.94-.23.04-.44.09-.68.1v-.38c1.61-.55,2.5-1.68,3.44-2.76-1.51.52-3.5.72-5.27.77h-.13.13v-.48c-.29.14-.6.26-.84.42.01.02.01.04.02.04-.34-.01-.69-.04-.89-.05h0c-.49-.04-.41-.03,0,0,.06-2.18,1.65-3.03,3.15-3.94-1.37-.41-1.84-1,2.37-2.11-.5.96-1.41,1.54-2.37,2.11,1.98.59,5.83.78.39,1.52v2c3.98-2.19,10.56-2.11,10.26-8.07-4.45-1.5-1.04,3.93-5.51,2.43v-7.27c-4.46-1.5-1.05,3.92-5.52,2.41,5.04-4.53.38-6.18,0-12.12-4.46-1.49,14.9,3.92,10.44,2.43v-7.27h-5.91c-.15.78-.21,1.59-.02,2.34,1.74.24,4.43-.37,3.17,2.5-2.02-.37-2.88-1.35-3.17-2.5-1.05-.14-1.74-.6-.98-2.34h1c.61-3,2.63-5.3-2.83,0-1.71,3.92,4.45.93,2.76,4.84-3.17.17-3.04-2.58-5.8-2.75-.06.11-.1.21-.18.33-.34-.06-.62-.19-.95-.28-.41.06-.83.12-1.35.28v-.31c.15,0,.33-.03.45-.02.9-1.52-.79-1.83-2.72-1.62v.56c-.16.06-.34.11-.48.16.01.05.01.09.01.14,1.16.83,1.94,1.97,2.28,3.51-3.37.51-4.69,2.81-6.49,4.71.02-1.68.05-3.37.06-4.98.57-.59,1.01-1.3,1.12-2.29.12.05.24.11.45.15.05-.33.04-.71.02-1.1-.05-.03-.1-.05-.13-.08-.15.06-.24.13-.34.19-.02-.44-.09-.92-.22-1.45.77.13,1.41.36,2.02.65.04.03.05.06.08.1.02,0,.05,0,.07-.02.32.17.66.32.94.53.04-.01.09-.04.11-.06-.01-.21-.01-.42-.04-.64.17-.03.34-.06.51-.09v-1.37c-.16.07-.34.09-.55.07.01-.16-.01-.33.01-.48-.15-.36-.32-.71-.42-1.12.22.19.4.31.6.46.33-.64,1.05-.93,2.62-.46v1.52c1.17-.61.94-4.02,5.54-5.16-3.18-2.76-2.85-12.14-1.26-14.27h.54c.58-1.22.38-1.81-.2-2.1-.83.68-1.58,1.37-2.19,2.1h-5.65c4.62-3.94.48-1.41-3.16-1.07.39-13.94.91-22.21,1.61-22.85,5.24,1.56,4.5-2.09,7.58-2.41.22-.02.45-.03.72-.02-5.9-5.2-17.39-13.53-13.19-16.97,2.71-.36,2.74,1.65,4.15,2.43,2.17-.11,1.07-3.09,4.13-2.43.3-4.57-1.46-10.96,2.77-12.11-3.96-2.58-5.91-6.94-11.05-8.49-1.01-18.26.7-27.13,9.96-36.37-.19-1.27-1.17-4.28-1.61-7.24-.17,0-.35-.01-.55-.02.29-.06.17-.17-.21-.36-.05-.22-.08-.44-.17-.65-2.32-1.01-6.16-2.77-7.18-5.28-1.88-.83-2.74-1.17-.24-1,.02.34.12.68.24,1,2.32,1,6.16,2.76,7.18,5.28.3.14.58.26.83.38-.44-3.74.13-7.19,4.48-6.66-1.12-3.05-3.72-4.82-5.52-7.28-3.76-.87.99,5.72-2.76,4.86-5.43,1.12,4.49-4.22-1.69-2.43,1.1-5.4-.94-8.06-2.76-10.91,4.24-.9,1.68,4.19,6.9,2.43,3.13-1.68.51-8.44,1.38-12.12h-.6c-.61,2.71-2.45,4.32-5.54,4.85v-.65c-.62.29-1.35.51-2.15.65v-4.85h2.15v4.2c1.8-.81,2.93-2.2,3.38-4.2h.29c.49-6.07-.28-12.4-.95-18.35,2.39.56,3.88.83,1.45.17-.26-3.32,4.72-2.48,3.16-6.86-.83.3-2.94.73-5.15,1.27-.46-5.71-.37-10.84,1.67-14.74.52-.02,1.13-.11,1.83-.28-.77.02-1.44-.03-2.07-.11-.26-.16-.51-.3-.68-.53,2.59-3.67,7.36-6.11,15.93-6.62v-9.7c-8.05-.04-18.25,1.64-18.24-4.85-1.33,1.39-.38,3.71.95,6.08,1.99.48,3.94.95,5.16,1.22.19-.09.37-.11.49-.02,1.24.38.78.31-.49.02-.66.29-1.66,1.46-2.68,3.03,1.32,2.51,1.61,4.39-2.22,4.22-.79,1.87-1.23,3.72-1.05,5.13-3.02-2.91-3.55-8.02-7.67-9.97,1.55-2.41,1.51-5.15,1.62-7.54.61-.28.99-.75,1.12-1.43-.4.24-.74.43-1.06.62.1-1.3.35-2.44,1.01-3.33.1.99.18,1.94.05,2.71,1.63-.93,3.77-2.09,4.89-3.07-.91-.34-1.78-.8-2.6-1.4-.13,0-.26.03-.39.04-.07-.89-.1-1.73.11-2.36.68.98,1.43,1.71,2.2,2.33.88-.04,1.83-.03,3.01.09.15.34-.13.8-.66,1.3,3.8,1.59,8.61,1.04,15.1,2.34,3.09-.52.56-5.97,1.38-8.48-8.5.21-6.45,2.69-12.74,4.84-3.08-.52-4.91-2.14-5.52-4.84h2.77v-2.43c.15-1.47.41-2.87,2.76-2.43,1.67-3.82-4.08-1.13-2.82-4.59-1.07.09-2.07.12-2.99.07-6.95,7.44-3.68,10.68-12.75,16.65-1.28-4.54-5.84-6.19-5.51-12.12h8.28c1.89-4.91-3.01-3.84-2.77-7.26,4.91.33,7.78,2.43,12.75,2.74.1-.11.18-.22.28-.33h2.77c-.04.11-.02.16-.06.26.71-.06,1.4-.11,2.22-.26.59-2.71-5.55-4.31-2.48-4.84h.32c4.45-1.74,7.89-4.39,11.05-7.28-3.28-2.48-11.06-1.51-14.9.23-.1,1.3-.19,2.63-.9,3.4-5.85-.12-4.43-6.61-8.28-8.49,2.34-5.2,2.74-12.13,12.41-10.91.2.98.26,1.84.22,2.6.98-1.96,1.88-4.33,2.56-7.45,4.21.06,3.3-4.36,8.28-3.63,0-3.06-2.68-6.12-5.5-9.17h-9.32c-1.06,3.45.04,8.8-.37,12.8-3.63,3.08-10.17,3.08-13.82,0,1.55-2.29,1.95-5.57,5.54-6.06-2.87-2.53-2.78-4.62-1.75-6.74H219.97c.25.39.61.81,1.11,1.25-2.29-.23-4.63-.43-7.89.47.43-.53.66-1.11.75-1.72H46.61c2.14,4.56,3.86,9.49,7.8,12.47-5.29,4.71,2.88,12.21,0,23.28-5.23-1.76-1.51,4.34-6.32,2.97-.63-2.39-1.74-6.43-3-11.23-2,.07-3.5-.29-2.82-2.56-.73,1.66-1.2,3.65-1.45,5.8,3.82,5.45,7.56,8.49,6.56,15.69-.6-.43-1.52-.83-2.6-1.22-.23-2.31-.55-4.56-3.74-4.78.66,4.19,2.05,7.94,3.99,9.97-1.88,4.41-8.63,4.55-9.66,9.7h-9.67c-2.06.23-1.27,2.93-1.38,4.85,7.05,1.89,10.99,6.51,17.95,8.49-.17.32-.22.63-.35.96.39-.46.77-.93.96-1.52-1.02-.56-1.98-1.11-2.65-1.62,1.28-.42,2.51-.99,3.66-1.73,1.39.06,2.6.18,3.55.43-.22,1.68-.51,3.41-.3,4.8,2.01,1.03,3.17,1.75,1.46,1.67-1.29-.18-1.89-.83-2.18-1.71-.8-.4-1.63-.82-2.46-1.25-.04,1.48-.87,3.23-2.01,5.04,4.82-1.01,8.67-1.79,5.68-1,2.94,5.8-2.89,5.45-6.6,6.6.82,4.41,2.49,8.27,1.93,10.85-.01.44-.05.87-.17,1.25,3.13-1.85,7.26-2.83,13.29-2.16v4.86c-4.4-1.04-5.24,1.05-6.9,2.41-4.35,1.4-3.35-1.89-5.52-2.41,1.77,3.55-2.11,5.02-2.66,11.46.33.08.66.14.99.22-.07.7-.18,1.45-.28,2.16,2.93,1.87,5.45,4.1,11.61,3.13-4.63,2.49-.96,2.51,0,6.06-7.01.7,1.24,14.83-5.51,15.76,2.17,4.44,2.05-2.81,5.51-1.21-1.21,7.12,6.74,6.21,5.52,13.34h-12.44c-3.62,4.49,1.19,16.38-4.12,19.39-1,3.29,6.51-.87,5.52,2.42.26,3.88-2.32,5.24-5.52,6.07.76.69,1.32,1.55,1.74,2.53-5.74.2-3.78,1.99-2.98,3.9,1.19-.44,2.35-.92,3.17-1.59-1.3-.65-1.72-1.32-.04-1.91.17.46.33.93.45,1.42-.13.16-.24.34-.41.48.17.09.37.17.55.26.17.88.29,1.79.35,2.76-2.9.74.55,5.28-1.74,6.38-.87-.27-1.43-.8-1.1-2.13-.35.8-.48,1.58-.6,2.35-.52-.03-1.12-.09-1.89-.26-1.26,1.96.21,2.29,1.83,2.53.15,1.47.51,2.93,1.17,4.33-2.69,1.86-8.82,1.69-11.64,3.47,1.4,2.21,3.33,4.13,5.17,6.09.06-.28.1-.53.35-.93,3.72.29,7.65-.04,10.99-.8.88,1.36,1.61,2.75,2.18,4.15-3.3.01-6.57.17-8.41.51.02.33-.09.75-.44,1.3-1.74-.56-1.22-1,.44-1.3-.09-1.18-2.23-1.14-3.76-1.47.77.89,1.5,1.8,2.12,2.78-8.8-.52-11.1,2.84-17.29,3.87.83,3.81,9.45,2.97,12.96,5.16-2.99,7.75-2.99,5.16,0,12.91-6.34-.09-6.37-3.94-10.8-5.16-3.84,2.02-8.33,3.63-6.49,9.03-.35,3.66,13.33-1.07,12.97,2.58.06,6.06-13.27,4.12-17.29,7.75-.24,4.44,8.89,3.29,8.65,7.74-15.13-2.58-11.47,6.05-21.62,6.46.2,2.03,5.51,1,4.33,3.87h12.96c9.36,1.29,12-1.44,17.29-2.58-1.84,3.28,2.85,2.65,6.67,2.56-.18,5.01-.33,10.57-.45,16.69-13.24-.61-15.08,5.58-27.83,5.27,6.78,4.46,1.21,5.68-4.33,9.03-.37,2.79,7.67.58,10.82,1.29,3.83-1.58.44-7.48,10.8-5.16-5.66,4.71-3.34,4.26,4.32,6.45-1.7,5.44-21.17.27-21.61,6.45,4.22,4.47,8.63-1.58,12.96-1.29,1.19,2.86-4.12,1.84-4.32,3.87,9.08,4.39,12.46-1.04,18.86-3.2-.01,1.55-.02,3.17-.04,4.76-7.4,6.15-13.79,13.93-5.86,21.66-10.06-1.7-7.23,4.28-17.29,2.58v2.58h4.33c.89,5.7-12.08,3.11-12.97,7.74h4.33c4.45-.78,15.01,2.08,12.96-2.58,7.45,2.42,5.52,2.42,12.97,0-.96,1.71-.1,2.33,1.44,2.54,0,1.72.01,3.45.01,5.2-1.45.23-2.98.46-4.57.67v4.49c-10.24-.95-6.96,6.17-12.97,7.75.2,2.03,5.51,1,4.33,3.87,8.74,1.79,6.83-2.8,12.96-2.58-1.55,7.68-11.61,10.27-21.61,12.9.68,2.99-.35,4.96-2.16,6.45h19.45c-3.01,2.94-4.28,6.91-8.64,9.04,3.39,4.72,3.22-3,8.64-1.29,1.78,3.23-4.21,11.11,4.32,10.32.37,3.65-7.3,2.51-4.32,7.74,4.65,1.06,3.88-1.11,4.88-2.24.01.7.01,1.4.02,2.1-6.73,4.43-13.19,9.01-18.92,14.02.5.07,1.12.16,2.01.31-.24.16-.37.32-.48.49,3.83,1.05,9.62,2.61,3.84,2.09-.32.76-.16,1.25.15,1.63.78.41,1.6.81,2.49,1.23-1.01-.3-1.99-.62-2.49-1.23-2.8-1.45-4.61-2.71-3.99-3.72-.71-.21-1.35-.38-1.84-.53-.99.88-2.02,1.72-2.96,2.63,1.9,3.16,6.47,4.73,4.32,10.32,5.41.22,5.24-2.89,8.65-3.87.93-1.45.72-2.23.1-2.75,3.28,1.55,6.83,3.24,9.38,5.01.01,1.52.02,3.03.05,4.55-2.37.37-4.22,1.04-5.2,2.23.37.52.7.87,1,1.12.76-.06,1.46-.15,2.17-.24.57-.56,1.18-1.34,2.04-1.87,0,.51.01,1.01.01,1.51-.63.14-1.32.26-2.05.36-.66.66-1.28.98-2.17.24-5.26.38-11.41.25-13.01,2.75-13.4,4.44-8.68,10.34-5.28,20.65,8.74,1.79,6.83-2.8,12.96-2.58,8.22-1.9.43,5.77,8.64,3.87-4.86,4.41-4.39,12.01-12.96,14.2,3.39,4.72,3.22-3,8.64-1.29v5.16c10.02.04-12.07,4.34.95,2.58v5.16c.73-1.3,2.55-1.96,4.85-2.31.04,2.33.06,4.66.1,6.98-5.29,1.87-8.66,4.87-4.95,12.11-7.76.53-3.43,8.27-12.96,7.74-1.63,6.77,4,17.87-4.32,20.65,8.26,4.53,8.77,13.68,17.28,18.06-6.91,4.18,3.74,10.82,0,20.65-6.99-1.59-1.65,4.17-8.65,2.58,7.16,14.32-7.05,26.58,8.65,33.55-6.83,4.28,2.04,12.89,6.49,18.07-12.22,3.42-6.44,11.82.63,17.29.02,1.59.05,3.2.07,4.78-3.41.14-6.16-.13-5.02-2.71-4.96,7.72-2.62,22.19,4.32,27.1-2.94,4.7-13.51,4.83-15.13,10.32h-15.12c-3.21.24-1.99,3.12-2.16,5.16,11.04,2.01,17.19,6.93,28.09,9.03-7.85,10,5.37,20.36,0,24.53,1.7-.75,3.68-1.31,5.83-1.78.02,2.36.04,4.65.05,6.85-1.4-.73-1.66-2.16-3.72-2.49,3.04,4.13-4.58,5.54-4.33,14.2,2.69,1.07,5.01,2.36,8.07,3.21-.02,13.23-.23,21.49-.66,23.15-8.16,4.32-7.5,1.87-18.27,3.64,3.93,7.75,9.19,9.98,18.42,11.23-1.01,1.56-1.27,3.57-1.28,5.73h-1.63c-3.27,1.59.6,9.43-4.15,9.7,1.54.63,2.52,1.73,3.18,3.13-.44.32-.94.61-1.52.84-.56,1.25.62,1.47,2.26,1.42.43,2.07.43,4.5.28,7.06-.82.2-1.65.38-2.54.54.16.1.27.23.41.33h-4.83c-1.05,7.29.88,11.98,3.18,16.33-.05,1.47.35,2.9,1.11,4.29h-4.29c-.33,5.93,4.23,7.58,5.51,12.12-5.58-1.67-4.35,2.63-8.29,2.43-1.66,5.09,2.23,5.32,2.78,8.49v4.84s.06.11.1.22h-2.17c.98.58,1.76,1.27,2.46,2.01.2,2.11.39,5.67.57,10.59-.33,7.28-.6,21.17-.82,40.22-5.16.93-8.18.05-19.98,1.37,4.74,6.39,10.71,9.26,19.85,10.85-.05,5.39-.1,11.11-.13,17.13-.52.21-1.13.38-1.95.41.73.21,1.35.48,1.94.77-.02,4.33-.06,8.8-.08,13.42h-6.18c-1.77,8.52,2.04,13.69,6.1,18.73-.01,1.05-.01,2.14-.01,3.21h-6.08c-.35,4.55,3.26,6.74,6.05,9.42,0,1.04-.01,2.07-.01,3.12-5.77-.4-4.94,3.14-10.35,2.95-2.61,5.42,3.49,5.65,4.32,9.03v5.15c2.5,1.02,4.44,2.38,5.99,3.97-.01,2.78-.01,5.6-.01,8.44-1.27-1.56-2.16-3.33-3.8-4.66-4.13,14.19-4.51,31.33,3.78,42.77,0,10.01,0,20.29.02,30.78h-5.97c-2.67,4.17,7,.98,4.33,5.16h1.65c.01,4.7.01,9.43.02,14.2-2.16-.1-4.32-.2-6-.01-5.54,3.35-4.24,13.74,6.04,15.28.01,3.37.02,6.76.04,10.17-1.58,2.53-4.46,4.29-10.39,4.23-1.85,7.99,13,6,8.65,15.49-13.5-1.61-15.64,3.56-21.61,6.45,1.7,5.01,5.63,8.67,12.96,10.32-4.06,4.45-4.06,3.3,0,7.74h-4.32v2.58c9.32.89,1.99,11.73,4.32,16.77-8.06.35-14.33,1.77-17.29,5.16,3.8.75,12.69-1.55,12.97,1.3v9.03c9.47,1.66,1.88,13.51,4.32,19.37h-4.32v10.32c11.28,9.6,8.33,27.72,8.63,43.87-10.99-.54-3.8,9.77-17.28,7.75-2.15,11.16,6.86,15.68,17.28,19.35,2,8.03-9.19,10.15,0,15.49h-8.63c-1.23,4.17.65,6.49,4.32,7.74-5.89,20.3-12.68,36.4,4.32,52.91,1.85,4.12-1.88,4.89-4.32,6.45,1.01,2.09,2.62,3.82,4.36,5.48-.55-.06-1.22.1-2.05.59.68.11,1.24.27,1.79.43.52-.09.83-.14,1.13-.18.02.03.06.06.08.09-.11.03-.18.04-.38.09,0,.09-.02.16-.04.23.41.14.77.29,1.11.45-.03-.08-.07-.14-.1-.22.16.15.33.3.49.45-.13-.08-.24-.16-.39-.23.18.86.06,1.82-.31,2.34h1.52c.01-.52.04-.94.05-1.27.44.42.89.83,1.3,1.27h-1.35c-.06,2.13-.11,5.31-.17,5.23-1.96.09-2.99-1.57-3.99-3.4-.26.42-.52.81-.76,1.2t-.01-.03c-.07-.04-.1-.06-.16-.11.04.06.09.14.13.19-1.37,2.21-1.89,3.97,2.59,6.74h-.56s.01.09.01.14c-5.88,1.03-1.29-4.19-8.01-2.66v7.74c-7,1.59-1.66-4.17-8.65-2.58-.46,6.34,9.84,6.25,16.08,8.59v-2.14c-8.54-.78-2.51-.99.59-1.62-1.49-.6-2.93-1.23-3.71-2.26,2.22.4,3.55.73,4.34,1.02.07.33.16.68.26,1.01-.26.08-.55.16-.89.23.37.15.73.31,1.1.46.38,1.27.83,2.54,1.33,3.8-.6.01-1.18.02-1.89.02-.43.46-.79.85-1.12,1.2v1.3c-.41,0-.73-.06-1.1-.1-1.5,1.74-.74,1.94,2.29,5.26-4.33.28-8.74-5.75-12.96-1.29,2.79,2.49,7.54,3.81,10.57,6.16,1.51.36,2.91.72,4.13,1.08,2.18-.1,4.72.09,5.45.56.04.15.09.29.12.43-.16.23-.6.49-1.55.8-.5-.6-2.01-1.2-4.02-1.79-1.07.04-2.01.16-2.63.35.35.44.67.92.89,1.45-2.05-.68-1.94-1.15-.89-1.45-.43-.53-.93-1-1.5-1.43-6.84-1.65-15.63-3.28-17.06-4.87H3.68c0,5.6,18.73,11.18,18.73,16.78,18-2.15-14.05,14.4,2.88,12.9-4.13,2.37-4.79,5.9-3.32,9.01-8.19,6.28,5.01,10.72,2.21,18.03v.88c-.5.16-1.07.32-1.77.46-3.02,6.19-.95,7.95-2.01,10.27h-.55c-4.45,2.5-1.63,9.34-12.96,7.74-.26,4.45,8.89,3.3,8.65,7.75v2.58c7.16.59,13.4,6.95,12.53,11.67-1.43.01-1.55.3-.89.73.23.1.37.19.57.28-1.12,2.58-4.76,4.44-12.22,4.1h-4.33v5.16h12.97c-.26,4.45,8.89,3.3,8.65,7.75-1.62,3.97,7.45,1.57,4.32,6.45H6.89c-2.67,4.17,6.99.98,4.32,5.16,8.76-1.79,6.84,2.8,12.97,2.58.84.14,1.93.14,3.07.11-3.51,2.65-8.24,3.58-2.51,7.33,1.28-1.08,2.79-1.94,4.15-2.22,6.44,1.65-.93,1.89-2.35,3.67,1.3.53,1.99,1.11.19,1.5-.54-.61-.51-1.08-.19-1.5-.74-.31-1.68-.6-2.51-.84-2.37,2.37-3.39,5.62.55,7.5,4.44-1.22,4.46-5.08,10.8-5.16.04.08.04.19.07.28,1.57-.95,3.05-1.62,4.43-2.09-.04,3.6-.44,6.97-2.26,9.5-5.72,1.98,5.28,7.03-3.74,6.52-.61-.41-1.22-.83-1.87-1.31-3.73-.47-3.34.75-1.95,2.5-2.97.73-7.63,1.27-11.01,1.37h-.96s-.01.02-.01.03c-.82,0-1.55-.01-2.06-.08h-4.32v5.15h5.13c-.3,6.09,4.48,10.84,12.17,13.69-.89,1.99-3.74,2.82-7.61,3.03-1.19-.46-2.32-.88-3.3-1.17-2.18,3.86-9.05,4.91-10.8,9.03,7,1.59,1.66-4.17,8.65-2.58.24,4.45-8.89,3.29-8.65,7.74h10.8c.01.99-.23,1.82-.57,2.58-1.51-.04-3.12-.15-4.38-.05-1.45,2.53-.38,3.57,1.06,4.38-1.24,1.34-2.35,2.76-2.58,4.7,4.72,1.92,6.08,5.83,10.8,7.75-3.5.36-3.72-1.22-6.49-1.3v19.36c14.61-2.7-.8,12.52,10.8,11.61-.57.95-1.38,1.76-2.18,2.57,2.15-.71,4.63-1.28,6.12-1.72.93,1.94.39,3.59-4.57,4.26h-4.32c-.89,2.09-.57,3.47.41,4.45.07.25.11.49.22.76,5.77,2.28,3.4,2.63,3.83,5.11h-5.9c4.82.56,7.69,2.28,8.63,5.16-10.17-.49-14.85,2.31-17.28,6.45,3.93,4.54,9.68,7.98,17.28,10.32-.29.6-.26,1.39-.15,2.23-2.68,2.44-4.96,4.74-4.73,8.15.16,0,.29.01.45.03-.85.47-1.23,1.1-1.28,1.82-6.9.96-13.47,2.96-12.39,7.19h16.62c2.76,3.39,5.12,6.6,1,7.69v4.61c-3.99,5.2-9.02,9.78-13.29,14.8,4.79-.71,3.07,2.46,6.49,2.58.34.07.57.07.89.12,1.57-.21,3.33-.11,5.04-.1.34-.12.6-.29.88-.44v.37c-.08,0-.13.04-.22.05-.22,0-.44.02-.66.02-1.11.38-2.65.49-5.04.1-1.74.24-3.28.87-4.26,2.46-2.15,2.15-1.68,4.05-.07,6.1-.85,2.28-1.54,4.66-2.72,6.74v2.58c6.21.16,10.25,1.61,8.64,6.45v1.79c-2.28.7-4.18,1.64-4.66,3.43,7.66,2.4,6.85,9.85,6.55,16.99-.51-.02-1.11-.1-1.89-.28-.82,2.16-.83,3.83-.45,5.28-4.79,1.42-11.4,3.53-9.73,5.1-10.04,4.08.79,10.8,7.56,18.85,2.89.56,6.61,1.25,9.23,1.71.38-.33.73-.66,1.09-.99.67.76,1,1.83,1.06,3.14-1.28,2.59-2.91,5.62-3.96,9.48h3.33c0,.21.02.39.04.58-1.06.73-3.87,1.47-6.5,2.2-2.11.12-3.63.04-4.71-.21-5.5,4.32-12.89,8.65-12.89,12.97,7.78-.78,6.36,3.94,12.96,3.87.29.95.63,1.81.99,2.63-.52-.09-1.13-.14-1.85-.11v2.58c1.46.32,2.71.78,3.83,1.3.33.52.67,1.03,1.01,1.51-.01-.26.1-.61.11-.88,2.99,1.69,4.99,3.96,7.01,6.22.04.76.12,1.47.29,2.1h-2.74v6.61c-6.22-1.72-17.62-2.59-22.57-.04,4.93,3.08,10.32,5.88,17.29,7.74h.48c4.83.56-4.78,2.28-3.84,5.16,1.24.15,2.35.21,3.46.28-.05-.11-.02-.16-.1-.28h4.32c.17.11.29.23.45.34,1.71-.07,3.22-.26,4.68-.48.4,1.76.69,3.62.9,5.55-1.27-1.49-2.95-3.15-5.58-5.07-1.41.06-2.99.03-4.67-.06,1.96,3.67-7.02.82-4.43,4.88,3.68-.48,4.08,1,4.33,2.58v2.58h4.32c-.94,2.88-3.82,4.6-8.65,5.16-9.84-2.29-6.62-4.93-19.92-5.16,1.28,2.67-2.67,8.47,2.16,9.03,10.15-1.38,17.66-.8,23.62-2.48-.83-.53-1.28-1.02-1.05-1.38,1.87-.13,3.38-.14,4.73-.1,1.21-.66,2.37-1.44,3.44-2.48.37.75.29,1.77.13,2.85.87.18,1.5.46,2.07.75.01,4.95-.12,10.02-.05,14.92-4.1-1.15-7.65-2.62-15.03-1.8,5.13,2.07,6.73,5.4,6.95,9.23-.77.15-1.72.14-2.96-.14-.18,1.36-.2,2.59-.15,3.75-.16.06-.24.19-.45.24.26.31.37.69.57,1.02.27,2.14.88,3.98,1.82,5.54-.88,5.27-1.12,10.38,3.13,13.98-1.16.23-2.39.46-3.58.68-.57,3.49-1.18,7.11-1.52,10.73-1.19.52-2.43,1.02-3.8,1.44v2.58c1.52-.09,2.61.09,3.54.37-.02,1.62.02,3.24.22,4.84h.48c.7,2.14,2.46,3.61,5.28,4.48v-3.13c.78.59,1.79,1.05,3.37,1.17v1.21c-.23.51-.68.89-1.28,1.18-.71-.13-1.48-.24-2.09-.43v.68c-4.82-.56-7.71-2.28-8.64-5.16h-.96c1.37,3.92-2.76,11.12,2.17,12.9,8.17,1.87,4.15-3.55,10.8-2.58-2.84,3.03-6.02,5.87-4.33,11.61-9.67-1.91,5.85,3.78-2.63,2.58-5.87.93,1.55-6.08-4.33-5.16-2.84,2.61-6.88,4.49-8.65,7.75,6.79-.56,7.69,3.1,7,7.08.39-.11.82-.24,1.32-.39,1.6-2.67,7.61-4.54,11.23-5.62.02-.05.02-.1.05-.14.06.02.11.05.17.07-.07.02-.15.04-.22.07-1.61,2.67-7.62,4.54-11.23,5.62-.21.34-.35.69-.39,1.05-.44.02-.74.03-1.06.04-.68,3.15-2.22,6.37-2.54,7.71,1.89,1.28,3.57,2.56,5.07,3.84-9.49,4.44-9.13,12.99-4.98,18.74l.72,2.67c.65,2.31,4.34,3.87,8.27,3.46,1.73-.19,3.33-.74,4.39-1.59l1.2-1.77c.26-.66.65-1.33.96-1.99.23,1.87.34,3.87.37,6.01-2.45,3.24-4.82,5.8-2.32,9.86-1.83.53-3.4,1.22-4.82,2.01h-10.94v5.16c.77.12,1.49.27,2.18.43-.57.31-1.16.63-1.79.91,6.6,1.22,3.84,8.03,4.32,12.9,4.79-.71,3.08,2.46,6.49,2.58.1-.04.17-.09.27-.14-.84.82-1.84,1.38-2.82,1.37,2.22,1.08,3.65,2.65,4.9,4.31-4.85,3.42-11.82,7.11-16.52,9.94,6.13-.23,4.22,4.36,12.97,2.58,1.52.95,2.48,2.3,3.1,3.9-5.16,8.59-9.65,19.25.34,23.14-2.8,2.99-5.89,5.8-4.38,11.36-3.12-2.41-15.3-5.64-20.68-6.14.52,13.46,8.07,28.91,16.58,38.65.23.01.46.04.71.06.15.27.17.46.27.69,2.15,1.12,3.49,2.04,1.41,1.89-.4-.39-.79-.88-1.2-1.31,1.04,3.74-5.13,3.16-4.8,6.47,7.8-1.22,3.01,5.08,4.32,7.75,5.44,1.19,9.34,3.57,11.86,6.4-.02,5.5-.04,10.87-.05,16.1-1.91,1.69-4.55,2.92-7.97,3.3-.69,1.36-1.43,2.34-2.16,3.15v-.4c-.4-.51-.76-.95-1.01-1.31-3.15.36-4.43,2.04-5.94,3.56,1.73-.52,3.89-.73,5.96-.83-2.24,2.06-4.29,2.79-5.01,6.15v2.58c15.03,10.69,9.78,28.74,16.57,42.01.08,3.22.17,6.14.28,8.78-2.18,4.59-3.12,9.95-3.44,15.78h-.45c-.43,2.07-.26,3.63.32,4.83-.04,4.31.12,8.79.26,13.33-2.69,14.18-3.77,26.37,4.95,38.81.9,2.97-.3,4.09-1.61,5.11-1.37-1.57-2.27-3.39-3.91-4.78,1.19,2.86-4.12,1.83-4.32,3.87,19.83,8.5,3.35,23.55,6.47,40.01,3.99.64,7.13,1.79,8.29,4.12.1.47.19.89.28,1.38.07.05.11.1.17.15.07.63.07,1.31-.1,2.09v14.42c-1.06-.93-2.4-1.59-5.28-.91v4.84c2.35.62,4.08,1.79,5.28,3.44v2.72c.28.36.46.74.69,1.11h-6.29c-.23,1.42-2.18,1.32-4.15,1.22-5.29,5.91,3.18,10.1,1.39,16.96v2.43c1.99-.36,2.72.37,2.91,1.57-4.28,5.15-9.58,9.79-14.01,12.84,1.72,1.81,5.18,2.57,7.27,4.14-.07,1.52-.13,3.24-.19,5.03-8.05.78-6.28-4.32-15.72-2.73v6.45h12.97c.99,1.94,1.77,3.95,2.46,5.99-.48,19.15-.83,46.04-1.66,68.72-.43.9-.79,1.84-1.29,2.71-10.97-1.35-16.28,7.41-10.8,11.61h6.49c-2.99-5.23,4.69-4.09,4.32-7.74.39-.01.69.04,1.04.06-.91,21.2-2.33,37.18-4.84,36.65-.15,4.19,5.68,3.1,5.52,7.28v2.43c1.06.13,2.07.56,3.01,1.17.71,3.9,1.78,8.02-4.24,7.9v1.29c-.79,2.19,1.68,2.43,4.32,2.58-1.23.75-2.06,1.74-2.73,2.81-.12,0-.22.01-.35,0h-2.76v4.85h1.51c-.5,4.12.19,8.96.11,13.33h-4.39c-1.69,3.93,4.48.93,2.77,4.86.6-.18,1.07-.26,1.52-.31v1.56c1.56-.3,2.66-.33,3.59-.24.66.66,1.35,1.28,2.66,1.37.9,1.72-.13,4.58.23,6.61v7.75c1.79,1.64,2.48,3.53,2.61,5.57-.66.04-1.39.12-2.23.27.51,1.38.73,2.93,1.79,3.99-.06.22-.07.43-.13.64-2.55.59-5.66.93-6.96.68h-2.76v4.85h7.86c-1.67,4.54-3.39,9.26-2.34,13.68v5.78c-1.44,3.79-6.77,8.88-12.96,9.7,3.12,6.64,10.97,10.46,18.74,14.33-2.22,5.99-7.94,8.89-7.63,17.11h7.84c-.11,2.14.4,3.74,1.3,5.03-1.34,1.06-2.91,1.94-3.62,2.24-.35,3.12,7.29,9.47,0,10.91h-2.76c-1.23,4.23,1.1,5.35,3.61,6.31-.44.63-.71,1.32-.68,2.13-2.85-.06-3.57.43-3.04,1.26h-.8c.38.06.68.2,1.04.3.62.67,1.91,1.52,3.61,2.48.39.61.69,1.27.88,2.06-6.51-.46-9.5,2.16-11.05,6.06,2.5,4.26,6.18,7.5,11.05,9.7-.43,1.27.15,3.43.16,5.09-.38.06-.72.06-1.12.14,0,.23.44.45,1.06.68-.18,1.13-.88,1.82-2.88,1.37v2.42c-2.55,1.9.83,6.46,2.74,10.26-1.33.85-2.52,1.55-3.33,2.05,1.1.22,3.12,1.46,4.07,2.67-.23.31-.54.59-1.02.78v1.57c-.72.15-1.68.21-3.05.14v2.58h3.05v1.08c-3.17,2.88-3.17,5.3,0,8.17v1.2c-3.62.12-9.85-1.32-9.52,1.16v6.45c4.82,0,7.89,1.04,9.52,2.94v11.8c-2.91,7.87-2.95,13.63-9.52,18.8,6.12-.86,6.29,1.84,9.52,2.7v39.04c-6.63,1.46-6.17,9.13-8.29,14.55v2.42c3.99.16,6.57,1.52,5.54,6.07v4.85c4.46-1.5,1.05,3.92,5.52,2.42.13,6.4-4.43,5.07,0,9.7-5.26-1.79-.28,5.41-5.52,3.63-1.88,7.3,2.72,8.91,2.76,14.55,5-1.15,1.93,4.78,2.77,7.27,3.37,4.72-.78,9.03-2.45,18.18h2.45c0,1.62-7.97,3.24-7.97,4.85.55,1.22,1.23,2.34,1.94,3.44-.52-.75-1.11-1.47-1.94-2.04,1.19,2.86-4.12,1.83-4.32,3.87,2.15,2.29,4.11,5.16,5.67,8.27,1.28-.18,2.87-.14,4.84.18v4.81c-3.22.09-2.88-2.95-6.19-2.78v2.42c1.67.55,2.93,1.45,3.99,2.53.8,3.3,1.05,6.63.46,9.7,1.02,1.14,1.9,2.29,2.43,3.45,1.95.28,4.71,1.81.63,2.45,0,.04.02.09.02.14-.06-.05-.09-.07-.15-.11-.24.04-.45.08-.76.11-.1.7-.28,1.4-.49,2.09,1.38,1.42,2.8,2.88,4.17,4.29.1.04.16.06.26.09.29.03.52.07.8.1.61,1.59,1.79,2.68,1.05,5.47-.01,3.22.51,6.92-1.39,8.49,1.19,1.3,2.37,2.61,3.91,3.6-.07.93-.05,1.86.18,2.77-1.71-.2-3.19-.27-4.58-.28-11.5,12.2-35.9,23.38-24.24,30.73,2.15-.99,4.82-1.66,5.77-3.35,3,2.25,7.6,3.55,11.33,5.35-.12,2.34-.05,4.59.56,6.59-.44.19-.82.42-1.02.75.52.18,1.05.36,1.56.54.18.38.38.77.6,1.13-.63-.12-1.35-.19-2.22-.18-.27-.68-.17-1.12.06-1.49-10.85-3.69-23.23-6.61-15.9-8.83-.32-.16-.46-.35-.73-.51-1.93.88-3.45,2.01-2.88,4.39,5.76,4.31,15.18,6.42,23.78,9.03-.12,1.94-1.05,4.43-2.41,7.23-1.43,1.2-2.94,2.31-4.79,3.14v2.42c.7-.06,1.24.01,1.73.14-6.32,10.98-15.62,24.51-13.97,32.52,7.97.88,11.79,4.25,17.75,6.33-.63.59-1.37,1.1-2.77,1.03-.63,1.87-.02,4.87.23,7.54-7.1,3.5-7.47,11.41-5.22,17.19-.62.12-1.26.24-1.84.36,1.27.78,2.12,1.81,2.76,2.97l.11.56c.11.61.39,1.13.77,1.6,1.02,3.73.43,8.43.45,12.75-1.52-.12-2.56.04-3.29.38,1.04.11,2.13.21,3.23.29h-3.02v4.85c2.06.48,3.76,1.29,4.74,2.73-1.15.26-2.24.52-3.23.78.45-.04.96-.04,1.57.01.6,4.06.76,2.16,2.39.78.19.83.23,1.81.06,2.97v1.21c1.62-.16,2.49.53,2.88,1.57-.28.46-.49.98-.84,1.39.26.36.52.7.8,1.05-.46-.19-.91-.38-1.32-.59-1.98,1.99-4.84,3.44-8.29,4.54.13-2.07,1.43-3.6,3.21-4.81-7.56,2.76-15.05,5.34-11.85,7.4-6.85-.41,12.79,1.52,18.99,2.9.38.76.77,1.5,1.18,2.22v1.33c.06,0,.11.02.17.03v4.01c.19,0,.4,0,.6,0v.81c-1.1,2.41-2.48,5.45-3.66,8.64-7,1.27-14.16,2.8-12.96,4.59-2.05.61,4.24,1.2,11.01,1.8-.72,3.17-.9,6.18-.15,8.62-5.55,1.47-9.9,2.73-6.54,3.77-3.34,8.83,7.85,10.94,0,15.48,11.15,2.01.21,35.91,8.5,42.81-.02,1.45-.04,2.94-.05,4.44-.12.22-.21.42-.21.61-.43.02-.85.04-1.27.06.18,1.59.61,3.38.24,4.59-.33-.24-.67-.51-1.01-.76h-3.57v7.75c-1.18,2.86,4.13,1.84,4.33,3.87-3.15.11-7.41-.47-8.41.9,1.18.14,1.34.44.95.88,4.35,1.87,3.46,3.68,1.22,5.52,1.06.04,2.16.63,3.23,1.66.04-.01.07-.03.12-.04-.04.02-.06.04-.11.06,1.5,1.45,2.94,3.67,4.15,6.2-.04,3.27-.07,6.59-.1,9.95-.72.11-1.22.36-1.6.69-4.3.52-7.74,1.03-7.68,1.55-.33,1.76-.58,3.47.55,4.36.16,1.3.32,2.59.48,3.89-.95,1.92-.41,3.85.54,5.92-1.58-.69-3.1-1.43-4.32-2.35-.95,1.69-3.62,2.36-5.78,3.35.28.17.43.36.73.52-6.15,1.86,1.57,4.22,10.62,7.1.18,1.48.37,2.95.55,4.42,2.37.31,4.19.77,5.65,1.03,0,.77-.01,1.54-.01,2.32-1.66-.47-3.45-.45-5.26-.31.22,1.73.43,3.46.65,5.18v4.31h.52c.02.16.05.33.06.5,1.21-.14,2.54-.21,3.95-.21-.01,1.05-.02,2.11-.04,3.17h-1.39c.01.06.01.12.02.18-.23-.11-.4-.28-.68-.38-.65.19-1.08.36-1.45.52.06.54.13,1.08.19,1.61.44.19.95.39,1.44.6-2.68.16-6.3-.24-4.45,2.63,2.99-.38,4.32-1.33,4.84-2.46.59.28,1.12.58,1.45.95,0,.6,0,1.2-.01,1.79-.01,0,0,.02-.01.03-1.27-.48-2.17-.85-2.96-1.16.11.83.21,1.66.32,2.5-.55.05-1.06.12-1.8.06v5.16c4.28,4.91,3.29,10.23,1.56,16.39-.05.03-.1.03-.15.06h.13c-.5,1.76-1.04,3.57-1.55,5.48h4.27c-.01,2.12-.02,4.24-.05,6.37-1.07.78-1.94,1.68-2.33,2.88.87.09,1.61.24,2.32.43v.04c-1.11-.27-3.05-.38-4.77-.3.13.04.23.07.35.11-.23-.02-.44-.06-.67-.09.11,0,.21-.02.32-.02-1.22-.36-2.61-.73-4.12-1.08.24.19.44.42.66.63-.43-.09-.89-.16-1.29-.24.08,1,.28,1.93,1.88,2.02.27.14.63.3,1.15.46-.08-.19-.23-.34-.33-.53.48-.04.93-.05,1.61-.21.18-.38.55-.66,1-.88,1.73.53,3.04,1.08,3.47,1.62.33-.11.51-.2.73-.3-.02,3.72-.04,7.43-.06,11.14-5.73,5-9.22,9.51-7.54,12.62.46-.83,1.21-1.51,2.07-2.01,1.04.55,1.57,1.45,2.48,2.09-3.71.46-7.62.8-6.52,4.34-1.01.36-1.87.92-2.44,1.8h7.84-.01c-1.26-.03-1.93.16-2.29.49-1.06-.02-2.12-.04-3.18-.04-.06,3.02,2.18,5.46,4.74,7.65-.67-.05-1.33-.13-1.89-.25-.6,2.72,1.99,3.18,5.38,3.08.41.34.82.68,1.2,1.01-.01.6-.01,1.19-.01,1.78-.77,0-1.5-.02-2.08-.14-.74,1.99.3,2.72,2.07,2.93-.01,1.15-.01,2.31-.02,3.46h-6.34c-.76,2.07,1.43,2.39,3.89,2.55-.62.3-1.27.57-1.8.94-.16.1-.28.23-.43.34-1.66-.19-3.4-.38-4.94-.58,1.56.44,3.07.88,4.12,1.22-.08.08-.15.18-.23.26-.99.39-1.17.71-.8.95-.51.76-.85,1.62-.93,2.6.51-.16.9-.38,1.38-.56,1.66-.05,3.34-.12,4.95-.14.21.02.42.05.62.07-1.05,1.37-1.48,3.18-1.24,5.48.59-.4,1.13-.8,1.71-1.21-.02,3.7-.04,7.35-.05,10.97-2.13,1.65-4.8,2.98-3.06,3.43h3.05c-1.28-1.12-.89-2.07.01-2.93-.01.98-.01,1.95-.01,2.93h1001.52c1.49-7.52,1.64-16.66,7.99-17.47-6.91-2.83,2.94-4.14,0-9.65,5.18-1.13-10.35-2.68-16.02-4.63,0-.79,0-1.57-.01-2.36,5.94-.63,22.81-1.25,19.85-1.87,1.58-1.69-13.84-3.02-19.86-3.96-.01-1.62-.01-3.24-.02-4.86,1.95.04,3.93.09,5.77.09v-2.51c.06,0,.11-.01.17-.01v-1.62c-.1,0-.1-.02-.17-.03v-.35c3.3-.85,24.47-2.31,17.91-2.04,2.8-1.28-3.78-2.89-10.43-4.61,1.56.75,2.69,1.71,2.82,3-3.04-.68-5.56-1.59-7.29-2.82-.37.13-.76.24-1.17.36.26-.21.49-.43.71-.65-.6-.49-1.08-1.04-1.4-1.64-.73-.23-1.4-.46-2-.68-3.17-.73-5.19-1.37-2.79-2.61-.87.85.45,1.74,2.79,2.61.59.14,1.19.27,1.84.42-.39-.88-.47-1.87-.19-3.03,5.02-.95,4.9,3.87,5.71,0,.54-.04.99-.03,1.39,0-3.85-.72-9.43-1.47-13.73-2.06,0-.82,0-1.63-.01-2.44,4.28-.38,10.29-.51,15.24-.88-.63-.22-1.55-.31-2.89-.24.04-4.21-1.29-9,3.6-11.15-5.11-.74-12.11-1.52-16.02-1.86,0-1.01-.01-2.01-.01-3.03,1.84-.9,4.67-1.4,6.11-2.47-1.43-1.4-3.9-5.03-6.18-9.46,0-1.36-.01-2.71-.02-4.07.44,2.36,1.2,4.32,2.39,5.49,8.93-.78.83-4.12,9.94-4.83,2.12-7.33-5.59-22.13-6.12-28.34,2.52-.54,3.28-1.05,3.36-1.59-5.54.07-4.85,2.78-9.74,3.13v-.77c1.99-1.15,5.57-2.2,9.55-3.17-.11-.19-.23-.41-.33-.62-1.72-.56-4.72-.56-2.84-2.62,1.06-.68,2.49-1.2,4-1.69-.05-.04-.11-.08-.17-.12.11.03.21.06.3.08,2.5-.79,5.21-1.5,7.49-2.4-2.51.42-7.04.72-8.96,1.02,9.18-4.58,4.23-11.37-5.61-18.77-1.1,0-2.32.06-3.63.16-.04-4.13-.06-8.19-.1-12.23.39-.09.72-.18,1.18-.24-.67-.15-.48-.15.32-.04.65-.09,1.39-.16,2.21-.21.1-.01.13-.02.23-.05,1.19-.88,2.45-1.78,3.66-2.67-.17-.44-.34-.87-.43-1.31-.26-.01-.44-.04-.66-.07-.06.03-.07.05-.13.07,0-.02.02-.06.02-.08-3.59-.4-1.16-1.35.56-1.53.46-.72,1.23-1.44,2.13-2.15-.58-2.16-.27-4.54.68-6.86h-2.22v-3.54c1.74-.2,3.13-.22,4.27-.11,1.37-1.94,3.08-3.72,4.99-5.16-.17-1.27-4.85-.63-3.8-2.41-3.22,1.58-2.57,4.81-9.51,4.82-.87-2.71-.13-6.09.26-9.33-1.33-1.32-2.32-2.63-2.54-4.36l-1.44,6.76c-.09-11.08-.17-21.57-.24-31.3.48.2,1.1.43,1.89.72-.2-.63-.68-1.1-1.89-1.22-.01-1.73-.03-3.45-.04-5.12.22,1.22.57,2.4,1.15,3.47-.24.06-.2.07.01.05.67,1.27,1.56,2.45,2.72,3.53-.67-.25-1.34-.48-1.95-.71.24.85-.06,1.96-.24,3.02.77.14,1.77.21,2.91.24.52-.24,1.07-.43,1.63-.61l11.08-52.03c-7.47-.75-4.8,2.8-13.32,1.61.78,7.92,7.85,18.99-4.11,25.07-.15-25.06-.16-41.66.1-44.23l4.71-2.16c2.77-7.46-4.61-6.24-6.65-9.95.98-.75,3.22-.24,4.61-.56-1.55-4.08-3.27,1.03-4.98-.65.27-3.99-1.67-9.29,3.05-11.46l-8.11-1.86c-.05-.34-.07-.69-.12-1.05.11-1.3.22-2.59.33-3.89,7.08.67,7.52-4.49,9.64-8.2.99-.33,2.12-.71,3.44-1.14-.59-3.02-3.12-4.02-5.83-4.66-2.11-2.2-3.65-4.37.66-6.61-.26-1.79-3.29-1.12-5.49-1.22.28-.39.57-.78.88-1.16.98-.5,2.32-.66,1.85-2.42.06-.08.1-.16.16-.24.52.56,1.32.97,2.17,1.01.05-.8.58-1.97,1.56-2.72l-.98.75c-1.15.43-1.55,0-2-.52.32-.83.44-1.67.16-2.58,11.55,4.6,10.05-7.08,10.43-12.66,1.01-5.18-4.85-4.61-7.43-6.78,1-1.39,2.21-2.59,3.84-3.43,2.44,2.17,4.19,6.19,8.6,3.26l-2.02-3.7c-2.04-1.23-4.4-2.39-6.63-3.58.07-1.82,1.63-3.7,2.09-6.66.94-.43,1.84-1.06,2.62-1.88-1.29-1.27-1.87-1.83-2.83-2.41-.02-.11-.04-.21-.07-.33,2.59-1.17-1.94-2.64-6.38-4.4.61-2.31,1.01-4.91-.62-6.88,5.12-.68,11.36-1.36,9.78-2.05.99-2.22-7.29-4.01-12.38-5.38,2.28-4.85,16.61-2.07,13.41-12.49-5.35,1.37-6.8-.46-7.18-3.27,5.12-1.11,12.36-2.19,8.89-1.89,2.05-1.93-2.73-4.36-7.56-6.96,1.13,1.15,1.95,2.58,2.04,4.53-1.37-.64-2.55-1.42-3.58-2.34-.09-.83-.26-1.59-.52-2.29.09.04.16.07.23.11-.09-.07-.18-.11-.27-.18-.18-.49-.39-.98-.71-1.37.41-2.17,1.8-3.4,3.66-4.53.3.35.63.68,1.1.9.35-.34.05-.74-.63-1.17,1.1-.63,2.33-1.25,3.63-2-1.12-1.1-1.44-3.92-3.56-4.53-4.02.19-8.04.85-12.02,1.87-2.95-.85-4.68-1.43-2.96-1.45.26-.93,1.59-1.47,3.44-1.86v.1c.16-.05.26-.13.41-.18,2.68-.51,6.32-.72,9.61-1.14.23.19.45.37.56.66,2.76.85,2.94-.36,3.01-1.64-.74.23-1.63.42-2.56.58-.41-.14-.89-.24-1.58-.14.02-6.12-.83-13.01,2.29-16.41.79.24,1.54.48,2.1.7-.54-.63-1.15-1.2-2.4-1.27-4.24-1.24-9.9-2.48-12.16-2.82.04.14.01.25.04.4-1.52-.51-1.26-.58-.04-.4-.98-5.17,3.79-5.33,5.57-8.08-3.4-6.93-14.94-24.93-2.78-30.31-1.84,7.8-3.59,10.91,0,18.18,6.5-1.18,8.6-6.2,15.19-7.27,1.55-11.06-12.02-8.84-12.41-18.18,5.49-2.45,11.5-4.44,15.18-8.49.37-2.24-.61-3.3-1.83-4.12-.18.16-.27.33-.48.48,4.68,2.08-3.22,4.83-10.17,8.29.16.36.22.78.05,1.41-4.77-.14-3.52,4.99-8.29,4.84,1.04-2.3,4.5-4.37,8.24-6.25-.71-1.72-4.39-.85-2.71-4.65,2.37-3.17,7.01-4.34,9.66-7.28.61,1.59,2.32,2.23,3.69,3.15,7.39-6.86-7.93-17.26-15.33-28.64,2.45.5,3.95,1.78,4.66,3.67,1.18-3-3.33-5.55-7.87-7.99-.1-.58-.16-1.18-.29-1.77-1.12-.7-2.12-1.4-2.9-2.11-.02-.09-.06-.17-.07-.25-.26-.21-.51-.41-.77-.61-.78-.98-1.05-1.98-.45-3.03,1.16.96,2.27,1.97,3.38,2.98-1.6-5.57-2.91-10.05,6.74-10.25v7.28c5.52,0,7.57-3.06,6.9-8.49-9.56-6.49-5.78-24.86,0-33.93-.12-1.91-3.52-.95-2.76-3.65-2.34,2.4-1.88,7.26-6.9,7.28-1.43-9.26,3.11-100.77-2.76-106.12,1.32-7.74,8.46-10.35,8.28-19.41-6.69-5.44-9.72-14.08-8.28-26.66,3.54-1.32,5.71-3.87,5.51-8.48-4.45-1.5-1.05,3.92-5.51,2.42,1.89-4.91-3.01-3.83-2.77-7.28,12.18-8.46,6.12-27.02,5.52-39.99,6.18,1.79,4.23-3.55,9.66-2.43-4.73-5.48-4.15-11.66-6.9-20.6v-2.44c-.66-5.42,1.39-8.48,6.9-8.48v-6.06c.23-2.63-4.89-.55-6.9-1.21,3.15-3.52,3.15-6.18,0-9.7h2.77v-2.43c-5.78.46-1.51-4.41,0-4.85-2.72-2.47-12.29-10.47-5.52-13.33v-2.43c-5.58-1.67-4.38,2.63-8.29,2.43-.98-3.18-3-5.45-8.28-4.85v-10.91c2.71-.36,2.74,1.64,4.15,2.43.57-3.78-2.4-14.84-11.05-14.55.11-7.17,9.33-6.36,12.44-10.91,2.6-.27,3.02,1.37,5.51,1.21v-1.21h-2.77c.33-1.02.83-4.69,1.45-10.17-.45,1.76-.93,2.83-1.45,2.9-3.95-1.38-6.71-3.8-8.28-7.28,0-3.07,11.61-58.59,15.01-77.11-.66,16.7-1.33,34.53-2.16,49.51,3.65-40.87,7.74-97.5,6.47-104.38-1.56.75-2.61,16.11-3.54,36.35-1.89-12.35-5.88-30.49-6.15-39.44,5.28-9.69,18.52-12.39,22.11-23.57-5.3-1.04-9.63-9.27-8.28-12.12v-2.43c1.56-9.7-6.51-20.93-1.38-27.88v-7.27c.4-3.28-1.94-8.98,4.13-7.27v-3.65c-.54-7.6,1.82-17.76-2.76-21.81,1.68-.15,3.27-.37,2.76-2.43v-1.21c-5.72.17-1.44-8.44-2.76-12.12v-7.27c-2.17.11-1.09,3.08-4.15,2.42-2.5-6.64,6.65-3.05,4.15-9.7-1.67,1.37-2.5,3.45-6.9,2.43v-11.26c2.21-2.9,4.73-5.66,15.32-5.02.27.66.35,1.22.3,1.72,1.32-1.3,2.57-2.88,3.51-4.94,5.79.04,4.56-2.9,11.4-2.41,0-2.7-6.5-5.4-11.35-8.09-.78.13-1.84.19-3.22.16-1.44-1.36-3.48-2.14-6-1.68-.19-.51-.38-3.4-.56-8.19.44.29.8.56,1.28.86,2.32-.28,5.58-.72,8.13-1.07,5.95-5.02,15.49-9.21,6.65-11.75,2.71-1.8-19.29-4.76-10.57-4.02.15-5.03-2.18-11.12,5.72-12.87-.78-2.09-5.93-2.32-9.52-3.23,2.61-7.26,16-9.8,10.57-13.67-.87-1-2.21-1.38-3.74-1.54-2.11.25-3.46.18-4.44-.06-1.88.01-3.69-.06-5.04-.74,0-.26,0-.54-.01-.8,2.46.19,3.22,1.1,5.05,1.54,1.51,0,3.05-.06,4.44.06.28-.03.48-.03.78-.08,3-.06,1.49-2.04,5.71-1.61-5.72-4.76-13.03-8.87-16.16-14.74,0-.72-.01-1.42-.02-2.15h19.99c1.49-4.07-13.14-4.83-20.03-5.01v-.24c1.89-.09,4.6-.2,8.41-.38.33-3.42-5.08-5.04-8.51-8.19-.01-2.1-.04-4.23-.06-6.37.72-.06,1.3-.1,1.68-.11.05-.09.1-.18.12-.25-.02-.42.32-.74,0,0,.01.09.04.16.1.24.37,0,.41.04.1.11.23.2.72.31,1.71.09-2.61-1.72-2.68-3.37-3.76-5.07,0-.52-.01-1.04-.01-1.57,2.41.75,3.18,1.31,5.68,2.62,3.22-3.2-2.06-3.02,4.43-4.83.77-1.42.55-2.4-.06-3.22h-7.55v-2.76c-.93-.21-1.17-.36,0-.46v.46c1.24.28,3.68.66,5.73,1.15-.71-.51-1.41-1.02-1.91-1.61,10.21.56-3.35-65.47,9.5-63.79v-12.07c-2.44.04-2.62,1.03-5.71.8,4.16-1.2,5.37-3.64,9.51-4.83-.5-3-5.75-4-5.71-7.24h9.51c.22-2.77-7.82-2.05-7.61-4.83,6.15-1,1.45,2.6,7.61,1.61-1.55-2.57-7.58-3.23-9.51-5.63-4.45.94-11.86,3.92-14.62.7v-.81c11.71-1.8,18.86-6.46,14.62-12.77h-3.89c-.04.12-.07.24-.11.36,1.04.8,1.99,1.69,2.17,2.66,1.09.4,1.91.91,1.83,1.81-.74-.38-1.37-.71-1.89-1-.12.33-.29.66-.65,1-1.17-.22-2.01-.5-2.67-.8-.33.12-.69.25-1.09.4-.6.42-1.76.83-2.89,1.25-1.26.66-2.27,1.45-2.44,2.38-.15-.06-.23-.12-.33-.19-.28.54-.66,1.15-1.12,1.92.12.14.18.29.2.44.51.26.96.57,1.26,1.05,2.66-.33.21.36-2.22-.06-.04.03-.06.04-.11.06.02-.02.04-.04.05-.07-.26-.05-.49-.16-.73-.23,0-1.02-.01-2.04-.01-3.05.77-.87,2.17-1.25,3.1-1.53-.01-.49-.22-.98-.71-1.55,2.16.95,1.78,1.22.71,1.55.01.09.01.17,0,.25.61-.32,1.48-.63,2.37-.96.93-.49,1.96-.9,2.89-1.25.38-.26.51-.53.32-.79-2.24-1.36-1.63-2.71-7.97-.41-1.38-1.83,8.93-6.28,1.7-5.63-.84.46-1.65.84-2.43,1.19-.02-3.09-.04-6.16-.05-9.21,5.06.19,5.26,2.45,9.02,3.19,3.46-1.17,2.57-3.2.48-4.68-.72.15-1.55.33-2.2.53.28.26.29.56-.17.93-1.59-.24-.99-.61.17-.93-1.26-1.11-7.74-1.26-2.07-2.29,1.18.18,2.51.71,3.65,1.38,6.41-2.97-2.09-3.09-4.29-6.21,3.57-.46-1.76-.63-4.61-.49v-.43c.73-1.35,1.62-1.69,2.48-2.06-.85.19-1.67.36-2.49.53-.01-4.79-.04-9.51-.05-14.13.44.06.85.09,1.37.22,1.04-.31,2.27-.66,3.35-.98.57-.23,1.24-.46,2.1-.71.62-.29.51-.48-1.09-.46.99-1.23-2.48-.72-4.73-.24-.12.08-.2.16-.34.24-.33.07-.45.09-.66.13v-.13c.28-.07.61-.15,1-.24.74-.46,1.24-.93,1.52-1.42-.45-.78-.21-1.25.44-1.56-.93-.35-1.93-.92-2.99-1.87v-.55h3.51c.22-.53.56-1.07,1.18-1.61,16.45.53,3.48-4.43,6.34-9.65-5.3-.14-3.8,2.61-11.06,1.64v-1.97c1.54-.53,4.37-.52,3.45-2.09,5.8-.04,4.56,2.9,11.41,2.41-4.65-2.67-.28-19.33-3.8-24.44-8.96-1.22,1.71-4.61-2.66-5.48,2.26,3.05-4.21,2.44-3.89,4.68-1.4-1.32-2.79-2.71-4.56-3.59v-3.24c1.05.59,1.96,1.24,3.46,1.64,2.33-1.03,2.34-2.27.99-2.95.45.11,1.13.16,2.23.09,5.63-1.88,7.96-6.39,1.9-8.85,14.89.93-13.3-9.39,2.52-8.05,0-3.49,16.49-6.98,16.49-10.46h-5.71c-1.26.98-8.99,2-15.01,3.03-.5.27-.94.57-1.32.9.93.18,1.02.48-.79.9.21-.33.48-.63.79-.9-.55-.11-1.38-.19-2.32-.22-1.55.33-2.65.65-3.22.98v-.91c.95-.08,2.13-.1,3.22-.07,1.07-.23,2.3-.45,3.63-.68,2.67-1.46,6.85-2.29,9.3-3.83-3.71-2.79-7.6.98-11.41.8,2.68-2.08,3.35-2.2,2.02-3.29-.32.03-.6.06-.96.06v-.8c-.28-.22-.61-.46-.99-.75-1.73.01-3.17-.03-3.88-.05h0c-.17,0-.29-.01-.36-.02.08,0,.19,0,.36.02.1-1.45,2.27-2.01,4.35-2.61-1.9-.27-2.56-.68,3.27-1.4-.7.63-1.96,1.03-3.27,1.4,2.72.39,8.02.52.51,1v1.33c5.5-1.45,14.56-1.4,14.16-5.35-6.15-.99-1.45,2.61-7.61,1.62v-4.83c-6.15-.99-1.45,2.61-7.61,1.61,6.94-3,.52-4.11,0-8.05-6.15-.99,20.52,2.61,14.38,1.61v-4.83h-8.13c-.22.52-.29,1.06-.04,1.56,2.38.16,6.11-.24,4.36,1.66-2.79-.25-3.96-.9-4.36-1.66-1.45-.1-2.39-.4-1.34-1.56h1.38c.84-1.99,3.61-3.51-3.91,0-2.35,2.61,6.16.62,3.8,3.22-4.37.11-4.17-1.71-8-1.82-.07.07-.12.14-.24.21-.49-.04-.87-.12-1.32-.18-.56.04-1.13.08-1.85.18v-.48c-.73-.18-1.41-.38-1.98-.62.3-.03.62-.06,1.06-.21-.21-.49-.72-1.22-1.24-2.04.55-.03,1.23,0,2.16.13v1.01c1.61-.4,1.29-2.66,7.61-3.42-4.36-1.82-3.93-3.41-1.72-4.83h-5.6c-1.01-10.96-.96-24.52,2.93-35.71h8.29v-6.06c-6.43-1.59-4.62,4.02-11.05,2.43-1.32-5.61,3.68-5.65,5.54-8.49-2.57-2.61-5.62-6.45-8.22-10.76,4.52-.01,8.43-.03,8.43-.04.39-.89-10.04-16.05-10.78-16.42l-2.98-3.54c.12-.61.29-1.2.51-1.78,1.12,0,2.23,0,3.34-.01.05-.34.11-.69.17-1.03.1-.52.17-1.03.26-1.55,1.51,0,3.02-.01,4.55-.01-2.09-5.38.56-9.74,5.36-13.7-.01-1.07-.02-2.15-.02-3.22-.66.05-1.11,0-1.59-.03.09-.52.17-1.04.24-1.56-.67.19-1.48.43-2.59.73-1.3-1.22,1.3-1.75,2.83-2.21.06-.33.12-.68.18-1-.32-.1-.73-.21-1.29-.33-3.61.85-3.61,3.49-8.78,3.57l-2.07,5.03v-5.31c2.29-1.52,4.43-3.62,5.51-9.47v-1.59s0,0,.01,0c.07-.61.1-1.2.15-1.79,1.16,1.03,3.56.16,8.15-.29.12-.63-4.91-1.25-8.06-1.87,0-.48.01-.95,0-1.42,6.77-1.57,11.69-2.87,6.85-3.89.27-.11.4-.22.65-.33-1.91-.61-4.27-1.03-5.11-2.08-.8.44-1.79.8-2.83,1.15-.06-.46-.11-.9-.18-1.35.16-.64.11-1.26-.28-1.88-.02-.09-.02-.16-.05-.25.13-.77.27-1.53.39-2.31.99-.56.76-1.62.46-2.72.06-.36-.82-.71-1.85-1.05-.07-.52-.16-1.04-.22-1.54,1.07-.06,2.02-.18,2.83-.35-1.06-.14-2.04-.28-2.9-.46-.21-2-.27-3.92-.05-5.71,1.27-.39,2.52-.78,3.15-1.17-.4-.6-.65-1.25-.58-2.04-.59-.21-.91-.58-1.07-1.03-.11-.04-.11-.06-.2-.11.04-.06.09-.11.11-.18.04.09.06.19.09.29.33.11.73.24,1.24.38-.07.22-.15.44-.17.64.5.2,1.17.3,2.3.18.16.61-.74,1.23-1.72,1.86.6.89,1.43,1.68,1.71,2.7,1.04-1.59,2.29-2.99,3.62-3.9-.04-.01-.06-.03-.1-.04.05.01.07.02.11.03.94-.64,1.9-1.02,2.83-1.04-1.99-1.14-2.78-2.28,1.04-3.45-.34-.27-.21-.46.84-.56-.89-.85-4.63-.48-7.4-.53.16-1.27,4.84-.64,3.78-2.42,0-.54-.01-1.08-.01-1.62-.01-1.07-.02-2.14-.04-3.21-1.05,0-2.1,0-3.15,0-.28.16-.59.33-.88.48-.34-.76.02-1.87.19-2.87-.37-.01-.74-.02-1.11-.04-.04-.4-.62-.83-1.77-1.67-1.8-.56-2.79-.92-.8-.73,11.45-1.2,4.39-26.08,15.05-27.47-6.94-2.81,2.9-4.15-.08-9.65,4.56-1.01-7.02-2.29-13.73-3.91,0-1.09,0-2.18-.01-3.25,7.11-.58,20.11-1.16,17.49-1.7,1.4-1.53-10.79-2.71-17.71-3.6-.11-1.77-.27-3.5-.5-5.15,1.35.02,2.72.05,4,.04,0-.84-.01-1.67-.02-2.51.06,0,.11-.01.17-.01,0-.53,0-1.08-.01-1.62-.1,0-.1-.02-.17-.03v-.35c3.29-.85,24.45-2.39,17.9-2.09,2.79-1.29-3.82-2.88-10.47-4.58,1.57.75,2.71,1.71,2.84,3-3.04-.68-5.57-1.57-7.32-2.81-.37.13-.74.25-1.16.37.24-.21.48-.43.7-.66-.6-.48-1.1-1.03-1.41-1.64-.73-.23-1.4-.45-2.01-.68-3.17-.73-5.21-1.35-2.8-2.6-.87.85.46,1.73,2.8,2.6.6.14,1.21.27,1.85.41-.4-.88-.5-1.87-.22-3.03,5.01-.98,4.93,3.85,5.71-.02.54-.04.99-.04,1.39-.01-3.95-.72-9.68-1.47-14.04-2.06.05-.75.11-1.55.16-2.4,4.27-.4,10.34-.53,15.33-.94-.63-.21-1.56-.3-2.9-.22,0-4.21-1.37-9,3.5-11.16-4.83-.69-11.3-1.4-15.31-1.75.04-1.12.07-2.29.11-3.49,1.77-.68,4-1.17,5.22-2.09-1.17-1.14-3.06-3.75-4.98-7.07.02-.77.04-1.56.06-2.35.3.53.63,1.01,1.02,1.39,8.93-.81.79-4.12,9.9-4.86,2.05-7.33-5.78-22.11-6.38-28.31,2.52-.56,3.27-1.07,3.35-1.6-4.45.07-4.83,1.85-7.33,2.74.01-.49.01-.97.02-1.46,1.98-.73,4.44-1.43,7.1-2.09-.11-.2-.23-.41-.33-.62-1.72-.55-4.72-.54-2.87-2.61,1.05-.68,2.48-1.21,3.99-1.71-.05-.04-.11-.08-.17-.11.11.02.21.05.3.08,2.5-.8,5.2-1.53,7.46-2.43-2.5.43-7.02.74-8.95,1.05,9.14-4.61,4.12-11.39-5.78-18.76-.12,0-.28.02-.4.02.05-4.09.09-8.28.13-12.57.05,0,.09,0,.13-.01.1-.01.13-.03.23-.05,1.2-.88,2.44-1.79,3.63-2.68-.17-.43-.34-.87-.44-1.31-.26-.01-.44-.04-.66-.06-.06.03-.07.04-.13.07,0-.03.02-.06.02-.08-3.58-.39-1.17-1.35.55-1.53.46-.73,1.22-1.45,2.12-2.16-.61-2.16-.32-4.54.62-6.86-.74,0-1.48,0-2.22,0-.01-1.18-.02-2.36-.04-3.55,1.74-.2,3.13-.23,4.27-.12,1.35-1.95,3.05-3.74,4.94-5.18-.18-1.27-4.85-.61-3.83-2.4-3.12,1.54-2.61,4.64-9.01,4.83.07-7.8.13-15.86.19-24.15,3.24-2.25,6.88-4.34,6.68-8.03-2.02-.79-3.78-1.7-5.3-2.7-.45.14-.88.32-1.3.5.04-5.63.07-11.35.11-17.17,1.68-.96,2.65-2.22,2.49-3.96-1.21-.19-1.93-.17-2.46-.08.02-3.17.04-6.37.06-9.59,2.06-3.77,1.21-8.23.07-12.52.01-2.46.02-4.93.04-7.41,6.27.41,4.66-2.47,11.52-1.81-6.57-3.62-5.78-7.72-9.63-13.64,0-.54-.01-1.07-.01-1.61-.94-3.61,1.85-5.65,9.46-5.67-.01-1.35-.02-2.68-.04-4.02.32-1.74-6.74-.34-9.52-.77,4.33-2.35,4.3-4.12-.05-6.44,1.27,0,2.54,0,3.8-.01-.01-.54-.01-1.07-.01-1.6-7.95.33-2.11-2.93-.04-3.23-1.16-.51-3.24-1.37-5.28-2.36.06-12.87.11-25.99.17-39.3,1.13-1.05,1.61-2.36.9-4.18-.33.08-.58.19-.89.29.01-2.85.02-5.7.04-8.55,7.24-2.62,14.91-5.06,17.81-9.5-7.32-.66-13.32-6.11-11.49-8.01,0-.53,0-1.08-.01-1.61,2.1-6.45-9.08-13.87-2.06-18.5-.01-1.61-.02-3.22-.05-4.83.55-2.18-2.72-5.95,5.67-4.85-.01-.8-.01-1.6-.02-2.41-.79-5.05,2.4-11.8-3.93-14.47,2.33-.1,4.49-.26,3.78-1.62v-.81c-7.88.14-2.04-5.59-3.88-8.03,0-.53-.01-1.07-.01-1.61-.01-1.07-.02-2.14-.02-3.22-2.94.09-1.56,1.97-5.49,1.64,0-.81.01-1.62.01-2.43,2.21-1.18,7.93-.88,5.43-4.03-1.63.66-2.71,1.54-5.41,1.76.01-3.74.02-7.49.04-11.23,3.52-1.25,3.37-4.02,4.48-6.27-1.22.76-2.16,1.64-4.45,1.95v-1.16c1.5-.58,3.52-1.15,4.95-1.54.1-.13.15-.28.26-.4,2.33-.33,1.5-.09-.26.4-.18.24-.38.49-.5.75,1.04-.65,2.32-1.2,4.99-1.16-.32,2.28,6.44,1.54,3.84,4.81,1.89,0,3.79,0,5.71-.01,4.79-2.63.07-8.08-9.57-7.2-3.24-4-5.02-8.62-3.93-14.47-2.96,1.06-4.49,1.56-5.41,1.81,0-1.95.01-3.9.02-5.86.5.23,1.34.31,3.02.04-.46-.52-2-1.45-3.02-2.36.01-.73.01-1.46.01-2.19.87-.26,2.37-.39,4.87-.29-1.68-7.47-2.02-17.09,3.58-24.95,3.82-.01,7.61-.02,11.41-.04-.01-1.35-.02-2.68-.04-4.02-8.87-1.03-6.34,2.69-15.21,1.66-1.84-3.72,5.06-3.77,7.57-5.66-3.77-1.82-8.29-4.56-12.01-7.63.05-11.63.11-23.2.16-34.69.62-.11,1.27-.21,1.95-.28,1.06-4.07-.59-8-1.89-11.58.02-3.1.04-6.18.05-9.26,1.26-1.54,3.47-2.93,7.33-4.12-.18-1.26-4.85-.61-3.82-2.39-1.48.88-2.27,2.06-3.49,3.05.02-4.85.05-9.68.07-14.48.76-.09,1.74-.08,3.3.17-2.24-11.53,2.01-24.56-3.1-33.37.01-2.36.04-4.71.05-7.05,5.23-8.22,1.05-19.07,13.89-25.6-.01-.54-.01-1.07-.01-1.61-.98-3.08-4.4-2.56-7.24-6.42-2.62-.2-4.76-.78-6.38-1.62.04-3.73.06-7.44.1-11.11,2.21-1.48,5.35-2.7,9.52-3.36,1.13-1.67-3.13-5.59,3.76-4.84.26-2.07-5.17-1.69-4.27-4.02-.35.26-.69.58-1.05.82-1.83.1-.65-.48,1.24-1.18.07-.15.1-.27.23-.43.21-.01.4-.04.61-.04,7.44-6.1,14.01-15.75,14.39-24.14-4.94.34-16.45,2.56-18.56,4.08,0,1.07.01,2.15.02,3.22-.5,3.94-6.89,5.06.07,8.05-3.11-.33-4.82-.32-5.78-.12.04-4.81.09-9.58.13-14.28,5.1-6.46-2.74-17.6,4.9-21,7.72,1.09,6-1.77,11.4-1.64-4.62-1.95-11.73-4.56-15.97-6.86.02-1.41.04-2.83.05-4.22,1.52.32,1.98,1.1,3.38,1.47,2.99-.09,1.46-2.06,5.68-1.63.4-3.03-2.06-7.28,3.73-8.06-4.73-1.47-7.39-3.82-12.61-5.08.07-5.8.16-11.46.24-16.98,2.17-2.8,5.54-5.24,10.62-7.7-.28-.83-1.66-2.83-2.28-4.8-.27,0-.55,0-.91-.02-.05-.23-.17-.45-.35-.66-1.95-.4-4.67-.98-6.83-1.76,0-.34.01-.68.01-1.03,2.79.68,5.79,1.59,6.82,2.78.44.09.82.18,1.16.24-.65-2.48.13-4.76,6.11-4.43-1.56-2.03-5.39-32.71-7.9-34.32-5.18-.56,1.65,33.31-3.52,32.75-7.23.75,5.08-30.34-1.96-31.06.05-2.04.1-4.06.16-6.03.72.48,1.82.81,4.87.31,4.33-1.13.66-5.6,1.83-8.05h-.83c-.7,1.51-2.66,2.48-5.74,2.98,0-.24.01-.49.01-.73,1.4-.55,2.33-1.29,2.76-2.24h.43c.63-4.12-.54-8.41-1.5-12.44-.4-.06-.82-.11-1.23-.16.04-.95.07-1.89.1-2.82.17-.03.3-.05.48-.08-.18-.97-.32-1.92-.37-2.83.02-.6.04-1.17.06-1.76.15-2.09.8-4.02,2.55-5.6-.61-.1-1.02-.28-1.37-.51-.35-.07-.61-.18-.93-.26.26-5.81.52-10.92.81-15.24,5.15.88,11.52.59,20.07,1.39ZM1035.68,873.53h.12c.11.13.04.27-.15.42,0-.14.01-.28.02-.42ZM1029.79,488.78c.65-.11,1.39-.23,2.4-.36-.52.49-1.44.83-2.4,1.13v-.78ZM1029.79,489.94c2.72.3,6.24.44,0,.88v-.88ZM1027.4,103.71c-.18-.83,1.04-1.57,2.73-2.19.12,1.18.26,2.37.39,3.59-2.61-.75-4.8-1.48-3.12-1.4ZM1032.3,4.32h5.52c1.07,4.17-.77,5.79-5.52,4.85v-4.85ZM26.38,1506.73c.54-.35,1.17-.64,1.91-.86.05.3.07.61.21.86h-2.12ZM37.64,937.57c0-.78-.01-1.58-.01-2.35.01.72.02,1.48.02,2.22,0,.04,0,.09-.01.13ZM37.78,959.61c-.02-3.95-.05-7.82-.07-11.56.04.04.07.09.11.13.05,3.73.1,7.52.15,11.43h-.18ZM38.06,1019.8c.22.49.4,1,.57,1.51.01,1.68.04,3.34.05,5.03-.19-.07-.41-.12-.6-.2,0-2.13-.01-4.24-.02-6.34ZM38.24,1065.52c.26.24.52.46.79.69.07,8.65.13,17.46.21,26.43-.3-.02-.59-.04-.9-.06-.02-9.19-.06-18.21-.1-27.06ZM38.41,1112.02c-.01-4.73-.04-9.4-.05-14.05.32.12.65.24.91.39.04,4.52.07,9.07.11,13.65-.32,0-.65,0-.98,0ZM28.97,1605.28c-.15-.12-.29-.26-.45-.38-1.29-.66-2.6-1.33-3.28-2-.45-.23-.87-.44-1.23-.63-.76.48-1.71.93-3.04,1.28-.4-.55-.61-1.08-.73-1.6-.6.47-1.32.99-2.16,1.6-.07-1.25.65-2.02,1.65-2.63h5.88c-.22.24-.45.48-.73.72-.22.43-.07.85.37,1.27,1.05.56,2.23,1.22,3.28,2,.16.09.3.16.45.24v.14ZM27.5,1879.65c1.67-.06,3.17-.01,4.48.15-2.06.28-3.45.18-4.48-.15ZM32.01,1874.52c0-.06,0-.12-.01-.18.04.08.09.15.12.23-.04-.02-.07-.03-.11-.05ZM34.38,1695.11h-3.37c.73-.49,1.5-.94,2.54-1.41.43.32.77.7,1.01,1.12-.06.1-.12.2-.18.29ZM29,2173.47c-1.05.04-2.3.16-3.95.41,2.17-1.33,3.17-2.42,3.49-3.45.48.82.68,1.8.46,3.03ZM33.27,2179.39c-.85-.66-.87-1.53-.69-2.42.22.21.48.41.71.62-.01.61-.01,1.2-.01,1.8ZM29.49,3501.08v-.58c.22.03.44.05.65.1-.26.14-.41.33-.65.48ZM33.71,3364.98c-.11-.27-.17-.53-.12-.8.05,0,.07,0,.13,0-.01.26-.01.53-.01.8ZM40.58,3193.78c-.34.05-.65.09-1,.15.13-.3.23-.62.38-.91.21-.33.4-.68.62-.99v1.75ZM1028.02,3426.54c-.99,2-1.94,5.99-2.46,10.4-.02-3.19-.05-6.37-.07-9.53.76-.36,1.59-.66,2.54-.86ZM1024.86,3306.66c6.15,1,1.44-2.61,7.6-1.62.26,3.07-2.72,4.76-7.6,5.64-.12.52-.16,1-.23,1.51-.02-2.73-.04-5.4-.06-7.96.89.48,1.33,1.13.29,2.43ZM1019.91,2989.85c.11.16.2.33.31.49.5,0,.88.08,1.32.12-.54.04-1.04.04-1.65.14.04-.26,0-.51.02-.75ZM1014.35,3001.51h5.54c1.07,4.18-.78,5.8-5.54,4.85v-4.85ZM1008.83,2939.69v6.07h-5.52c1.54-2.29,1.94-5.57,5.52-6.07ZM1029.54,2449.45c-.57,2.31-.5,5.22-4.15,4.85-.39-3.17-.46-6.07,4.15-4.85ZM1032.65,774.6c.83,0,1.66-.02,2.48-.02-.12.07-.24.14-.37.21-.84,0-1.56-.06-2.11-.19-1.93.02-3.78-.07-5.13-.8.21-.23.38-.47.52-.71,2.12.25,2.88,1.09,4.61,1.51ZM1031.09,419.5c-.44.01-.91,0-1.4-.01v-2.22c.48.74.95,1.48,1.4,2.24ZM1015.72,2472.64c.05-2.28.46-3.68,1.4-3.79.58,2.2-.39,3.01-1.4,3.79ZM1029.54,2312.48c1.68-.49,1.08-.14-.18.59-.15.37-.27.74-.38,1.13.77-.97,1.69-1.79,3.62-1.72,0,.09.02.15.04.23-1.15,2.29.17,5.61-.39,8.15-1.45.6-3.27,1-5.21,1.25,1.21-2.14,1.29-5.27,1.94-7.91-1.11,1.44-1.83,3.2-4.66,3.13-.2-1.27,3.16-3.18,5.04-4.26.06-.19.1-.41.18-.59ZM1025.4,2306.41v-.83h2.62c-.65.53-1.49.9-2.62.83ZM1029.18,2301.88c-1.49-1.02-3.07-1.85-3.78-2.45v-.28c2.19-.12,3.41,1.2,3.78,2.73ZM1023.03,1952.93c.78.15,1.5.33,2.12.53.04-.01.1-.02.15-.04-.06-.57-.22-1.18-.09-1.67-.21-.24-.45-.46-.57-.74.23.09.41.16.61.23.29.84.33,1.9,1.54,1.93-.54.08-1.06.16-1.49.25.01.03.01.06.01.09,1.58.56,2.67,1.32,3.13,2.34-3.79.28-5.69,1.35-7.62,2.43,1.01-1.55,2.27-2.88,2.21-5.35ZM1028.3,1652.15c-.1.19-.18.43-.27.66v-.56c.1-.03.17-.07.27-.09Z"/>
  </g>
</svg>