<?xml version="1.0" encoding="UTF-8"?>
<svg id="Ebene_2" data-name="Ebene 2" xmlns="http://www.w3.org/2000/svg" viewBox="0 0 460.44 1017.73">
  <defs>
    <style>
      .cls-1 {
        fill: #0075bf;
        stroke-width: 0px;
      }
    </style>
  </defs>
  <g id="Layer_1" data-name="Layer 1">
    <path class="cls-1" d="M454.1,999.28c.07-.38.14-.71.21-1.04-.04-.11-.07-.23-.09-.3.61-2.26.53-1.59.17.32.12.43.29,1,.51,1.65.12.12.26.26.39.39,1.56-1.16,3.33-2.08,5.16-2.93v-167.32c-2.1-.32-4.62,1.09-7.2,2.72.24-9.74-2.43-5.39-5.08-13.63,6.33-2.17,8.22,7.45,12.28,4.89V25.83c-2.93-1.43-5.93-4.68-10.22-4.5v-5.52c-2.26.15-4.23,1.28-5.87,2.45-.03-.15-.05-.24-.08-.4-.06.13-.1.26-.12.34.02.09.03.1.06.17-3.22,2.35-5.05,4.77-4.9-.26,1.29-.52,2.96-1.71,4.76-3.07-.31-1.22-.73-2.81-1.15-4.28,1.09.66,2.2,1.28,3.34,1.77.13-.33.26-.61.39-.89-2.97.56-1.64-4.24-4.8-3.41.04.18.11.43.18.65-7.37-4.33-13.51-10.86-17.27-4.57-2.71-1.96-7.18,14-6.07,7.67-7.58-.1-16.75,1.6-19.39-4.13-3.15.56-3.5,4.29-4.86,6.91-10.95-1.9-14.77-11.62-20.6-7.68-1.5.63-2.09,1.61-2.31,2.73.37,1.51.26,2.5-.1,3.21.03,1.82-.19,3.55-2.45,4.5-.14-2.59,1.67-2.96,2.45-4.5-.02-1.09-.11-2.21.1-3.21-.05-.22-.06-.37-.12-.57-.11-2.17-3.09-1.09-2.43-4.15-8.03,4.65-14.79,10.75-25.45,12.43V2.29c-10.84-1.89-6.11,32.64-8.49,8.46-5.9-.28-8.24,4.88-14.54,7.12v.28c0-.61,0-1.17,0-1.82-.78,1.55-2.79,1.56-2.43,4.55.88-.18,1.66-.45,2.41-.74-.49,27.44-7.29-.74-7.55-4.4-.14-.04-.28-.06-.38-.08-.62.02-1.11-.22,0,0,.14-.01.26-.04.38-.07,0-.28.05-.31.17-.07.29-.17.45-.51.13-1.24-3.67,2.72-7.18,1.65-10.91,4.3,1.69-3.13,2.4-3.41,4.85-5.68-4.81-2.34-4.54,1.49-7.28-3.22-2.12-.56-3.61-.39-4.85.06v.37c-.94-.23-1.75.99-2.44,2.51.75-.56,1.53-1.09,2.44-1.45v4.05h-4.14c-.31.66-.56.85-.7,0h.7c.41-.91.99-2.68,1.71-4.17-.76.5-1.52,1.02-2.41,1.39.85-7.41-13.45,2.44-10.91-6.9h-18.18c.06,1.78,1.54,1.91,1.2,4.15-1.79-3.01-5.48-3.89-7.27-6.91-4.52.38-6.02,4.19-10.91,4.15V0c-4.17-.15-3.09,5.68-7.27,5.52-1.5-4.46,3.92-1.05,2.43-5.52-3.87,1.12-4.86,5.51-8.49,6.9,1.52,3.49,6.72,9.46,0,11.05-2.61-8.76-9.74-14.17-19.39-11.05v2.84c.19.01.37.05.55.07,1.22-.76,2.56-1.45,3.99-1.57.61-.79,1.38-1.39,2.73-1.34-.58.55-1.07,1-1.52,1.38.49.09,1,.22,1.52.46-.34.85-.76,1.48-1.21,1.95.18.23.38.5.6.78.63.45,1.26,1.28,1.88,2.1,1,.91,2.18,1.66,3.57,1.77-.09.12-.18.17-.27.24.8.19,1.74.49,2.88.82.22-.09.44-.13.68-.15.38-.37.86-.7,1.57-.91-.5-1.93.53-.13-.09,1.61.03.04.06.05.09.07-.04-.01-.07-.01-.11-.01-.19.51-.55,1.01-1.12,1.41-.11-.02-.23-.07-.35-.07-.09.1-.17.2-.24.29.05.02.11.04.16.06-.08.04-.17.07-.26.1.04-.05.06-.1.09-.16-.16-.05-.28-.09-.43-.12-.11.04-.2.15-.31.21,0-.2,0-.44.04-.68-.48.56-.86.95-1.17,1.2.11.06.19.15.31.21-.2.23-.39.45-.55.71.42.06.89.1,1.43.06,0-.04.02-.07.03-.12,2.2,1.61,3.87,3.82,4.9,6.76h-4.85c1.67-5.58-2.63-4.35-2.43-8.28.15.06.27.16.41.23.11-.27.28-.6.51-.91-2.21-.32-2.88-1.76-3.42-2.6-.74.01-1.48.17-2.34.51,1.43-1.56,1.84-1.28,2.34-.51h.38c-.48-.44-.97-1.07-1.45-1.72-.74-.67-1.37-1.43-1.88-2.1-.4-.27-.79-.38-1.2-.23-.04.04-.06.05-.09.07-.31-.33-.49-.31-.55.39-1.77,1.12-3.08,1.22.02,5.32-2.75,1.02-9.45-6.46-8.48-1.22,19.39,17.39-25.77,18.07-11.87,2.2-.08-.02-.18-.02-.26-.05.08-4.05,3.69-4.06,4.85-6.9-1.77-2.51-4.81-1.85-7.05-.34.23.52.51,1.12.8,1.61.38-.22.83-.23,1.4.11-.37,1.15-.9.71-1.4-.11-1.67.9-1.9,5.61-3.45,1.5.27-.87,1.06-1.84,2.08-2.66-3.55-3.69-4.4-.59-6.94,1.67,0-.18.01-.33.01-.54-4.7.69-3.23-4.04-6.06-1.01,1.9-1.28,3.56,1.21,4.66,2.54-.32.17-.65.33-1.02.45-.73-2.66-.97,1.52-.73,3.55.23.05.46.08.73.13-.38,1.38-.63.9-.73-.13-1.55-.32-2.35-.72-2.88-1.12,1.03-1.56.59-3.12-2.39-4.35-.17.29-.43.48-.73.6.73,1.35,1.49,3.11,2.19,4.85.23-.21.44-.44.62-.66.52,1.17,1,2.3,1.42,3.11.41-.06.81-.12,1.29-.3.03.71,0,1.1-.06,1.39h.06c-.24.85-.5,1.66-.77,2.48-2.16,6.55-5.18,12.12-6.51,19.62-2.85-.02-3.57,2.38-7.27,1.38,2.61-1.17,2.81-5.07,2.43-9.66-3.18,1.46-5.45,5.28-4.86-2.78-5.6-1.52-5.65,5.94-8.48,0-2.64,5.3-7.97,7.5-12.12,11.06,3.46-9.41,10.56-14.67,18.18-19.34.1,2.19-.58,5.28,1.21,5.54.41-3.8,2.82-5.3,4.49-7.66.16.24.33.45.52.55.19-.05.38-.1.56-.16.41-1.22.63-2.63.5-4.49h4.84c.46,2.26-.75,2.46-1.62,3.08.07.01.16,0,.23,0,2.16-.91,4.09-2,5.32-3.15-.55-.66-1.3-1.28-3.93-1.63-.89-2.94.68-2.79,1.77-3.23-.21-.39-.41-.77-.62-1.07-.4-.11-.85-.22-1.32-.34-1.14,1.05-1.92,2.56-2.25,4.65-2.33-3-4.19-3.12-5.96-2.13.31,2.06.69,4.51,1.24,6.28-5.61,1.17-10.67.78-9.35-2.88.21.22.44.44.69.68.33-.54.75-1.13,1.25-1.78v-3.21h-3.87c-.1-.16-.19-.24-.3-.43-.37-.38-.62-.33-.67.43h-.01s0,.01.01.02c0,.11-.01.19-.01.34-1.86-.71-1.08,1.8-.36,3.44.11.09.24.15.36.24.75,1.73.2,1.01-.36-.24-.27-.22-.57-.29-.85-.45v-3.19c-2.37.35-2.41,1.3-2.84,2.62-.31-.07-.59-.2-.8-.4-.17.22-.38.45-.63.7-.61-2.15-.39-5.3-3.01-4.93v3.85c-.81-.16-1.62-.4-2.42-.87.79-11.94-6.67-2.51-14.55-4.6-.21,3.91,4.09,2.69,2.42,8.28-4.58,2-2.32-3.79-6.06-2.74-.06-4.22,4.37-3.33,3.64-8.3-4.02,3.39-4.41.21-12.12,2.77-1.84,6.51-6.93-1.23-8.24,1.94,4.61-1.65,3.66,3.06,7.03,2.82-4.35,2.24-9.53,4.39-4.84,9.66h-7.28c-1.3-6.06,2.75-6.05,4.31-8.85-1.54-1.69-3.42-1.71-4.44-.72.17-.33.24-.84.12-1.62-2.83-4.1-9.62-5.78-13.34-1.38,1.41-10.82-14.13,9.67-12.12-1.84-1.4,0-2.8-.88-4.21-2.12-.56,1.59-.99,3.22-1.22,4.88h.24c.66-.59,1.22-.91,1.45,0h.1c-.03.13-.04.21-.06.33.04.23.06.51.06.85.48-1.01,1.83-5.8,1.21-2.1,2.06-.51,2.29,1.07,2.43,2.76h-3.64c0-.26,0-.44,0-.66-.16.35-.22.22-.06-.85-.01-.12-.02-.23-.04-.33h-1.45c-.09.09-.18.17-.27.26-.46,3.71.12,7.54,2.76,11.18h-6.01c-.19-1.82-.28-3.5-.32-5.1-.88.91-1.27-1.45-1.15-3.39-.34-.78-.68-1.67-1.01-2.63-2.21-1.94-3.45-4.96-5.79-6.76-4.19,2.7,1.48,5.51,1.21,8.28-3.12-1.94-3.3-2.41-4.94-1.46.04.23.09.44.09.7h-.38c-.55-1.61-1.69-2.5-2.76-3.45.52,1.51.71,3.5.77,5.27h0s0,.1,0,.15v-.15h-.48c.14.29.26.6.41.85.02-.02.04-.02.04-.02-.01.34-.04.68-.05.88h0c0,.09-.01.15-.02.21-.01.16-.01.17,0,0,0-.06,0-.12.01-.21-2.18-.06-3.03-1.63-3.93-3.15-.41,1.38-1.01,1.85-2.11-2.37.95.5,1.55,1.43,2.11,2.37.59-1.98.78-5.83,1.52-.38h2.01c-2.19-3.99-2.11-10.57-8.07-10.27-1.49,4.46,3.92,1.05,2.43,5.51h-7.28c-1.49,4.48,3.92,1.06,2.42,5.52-4.53-5.02-6.18-.37-12.12,0-1.5,4.48,3.92-14.89,2.43-10.43h-7.28v5.91c.78.15,1.59.21,2.35.01.24-1.73-.38-4.43,2.5-3.16-.38,2.02-1.35,2.86-2.5,3.16-.14,1.06-.6,1.74-2.35.99v-1c-2.99-.62-5.3-2.65,0,2.83,3.92,1.71.93-4.46,4.85-2.76.17,3.17-2.58,3.02-2.76,5.79.11.07.21.1.33.18-.06.35-.19.63-.28.95.06.43.12.83.28,1.35h-.31c0-.15-.03-.32-.02-.45-1.52-.9-1.83.79-1.62,2.73h.56c.06.16.1.34.16.46.04,0,.09-.01.13-.01.83-1.15,1.98-1.93,3.52-2.27.83,5.49,6.44,5.55,7.27,11.05-6.37,1.61-5.3-5.27-9.83-5.74.04-.13.11-.24.14-.45-.33-.05-.71-.05-1.1-.02-.02.04-.05.09-.08.12.06.15.13.24.19.34-.44.04-.91.09-1.45.22.14-.76.37-1.41.66-2.02.02-.02.06-.05.09-.09,0-.01,0-.05-.01-.07.16-.32.32-.65.52-.94-.01-.02-.04-.07-.05-.11-.21.01-.43.02-.64.04-.03-.16-.06-.33-.09-.5h-1.38c.07.16.09.33.07.54-.16-.01-.33.01-.48-.01-.36.16-.7.33-1.11.41.19-.21.31-.4.46-.59-.64-.33-.93-1.06-.46-2.63h1.52c-.61-1.16-4.01-.94-5.16-5.52-2.75,3.18-12.13,2.85-14.27,1.24v-.54c-1.22-.59-1.8-.37-2.1.19.68.84,1.37,1.6,2.1,2.2v5.65c-5.7-6.67,2.15,4.95-2.7,6.9,1.04,2.77-.61,1.55-1.82.17.66,3.11.9,5.01.97,6.45.29,0,.66.09,1.13.29.57,3.76-.09,5.69-.68,7.1.11.77.23,1.56.41,2.56v2.38c.07.11.14.19.22.3,2.97-1.07-5.06,3.22-4.79,5.61,3.92,1.71.93-4.46,4.85-2.77-1.18,10.86-.71,16.02-2.42,20.72,4.29,5.26,12.85-4.29,16.69-4.15,1.48,4.68,10.1,13,3.61,17.28l-10.46,2.19c0,.56.02,1.11.03,1.67,1.95,4.98,3.8,10.08,4.81,16.14-1.49-.17-2.87-.43-2.43-2.77-.82.63-1.1,1.34-1.06,2.09,3.64,3.13,6.96,6.8,6.76,16.36-1.98-2.2-3.5-5.18-4.91-8.37-.65.34-1.06.96-.8,2.34-.96-3.5-3.49-5.23-3.64-9.66-5.72-1.93-4.43,4.13-7.27,5.51,1.91,5.05,1.81-3.19,4.84-1.38.36,2.72-1.63,2.74-2.42,4.16,4.35,1.02,5.7,5.46,7.28,9.65,1.91-.12.95-3.51,3.64-2.76-1.6,6.43,4.02,4.62,2.43,11.05-2.71-.6-4.33-2.44-4.86-5.52-3.55,1.18,1.58,3.49,0,6.91,2.01,5.76,9.01-2.24,9.7,5.52-4.64-4.43-3.3.13-9.7,0-2.61-9.46-6.36-17.62-12.12-23.49,4.19,5.45-.74,17.53,4.84,23.49,4.39-2.51-2.14-3.82-1.21-6.91,2.94,2.63,8.22,2.61,7.28,9.66-2.39.43-2.41-1.85-3.64-2.74-4.19,2.68,1.49,5.5,1.21,8.28h-4.85c.12,8.15,6.24,9.46,7.28,16.57,2.63.23.55-4.9,1.21-6.9-2.19-1.18-3.35-3.56-6.07-4.15,1.85-3.9,3.6-7.86,8.49-8.29.38,4.6-5.96,1.51-3.64,8.29,1.91-.13.95-3.52,3.64-2.76-1.22,5.96,1.35,7.65,2.43,11.04,3.91,1.71.92-4.46,4.84-2.76.83,3.89-3.31,2.13-2.67,5.82,2.65.32,5.48.91,5.55-2.61-.15-8.72-.3-17.42-.44-26.13-4.81,3.18-1.28-7.63-6.09-4.45-.03-1.57-.05-3.17-.08-4.74,6.39,3.37-.56-13.18,5.85-9.82,2.24,9.51-3.14,7.68-2.77,14.4,8.17-.95,19.47,11.95,15.33,18.78,2-.1,4.01-.21,6.01-.3.26-4.23-1.72-11.83,2.84-9.66.09,5.17.18,10.35.26,15.52.56.9.98,1.98,1.26,3.2-.43.06-.82.07-1.2.07v.22c-1.72,1.13-2.36.45-2.71-.71-1.51-.72-2.43-2.11-3.01-3.88-.13.07-.21.05-.36.15.09,5.52.19,11.08.28,16.62-3.32,1.49-12.72-4.43-15.09-4.51.06,3.16.11,6.33.16,9.5-4.68-1.11-5.82-8.17-9.21-11.41.15-.09.34-.1.51-.16-.46-.23-.97-.43-1.69-.37,2.61,3.01,6.21,4.88,4.85,12.43-4.91,1.9-3.84-3-7.28-2.77-1.5-4.46,3.92-1.05,2.43-5.51-7.29-.02-.37,16.14-6.07,17.95,2.69,1.74,3.33,5.82,5.57,8.07h1.77c.11.48.15.87.21,1.29.62.21,1.31.32,2.14.29,1.67,1.05-.21,1.02-1.99,1.66-.03.98-.22,1.77-.5,2.45-.27-.6-.54-1.19-.83-1.77-.94.71-1.45,1.88-.58,3.95-.09.1-.19.21-.29.3.11.1.24.18.36.28-.19-.02-.36-.06-.53-.09-.51.51-1.03,1-1.49,1.56.06,1.28,2.55,1.78,5.41,2.22.24,1.27.43,2.55.47,3.87.94-.02,1.86-.01,2.88-.11h.46c.72-.8-.33-2.08-1.95-3.48,3.65.55,7.21,1.24,6.73,3.48h-4.78c-.51.59-1.32.91-2.58.87-.2,3.91,4.11,2.69,2.43,8.27-1.21.49-2.2-.84-2.98-1.84-.06-2.4-.13-4.82-.21-7.18-10.88.19-10.23-4.77-18.06-8.06,1.5,6.33-1.52,7.54-3.48,9.94,6.04,4.85,2.04,21.17,6.78,27.53-.51,8.69,9.65,5.26,10.65,12.24h-3.48v3.98c7.86,8.78-6.34,21.59-13.96,25.83v4c5.65,2.48-2.16-6.45,3.48-4,1.49,6.35,1.98,7.57,0,9.97,2.51,4.41,2.76,7.44,10.47,5.95,1.76,6.68,3.32,13.58,3.72,21.79-3.15,1.37-7.08,1.84-12.65.43,0-3.19-2.65,70.3-2.09,117.62-.54.05-1.05.15-1.48.38l1.5,1.66c.26,22.03.45,37.89.45,36.63v-3.99c1.02-.7,2.06-1.35,3.08-2.04.14-.72.35-1.48.52-2.21l.6,21.78-3.47,31.23c.63-2.35,1.36-4.51,2.13-6.58-.43,3.56-.03,6.84,2.27,9.49l.23,8.11c-.04.17-.1.28-.12.49.05-.04.09-.06.13-.1l.18,6.52c-.92-.13-1.82-.27-2.8-.29l-1.3,8.07s.05-.03.07-.04c.39-.5.83-.95,1.32-1.36l.33.54c-.55.26-1.1.53-1.64.82-.02.03-.05.06-.08.09v-.05c-.49.27-.97.57-1.44.9l3.88-.58,1.3,2.13-7.76,20.23c2.71-3.35,5.65-6.23,8.32-9.67.14-.04.25-.1.38-.13l.21,7.58c.7-3.02,1.49-5.83,2.34-8.56.28-.13.58-.2.85-.33l.14,10.83c-.25.17-.57.21-.8.39l-2.11,17.35c1.05-1.27,2.07-2.71,3.1-4.21l.06,5.38c-.15.13-.3.28-.46.39v.4c.17-.05.31-.17.47-.28l.05,3.61c.93,0,2.04.63,3.55,2.67.88-3.9.31-6.69-1.56-8.54,2.5-2.4,4.71-5.43,6.97-8.35,1.97,1.94,2.06,7.89,6.19,5.27.61.66,1.21,1.41,1.49,2.44.5-.62,1.13-1.21,1.68-1.71,1.2-1.05,1.91-1.57-.28-.71-.07-.17-.14-.33-.2-.5-.86-2.18-1.87-3.89-2.79-4.46-.06.05-.08.09-.14.13-.53-1.82-1.32-3.56-2.23-4.87,2.26-2.41,4.71-4.41,7.67-5.32-.71-.55-1.41-.93-2.08-1.23-.27-7.71,2.8-6.68,1.71-10.24h0c-.06-.06-.11-.11-.16-.16v-.23c-.15-.41-.3-.83-.56-1.39.19-.17.37-.34.56-.51v-3.33c-.7.77-1.29,1.46-1.84,2.12-.21.26-.33.5-.53.76-4.05-4.48-8.12-8.93-13.04-11.88.63-1.73,1.26-3.48,1.87-5.24.62.15,1.28.13,2.02-.17-.14-1.57-.35-2.9-.56-4.19.75-2.34,1.46-4.77,2.13-7.29,1.37,5.91,2.67,9.1,3.86,10.97-.7,1.44-.98,3.65-.47,7.24.16,1.18.38,2.46.73,3.95h5.57c-.03-.55-.09-.94-.14-1.41.93-1.45,1.52-4.18,2.58-5.15.2,3.85-.14,8.22-1.43,13.49.59.9,1.39,2.18,2.32,3.6,4.06-.16,6.64-2.54,8-5.82-.35-3.01-.89-6.87-.86-9.55.64.13,1.23.4,1.85.6-.46-3.54-1.79-6.93-3.83-9.16,2.31.89,3.82.88,4.97.45.74,2.35,1.92,4.4,3.82,5.91.49-3.6.87-7.1.9-10.35.74-.51,1.62-.88,2.88-.79,1.52-5.4-3.77-18.61,4.19-16.68-4.86-5.32-5.95-18.31.29-22.51.58-2.04,1.93-2.99,4.95-1.54-.16.62-.18,1.04-.26,1.55-.11-.29-.15-.6-.28-.88-.02.02-.04.04-.06.06.06.58.13,1.07.19,1.63-.18,1.51-.02,2.54.36,3.22.03.3.07.65.11.94.06-.15.14-.3.21-.46,1.59,1.85,5.08,1.01,5.45,4.6.13.06.19.2.31.28.36,1.33.7,2.73,1.03,4.15-.14.84-.35,1.62-.62,2.33-2.53-.52-3.52-4.38-6.51-3.93,2.4,13.23-3.12,9.73-3.92,16.19-.57,1.11-1.03,2.34-1.22,3.88-3.55-.49-4.3,9.08-5.63,16.58,1.16-.11,2.12-.48,2.95-1.02.04.48-.01.79.06,1.34,2.08-1.29,5.62.52,8.3.51.11-.07.2-.18.31-.26,0,.1-.03.16-.04.24,2.34-.13,3.92-1.85,3.06-8.72-.21.15-.51.13-.76.21-.12-3.15.32-5.65,4.3-4.13-.02.59-.01,1.11-.03,1.7-.11.48-.18.95-.41,1.44.15.01.25.01.38.04-.08,2.84-.15,5.71-.15,8.35-.8,1.89-1.37,4.32-1.3,8.05h1.4c0,.23.01.45.02.68.51.06,1.26.83,2.19,2.11,1.54-5.3,5.03-6.49,9.13-6.35-1.28,4.76-4.56,6.54-7.51,8.79,1.36,2.18,2.93,4.99,4.61,8.05.52-1.89.99-3.85,3.3-3.07,1.22,4.65-.32,5.19-1.8,5.83,1.14,2.1,2.29,4.24,3.45,6.37.16-.12.3-.28.46-.39-.11.19-.21.44-.32.65.9,1.65,1.8,3.27,2.68,4.82.48-.22.96-.45,1.58-.48.09,1.13.09,2.11.08,3.1.33.48.69,1.2,1.06,2.01,3.47,5.62,6.15,8.69,6.71,5.1,5.24.79,6.25,8.69,7.8,15.69-2.11.46-7.65-8.35-13.66-18.81,1.42,3.47,2.98,7.95,4.3,10.12-.85-.16-1.56-.48-2.2-.88.56,1.16.99,2.44,1.25,3.94-4.83-5.37-6.91-3.85-9.41-1.08-.38,1.21-.72,2.47-.95,3.91,0-.91-.02-1.87-.04-2.82-.06.07-.11.13-.18.21-.9-.62-1.72-1.43-2.58-2.16.91-.67,1.86-1.29,2.67-2.07-.17-7.18-.08-13.97,3.4-15.74-.88-1.56-1.76-3.11-2.62-4.66-4.11,8.19-1.12,26.97-9.9,28.22.95-12.93,3.23-23.88,9.71-28.56-1.22-2.17-2.42-4.32-3.57-6.34-1.3.59-2.42,1.45-1.33,5.62-5.77,3.83-1.53-9.15-7.3-5.33-.28,1.6-.31,3.58-.22,5.73-.08-1.88-.16-3.71-.24-5.63-1.14-2.48-1.11-5.34-.6-8.51-.89-.02-1.79-.04-2.63-.18-1.93,5.55-4.22,10.57-7.02,14.85,3.93-2.17,5.85-.98,6.76,1.92,1.38-.06,2.7.38,3.9,1.56-.04-.76-.07-1.57-.1-2.33.14,2.29.36,4.72.56,7.1h-2.81v11.41c1.24-.51,2.22-1.56,3.05-2.95-.26,3.34-1.21,5.65-3.67,5.72.61,1.63,1.27,3.16,2.09,4.43v-3.49c.3.34.6.7.91,1.02-.07,1.09-.19,2.18-.29,3.27.59.74,1.23,1.4,2.02,1.83-.83-.4-1.51-.59-2.13-.68-.02.27-.04.54-.06.79-.05-.27-.1-.55-.15-.82-2.44-.24-3.41,1.71-4.41,3.63.21.03.36-.04.56,0-.7,16.38,1.32,19.43,7.41,11.02.06,3.82.13,7.62.19,11.4-7.35-.78-9.13,6.77-14.26,9.32-.21,9.13,3.22,12.16,7.45,13.88,2.06-9.34-5.87-1.88-3.79-11.22,3.6-.19,7.2-.38,10.8-.56.4,2.68.45,4.87.32,6.78,6.41-1.38,5.62,9.33,8.51,13.89.71-5.39,10.72-20.38,8.81-11.86-2.55,5.45-7.1,7.94-6.91,17.46-7.35-10.69-7.2,2.69-14.32,6.45-.22-1.06-.35-2.04-.41-2.98-1.69-3.23-4.61-7.8-7.83-12.71.15,13.95-5.44,11.51.38,21.89-3.19.27-4.4,3.49-5.67,6.63,4.21,1.05,6.08-1.38,7.57-4.39,1.97-1.65,3.7-3.36,1.86-3.17.02-.32.02-.55.03-.83,1.52-3.01,3.49-5.35,7.92-4.02-1.03,11.4-9.37,11.95-10.42,23.36-3.87-.99-22.43-5.32-23.41-11.16-.76,1.83-16.89,4.41-18.18,5.43,2-6.49.71-10.83-.11-17.08,1.64-4.17,3.25-7.11-.51-6.67-.02-1.46.01-3.04.14-4.74h-.06c.08-.06,1.2-.08,2.96-.1.16,5.72.4,11.39,3.65,14.84-.56,2.07-1.38,4.29-2.66,7.55,5.04,4.07,2.66-7.54,6.62-5.73-.6,1.99-1.13,4.44-1.36,6.51,2.33-1.83,6.29-5.01,3.82-4.74.38-7.72-1.03-6.15-2.27-2.33,1.07-7.01-2.83-3.48-3.02-7.83-.22,2.21-.51,3.9-.91,5.61-.16-5.01-.16-10.11-1.97-13.88,9.28.05,28.84.61,30.79,1.83-.11-.74-.26-1.33-.39-1.96,2.52-.52,1.47-6.35,4.56-6.02-5.13-7.79-10.81-16.23-13.45-21.36-.09-1.54-23.37,6.05-23.97,4.23,0-.15.03-.24.04-.4h-.16c-.96-2.8-2.31-5.79-3.6-8.63-1.87-.11-3.62-.57-5.24-1.34.11,4.17,2.35,9.06,2.68,13.41-2.32-.27-5.03-1.33-3.92,5.68,1.34-1.08,1.92-.56,2.26.5-.14.18-.26.38-.43.56.25.05.42.06.64.09.48,2.57.19,6.77,2.93,4.56v-5.52c.42-1.24.33-3.69.83-8.13.07.07.14.16.21.22-.09.55-.2,1.15-.26,1.63.21,1.77.28,3.62.33,5.5.46-.87.88-1.32,1.27-1.68.1,1.24.24,2.39.37,3.56-.65-.37-1.25-.87-1.64-1.79.07,2.49.13,5.04.31,7.58-4.1-1.04-9.36,3.95-12.28,3.22-.01.02-.01.05-.02.07-.93-7.4,4.39-1.57,2.81-10.36-3.82-.49-2.63,9.65-8.08,5.71-1.32,8.25,2.66,5.33,5.1,5.68.23,3.24,8.09,6.15,3.2,6.21.79,8.24,5.02-.41,6.15-2.67.59.99,1.05,2.06,1.45,3.18-.68,1.96.38,4.39,1.42,6.97-1.4-.65-2.66-.9-3.81-.95-.61-.48-1.22-.95-1.83-1.43-.16.59-.23,1.1-.31,1.61-.53.12-1.03.27-1.5.46-3.7,1.48-5.56,4.58-6.38.34-6.73,1.24,1.05,5.05,0,11.41,1.68-6,3.89-6.17,6.13-5.66,1.04.23,2.08.51,3.1.5.41,8.16-.29,15.05-1.59,21.25-.69-.74-1.45-1.34-2.34-1.67-1.53-.55-3.3-.61-5.3-.16.31,1.88.38,3.29.38,4.54h-.02v.95c-.11,1.88-.51,3.16-1.02,4.18-.47-1.35-.95-2.6-1.38-3.46-.69,2.9-.63,5.24-.31,7.4-.23.93-.39,1.99-.35,3.5.38-.02.7-.17,1.01-.34.36,1.33.73,2.65,1.06,4-.56.55-1.03,1.01-1.42,1.39l1.5-1.05c.44,1.96.73,4.04.48,6.51.5-.39.85-.96,1.14-1.61.53.18.96.22,1.4.26l-7.13,10.8c-.13,8.06,4.29,6.5,8.41,5.57.66,2,1.64,3.76,2.81,5.39,2-3.15,2.96-6.83,3.15-10.71,1.2-.73,2.76-.68,1.81-5.96-.52,1.06-1.15,1.9-1.83,2.63-.24-3.71-1.15-7.49-2.58-11.08.88-1.34,1.87-2.51,3.8-2.35.11,2.71-.7,4.11-1.62,5.33.51.1.98.22,1.37.44.19-.1.35-.24.55-.34.03.29.03.52.05.79,1.28,1.06,2.07,2.67,3.13,3.96-.14,2.29-.07,4.46.96,6.39.88-1.63,1.68-3.82,2.39-6.32.36.43,13.17.95,22.76,1.55.12,2.94-.36,4.57-1.35,5.16-1.72,2.98.95,1.63,4.41.44.03,1.08-.06,1.99-.13,2.82-.08-.15-.17-.24-.24-.4.06.44.13.83.19,1.24-.03.8.01,1.6.32,2.49-.2.55-.06.66.24.51,1.17,5.11,3.24,8.3,7.35,7.17-.21-3.29-1.17-5-2.39-6.17.05.01.08,0,.11.01.04-.21.04-.34.06-.54-.11.12-.29.19-.43.28-1.01-.88-2.15-1.46-3.2-2.26,1.09-1.37,2.41-3.52,3.4-6.24.91.02,1.75.19,2.44.65.14-1.87,0-3.16-.29-4.11.51-.68,1.28-1.05,2.69-.71.11,2.05-.82,2.93-1.73,3.82.36,1.65.36,3.22-.27,4.28-.5.24-.88.24-1.24.24.07.49.14.98.33,1.6,4.71,2.04,1.1-5.37,5.81-3.3-4.14,3.61-.26,9.66,2.16,16.1,1.11-2.39,5.51-.18,7.12-1.37.08-.51.27-.91.58-1.26.02-.37,0-.79-.11-1.33.67-.01.95.29,1.07.79.2-.06.36-.15.61-.16-.41-1.23-1.07-2.83-2.06-5.4,2.48,1.3,3.3.23,3.54-1.65-5.25-3.04-8.45-8.4-7.07-19.01h5.82c-5.4,6-1.97,12.6,1.35,17.6.06-4.02-.98-9.62,3.58-7.22v17.74c1.95.8,5.05,3.6,8.03,4.95.58-4.37.85-8.29,1.62-18.12.48-.02.97-.06,1.45-.07,1.03-.59,1.87-.41,2.68-.15.88-.04,1.75-.1,2.63-.13,1.46-3.52,3.08-6.82,5.22-9.38.22,6.82-1.42,10.97-3.25,14.89,1.15,4.69,2.56,8.34,5.89,4.12.38,7.78-4.16,4-8.58,2.13-.51,1.4-.98,2.89-1.27,4.61,4.02,1.11,6.42,4.52,7.2,10.26,2.68,2.01,3.87,5.93,4.04,11.69-3.92,2.55-6.83,1.1-8.81-4.24-2.38-1.38-3.65-4.32-4.52-7.85-.28.12-.56.28-.8.46.06.85.24,1.79.61,2.89-.68-.24-1.27-.91-1.82-1.71-2.12,2.82-2.82,7.74-5.45,9.8.58-3.38,1.04-6.08,1.44-8.43-3.52-.58-.79-5.4-4.17-8.02-.96,3.01-1.61,4.61-2.15,5.35v.07s-.05.01-.09.04c-.05.05-.09.05-.14.1,2.55.85.37,7.1,1.12,10-5.18,1.55-2.14-6.28-2.88-9.77-.95-.22-1.3-1.26-1.53-2.51-.8-.66-1.83-1.24-3.25-1.32.31-.49.36-1.18.34-1.95-.26.11-.46.09-.78.26.27-.66.46-1.16.68-1.71-.06-.44-.15-.89-.24-1.35-3.45.96-3.65,1.87-6.2,1.65.5,3.51-.18,6.99-3.6,10.06v-16.55c-1.81.45-2.67,2-3.05,4.11,1.73,3.15,1.17,7.58,1.99,12.25-.57.01-1.11-.04-1.65-.12.18,2.6.24,5.06-.19,6.95,1.25-1.38,2.3-2.11,3.29-2.47,1.59-1.27,3.68-1.84,6.54-1.32-.16.84-.34,1.66-.56,2.44.83.34,1.71.68,2.73.95v-12.25c7.11-1.56,2.12,14.13,3.6,20.59h-2.39c.24,4.49,1.97,6.99-1.59,11.95.11.62.33,1.12.54,1.63.85-1.34,1.62-2.76,3.15-3.55.4,2.43.95,4.13,1.63,5.46,2.01-1.84,4.25-3.35,4.14-8.23,3.06.85,5.18,3.06,6.36,6.61,1.65-.27,3.65-.6,5.56-2.23.23,1.13.51,2.19.83,3.26.87-2.85,2.4-5.1,4.61-5.52-.06,10.16,1.79,3.36,4.47,11.24-2.26.87-4.08,2.1-5.32,3.82.59,1.32,1.2,2.69,1.84,4.17,2.97-8.77,12.61-9.91,16.34.3,5.83-2.24-1.08-3.19-1.07-10.29,4.9-5.27,5.99,4.96,10.91-.29,1.96,7.9.73,13.14,4.16,22.25-7.92-6.78-19.34-16.22-28.69-8.01.19.48.38,1.02.57,1.54,2.82,2.11,5.92,7.24,7.13,11.91-6.49.68-6.51.74-3.07,12.47-4.69.33-9.37-5.26-5.7,8.4-3.05,2.34-4.5-1.89-6.01-5.87-.36,8.49,2.17,14.19,3.91,20.27-5.57-4.08-7.87-11.02-9.7-19.35-1.45.38-2.1,1.43-2.17,2.96,0,.28.02.56.02.87-.03-.31-.03-.59-.02-.87-.31-9.41-7.45-4.36-13.01-5.05,1.59,1.71,2.69,3.48,2.93,5.34,1.53.38,2.99.5,3.9-.5.09,1.79-.23,2.84-.78,3.46v4.35c.43-.04.87-.02,1.25.11.83,3.18,1.66,6.38,2.46,9.56-5.29-5.43-12.1-4.76-17.66-9.16-.25.38-.59.62-.88.95-.28,1.67-.51,3.4-.71,5.17,3.41,1.87,7.16,2.28,8.81,11.23-1.22-.85-2.57-1.19-3.87-1.73,1.77,1.35,3.85,5.65,4.14,9.93.11,0,.18-.05.28-.05.73,10.47-3.97,13.19-5.4,20.58.18-7.73-.83-17.14,2.91-19.79-.79-.39-1.52-1.04-2.51-.6-.22-.68-.33-1.33-.4-1.98-2.24,5.61-2.07,14.64-4.71,19.68.06,3.86.11,7.72.11,11.52-1.28-1.37-2.16-2.01-2.9-2.35v7.51c-1.27-.37-2.31-1.04-3.26-1.84-.27,1.11-.59,2.27-1.1,3.32-4.59-1.63-3.57-4.78-2.04-8.28-.34-1.06-.63-2.19-.8-3.49h2.27c.36-.98.6-1.94.68-2.89-1.25-.32-2.17-.16-2.89.28-.73,1.48-1.07,3.41-1.72,4.99-.6,12.56,1.46,14.79,7.33,7.94v6.39c.45-1.2.97-2.35,1.69-3.26.36,1.37.8,2.32,1.3,2.95-2.07.11-.82,4.01-2.99,3.99v.22c-5.99-.84-8.38,3.43-11.85,6.15.5,3.46.43,7.57.35,11.71,1.2,1.23,2.68,2.07,4.29,2.74,2.23-8.34-5.83-1.98-3.61-10.3h10.82c.04.28.03.5.06.78.21-2.13,0-4.46-1.44-8.34h5.81c-.21,7.88-1.32,11.23-1.7,14.18,3.62,1.73,3.38,8.97,5.74,12.53.79-4.83,11.06-17.89,9.01-10.29-2.64,4.79-7.23,6.82-7.2,15.42-7.17-9.99-7.25,2.1-14.42,5.16-.21-1.01-.31-1.93-.36-2.81-5.77-10.52-11.45-21.14-17.13-31.79,1.89.62,3.27.49,4.34-.07-.09-1.57-.11-3.19-.09-4.89-.43.44-.83.84-1.29,1.32,2.47-2.68.53-9.06.84-13.56-5.59,1.54.32-10.01-3.91-10.06-4.46,3.61.45,10.41,1.46,13.28h-5.82c2.72,4.56,1.37,7.34.84,10.38,1.02,2.11.11,6.97,4.17,4.78-.11,7.85.53,14.64,2.3,19.84.41-.15.86-.23,1.42-.22v3.5c2.66-.41,1.37-6.5,5.3-5.12.17,13.6-5.78,10.77,0,20.59-2.74.09-4.07,2.19-5.23,4.55-.13,2.01-.32,4.1-.31,5.95.87.55,1.67,1.17,2.3,2.04-.11.58-.19,1.19-.27,1.8h1.12c.21.57.36,1.26.52,1.91.68-.01,1.45-.12,2.39-.43-.69,8.57,1.74,6.41,4.34,5.66-.51-.9-1.04-1.79-1.79-2.41-.88,1.19-1.79,1.56-2.54-.85,1.12-.04,1.9.33,2.54.85,1.79-2.48,3.44-8.45,3.27-1.57-.26,4.69,9.51-2,7.28,4.96,4.7,2.05,1.1-5.35,5.81-3.32,4.29.65,3.34,7.24,5.82,9.95,1-.44,1.92-.96,2.83-1.49.33-1.8.55-3.71.63-5.62h-.36c.2-.48.38-.99.62-1.43.05.04.06.05.12.1,0,.13,0,.28-.01.43h1.41c.25.21.42.33.65.51-.28-4.68-2.15-9.18-4.76-10.89-.33.17-.71.06-1.12-.6.39.15.76.35,1.12.6,1.72-.85,2.51-9.5,1.79-3.16,4.62-2.87,3.94-3.06,7.71-.65.28-.29.62-.2,1.03.65-.4-.24-.7-.44-1.03-.65-1.2,1.28-1.35,10.93-.44,14.3.37-.01.83.06,1.47.33-.65,1.34-1.12.94-1.47-.33-1.35.06-1.3,1.71-1.67,2.88,1-.58,2.04-1.13,3.14-1.62-.6,6.74,3.2,8.5,4.36,13.25,4.29-.63,3.34-7.24,5.82-9.95,3.52.94,5.15,1.48,6.41,1.66-.3-.76-.87-2.95-1.33-4.6,0,.09,0,.2-.01.27.01.1.03.22.04.33h.09c-.29,1.5-.98,1.18-1.81.35h-4.58c.88-5.06,2.93-2.3,4.61-.35h1.57c.01-.12.03-.26.04-.38-.02-.22-.04-.37-.06-.54-.15-.51-.29-.98-.39-1.26,0-.4,0-.76-.01-1.24h5.41c-.2,3.15-.53,6.1-3.61,5.15.18,1.28.23,1.95.23,2.29,1.75.21,2.93-.35,7.95-1.68-.11,4.87-4.45,4.89-5.82,8.3,2.26,2.93,4.08,6.38,10.17,4.98,4.12.27-1.2-10.24,2.9-9.95,6.83-.05,4.66,10.17,8.74,13.24,5.01.18,3.71-6.82,8.72-6.62-2.92,11.6,6.83,8.8,7.28,16.57,2.3-.15,1.14-4.23,4.36-3.3v-9.94c1.45-7.19-1.62-9.19-2.91-13.28,4.38,1.67,2.58-3.67,2.91-6.62,11.38-.33,9.92,4.04,18.9,0-1.79,12,6.2,12.81,5.82,23.19,5.03-5.18,6.41-.91,10.18,3.33,3.15.28.66-5.89,1.46-8.3-1.79-2.93-8.44-.33-5.82-8.27,5.3,4.33,4.81,2.56,7.28-3.33.68.15,1.2.49,1.62.94v-8.16c1.37-.34,2.73-.46,4.07-.57-.04-.67-.02-1.37.12-2.15.7.65,1.45,1.33,2.21,2.04.48-.07.99-.1,1.45-.26.57.21,1.17.48,1.9.9v2.29c.63.52,1.27,1.05,1.93,1.55.29-.51.6-1.1.93-1.77.62-.94,1.3-1.77,2.09-2.66-.14-.27-.27-.55-.38-.79,1.37-2.74,2.47-4.39,2.41-1.02,2.03,1.79,3.89,4.06,5.74,5.88.71-5.1,1.67-10.67,3.33-11.8.28.09.57.18.85.28.58,2.06.93,4.44.72,7.62h7.21c.44-2.54-.21-3.51-1.05-4.22-.54.22-1.05.5-1.65.61-.22-.1-.44-.19-.66-.3-1.05-.01-2.19-.17-3.55-.77v-1.29c-.06-.01-.13-.04-.19-.06-.04-.15-.06-.34-.11-.49.27.02.54.12.84.38v.33c.8.28,1.59.61,2.38.94-.12-.33-.21-.71-.23-1.19,2.17-5.5,4.41-3.01,6.64-.45.97-.35,2.01-.58,3.19-.56.4-.51.91-.87,1.54-1.06.48-.91.83-1.04.98-.09-.29.05-.57.11-.85.18-.21.44-.43.94-.7,1.6-.29-.07-.58-.11-.86-.17-.27.7-.42,1.54-.21,2.89-1.08.18-2.19-.8-3.28-2.01-.89.46-1.79.9-2.7,1.32,2.56,1.38,4.8,2.91,6.33,4.51-.19.24-.38.46-.61.71,1.88,2.68,1.54,5.39-2.48,7.55.14.72.16,1.61-.24,3.1-.72-.21-1.29-.62-1.9-.99-.25.07-.48.16-.74.23.36,4.21,4.79,3.8,3.18,10.28h2.91v-3.33c6.41-.68,3.5,9.27,8.72,9.95v-3.33c-.88-3.4,2.34-11.5-2.91-9.93,2.06-4.3,2.56-4.54,1.52-6.83,0,.21.02.34.02.57-6.98-1.17-4.79,6.84-9.02,1.72,3.27,2.49,6.03-3.46,7.61-5.16-.04-.1-.08-.16-.13-.26.13.05.21.04.33.07.38-.34.68-.33.88.19.18.02.31-.01.46-.04-10.04-7.36.98-25.2,3.71-30.8-1.77-5.19-3.86-13.22-5.45-22.18-2.09,0-3.74-1.84-5.7-2.4,2.91,7.18,4.55,14.96,2.11,24.58-2.19-21.74-14.23-29.42-14.41-54.04,1.82,10.79,8.24,19.53,12.27,29.39-.26-1.87,2.24-3.46,4.75-3.55-2.11-14.9-2.38-31.2,2.8-41.29-.58,5.67-.71,10.71-.58,15.35,3.07-.16,7.29,1.76,8.69,5.01,2.2,4.54-4.9-.44-8.45-.32.38,5.33,1.15,10.12,2.03,14.74,4.41-.65,9.52-4.15,12.03,2.93-2.56-.22-7.16,4.15-10.94,2.5,2.2,10.44,4.62,20.57,4.44,34.43-7.72.95-7.77,12.83-7.22,25.62,2-.45.89-4.43,1.16-6.84,1.26-.49,2.18.55,2.91,2.39v-4.05c1.22.32,2.58,5.07,3.67,10.68h5.06c-1.08,7.85,6.96,5.34,8.73,9.95,2.29-.16,1.14-4.22,4.36-3.33.34-1.17.42-2.02.41-2.77-1.41.29-3.05.62-5,.96.77-2.96,1.67-4.46,2.66-5.11-.59-.71-1.06-1.55-.98-3.02,2.39.34,4.31,1.2,5.95,2.38v-.82c2.98-.15,4.17,2.29,5.26,4.83.75.5,1.52,1.16,2.48,2.21-.63.12-1.22.15-1.81.08-.44-.72-.8-1.5-1.17-2.3-.33-.1-.71-.1-1.07-.13,2.04,2.98,3.47,6.65,4.9,10.34,3.37-.54,5.59.27,7.27,1.66v-14.92c3.31,2.3,7.8,3.28,10.19,6.62,5.32-2.61-3.37-2.46-1.46-6.62,3.65-1.37,12.52,3.22,11.63-3.32,4.13-.27,2.84,5.61,8.73,3.32,1.8-5.35-4.71-1.26-2.91-6.63,5.85,6.19,11.88,12.18,18.57,17.39.08-.38.18-.87.34-1.54.18.18.36.26.55.35,1.2-2.94,2.93-7.39,2.36-2.95.86.24,1.4.13,1.84-.11.45-.6.91-1.23,1.39-1.9-.34.78-.7,1.54-1.39,1.9-1.64,2.16-3.06,3.54-4.2,3.06-.23.54-.43,1.04-.6,1.43.99.74,1.94,1.54,2.96,2.27,3.57-1.46,5.34-4.96,11.64-3.32.25-4.17-3.25-4.04-4.36-6.63-1.64-.72-2.51-.56-3.1-.07,3.1-4.47,6.69-9.65,10.38-9.88.2,3.1.95,5.55,2.9,6.63.59-.27.98-.54,1.25-.77-.06-.58-.16-1.11-.26-1.66-1.25-.89-3.52-1.87-2.44-4.21,1.46.63,2.08,2.27,2.44,4.21.74.51,1.1.98.26,1.66.44,4.02.28,8.74,3.1,9.99,5,10.28,11.66,6.63,23.28,4.05,2.01-6.71-3.15-5.26-2.91-9.95-2.14-6.3,6.51-.33,4.36-6.63,4.96,3.74,13.53,3.38,16.01,9.94,5.31-2.61-3.38-2.46-1.46-6.62h5.82c.03-7.68,4.88,9.25,2.91-.73h5.8c-4.71-1.79-2.39-11.65-2.9-18.23,9.06,4.04,3.65,24.58,21.81,18.23.6,5.95,9.33,2.63,8.73,9.95,7.63,1.24,20.14-3.07,23.27,3.29.67-.82,1.43-1.54,2.25-2.2-.1-.32-.22-.66-.31-.95-.13-.12-.26-.24-.39-.38ZM258.49,15.29c-3.03-.68-7.78-4.18-2.22-3.62-.12-2.35,1.36,1.41,2.22,3.62.07.01.14.05.21.05.67,2.26.38,1.45-.21-.05ZM226.02,19.77c.02-.07.04-.13.06-.21.05.32,0,.35-.06.21ZM98.69,93.13v5.54c-2.71-.61-4.32-2.45-4.85-5.54h4.85ZM91.42,95.89v5.52h-4.85c1.68-5.6-2.63-4.37-2.42-8.29,3.43-.23,2.36,4.68,7.27,2.77ZM56.26,104.19h-6.05c.49-3.6,3.77-3.99,6.05-5.52v5.52ZM50.21,87.61c-4.75-1.96-6.46-7.36-7.28-13.8,6.11.39,3.97,10.19,7.28,13.8ZM50.21,73.81c.96,3.95,4.13,5.41,3.63,11.05-4.51.07-3.5-6.15-3.63-11.05ZM65.96,79.32c3.57.54,2.78,6.05,4.84,8.29-3.18-.99-5.44-3-4.84-8.29ZM73.23,82.08c3.43,3.93,5.29,9.63,8.49,13.82h-4.85c1.68-7.89-4.85-6.44-3.64-13.82ZM152.03,90.37c-5.04-4.13,1.58-6.79-2.43-13.8,3.74-1.04,1.48,4.77,6.06,2.76-1.08,4.05-1.08,4.24,0,8.29-2.43-.48-3.79.28-3.63,2.76ZM202.94,76.57c1.67,5.58-2.63,4.36-2.43,8.29-5.69-.57-.61-8.87,2.43-8.29ZM195.66,82.08c-3.47-1.56-5.9-4.33-7.28-8.27h4.85c-1.67,5.58,2.63,4.37,2.43,8.27ZM144.75,64.14c3.57.52,2.78,6.04,4.85,8.29-2.07.5-2.29-1.1-2.43-2.78-3.92-1.7-.92,4.48-4.85,2.78-.2-3.94,4.11-2.71,2.43-8.29ZM135.05,64.14h4.84c1.5,4.46-3.92,1.05-2.41,5.51-3.65,1.4-2.15-3.06-2.43-5.51ZM202.94,72.43c.52-3.08,2.14-4.94,4.85-5.54v6.91c-2.18.18-2.56-1.7-4.85-1.38ZM233.24,64.14c-.28,2.45,1.22,6.91-2.43,5.51,1.67-5.58-2.63-4.37-2.42-8.28,3.92-1.71.93,4.48,4.85,2.77ZM225.97,69.65c-4.77,2.22-.42-5.96-3.64-5.51-1.22,5.05-5.37,6.75-8.48,9.67,1.41-5.51,3.72-7.74,0-12.44,4.82,5.35,4.88-1.12,9.69-2.77-1.59,6.44,4.03,4.63,2.43,11.05ZM228.39,58.61c-3.65,1.39-2.15-3.07-2.43-5.51h4.85c1.5,4.46-3.92,1.05-2.42,5.51ZM202.94,50.33c-.29,2.45,1.21,6.93-2.43,5.52,1.67-5.58-2.63-4.37-2.43-8.28,3.92-1.71.93,4.46,4.86,2.76ZM256.27,53.09c-2.06.5-2.29-1.09-2.42-2.77-3.92-1.69-.93,4.48-4.84,2.77-.21-3.91,4.09-2.7,2.41-8.29,3.58.54,2.78,6.05,4.85,8.29ZM205.36,35.14h-4.85v-5.52c2.71.6,4.31,2.44,4.85,5.52ZM185.97,18.57c-.38,6.88-.36,13.28,4.85,13.79.26,15.5-7.13,22.27-4.85,40.07-6.14-9.52-.91-29.42,2.42-37.29-1.84-3.02-9.3-12.64-2.42-16.57ZM182.33,35.14c3.88,12.24-7.57,18.96-9.7,29,.12-13.22,8.22-17.34,9.7-29ZM162.94,50.33c4.38-1.3,1.69,5.44,2.42,8.28-4.38,1.32-1.69-5.43-2.42-8.28ZM142.32,40.67c-1.26,5.45-6.36,6.55-4.84,15.18,6.22-3.28,11.25-14.47,19.39-11.05,1.42-.22,1.03-2.51,1.2-4.13h7.28v6.9c-3.44.23-2.36-4.67-7.28-2.77,1.08,3.39,3.65,5.07,2.43,11.05-3.73,1.04-1.47-4.76-6.05-2.76-.16-2.46,1.48-2.9,1.2-5.52-6.44,3.24-9.83,9.96-15.76,13.8-1.49-4.46,3.93-1.05,2.43-5.52-3.55.98-3.57,4.63-6.05,0-3.2,2.34-4.15,7.24-6.07,11.05,1.56,5.13,4.54,8.63,4.85,15.18-3.92-1.69-.93,4.48-4.85,2.78-.91-4.27,4.18-1.7,2.42-6.91-2.95-.77-1.1-7.04-6.06-5.51-1.75,5.22,3.33,2.65,2.43,6.89-3.92-1.69-.93,4.46-4.86,2.76,1.29-3.62,4.64-6.21-2.42-5.51-.37-3.65,2.53-3.56,4.85-4.13,1.5-4.48-3.92-1.06-2.43-5.54,6.75-1.06,3.94-13,8.49-16.57-3.2-.43-3.12,2.89-3.63,5.52-2.69.77-1.72-2.63-3.63-2.76-5.1,7.07-6.36,18.52-15.76,20.72,3.43-2.07,1.98-9.71,4.85-12.44-4.18-.15-3.09,5.68-7.27,5.52-.14-4.76,4.98-3.52,4.85-8.29,12.62-2.18,18.01-12.61,27.87-17.94,1.5-4.48-3.92-1.06-2.41-5.52,2.7.6,4.32,2.44,4.84,5.52ZM63.54,55.85c.53-3.07,2.15-4.93,4.86-5.52-1.6,6.43,4.02,4.63,2.41,11.05-4.56.6-.42-8.73-7.27-5.52ZM76.87,50.33c3.92,1.71.93-4.46,4.85-2.76-2.77,3.29-2.73,9.78-2.42,16.57-5.03.19-1.27-9.62-2.43-13.82ZM104.75,26.85c4.78-.84,1.42,7.58,2.43,11.05-1.42-.22-2.16.3-2.43,1.39-2.24,3.1,1.26-7.78,0-12.44ZM103.53,35.14c-3.18-.98-5.45-3-4.84-8.29,3.57.52,2.78,6.02,4.84,8.29ZM84.15,40.67c-2.06-.52-2.29,1.06-2.43,2.76-4.78.84-1.42-7.57-2.42-11.06,3.57.55,2.78,6.05,4.85,8.3ZM124.14,43.42c-.56.24-.95.29-1.27.27-2.24.52-3.26,1.28-6,3.88-1.75-5.22,3.33-2.65,2.43-6.9,3.36-1.45,1.67,2.83,3.57,3.02.38-.09.79-.18,1.27-.27ZM50.21,35.14c-.01,4.62,3.07,5.71,4.85,8.28,1.37,4.08-5.52-2.93-6.06-5.52-1.97,2.37-1.13,7.93-6.07,6.9,6.44-4.43-4.47-4.71-2.43-12.44,4.83,1.66,4.88,8.13,9.7,2.78ZM93.84,44.8c-2.38,2.82-4.8,5.59-7.28,8.29-.38-5.96,2.04-8.73,7.28-8.29ZM42.93,69.65h-4.86c.53-3.07,2.15-4.91,4.86-5.51v5.51ZM148.63,17.34c-.41.24-.89.51-1.46.77v-1c.49.12.98.16,1.46.23ZM135.05,15.21c3.55,2.38,7.63-7.78,7.27-.94-3.24-2.76-4.86,4.63-7.27.94ZM139.9,15.34c1.83,9.3-2.75,13,0,14.28-.52,6.9-2.13-1.09-4.84,0,5.84-3.94-1.32-10.72,4.84-14.28ZM130.21,24.08c4.38-1.3,1.69,5.45,2.42,8.28-4.38,1.32-1.69-5.43-2.42-8.28ZM121.72,18.57c6.32-.74,7.95,3.84,7.28,11.05-4.91-1.91-3.83,3-7.28,2.74.09-4.02,3.7-4.05,4.85-6.89-1.9-5.05-1.81,3.21-4.85,1.38,2.29-4.77,2.29-3.52,0-8.28ZM95.38,16.27h.76c.33-2.15.27-4.52,2.56-5.51v5.05c-.22-3.84,4.06-.13,5.57-.93-.56.87-.56,2.18.48,3.69.68,1.21-6.56,1.05-6.14-2.3h-2.47c-.11.73-.29,1.41-.59,2.02-.04,2.04-.6,3.98-1.7,1.65.87-.37,1.36-.95,1.7-1.65.01-.73-.05-1.46-.17-2.02h-1.53c.78-1.63,1.28-1.13,1.53,0ZM81.72,15.81c2.06-.51,2.29,1.08,2.43,2.77,3.92,1.7.93-4.47,4.85-2.77-.21,4.85-1,10.35,4.85,8.28v13.82c-5.75-2.2-3.14-13.91-8.49-16.57-4.2,2.71,1.48,5.52,1.21,8.29-3.92,1.69-.93-4.48-4.85-2.77v-11.05ZM67.32,16.6c-4.5,2.85.19,18.86-7.51,17.16,1.32-7.41,1.71-16.16,7.51-17.16ZM19.9,53.09c4.45-5.01-1.65-6.1,0-15.19h4.85c-.81-6.73,2.14-9.16,0-13.82,2.49,1.32,2.51,5.45,6.07,5.54-3.88,5.27.12,3.74,0,11.05-2.69.76-1.73-2.65-3.65-2.77-1.91,2.88-2.51,7.27-2.42,12.43-3.92-1.69-.93,4.48-4.85,2.77ZM25.97,53.09c4.02-6.01,8.03-12.02,12.11-17.95-1.79,8.02,3.76,7.69,2.43,15.18h-7.27c-1.5-4.46,3.92-1.05,2.43-5.52-2.82.94-5.09,2.5-4.85,6.91,3.47,1.1,4.76,4.68,9.69,4.13v5.52c-4.18-3.91-5.51-2.39-4.84,5.52-8.51,1.41-.27-16.25-9.7-13.8ZM33.23,69.65c3.44-.23,2.36,4.67,7.27,2.78-3.82,1.61-3.53,7.93-7.27,9.65.11-7,4.2-7.19,0-12.43ZM22.74,90.37c7.06,2.52,14.89-6.04,15.34-11.05,5.03-.18,1.27,9.61,2.43,13.8,3.93,1.72.93-4.46,4.85-2.76-1.5,4.48,3.93,1.06,2.43,5.52-2.68.76-1.73-2.63-3.63-2.77-1.25,1.35-2.46,2.74-3.65,4.15,2.33,1.95,6.14,2.22,7.28,5.54-2.07,2.23-1.28,7.74-4.85,8.28-1.99-8.32-15.34-15.67-20.19-20.72ZM147.17,119.37c.61,5.29-1.67,7.3-4.85,8.28,1.68-5.59-2.63-4.35-2.43-8.28,2.07-.5,2.29,1.07,2.43,2.76,3.93,1.72.93-4.46,4.85-2.76ZM68.39,127.65v-11.04h2.41c-1,3.46,2.36,11.89-2.41,11.04ZM12.88,554.28s-.07-.04-.09-.06c0-.01.01-.04.01-.06l.08.12ZM27.18,523h-3.89c.19-.74.41-1.44.58-2.19.92-.5,1.79-1.05,2.55-1.83.48.88.55,2.59.76,4.02ZM8.15,507.66l.04,1.63c-.31.23-.63.46-.95.68.31-.77.59-1.56.91-2.32ZM26.07,514.51c-.14-.12-.31-.2-.46-.31,1.4-.84,2.14-2.89,1.47-7.43-1.3.67-3.14.41-5.01.09-.09-.2-.15-.43-.23-.6,0-.5-.05-.99-.15-1.46.16-1.07.3-2.05.43-2.98.14-.01.26,0,.41-.01,1.03.44,2.21,1.17,3.92,2.27-.24-1.27-.31-2.22-.4-3.17.44-.15.82-.15,1.29-.33-.14-.51-.3-.87-.45-1.3.04-.02.08-.07.13-.09,1.96,4.89,2.1,9.91-.97,15.32ZM154.51,505.74v9.54c-6.29,2.4-3.7-5.33-4.17-9.54-6.79-2.96-1.61,7.72-8.39,4.79.9-5.34,3.7-8.52,8.39-9.57-.79,4.06,1.62,4.5,4.17,4.78ZM206.87,486.65c-4.86-1.6-8.8-4.3-8.37-11.94,5.44.96,6.06,7.44,8.37,11.94ZM115.3,455.79c4.62-14.4,4.7-10.73-.43-24.62,11.06,5.8-.95-22.77,10.1-16.96.27,16.42.56,32.84.83,49.26-8.32,5.52-2.21-13.18-10.51-7.68ZM53.97,446.08c1.59-3.06,3.05-6.29,5.02-8.93.14.4.31.77.46,1.21-2.23,2.88-3.03,4.77-3.15,6.49-.77.56-1.54,1-2.32,1.23ZM93.8,417.99v-14.34h10.39c1.21,7.77.38,12.6-2.42,14.57-2.7-.16-6.02-1.66-7.97-.23ZM140.27,460.38c2.49-.13,5-.26,7.5-.38-6.63-6.55-8.26-18.24-16.77-4.27,8.25-14.38,10.69-37.39,19.91-50.32.92,20.05-7.55,26.08-9.69,41.58,5.84,1.49,9.38,6.77,10.67,15.88-.44-.18-.84-.43-1.24-.66.31,5.74,3.05,7.36,2.87,13.93-8.29,1.26-11.33-6.3-13.25-15.75ZM225.72,460.41c1.99,8.61-8.24,3.33-12.57,4.76,2.59-7.71-6.78-1.8-4.19-9.52,5.14,2.09,7.7,7.15,16.76,4.77ZM194.31,446.08c3.4,4.06,11.76,2.52,12.56,9.56-8,1.17-11.08-3.3-12.56-9.56ZM150.34,481.87c-4.19-5.57-15.81-2.68-16.77-11.93,9.06.02,13.59,5.18,16.77,11.93ZM264.18,472.22h-10.39c5.26-14.72,13.99-24.48,23.36-33.35-1.8,14.74-15.55,12.4-12.97,33.35ZM378.6,424.71s.04-.06.04-.09c.26.04.19.06-.04.09ZM276.54,422.88c-.11-.04-.08-.06.05-.07,0,.04-.06.05-.05.07ZM185.18,404.59c3.62,5.66,12.2,2.98,13.21,13-8.24,2.13-11.51-4.1-13.21-13ZM214.1,416.78c-4.34.22-8.66.44-12.98.66-.09-4.55-.16-9.11-.24-13.67,8.25-2.12,11.52,4.11,13.21,13.01ZM73.6,393.05c.86-.84,1.93-1.37,3.39-1.3.65,11.62-8.64,8.45-4.78,24.89-.97-.23-1.78-.76-2.63-1.21-.88-2.4-1.76-4.82-2.63-7.24l-1.89,3.12c-1.69-2.63-2.88-6.12-3.5-10.54,7.01,3.4,8.27-1.79,10.46-5.6h-5.7v-7.95c5.33-1.39,7.75.57,7.27,5.83ZM56.15,379.91c-4.14-3.61-10.02-4.29-11.04-13.13,2.15-.11,4.32-.22,6.48-.33-2.48,11.21,7.03,2.24,4.56,13.46ZM207.71,353.42c-1.73,11.23,7.52,9.97,8.72,17.89-6.3-4.76-12.17-9.99-15.71-17.89h6.99ZM133.16,366.59c-4.06.99-4.83-3.62-8.7-2.99-.22-10.18-.16-20.85-6.83-20.19-.51-8.56,4.7-8.55,6.25-14.02-4.54,15.69,5.26,25.53,9.28,37.2ZM53.01,343.03c.84-8.07,6.95-8.62,4.34-21.62,4.09.62,21.37-2.08,15.15,3.08h-10.83c1.07,11.82-2.98,16.34-8.66,18.53ZM60.11,300.71c6.4,2.45,12.43,20.58,18.73,7.82.2-.54.44-1.08.74-1.64-.25.6-.5,1.13-.74,1.64-2.67,7.14,2.69,12.86-1.41,16.89v-6.17c-10.72.89-13.56-9.47-17.31-18.53ZM36.65,303.7h-6.97v-7.95c5.99-1.54,8.34,1.11,6.97,7.95ZM331.56,327.17c-.42-9.88,3.63-13.36,8.66-15.45-2.41,5.84-3.04,14.19-8.66,15.45ZM120.43,307.68c1.99-5.71,5.48-9.67,10.47-11.94v7.95c-7.06-2.74-5.52,4.32-10.47,3.99ZM206.74,287.58c-8.87-2.93-11.73,2.76-16.5,5.68-1.75,7.07-9.35,5.79-12.61,10.69,1.43-7.55,4.33-13,11.39-12.5-.55-6.4,7.18-.99,4.75-10.05,4.46,1.87,15.02-5,12.97,6.17ZM50.29,279.21c.97-2.06,1.67-3.74,2.24-5.27-.02-1.28-.04-2.56-.06-3.84.36-.01.72-.04,1.08-.05.49-3.6-.57-6.73-3.25-12.46,6.13-.52,4.22,10.45,12.97,6.18-.41,2.41-1.2,4.3-2.21,5.89h.06c1.88,11.68-.93,16.4-8.42,14.12-.04-2.15-.07-4.29-.11-6.44-.79.58-1.57,1.19-2.29,1.87ZM143.93,263.24c-3.25,8.72-7.95,15.41-17.3,15.44.99-11.95,12.99-8.21,17.3-15.44ZM142.64,259.13c6.11-.9,4.41,11.35,13.08,6.17.08,4.56.16,9.13.23,13.69-6.25-3.59-10.69-10.21-13.31-19.86ZM181.53,273.58c-.43-9.9,3.63-13.36,8.66-15.45-2.41,5.83-3.03,14.19-8.66,15.45ZM99.48,257.97c-1.32-3.13-5.53-2.98-5.23-7.95,5.4.2,5.2-6.01,5.23-11.94,3.13.26,3.68-2.44,6.98-1.98-3.08,6.89-10.86,12.89-6.98,21.86ZM108.06,239.56c-.38-7.73,4.83-7.49,6.48-12.35-2.98,12.5,4.7,9.75,4.34,18.53-6.66,2.32-2.64-10.66-10.81-6.18ZM174.57,232.72c-.46.44-.51.44-.01-.11,0,.05.01.06.01.11ZM146.99,227.28v12.36c-2.63.35-5.11.91-4.32,6.17-4.83-1.35-7.71-5.46-8.65-12.36,7-3.82,1.65,10.01,8.65,6.19.48-5.47-2.18-15.47,4.32-12.36ZM128.32,225.51c-6.51-2.15-8.34,2.39-12.02,4.28v-8.57c3.77,1.77,12.94-4.17,12.02,4.29ZM74.13,222.69c.29-.34.58-.71.9-1.15-.66,4.79-2.66,7.66-6.02,8.58.06-2.17-.48-3.5-1.22-4.54.08.9,0,2.08-.37,3.74-2.88.15-5.77.29-8.64.44.38-6.1-2.48-17.02,4.07-13.91-1.15,5.19.29,6.05,1.91,6.6-1.02-1.11-1.81-2.55-1.75-5.2,2.49,1.06,3.95,3.43,5.25,5.22-.04-2.28-.08-4.56-.11-6.84,2-.11,4.02-.21,6.01-.32.52,3.24.5,5.67-.01,7.37ZM186.76,196.34c-1.24,5.21-3.79,8.93-10.48,7.94v-7.94h10.48ZM171.06,196.34c-.68,5.84-7.65,4.56-10.47,7.94,1.23-5.22,3.79-8.93,10.47-7.94ZM229.87,193.88c-2.9.16-5.76.31-8.66.45.3-.98.26-1.56,0-1.87,4.75-2.8,8.09-3.04,8.66,1.41ZM75.66,182.88c-4.4-4.21-5.73-11.88-9.7-16.56,4.82,5.35,4.88-1.13,9.7-2.78-.53,3.1-2.14,4.93-4.86,5.52,1.13,5.17,5.13,7.06,4.86,13.82ZM85.24,177.5c.8-8.86,1.53-17.84,7.52-19.29-2.5,5.1-5.78,20.24-7.52,19.29ZM76.87,156.65c.16,2.47-1.48,2.91-1.21,5.52h-4.86c.83-3.22,2.19-5.8,6.07-5.52ZM53.84,134.56c4.82,1.65,4.87,8.12,9.7,2.77-.53,3.08-2.14,4.93-4.85,5.51.14-4.76-4.98-3.51-4.85-8.28ZM63.54,148.37c4.91,1.9,3.83-3,7.27-2.77,1.51,4.48-3.92,1.05-2.41,5.52-2.15-.32-6.07,1.39-4.86-2.76ZM53.84,162.18v-11.05h2.42c-1,3.46,2.36,11.88-2.42,11.05ZM56.26,174.6c2.29-4.77,2.29-3.52,0-8.28,3.92,1.71.93-4.48,4.86-2.78v16.58c-5.11,2.13.26-7.67-4.86-5.52ZM15.46,188.41c.53-3.08,2.14-4.91,4.86-5.52-1.69,5.59,2.62,4.38,2.42,8.29-3.44.23-2.37-4.67-7.28-2.77ZM61.31,201.29c-.41,1.48-.74,2.89-.61,4.02-4.69,3.07-4.69-15.95,0-12.86,2.51,1.29,1.89,4.27,1.05,7.26,3.51,3.1,5.03,9.05,5.42,16.61-3.6-2.66-5.28-8.06-5.86-15.02ZM28.75,209.14c2.31-.24,3.35,1.66,4.26,3.77-.63,1.28-1.06,2.61-4.26-3.77ZM29.67,228.12c2.15,6.46-5.65,1.54-3.5,7.99h-4.76c.07-.66.14-1.38.19-2.15,1.57-3.22,5.3-3.98,8.07-5.84ZM6.98,236.11c-.06.34-.07.62-.11.93-.74-.54-1.35-1.05.11-.93ZM9.3,393.71c1.25.99,2.51,1.95,3.76,2.94-.27-2.94.21-5.02,1.43-6.26-.84-6.15-1.52-12.3,2.81-15.5.48.93.93,1.87,1.35,2.84,5.89.71,1.95-9.78,3.14-14.43v-4.79c0-1.67.06-3.24.11-4.84.14.1.26.22.39.32,1.4-1.22,2.83-2.39,4.46-3.35-.17,2.15-.44,4.18-1.99,4.77,2.21.96,4.85,1.19,8.55-.35.73-6.8,3.1-11.15,6.95-13.28-.12-.83-.31-1.56-.46-2.33-.03.51.05,1.15.35,2.04-5.25,2-3.1-4.43-3.5-7.97h1.56c-1.98-5.55-4.86-9.58-7.92-13.33.1.02.21.02.32.06-.1-1.33-.97-1.78-1.96-2.09-.83-.98-1.66-1.94-2.48-2.91-.23.15-.41.22-.62.33-.01-.61.11-1.35.44-2.35.94.22,1.64.19,2.2-.02-.88-.38-1.7-.85-2.48-1.41-1.08.93-2.14,1.88-3.26,2.77-1.06-2.9-.35-8.78-4.98-5.72-.06-3.43-.11-6.84-.17-10.25,4.51-8.86,9.57-16.88,16.95-21.44-.07-14.89.51-28.84,2.32-40.93.53-.35,1.02-2.49,1.47-5.35-.25.26-.46.59-.74.8.45-2.44.97-4.76,1.54-7,.22-1.96.43-3.94.61-5.78-.56-.99-1.07-1.85-1.54-2.6-.15-4.23-1.1-9.62,2.84-7.77.18,3.05.31,6.04.31,8.82.26-.74.49-1.51.78-2.22-.05,11.8,9.04,8.28,8.99,20.1-6.92,4.57-1.84-11-8.76-6.4,1.97,24.05-.45,41.57-3.34,58.38-9.58-2.06-14.14,3.36-17.12,11.16,2.05,3.24,4.88,5.18,4.98,11.71,6.6,6.22,13.71,14.86,15.78,23.46h1.25c.78,2.35.24,3.18-.67,3.61.09,1.26.08,2.51-.11,3.74,1.07-.06,2.14-.11,3.2-.17-1.12,12.82-15.29,6.11-12.56,24.63-2.96.49-4.12-2.06-6.31-2.87.04.62-.06,1.43-.43,2.51-1.99,2.55-3.52,5.6-4.75,9-.21,2.29-.36,4.67-.45,7.16,2.48,2.43,3.1,6.99,3.08,12.27-.21-.52-.45-1.05-.65-1.57-.68.61-1.4,1.44-2.2,2.51.63,2.11.43,3.28-.19,3.99.19.87.39,1.72.54,2.77-2.69,1.83-3.51.3-3.95-1.84-1.61-.07-3.4-.35-4.77-.15-.09-.45-.12-.83-.17-1.26-2.14,1.76-3.87,3.8-4.53,6.66l.59-10.79ZM27.86,406.48c.74,1.17,1.07,2.41,1.04,3.73-.27.23-.6.39-1.04.43v-4.16ZM30.37,414.11c.81-1.62,1.47-2.55,2.79.95-1.35.74-2.29,2.18-2.9,3.98.04-1.62.09-3.26.11-4.93ZM49.9,419.54c-1.07-3.49-3.78-5.13-4.3-9.24,1.54.48,2.95,1.13,4.18,1.98-.05-2.44-.09-4.89-.14-7.34,2.16-.1,4.33-.22,6.5-.33,1.25,7.21-3.55,5.37-4.06,9.89.53.73.95,1.58,1.29,2.54,1.49,1.96,2.98,3.93,3.45,7.6h.15l-.11.18c.22,1.88.2,4.17-.26,7.17-1.62.07-3.23.17-4.83.24.11,4.1-2.07,4.73-4.39,5.19-1.18,7.12,3.89,23.58-3.99,20.74-.1-6.83-.22-13.69-.34-20.52,6.46,3.55,2.36-8.68,7.01-7.84-.06-3.43-.11-6.84-.17-10.25ZM20.86,488.05c.14-2.82,0-5.79-.56-8.97.21-3.33,2.45-2.4,4.03-2.84v-17.12h-6.74c0,.12.02.21.02.32-1.19-.13-2.39-.3-3.16.28-.68-1.05-1.85-1.02-3.13-.79l9.9-12.1c-.05-.72-.15-1.5-.37-2.41.58-.24,1.04-.34,1.44-.39-.48-.28-.97-.59-1.42-.79,1-2.51,1.85-5.58,2.55-9.18.51-.11,1.02-.21,1.5-.37-.36-.51-.8-.73-1.3-.84.15-.84.31-1.68.45-2.58-.7.05-1.4.19-2.07.43,1.17-1.96,2.11-4.85,2.79-8.86,1.1,1.24,2.05,1.81,3.04,1.96.52,1.06.99,2.22,1.47,3.36.22,5.69,1.84,11.62,3.84,13.74h-8.73v1.95c.85,1.76,1.73,3.51,2.62,5.28,0,.48-.01.98-.01,1.46.48-.71,1.18-1.13,2.63-.72v13.9c5.65,2.48,1.32-6.43,6.97-3.96v15.89c-5.25,2.02-3.09-4.43-3.48-7.94h-6.47c0,.23,0,.43,0,.65,4.34,5.68,3.41,15.69-5.75,15.27-.29,5.65,5.9,3.87,3.5,11.93-.36.15-.66.23-.94.3.32-1.18.73-2.29,1.17-3.3-.68,1.05-1.34,2.09-1.8,3.11v-.82c-.23.3-.51.63-.79,1.02-1.84-.65-.88-4.49-1.22-6.85ZM45.32,495.14c-6.87,3.38-7.48-33.46-.51-30.79.06,3.63.12,7.28.18,10.91.53-.65,1.02-1.37,1.43-2.24,3.38,1.96,6.54,4.19,7.56,8.85-5.92-2.29-6.81,1.13-8.82,3.28.05,3.33.11,6.66.16,9.99ZM92.39,492.9c1.67-10.86,5.33-18.75,15.29-17.23-1.66,10.86-5.3,18.77-15.29,17.23ZM111.69,460.45c10.18-3.04,3.43,22.38,5.75,32.57-1.73.11-3.47.18-5.19.28-.19-10.96-.38-21.9-.56-32.85ZM128.06,496.42c-2.83-12.22,5.65-7.57,10.23-8.73-2.99,13.44,8.45,2.69,5.47,16.16-7.36,1.06-5.31-13.62-15.7-7.43ZM110.53,505.74c7.93,3.45,4.02-6.57,10.48-4.78.35,6.78-7.09,4.67-4.2,14.32-1.59-3.74-6.63-3.57-6.28-9.54ZM62.35,528.74c-1.09-.24-2.19-.5-3.2-.54.19-1.32.27-2.83.29-4.44.96,1.67,2.19,3.05,2.91,4.98ZM121.35,508.15c5.81,1.48,9.37,6.79,10.66,15.88-10.6-15.41-10.37,3.87-20.62,9.29-.53-14.12,10.5-11.02,9.96-25.17ZM69.79,577.37c.66.01,1.37.1,2.04.13.02.85.02,1.7.04,2.54-.69-.89-1.4-1.78-2.08-2.67ZM77.08,595.89c.17.09.33.16.51.24-.2.07-.36.21-.56.28,0-.21.05-.34.06-.52ZM23.45,648.95h.72c.08.34.14.74.21,1.07-.29-.41-.6-.78-.93-1.07ZM22.39,656.31c.02.08.09.12.1.21-.04.02-.06.05-.1.07,0-.1,0-.2,0-.28ZM22.61,660.58c.64,1.93.64,3.61.35,5.15-.18-1.59-.32-3.24-.35-5.15ZM22.04,668.53c-.34-.26-.68-.52-1.03-.79.16-.49.31-.96.46-1.55.28.7.54,1.39.78,2.1-.11.33-.22.66-.34.98.05-.24.09-.49.13-.73ZM22.43,668.9c.7,2.41.78,4.84-1.06,7.07-.27-2.4.3-4.84,1.06-7.07ZM19.48,674.09c.4.3.8.6,1.22.88.07.45.21.91.39,1.38-.02.01-.03.04-.06.06-1.35.18-1.58-.93-1.56-2.32ZM12.4,720.61c-.09-.11-.17-.22-.26-.33l-.26,2c-.08-1.61-.34-3.06-.71-4.3.71-.15,1.3-.46,1.77-.94l-.55,3.57ZM46.21,976.1c-.48.09-1.05.07-1.62.04-.04-.07-.09-.15-.12-.22.64-1.63,1.36-2.12,1.74.18ZM355.49,937.62c1-4.54,6.25-4.68,7.38,4.29-2.91.38-6.17,2.24-7.38-4.29ZM319.02,917.71c-.06,5.66-7.01,5.6-10.79,8.13.99,1.57.51,5.23,2.43,5.49.66-.52,1.33-1.11,2.02-1.74.25-2.61.84-4.71,3.47-3.9-.02.04-.03.09-.06.11.46-.57.93-1.16,1.41-1.85,4.27,11.34,9.19,1.05,12.77,6.9-3.96,6.44-12.94,10.86-19.49,9.38-.51.45-1.1.77-1.82.93.14-.6.16-1,.24-1.5-1.72-.73-3.25-1.84-4.31-3.66,1.27-1.16,2.45-2.07,3.59-2.95-1.3-2.09-3.31-3.16-3.13-7.35.63-.34,1.1-.44,1.52-.48-2.34-10.52,7.9-5.11,12.16-7.5ZM375.67,917.6c5.2,5.6-.76,6.76-3.69,10.1-3.89-10.55,4.42-6.11,3.69-10.1ZM338.82,929.61c4.49,7.88,13.24-1.55,16.77,10.22-6.33-.39-13.85,4.11-16.77-10.22ZM372.17,928.51c2.04,6.1.11,8.86-3.68,10.1-2.04-6.1-.11-8.88,3.68-10.1ZM401.27,934.28c-2.13,5.34-5.97,5.02-9.68,5.08.17-5.51,1.3-10.21,2.46-14.88-5.19-1.77-9.13-8.64-14-11.68,3.75-8.55,12.16,5.93,17.53,7.11-2.85,10.23-2.09,12.67,3.7,14.36ZM352.65,912.68c.26-2.9,2.54-4.15.92-8.65,3,.88,5.52,3.68,8.76,3.57.32,3.4-1.46,5.05-.93,8.63-3-.87-4.26-8.8-8.76-3.56ZM206.19,857.3c.31-4.12-1.29-9.85,3.68-10.1,1.29,4.22-.4,5.94,1.08,10.32-2.05,1.84-2.96-1.01-4.76-.22ZM210.59,841.98c6.44-.16,6.41-2.3,9.86-7.34-.45-.84-.85-1.88-1.13-3.4,6.89,4,4.95-11.75,12.45-6.52-2.76,7.73-6.19,3.17-.31,11.02-2.51-.95-5.85,1.5-8.49,1.02.33.72.64,1.5.93,2.37,5.16-3.33,8.59.32,14.16-4.69,2.88,6.79-.58,8.29,2.31,15.1-5.72-12.49-10.54-2.01-16.16-9.43.23.79.46,1.62.67,2.51-3.69.3-7.2-.12-11.68,3.43.93,4.39,2.99,4.16,3.84,8.85-3.6,1.57-4.8-6.58-6.46-12.91ZM192.67,828.92c.16,2.98-1.06,7.44-.45,9.73-2.28-.61-3.9-3.78-5.23-8.12,2.01-.83,4.02-1.68,3.52-4.57,1.53.07,2.04,1.26,2.15,2.89,1.12-7.13,7.43,5.43,9.97,8.4-3.66,4.98-3.08,1.85-8.3,4.35-1.55-3.8-.08-5.1,1.54-6.24-.75-3.44-1.51-6.84-3.2-6.44ZM179.42,820.39c-.21,3.15-.55,6.08-3.61,5.15-.31-7.3,6.1-5.02,3.61-15.44,4.73,1.83,8.1,5.58,7.21,15.44-5.83,3.18-1.37-8.32-7.21-5.15ZM167.19,820.69c-1.52,16.63-10.62-4.87-13.99-11.67,9.17-7.22,9.87,6.6,13.99,11.67ZM150.65,826.07c.03,5.78-9.21,8.54-9.53-.44,3.44-.9,6.46-.11,9.53.44ZM309.44,816.85c-3.72-5.89.63-14.14-3.7-14.36,2.15-6.78,6.97,2.24,11.07-5.8,1.47,10.29,6.57,5.9,7.69,17.68-3.32,3.74-4.01-3.28-6.77-1.87.75,5.72,1.27,7.68,2.08,10.1,7.67-2.26,12.37,7.49,19.14,8.85,1.37,9.16-8.66-2.8-4.31,7.68-4.26-6.17-9.91-6.65-13.92-13.82.51,1.52,1.13,3.46,1.93,6.33-8.64,1.62-3.82-21.05-13.21-14.79ZM252.06,785.77c-5.67-5-9.36,12.19-12.15-4.5,5.93,4.78,8.76-6.99,12.15,4.5ZM185.01,779.97c-.71-3.21,1.4-4.05,3.65-4.77.92-2.27,1.8-4.58,2.66-6.93-1.13-2.38-2.09-5.27-2.62-8.06-5.56,1.78-7.3-11.93-14.58-3.16,1.9,3.71,2.21,8.63,6.83,9.25,5.13,5.41-9.95-4.95-8.15-1.16-3.4,1.08-3.51-10.1-3.08-11.97,2.21.62,3.46,2.07,4.36,3.8-.75-3.44-1.5-6.8-3.2-6.37.45-1.35,1.33-1.94,2.48-2.09-1.46-.65-3.6-3.29-4.43-4.38.21.3.55.77,1.02,1.45-.28,4.01-8.2-2.24-9.23-11.45,3.3-3.6,3.94,3.55,6,5,2.67.52-.66-12.46-2.46-9.57-1.58-5.07,4.61-3.66,6.29-6.01-.51,8.79-2.22,15.94,4.15,22.25.2,1.61.04,2.42-.36,2.73,3.58.16,8.84,3.09,12.2,1.99.6,2.3,1.2,4.63,1.79,6.95-.12-1.58-.06-3.05.29-4.24,5.77.54,5.03-2.82,10.3-2.68.19,3.93-.48,7.1-.29,11.01,5.75-4.41,4.34-3.11,9.06-7.46.46,7.93,4.19,2.62,6.77,1.89-1.52,5.58,3.79,6.41-.3,11.04-6.24,1.59-10.91-3.34-16.62-3.91-.43,1.94-1.08,3.55-1.84,5.01.48,1.41,1.22,2.48,2.01,2.07-.77,4-2.53,3.78-4.33,1.54-.75.93-1.55,1.77-2.38,2.6.66-.29,1.27-.62,1.67-1.13.61,7.36,3.54,5.16,4.46,11.23-6.11,6.89-7.53-5.37-12.14-4.48ZM157.97,761.57c-2.29,11.67,4.07,8.83,3.89,16.93-4.47,1.41-12.32-15.3-3.89-16.93ZM133.11,755.01c-.78-5.65.24-9.82,3.06-12.47,2.71,2.05,3.62,11.41,7.23,9.8-1.01,10.01-6.36-3.08-10.3,2.67ZM138.09,744.31c3.22-10,3.25-7.45-.29-17.11,2.4-.12,4.8-.24,7.2-.37.06,3.8.14,7.6.19,11.4-5.88-3.23-1.21,9.29-7.1,6.07ZM163.58,745.68c2.46.06-10.66,8.73-13.06,4.13,2.26-3.78,7.33-3.32,9.83-10.6-.66,4.27,0,6.63,3.23,6.46ZM201.28,718.43c-.09-5.71-.19-11.41-.28-17.12,10.29,6.1,3.79-12.84,10.62-11.95.09,5.72.19,11.4.28,17.11-7.45-4.41-6.12,4.32-7.4,9.11,1.64-1.54,3.71-2.02,5.66-.5-.04.19-.13.34-.19.52,3.87.17,6.66-.15,6.83-6.78,2.58-1.79,4.4-.51,5.55,3.49,2.36-.69,4.33.18,5.85,2.87,1.16-.93,2.73-2.43,6.01-3.45.14.34.32.6.46.93.59-.44,1.25-.82,2.11-1.02.62,2.12.63,3.74.31,5.09,2.57,3.43,5.6,6.06,7.72,10.25-.23-.95-.45-1.91-.64-2.93-.53-1.06-1.4-2.48-2.8-4.74.62-.6,1.17-.91,1.68-1.06-.56-2.55-1.25-4.85-2.44-6.34,2.26,1.77,4.28,3.94,5.88,6.82.33.07.67.12,1.03.09.32,1.26.47,2.35.54,3.39,1.14,3.2,1.87,7.08,1.96,12.05-.19-.02-.29-.16-.46-.21-.83.43-1.66.87-2.5,1.3.14,1.32.27,2.65.25,4.24-6.56-2.83-9.08-12.47-13.89-18.23-.56.38-1.12.73-1.69,1.09.04-.94.09-1.85.16-2.77-.75-.66-1.58-1.2-2.46-1.63.35,1.05.67,2.18.95,3.51-.46-.27-.94-.51-1.41-.73.08,4.89.16,9.79.24,14.67,4.35.11,8.65.45,13,.59-.97,4.13.47,9.88,3.85,8.85-6.03,5.74-9.51-9.44-14.3-.66-.58-2.72-1.6-3.67-2.48-5.12,0,.46.01.91.02,1.37-.36-.32-.65-.78-.97-1.17.39,3.55,1.38,6.5,3.43,11.83-1.35.62-1.83-2.39-2.61-4.07-1,1.04-.76,3.12-2.15,3.84-3.17-.67,1.12-2.22.15-5.51-4.91-8.93-2.73,5.74-8.91,1.95.48-2.16,1.35-4,1.37-6.55-3.06,1.1-4.47-4.54-5.78-10.54.93-.49,1.86-.98,2.77-1.45.64,2.3,2.18.96,3.39.94.13,1.45-.32,2.41-.78,3.35,2.33-1.12,3.99.41,6.17-.05-1.72-5.94-2.35-13.72-3.68-20.31-4.08-2.26-8.47,12.84-12.1,3.97-1.35,3.8-4.07,6.46-7.87,8.21-.39-2.4.03-4.76.9-6.67-.38.15-.8.22-1.32.16ZM149.95,645.78c.44,2.19,1.57,3.22,3.65,2.66-1.36,7.22,3.93,24.36-3.21,22.99,1.71-9.67-3.87-31.89-.44-25.64ZM142.69,671c-1.08-10.86,2.21-15.21,6.91-17.47-3,4.8-1.63,16.11-6.91,17.47ZM167.56,645.8c1.2-8.84-6.27-3.15-3.84-14.06,4.17,5.15,5.69,6.61,9.06,7.55-.03,0-.04.02-.06.04.26.07.52.15.85.33-.37-.07-.67-.16-1-.24-2.43.99-.11,9.06-5,6.39ZM180.44,661.35c-.03-3.55.65-6.05,3.74-4.93-.98,5.93,3.25,19.64-3.31,17.29.25-1.5.17-3.5.01-5.6,0,10.8-2.84,17.41-10.71,16.53,3.23-10.01,3.28-7.45-.28-17.11,4.44-4,4.6,13.05,7.26,2.48-1.81-5.77-7.19-5.52-7.45-13.89,5.06-.73,3.73,9.24,10.74,5.22ZM159.75,671.05c-6.77,11.24,1,15.29,7.55,19.6-5.11-.23-3.35,9.82-10.71,6.24,1.03-14.43-9.89-8.8-7.65-25.28,3.62-.19,7.21-.38,10.81-.56ZM178.83,703.66c1.36-3.88,1.61-8.68,5.08-10.8,1.27,4.19-.4,5.93,1.07,10.3-1.7-1.22-3.77-.94-6.15.5ZM168.35,694.2c2.56,1.02,5.31,1.29,6.61,7.4-1.16,4.13-7.74,2.68-10.14-2.82,2.01-.83,4.02-1.67,3.52-4.58ZM91.46,700.57c-.93.76-2.39,6.66-2.81,11.1-1.99-8.44-.18-7.32-3.61-13.9,2.33.19,4.51.93,6.42,2.8ZM92.18,706.55c.11-2.88.04-4.52-.15-5.35,1.4,1.62,2.66,3.94,3.63,7.3-1.49,5.88-2.87-.11-6.91,3.62-.04-.15-.06-.23-.09-.38,2.16-2.02,5.79-5.48,3.52-5.19ZM176.26,712.06c-.32,5.67-7.85-.41-9.38-5.94,4.71-4.54,5.37,7.56,9.38,5.94ZM152.98,706.61c4.99-3.94,6.52,6.21,10,8.35,3.71,3.89-9.21,1.01-10-8.35ZM375.43,711.94c-.53,6.01,2.51,6.71,2.32,15.08-1.37.72-2.76,1.44-4.15,2.18-1.72-16.81-16.09-8.88-23.37-17.62.46-7.77,7.4-1.2,8.76,3.54,4.45-8.66,9.16,3.08,16.44-3.18ZM395.77,745.85c-1.11-10.01,6.24-4.89,8.15,1.16-2.44-1.49-5.7.33-8.15-1.16ZM325.36,745.65c-.21,2.65-2.91,5.65-.14,5.51.32,2.78-2.34,3.06-1.54,6.24-1.8-.82-2.84-4.76-5.37-2.62-2.63-4.96,2.17-12.85-1.71-12.68,1.1-10.34,6.75,1.48,8.76,3.55ZM356.33,753.46c5.48-3.84,17.36,4.62,24.61-2.05,1.43,8.86,4.34,11.71,7.84,12.19-11.63-2.07-19.66,4.96-32.44-10.15ZM225.72,752.87c2.4-1.61,3.67,1.4,6.14-.51,2.01,6.05,2.15,10.56-1.69,11.75,1.94-7.43-3.2-3.38-4.46-11.24ZM224.52,756.51c-.35-1.17-.66-2.41-.89-3.82.65,1.57.89,2.8.89,3.82ZM271.92,747.37c-1.63-3.05,3.89-8.67-.46-7.91,4.36-11.72,3.02,12.66,10,8.35.5,2.91-2,3.34-3.55,4.56-.77-6.65-2.77-8.32-5.99-5ZM253,745.95c-3.25-6.47,1.99-5.87,4.3-7.69-12.75-8.71.37-11.84,1.99-22.79,2.19,2.07,8.14,16.81,7.38,28.73-4.85,1.76-9.75,3.76-13.68,1.76ZM287.12,739.57c4.46,2.29,6.76,8.21,14.5,4.96-4.48,7.67-10.42,11.96-3.2,22.99-9.11-.34-6.26-20.77-11.3-27.95ZM303.02,755.66c.3-4.15.13-8.68,3.68-10.11,1.77,4.28,5.06,2.27,5.85,10.54-3.08-.56-6.1-1.35-9.53-.43ZM351.12,753.12c3.77-1.78,8.05,1.99,6.61,7.4-3.45,2.63-5.39-.94-6.61-7.4ZM415.31,760.93c-1.1-3.73-1.69-9.47-3.86-8.84.33-5.76,7.12,3.33,8.61,9.06-1.43-.67-2.88-1.32-4.76-.22ZM394.54,757.86c3.47-3.38,8.22-8.33,11.83-8.93-.97,5.5-7.51,11.99-11.83,8.93ZM298.61,739.68c-5.31.33-8.85-6.49-14.15-6.16,1.55-9.62,7.08-12.77,13.21-9.65,2.61,7.19-2.85,7.63.93,15.8ZM367.03,730.23c-1.69,9.8-5.6-4.62-8.29,4.35-2.98-13.68,4.44-3.66,8.29-4.35ZM387.33,733.08c-.46-5.43.92-9.28,1.07-14.16,3.41.84,5.36,7.62,7.08,15.3-3.79,4.01-4.36-5.18-8.15-1.15ZM312.07,716.07c.81,3.19,1.64,6.39,2.46,9.58-7.93,6.08-10.51-6.78-15.84,5.57-1.56-7.57,4.43-8.84,3.85-15.6,3,.84,5.23,4.84,9.53.44ZM268.33,723.88c-5.83.72-4.54-13.33-.92-15.81-.08,2.45-.13,4.93-1.54,6.23,2.52,2.71,3.16,5.19,2.46,9.58ZM194.87,732.69c.26-4.17,2.15-6.96,5.68-8.41,1.55,6.61,3.54,3.62,2.46,9.57-3.8,4.04-4.36-5.16-8.14-1.16ZM221.52,766.93c-3.2-6.61.03-7.86,1.05-10.95-4.47-.55-4.71.63-8.63-2.62.53-6.55,9.06-4.55,10.14,2.84-.18-.04-.31-.04-.47-.07,3.65,9.41,11.18,11.63,17.84,16.22.33-.55.64-1.1.87-1.72-2.04-1.46-2.7-8.61-5.99-5.01-1.28-4.21.38-5.95-1.08-10.29,9.13,1.55,6.85,13.47,10.3,21.74-2.29,1.23-4.61,2.43-6.91,3.62-.32-1.85-.08-3.23.41-4.43-4.68,2.73-11.9-4.97-17.54-9.33ZM263.16,767.36c4.44-.07,2.72-5.27,6.31-6.02.81,3.18,1.64,6.37,2.46,9.57-4.94-1.52-5.42,6.8-8.78-3.55ZM250.16,769.69c8.7-5.82,16.29,23.52,6.78,26.33,2.49-10.35-.09-21.92-6.78-26.33ZM292.32,786.84c-3.6,1.56-6.26-.67-8-6.68,4.04-3.38,6.71-1.15,8,6.68ZM310.71,785.73c2.29-1.21,4.61-2.43,6.91-3.65,2.29.48,2.57,9.11,5.23,8.12-.08,3.71-1.82,6.02-4.3,7.71-2.16-9.77-1.25-6.23-7.84-12.18ZM344.79,862.31c-6.32.85-2.51-9.04-7.08-15.3,4.44-.11,8.42,1.72,11.38,7.61-4.02,3.5-7.86-3.3-4.3,7.69ZM424.13,875.05c-9.51,5.17-18.68-7.24-29.84-6.1-4.07-12.25,5.3-4.51,5.08-10.82,6.03,8.12,13.86,8.93,21.52,10.45.76,3.46,1.51,6.9,3.23,6.46ZM436.27,866.22c4.18-2.3,6.69,2.24,10.15,2.83-.88,8.8-4.99,3.23-8.46,9.88-2.88-6.17.35-7.23-1.69-12.71ZM293.67,873.04c-2.68-9.51,1.92-8.18,5.68-8.4-.23,2.3-.45,4.62.46,7.89-1.71-1.21-3.78-.94-6.14.51ZM315.03,861.63c1.71-.46,2.32-1.83,2.14-3.85,4.75-1.38,6.5,9.52,9.85,13.86,1.67-1.74-.4-6.61-1.08-10.3,4.31-2.8,7.01.88,9.38,5.94-5.65,10.89-14.07,6.43-20.29-5.65ZM225.84,848.92c-.38,7.45-7.85,2.99-8.77-3.56,4.05-3.4,5.31,4.52,8.77,3.56ZM291.64,843.9c-4.73-6.84-11.46-5.62-17.53-7.1,4.92-3.74,16.98-10.52,23.84,1.09,1.59,8.19-7.65-3.13-6.31,6.01ZM254.52,849.08c-3.91-6.43,8.36-12.86,8.28-4.35-4.22-3.72-3.62,3.26-8.28,4.35ZM263.34,842.79c1.71,1.21,3.77.93,6.14-.5.83,3.19,1.64,6.37,2.46,9.57-3.89,1.1-6.28-3.87-8.61-9.07ZM248.72,850.51c1.38-4.49-1.21-12.29,4.45-13.21.51,6.05.1,11.36-4.45,13.21ZM275.05,852.19c4.77-.61,3.45,5.46,4.46,11.27-3.58,1.6-5.57-7.21-4.46-11.27ZM292.12,855.71c.32,6.07-7.97,6.83-8.15-1.15,3.89-4.35,5.24,1.54,8.15,1.15ZM370.77,860.27c2.91,9.13-9.77,10.73-10.31,2.68,5.07,3.46,6.13-7.26,10.31-2.68ZM352.03,864.57c3.73,2.74,8.4,1.74,12.14,4.49-1.78,8.5-10.05,1.94-12.14-4.49ZM333.39,849.2c.41,3.49-2.95,3.82-4.91,5.32-.62-2.4-1.25-4.8-1.85-7.19,3.64-5.01,4.32,2.01,6.76,1.88ZM305.49,847.87c2.3,2.06,5.05,2.27,5.84,10.51-2.9.45-12.11-14.84-6.3-18.41,1.37,3.65-.26,4.79.46,7.9ZM308.19,831.63c5.57.19,9.56,6.82,13.98,11.66-5.32-1.2-11.4.63-13.98-11.66ZM351.59,842c1.71-2.94.11-8.67,3.69-10.07,4.9,7.83,1.92,11.02-3.69,10.07ZM349.93,839.12c-3.34-2.74-8.6,2.37-9.99-8.33,4.26-1.05,7.6,1.73,9.99,8.33ZM303.46,824.66c3.36,3.01-7.87,12.91-9.54-.44,3.83-2.46,4.79,6.68,9.54.44ZM214.67,835.08c-4.6-8.22,2.31-6.83,1.68-11.74,4.41.84,3.38,12.63-1.68,11.74ZM237.51,853.59c6.42.01,9.63,13.12,16.77,10.23-3.72,8.38-13.2-1.74-16.77-10.23ZM258.74,858.98c-.83,3.69-2.83,6.41.31,13.41-2.91,2.01-4.91.34-6-5.01,4.72-.44-.43-9.13,5.69-8.4ZM266.99,872.09c-1.08-5.78,5.72-4.57,6.91-3.62.54,8.43,2.48,10.57.18,18.92-2.29,1.4-1.42-18.51-7.09-15.3ZM296.99,880.43c-4.23-3.69-3.64,3.27-8.3,4.35-1.21-4.76,2.99-5.01.31-11.02,2.54,2.73,6.47-.19,7.99,6.67ZM309.44,876.33c4.3.5,8.88-.18,11.39,7.61-4.3-.49-8.89.19-11.39-7.61ZM344.12,883.61c-4.46-4.44-10.24-3.55-14.25-9.77,6.87-3.5,10.79,5.08,16.91,4.69.21,1.85-.87,2.61-1.4,3.83,2.51-.51,5.03-1.05,6.04,4.51,1.29-.18,1.07-1.61.77-3.12,6.86,4.18-7.39,10.69-8.08-.15ZM373.03,879.38c4.83-3.29,5.86,8.82,9.23,11.47,1.57-6.45,7.01-3.68,8.76,3.55-7.35.41-17.7-1.66-17.99-15.02ZM415.24,884.67c1.03,3.99,2.06,7.97,3.09,11.97-3.32,5.89-8.29-13.43-3.09-11.97ZM341.97,897.81c1.53-1.76-1.65,8.3-6.45,11.52-2.94-6.83,4.01-5.41-.33-13.43,3.72,3.66,4.83-.15,6.78,1.9ZM401.65,901.13c1.69-.37,1.39,2.01.62,2.39.93,4.39,3,4.17,3.85,8.85-3.17-1.83-6.72-2.1-8.61-9.06,2.24-1.76,4.63,2.21,4.14-2.18ZM324.27,906.37c-2.02,7.9-10.55.66-13.53-3.78,5.85-4.19,8.31,5.4,13.53,3.78ZM449.7,904.16c-.24,6.06-11.2,3.19-5.84,13.92-1.5-.4-3.02-.79-4-3.33-.41-1.6-.82-3.19-1.23-4.79,6.04-1.84,6.48-8.39,9.22-12.99-3.08-8.68-10.85,1.68-14.92-3.04.73-8.85,6.98.57,10.3-2.71,3.35-13.79,1.32-21.99,9.68-29.52,2.3,16.97-4.45,26.36-3.2,42.45ZM427.6,854.36c1.01,5.85.14,10.12,2.93,17.47-3.63.07-5.75-6.01-9.38-5.95,5.16-10.44-5.82-7-6.93-20.81,5.82-2.45,7.01,13.94,13.37,9.29ZM397.81,853.73c-3.78,3.96-5.13-1.99-8.91,1.98-1.05-5.76,2.28-7.45,4.91-5.29,1.03-2.3.03-6.26,2.93-6.99-1.17,6.15,2.25,4.16,1.07,10.3ZM371.8,840.59c4.34,6.86,15.3-7.67,19.07.87-4.49,1.74-14.06,8.44-19.07-.87ZM420.18,836.72c-.74,10.39-4.92-5.56-8.15-1.17-.41-3.46,2.95-3.79,4.91-5.28.75,3.45,1.52,6.89,3.23,6.45ZM379.65,825.74c-4.19-.91-9.78,3.84-12.15-4.5.33-6.44,9.7,2.91,3.54-4.57,3.19-7.61,6.63,2.87,8.61,9.07ZM326.41,808.41c-3.2-7.05,2.31-6.85,1.69-11.75,3.6-1.65,4.36,8.3,7.99,6.66,1.15,9.85-5.66,2.49-9.68,5.1ZM359.4,798.5c-.52,15.04-10.74-11.73-15.06,2.48-1.87-5.33-2.14-9.32-1.7-12.69,6.38,2.04,7.72,5.19,11.68-3.4.74,8.1-1.89,14.44,5.08,13.62ZM423.25,793.46c-2.64-5.21-7.91.17-9.99-7.4.06,5.52-1.37,9.83-6.46,11.06-1.62-1.56-2.88-4.62-3.84-8.85-1.01,3.56-2.31,3.57-3.38-.95,4.55-2.17,8.22-.84,10.76,5.24.98-2.27.05-6.13,2.81-6.93-.21-.83-.39-1.77-.51-2.91,1.85-.98,3.69-1.94,5.53-2.9.87,7.86,4.2,5.79,5.07,13.64ZM428.89,775.49c.65,7.65-4.82.91-6.91,3.65-2.96-10.56,5.24-4.39,6.91-3.65ZM344.56,786.33c.04,4.93-1.86-.66-2.61-4.06-5.57,4.15-6.01,13.11-10.91.28,1.72-5.41,1.81-.71,5.52-2.9-.98-4.12-2.61-5.66-4.6-5.72,2.04-6.44,10.21,3.94,12.61,12.4ZM279.74,771.13c-2.04.12-3.27-3.07-5.38-2.6.51-9.88,8.57-3.66,9.84-10.6,4.54-.6-.01,5.8,2.46,9.57-3.41,6.28-9.23-9.5-6.91,3.62ZM344.07,767.07c-.55-7.65,4.91-3.35,4.3-7.68,2.06-.24,2.7,5.39,3.84,8.85-2.9.34-4.8-3.34-8.15-1.17ZM437.67,747.24c2.97,6.39,4.09-3.77,6.91-3.62,2.22,5.78-1.4,16.12,2.93,17.49,1.72,6.72-5.25-3.73-1.53,6.22-4.12,1.76-10.62-11.96-12.15-4.5-2.58-.94-3.99-6.65-5.85-10.51,1.7,1.22,3.78.94,6.14-.5.62,2.39,1.23,4.79,1.85,7.17,2.63-2.52,4.09-.28,6.14-.51-1.31-6.06-4.08-6.27-5.84-10.51-1.23-1.54-2.45-3.12-3.23-6.45,2.56-1,2.17-4.48,4.92-5.3,1.79,5.27,1.99,9.18-.3,11.04ZM427.51,736c-1.68-10.25,2.57-6.79,7.07-9.13-.2,4.85-2.97,7.55-7.07,9.13ZM408.5,719.71c-1.18,12.99-.53,15.44,6.17,23.92-4.87.21-9.17-1.91-12.77-6.88-2.46-4.79,4.72-12.16-2.46-9.56.82-3.73,2.83-6.43-.32-13.44,4.26-2.65,4.02,13.03,9.38,5.95ZM427.63,709.02c-.22,5.3-9.63,6.89-10.14-2.84,4.57-3.85,5.58,6.71,10.14,2.84ZM299.8,699.83c-.99,5.94,3.25,19.66-3.31,17.29.99-5.94-3.24-19.66,3.31-17.29ZM294.76,703.06c-7.77,1.32-11.48-4.21-11.11-16.56,3.77,5.41,7.47,10.91,11.11,16.56ZM337.99,664.57c-7.59-3.1-7.9,4.16-12.62,5.13-5.14-13.29,18.32-7.51,12.62-5.13ZM292.22,677.26c-.44-8.08,6-5.88,3.32-17.3,2.41-.12,4.8-.24,7.21-.37-1.92,8.27-5.43,14.15-10.53,17.67ZM264.66,659.36c-.06-3.8-.13-7.61-.19-11.41,2.41-.12,4.79-.24,7.2-.38-.67,6.41-3.02,10.34-7.01,11.79ZM329.04,619.13l3.5-5.89c-2.98,4.79-1.63,16.1-6.91,17.47,2.29-11.68-4.07-8.82-3.89-16.91,5.77-3.83,1.53,9.15,7.3,5.33ZM261.22,629.38c-.45-8.08,6-5.89,3.31-17.3,5.38-3.15,3.3,6.19,3.79,11.22-5.89-3.22-1.22,9.3-7.11,6.08ZM297.87,606.12c-2.07,9.33,5.87,1.87,3.79,11.22-2.4.12-4.8.26-7.21.38.34-5.07-2.06-14.19,3.42-11.6ZM304.27,597.82c-5.89-3.23-1.22,9.29-7.11,6.06-.44-8.07,6-5.88,3.32-17.29,5.37-3.15,3.29,6.18,3.79,11.23ZM291.2,598.75c4.78.65-1.96-15.89,5.21-11.68,2.6,13.14-5.82,9.84-3.22,22.98-7.23-3.02-7.53-16.4-14.52-4.96,5.38-9.95,1.86-14.38-.44-25.64,4.73,5.74,10.96,8.94,12.97,19.3ZM202.1,583.93c5.72-14.79-4.22-19.78,3.11-28.7-.14,5.13,1.91,6.58,5.5,5.43-1.47,8.43-1.47,8.84.29,17.11-6.89-3.78-3.33,8.01-8.91,6.17ZM259.04,567.59c.45,8.06-5.99,5.87-3.32,17.28-2.39.11-4.8.24-7.2.37,1.92-8.27,5.43-14.16,10.52-17.64ZM266.31,584.45c3.42.46,3.91-3.41,7.15-3.22.09,4.76.16,9.51.24,14.27-4.04-1.04-6.51-4.71-7.39-11.05ZM276.61,561.93c-8.3,5.51-2.19-13.18-10.51-7.68-.15,3.77-.41,7.36-2.41,8.4-.13,8.06,6.19,5.23,3.9,16.89-4.37,1.37-11.93-14.51-4.41-16.77-.58.17-1.26.21-2.13-.04-.63-11.62,8.64-8.46,4.78-24.9,6.85,2.56,11.81,8.32,10.79,24.09ZM173.82,545.26v14.82c-7.43-4.21-12.62-11.61-15.58-22.23,7.37-.63,5.07,12.55,15.58,7.41ZM122.99,558.86c-.46-8.07,6-5.88,3.31-17.29,2.4-.12,4.8-.24,7.21-.37.06,3.8.12,7.6.19,11.4-7.36-3.57-5.6,6.46-10.72,6.26ZM110.11,579.41c-2.07-15.13,7.7-12.63,4.93-28.79,2.4-.13,4.8-.26,7.2-.38-4.61,8.88-7.17,20.79-12.12,29.17ZM138.44,557.56c-1.16.06-2.32.12-3.48.18.43-4.04,1.59-6.97,3.33-9.05-.02-1.58-.05-3.17-.08-4.76,10.2-3.02,3.45,22.39,5.74,32.58-1.72.1-3.45.17-5.18.27-.11-6.41-.21-12.82-.33-19.23ZM82.35,540.81c1.01.05,2.04.15,3.08.29-.14-.58-.3-1.04-.45-1.54,2.05-.11,4.1-.21,6.15-.32.07,3.8.13,7.6.19,11.4-3.25-2.83-7.75-3.57-8.98-9.84ZM103.33,571.49c-.61-.34-1.31-.56-2.22-.46-.04-7.68.17-15.69-5.4-15.46-.31-6.44,4.03-6.24,5.4-10.28-3.17,9.18,1.2,15.97,4.73,22.83.91-.83,1.94-1.5,3.05-2.02-.79,1.26-1.27,3-1.67,4.87.4.88.78,1.76,1.09,2.63-.61.11-1.1.05-1.56-.06-.79,4.55-1.52,9.18-4.78,10.02-.55-5.51.03-9.33,1.35-12.06ZM152.27,608.57c-.48-1.29-.86-2.74-1.15-4.32.59.89,1.38,1.5,2.24,2.01-2.34-6.82-1.67-18.73-6.07-22.13,8.89,2.4,13.06,12.71,16.92,23.56v-3.4c6.91-1.28,9.53,3.54,10.82,10.29h-8.38c1.45,3.96,2.98,7.79,4.79,11.11,2.83-.4,1.28-7.35,5.31-5.99.84,5.4.85,12.24,5.6,11.13-6.89-7.01-3.13-31.89-13.19-33.57-1.31-5,.56-5.27,2.11-6-.76.04-1.47.15-2.07.37v-3.44c-.51-1.07-.82-2.49-.7-4.62.25.02.46.02.7.04v-1.51c1,.4,1.9.94,2.77,1.5,5.69-.6,1.69-5.24-.06-11.61,5.71-3.78,1.67,8.77,7.14,5.39.46-1.66,1.11-3.05,2.34-3.56,2.42-10.91-5.05-5.22-3.86-14.08,5.78-3.82,1.53,9.17,7.31,5.34-.16,9.32-2.24,15.75-4.23,22.34,1.52.12,3.24,0,5.33-.55.68,5-2.61,5.48-6.63,5.12-.43,1.55-.82,3.15-1.15,4.83,2.98,7.69,4.56,17.74,9.41,22.33,3.54-9.75,3.68-2.19,9-.46,2.07-9.34-5.87-1.88-3.79-11.22,8.94,7.47,14.22,21.09,23.92,27.31.31-5.43-2.14-6.19-1.99-11.32,3.1,1.7,4.07.23,4.72-1.72-.44-6.33-1.74-13.97,3.28-12.16-.33,1.95-.09,4.76.14,7.55.24.04.48.06.76.16,2.01,12.24-1.74,15.92-3.23,23,6.71,3.24,5.89-4.72,9.55-6.01-.63-2.33-1.62-4.06-3.12-4.9,5.47-2.35,6.61,2.56,10.86,2.28,1.86,12.83,5.44,22.81,8.56,33.51,1.74-4.97,3.9-9.4,4.9-11.82-5.24-16-13.71-56.66-4.91-76.78-2.77,36.9,8.46,50.31,8.61,82.31-4.53.85-6.3,5.82-6.86,12.58.44,1.72.87,3.46,1.27,5.26-.52.11-1.03.22-1.51.4,0,3.37.16,6.96.37,10.65-1.96-1.43-3.15-3.32-3.8-5.49-3.19-1.92-6.52-10.69-9.43-1.96.25,4.49,4.64,2,3.75,8.38-2.4.12-4.81.24-7.21.37.63-15.73-8.29-15.4-9.49-28.05-2.66.66-1.53,6.97-1.6,11.5-11.51-9.05-22.25-19.35-27.71-38.52,6.3,7.02,14.29,11.18,18.4,21.88,4.01-12.46,4.35,2.94,12.62-.65-.21-2.87-.26-4.98-.2-6.52-.97.04-1.94.08-2.9.15-.34-3.34.17-8.11-1.94-8.45-11.99,7.69-19.85-15.05-29.22-21.33-1.97,17.94,5.66,19.8,7.74,30.98-.55,5.16-2.22,8.62-4.92,10.57-1.2,8.56,4.04,34.76,1.97,51.52-9.3-6.85.69-46.12-8.12-53.79,3.75,1.87,5.85-12.18,6.96-2.99.85-.67,1.34-1.91.49-5.13-14.83-10.24-23.21-31.37-42.06-34.92.04-9.84-7.53-6.89-7.5-16.73,5.08-.52,5.11,7.45,8.35,10ZM200.62,592.9c.14-3.5.43-6.78,3.5-5.89-3,4.79-1.62,16.1-6.91,17.49,2.3-11.68-4.06-8.82-3.89-16.92,5.77-3.83,1.53,9.16,7.3,5.33ZM229.33,596.07c3.5,20.52,20.76,33.52,15.43,59.11-2.6-23.97-14.79-31.87-15.43-59.11ZM185.17,604.62c.33-5.08-2.06-14.18,3.4-11.58-2.06,9.33,5.87,1.87,3.8,11.22-2.41.12-4.81.24-7.21.37ZM68.76,599.38c2.41-.12,4.81-.24,7.21-.37.06,3.79.14,7.58.2,11.39-4.04-1.02-6.51-4.72-7.4-11.02ZM99.3,622.33c10.29,6.08,3.8-12.85,10.62-11.96,2.6,13.16-5.82,9.84-3.22,23-4.04-1.02-6.51-4.72-7.4-11.04ZM115.88,632.79c1.59-8.76-4.35-28.7,3.13-28.69-.21,14.03-.05,27.44,4.18,34.03-5.77,3.82-1.53-9.16-7.3-5.34ZM126.99,624.05c3.77,5.39,7.46,10.9,11.11,16.55-7.79,1.33-11.48-4.21-11.11-16.55ZM122.54,640.31c.26,3.45.66,6.73,3.7,5.51-3,4.8-1.62,16.11-6.92,17.47,1.36-7.23-3.92-24.36,3.22-22.98ZM121.24,670.64c5.89,3.22,1.22-9.29,7.11-6.07.51,5.69-7.84,11.96-1.52,17.19,7.87-5.89,3.57-29.87,12.03-34.85.16,9.5.33,19,.49,28.5-8.77-3.8-7.4,7.5-6.91,17.49-5.77,3.83-1.55-9.17-7.31-5.34-.14,3.5-.42,6.78-3.5,5.89-.14-7.6-.26-15.21-.39-22.8ZM68.8,693.62c3.71-.41,7.65-1.67,9.38,5.95-1.61,5.98-7.19.43-9.38-5.95ZM10.94,698.45c.22-.37.43-.74.7-1.01.43.39.73.74.98,1.06-.05,1.07-.09,2.16-.14,3.23-.46.6-1.05,1.22-1.54,2.01-.49-1.21-.04-3.5,0-5.29ZM64.77,703.4c-1.06-10.22,5.67-2.54,8.91-1.95.61,11.96-5.28.89-8.91,1.95ZM64.17,721.13c-3.3-.45-4.78-3.01-5.7-6.18.36-2.27.61-4.61.8-6.93,4.04,1.61,1.12,11.19,4.91,13.11ZM99.88,726.24c-2.08.23-2.7-5.41-3.84-8.85,5.05.4,3.18-1.43,8.3-4.35.48,2.9,1.4,4.11,2.61,4.05,2.24,11.1-7.21.76-7.07,9.16ZM118.22,750.12c2.36-.77-1.23-17.14-4.46-11.23.38-1.23.81-2.07,1.25-2.69-.91-.02-1.94-.51-3.1-2.07,1.57-3.9,4.54-2.79,9.69-5.08-1.02-5.65-2.66-8.82-5.23-8.11,6.19-9.19,8.06,12.08,14.47,19.58-.8,7.26-5.38-5.04-9.83-1.02,2.33,4.28,4.55,10.57,5.99,14.18-6.05-.01-17.29-4.62-21.22,2.98-6.53-7.6,9.36-14.41,12.45-6.52ZM108.48,795.74c-1.89.31-2.61-4.02-1.23-4.79-3.14-2.16-10.82-11.12-12.14-4.49-1.19-.45-2.22-1.48-3.14-3-3.29-1.35-2.83-8.05-9.26-4.91-1.82-7.76,4.02-4.57,7.21-5.15-.26.96-.36,1.68-.37,2.3,8.96-7.74,12.17,7.93,18.97,8.96-.14-.62-.36-1.3-.72-2.1,1.49-.96,2.68-.76,3.82-.27,1.68-5.91,4.43-10.25,5.39-17.23-3.4,1.8-7.15-7.45-7.5.46-4.98-1.32-.83-10.51,3.68-10.1.78,1.91.04,2.54-.76,3.13.66,4.26,3.37.17,4.91.84,0-.48.03-.9.01-1.41,1.79-.1,3.6-.18,5.4-.28-.14,3.49-.43,6.78-3.51,5.89,1.46,10.5-2.87,12.39-1.41,22.9-1.05.05-2.09.11-3.13.16-1.54,2.54-3.98,4.34-6.32,6.22-.17.78-.21,1.67.09,2.85ZM212.04,789.64c3.42-.85,6.88-1.84,8.01,6.69-4.05,3.38-6.72,1.15-8.01-6.69ZM212.25,801.49c2.33.3,4.34,1.98,5.99,5.01,6.54-5.82,4.1-19.13,8.91-26.41,6.41,9.99,3.13,13.73,8.26,19.68.78-3.24,4.29-4.21,7.13-5.73.69,6.07-2.79,12.75-7.07,9.15-.16-.69-.21-1.32-.23-1.88-9.01-2.15-11.34,2.94-9.92,20.49-5.49-2.3-.52-11.52-2.93-17.47-.73,6.55-2,7.21-5.53,2.9-6.37,1.57-1.76,12.32-7.22,14.66-.04-.33-.09-.59-.14-.88-.98,5.08-1.12,10.89.36,18.03-5.38.79-8.48-22.46-1.67-22.63-1.89-3.02-4.61,2.56-6.69,4.3-.87-7.91-5.52-.4-5.85-10.51,5.88,1.83,17.02-.1,16.61-8.71ZM132.6,817.1c7.4-5.4,12.94-17.46,20.6-5.38-7.33.39-10.09-2.4-9.84,10.58-4.13,1.33-3.73-12.4-6.76-1.87-1.06,1.05-1.54-.28-2.01-1.68-.26-2.17-1.12-1.98-1.99-1.66ZM109.16,817.3c-1.07,1.06-1.54-.24-2.01-1.66-.41-1.6-.81-3.19-1.23-4.79,3.43-.87,6.89-1.85,8.01,6.68-1.66,2.33-5.77-7.56-4.76-.23ZM122.79,822.4c-.41-3.49,2.95-3.8,4.91-5.29,1.88,5.32,2.16,9.3,1.7,12.69-3.55,3.01-3.59-8.24-6.61-7.4ZM108.87,829.81c1.57-7.6,10.77-4.88,12.16,4.5-3.75-2.76-8.42-1.74-12.16-4.5ZM100.81,835.15c3.06-2.68,2.03,11.3,5.99,5,3.32,4.48-1.25,10.88,2.47,9.58-1.42,8.57-6.71-8.37-8.46-14.58ZM135.4,869.96c1.37,6.78-7.58,4.94-4.45,13.19-5.68-1.95-3.4-8.07-7.65-17.61h-2.36c.78-5.74,3.18-9.17,7.2-10.28v10.28h-4.64c4.05,1.15,6.94,6.96,11.9,4.41ZM111.96,875.32c3.45-2.55,6.71-4.44,7.38,4.29-2.9.38-6.19,2.24-7.38-4.29ZM145.35,852.88c2.77-1.45,5.54-2.9,8.32-4.35,1.27,4.19-.41,5.94,1.07,10.29-2.58-4.23-7.65,1.72-9.39-5.94ZM135.57,849.9c-.78-5.68,6.58-4.57,9.06-7.5,1.77,6.97-6.35,9.77-9.06,7.5ZM100.87,858.16h7.21c-.08.15-.14.3-.23.46.54-.37,1.39-.13,2.84,1.12-.06.38-.14.74-.21,1.11,1.6-2.13,3.68-3.58,2.08-10.3h7.21v10.29c-7.19-3.5-5.78,5.27-10.62,5.11-.35,1.61-.52,3.35-.16,5.55-1.78-1.72-4.68,1.21-5.72-3.47-2.39,5.6-4.67,11.35-7.82,15.88-1.81-13.72,7.9-11.02,5.4-25.74ZM94.72,871.83c-3.07,4.17-1.9,14.43-7.21,15.44-.89-9.86,2.48-13.63,7.21-15.44ZM120.25,888.7c3.78-3.95,5.66-.21,8.91-1.96-1.67,4.34-7.02,12.95-8.91,1.96ZM148.55,887.61c2.29,10.72-10.38,9.47-10.91.29,5.89,1.68,5.79-.67,10.91-.29ZM62.06,912.77c.58-.51,1.23-.91,2.11-1.07v3.17c-.52-1.02-1.18-1.79-2.11-2.1ZM67.49,910.17c.27-7.11,10.47,1.41,8,6.67-4.5,5.23-4.79-6.63-8-6.67ZM84.2,922.1c10.18,5.95,4.02-11.43,10.81-10.3,2.38,11.99-5.98,8.62-3.6,20.6-4.03-1.12-6.43-4.56-7.21-10.29ZM100.62,932.34c1.73-7.83-3.85-26.12,3.62-25.74-.46,12.64-.53,24.74,3.6,30.87-5.82,3.18-1.37-8.32-7.21-5.13ZM111.87,925.28c-2.63-2.23-4.27-8.5-6.22-13.56,2.58-.37,2.14-3.23,1.54-6.24,5.6,3.12,8.99,7.58,9.68,19.36-1.87,1.57-3.33,1.56-4.6.72,3.54,4.85,7.01,9.82,10.42,14.88-7.72.82-11.31-4.24-10.82-15.16ZM152.04,946.54c1.35-7.94-6.22-3.15-3.6-12.86,4.07,4.84,5.57,6.23,8.92,7.23-.01,0-.02.02-.04.02.26.07.51.16.83.34-.36-.09-.66-.18-.99-.26-2.46.76-.26,8.17-5.13,5.52ZM138.05,948.25c-1.49,6.45,3.51,22.16-3.61,20.59,1.88-8.66-3.32-28.96,0-23.18.41,2.01,1.52,3,3.61,2.59ZM164.67,961.19c.02-3.21.74-5.44,3.83-4.28-1.09,5.29,2.91,17.88-3.61,15.42.28-1.39.22-3.29.09-5.28-.14,9.91-3.06,15.85-10.97,14.68,3.38-8.88,3.38-6.56,0-15.44,4.51-3.41,4.37,11.96,7.21,2.56-1.71-5.28-7.09-5.32-7.21-12.85,5.07-.44,3.56,8.52,10.67,5.18ZM126.76,968.09c-.9-9.85,2.48-13.62,7.21-15.45-3.08,4.18-1.89,14.45-7.21,15.45ZM107.12,939.45c.21,3.13.54,6.1,3.61,5.15-3.08,4.19-1.9,14.45-7.21,15.45,1.49-6.46-3.51-22.17,3.6-20.59ZM108.96,982.14c-.21,3.15-.54,6.1-3.62,5.16v-20.58c5.85,3.17,1.39-8.34,7.22-5.17.41,5.18-8.05,10.43-1.8,15.46,7.95-4.96,4.07-26.8,12.62-30.89v25.73c-8.71-3.84-7.53,6.41-7.21,15.45-5.84,3.17-1.38-8.34-7.21-5.16ZM128.18,997.85v-11.18c-.69-.2-1.18-.81-1.25-2.31v8.56c-2.95-1.6-3.27-5.15-3.62-8.67-.42.93-1.05.84-1.89-1.37h1.75c0-.09-.02-.17-.03-.24h.28c.11-.88.19-1.82.19-2.84-.5-1.02-1.14-1.94-2.21-2.51,1.64-4.32,2.48-.73,2.53,3.09-.04-.11-.12-.2-.17-.29.28.79.48,1.66.61,2.56h2.45c-.61-6.25,10.15-6.56,9.14-4.29-1.56,2.79-1.55,5.26-.73,6.88-.98-.63-2.71.27-4.34.95-.21,4.68,2.4,12.56-2.71,11.67ZM140.49,986.77c-.01-.06-.04-.11-.05-.17.1.76.16,1.57.14,2.5.08.46.15.93.26,1.24-.13-.05-.21-.02-.33-.1.04-.46.04-.87.04-1.28,0,.01,0,.02,0,.04-.08-.68-.13-1.48-.13-2.44-.15-.74-.36-1.43-.61-2.01.26-.37.55-.62.8-1.07-.09,1.27-.12,2.33-.12,3.29ZM207.51,916.73c.21.05.34-.01.59.07-.35,1.68-.19,4.12,0,6.57.15.04.29.05.46.11,1.79,11.13-2.03,14.27-3.61,20.59,7.3,3.54,5.7-5.6,10.81-5.17v12.86h-10.81c-.28-3.01.31-7.3-1.8-7.69-12.11,6.38-19.59-14.51-28.84-20.59-2.27,16.08,5.33,18.12,7.21,28.29-.55,4.01-1.93,6.8-4.04,8.56,0,.11.01.18.02.31-4.08,2.37,2.63,9.19.04,26.31.98.49,2.05.41,3.28-.89.52,12.75-5.53-6.18-10.82-1.73,1.8-3.46,3.31-1.72,4.98.24-4.34-6.96,2.95-17.5-4.69-23.94,3.4,1.71,5.65-8.61,6.74-4.07,1.05-.51,1.77-1.51.89-4.79-14.67-9.93-22.68-29.37-41.45-33.45.2-8.88-7.42-6.57-7.21-15.45,6.22-.29,4.59,10.6,10.81,10.3-4.25-5.08-2.09-19.31-7.2-23.17,13.96,4.07,15.85,25.42,23.44,38.6,2.83-.24,1.4-6.56,5.4-5.13.76,4.91.65,11.06,5.41,10.28-6.76-6.65-2.59-28.91-12.62-30.89-1.3-4.82.87-4.73,2.48-5.4-1.92-.84-3.32-2.4-3-6.45,10.5,1.27,5.51-3.54,3.6-10.29,1.01-.55,1.64-.55,2.15-.38-.38-1.48-.75-2.95-1.14-4.41.69-.19,1.46-.71,2.22-1.21-1.97-1.33-3.94-2.54-5.43-2.43v-.13c-5.58,4.94-10.89-6.57-9.68-13.94,3.73,2.4,7.4,5.02,9.68,13.3-.19-17.47,8.02-3.73,17.28-10.97-.21-.49-.35-1.02-.44-1.63-.6.29-1.2.57-1.82.84,2.96-19.07-4.12-3.29-8.47-14.57,4.81-3.1,4.52-5.89,9.33-5.12.53-2.77,6.26-1.19,2.56-7.47,2.91-.43,3.48,8.71,7.38,4.29.46,5.54-7.93,6.69-9.68,5.06-.06-.16-.08-.28-.12-.43-1.35,7.94,5.07,4.57,6.69,11.49-.38,1.5-1.23,2.61-2.26,3.56,2.16-.06,3.82,1.85,5.83,2.41-.04,5.21-6.42,6.4-8.73,2.13.77,2.99,1.53,5.95,2.29,8.94-2.84.01-6.48-3.57-8.84-.56,1.29,1.9.08,7.39,4.34,5.07-.04,1.28-.16,2.48-.29,3.63,1.42,2.22,2.48,5.27,3.7,8.97-1.79-.13-3.42-.96-4.96-2.06-1.63,6.29-4.12,11.36-5.66,17.75,2.86,7.1,4.26,16.22,9.02,20.61,3.7-8.65,3.72-1.83,9.01,0,2.22-8.34-5.84-1.99-3.62-10.3,8.81,7.16,13.85,19.68,23.44,25.73.41-4.87-2.02-5.68-1.8-10.29,3.46,1.89,4.3.04,5.02-1.99-.13-1.72-.28-3.48-.31-5.05-.95.41-2.06.55-3.38.38-1.42-6.22,3.42-7.19,7.08-9.14-.04,1.52-.21,2.8-.45,3.91ZM173.94,899.96c-2.22,8.33,5.83,1.96,3.6,10.29h-7.22c.43-4.56-1.8-12.89,3.62-10.29ZM208.94,912.4c-4.47,1.87-8.69,2.65-10.77-5.22,4.48-1.87,8.69-2.65,10.77,5.22ZM182.34,910.72c2.48-10.43-3.91-8.15-3.61-15.46,5.83-3.17,1.38,8.34,7.21,5.16.21-3.15.54-6.08,3.6-5.16-3.07,4.19-1.89,14.46-7.2,15.46ZM209.18,889.47c1.06-1.06,1.54.24,1.99,1.66.26,2.16,1.12,1.98,2.01,1.67,1,4.6-4.15,4.05-2.31,9.36-11.83,1.17-21.18-17.66-26.44-5.17,1.74-3.55,1.82-8.49,3.87-11.77.33-4.01-.68-7.1-1.11-9.95-1.4,1.68-3.22,3.02-5.39,4.07,1.52,3.85.88,6.11.75,11.8-5.15,4.06-6.81-15.33-2.31-15.1.55,1,.96,1.85,1.3,2.66.34-6.95,3.02-13.05,6.98-10.32.4-.59.85-1.17,1.45-1.78-.21,3.91,1.3,5.41,3.94,5.27-.19-6.95-3.14-6.82-2.27-13.97,3.46-2.63,3.48,8.71,7.38,4.27-.17,4.35-.41,8.65-3.79,10.32-1.45,6.78-1.41,7.45.15,14.71-1.47-.8-2.4-.84-3.12-.57,2.6,3.98,5.24,4.9,8.16-.73,3.04,1.98,9.51,15.07,8.76,3.57ZM218.82,877.88c3.91.48,7.23,3.24,10,8.34-3.35-2.73-8.61,2.37-10-8.34ZM234.15,898.06c1.57-5.63,4.06-9.94,7.43-12.99-1.82-8-2.19-18.91-9.57-20.38-1.14-5.33,2.16-6.96,5.68-8.43,1.67,10.25,4.01,17.11,6.12,27.17.4-.26.74-.58,1.14-.83.06,1.55-.2,2.61-.59,3.52.41,2.11.8,4.32,1.19,6.79-1.31-.85-2.21-2.32-2.91-4.16-1.4,1.73-2.64,3.66-1.3,9.29h-7.21ZM241.17,939.73c-1.29-3.86,9.38-6.86,2.3-9.38-.85-3.83,3.3-1.16,6.45-2.71.76-1.51,1.1-3.63.15-7.56,1.63-.79,2.53-.51,3.05.29,2.05-3,8.67,2.82,8.48-3.61-1.32-1.43-1.77-6.29-3.67-5.32-.34-3.68,3-4.3,1.04-9.33v4.06c-2.34-.65-4.06-2.18-5.31-4.4.23.84.46,1.6.75,2.18-1.57.83-3.14,1.65-4.71,2.46,2.07.93,4.02,2.8,5.01,5.99-1.69,4.41-10.4,6-12.15-4.51.78-1.89,3.47-2.66,6.19-1.83-1.08-7.9,4.77-7.35-.81-15.01.75-.84,1.37-1.12,1.91-1.01-3.81-3.73-6.87-13.16-.31-13.97-.31,7.3,6.09,5.02,3.6,15.44-.68.16-1.45-.1-2.21-.59.67,1.06,1.12,2.93,1.54,4.99,2.79.02,3.53-2.9,6.52-2.6v6.54c2.06-1.07,2.63,4,4.64,3.18-1.63,3.27-2.16,9.33,1.72,9.54,2.88-6.02,1.19-10.07-.55-16.83-1.31-1.41-2.41-3.24-2.86-5.41,4.29-1.17,6.69,5.39,10.76,5.22-.24,1.85-1.21,2.67-2.43,2.85,2.78,2.88,5.25,6.23,6.28,11.61.51.08.86-.04,1.15-.26.1-.13.19-.26.31-.35.44-.72.53-1.94.49-3.35-.43.23-.83.44-1.33.76,2.96-2.55-1.37-11.18,3.07-12.47.46,1.73.89,3.46,1.34,5.21.14.06.24.1.4.18.13.68.13,1.18.19,1.78,1.97-.13,2.51-3.24,3.07-3.83-.04-.22-.04-.35-.09-.59,5.21-2.5,3.37,5.1,3.59,9.74,2.06.45,3.88,15.46,3.92,6.12,2.38.69,2.52,2.76,1.85,4.99,3.6-2.23,5.22,3.55,6.62,10.16-1.37.72-2.76,1.44-4.15,2.17-.04-.15-.07-.29-.11-.43-4.2,7.07-8.15-4.8-4.98,10.68-5.3-2.43-6.27-8.06-5.92-14.24h-1.69c-.78.81-2.34.65-5.14,1.6,1.35,4.35,2.98,7.51,5.23,8.12-3.27,6.66-11.16-8.44-15.77-13.1.63,2.28.7,6.21,3.19,9.4-1.09,2.85-2.9,5.1-6.3,6.02-.95-7.05,4.1-9.11,1.84-17.28.56.17.9.67,1.14,1.38,2.94-9.32,7.92.11,12.1,1.06-.03-.77-.06-1.55-.09-2.32-.31.24-.63.5-.99.72-2.3-3.11-.83-7.11-.96-8.84-.58,1.65-.85,3.78-.16,7.25-6.36-2.72-7.16-12.5-12.26-7.69,3.41,2.62.9,1.56-1.35,1.51-.26.33-.53.63-.81,1.04.24-.38.36-.69.57-1.04-1.33.01-2.39.52-2.05,2.39,1.42,1.15,2.02,5.63,3.02,8.57-4.54,2.04-7.44-2.58-11.68-1.72.04,2.22-.28,4.98-.09,7-.48-.27-.82-.29-1.17-.37,1.12,9-4.2,6.62-8.72,13.79-.5-2.91-1.4-4.1-2.61-4.06ZM248.86,953.09h7.21c-.78,5.74-3.2,9.18-7.21,10.29v-10.29ZM269.22,990.6c.29.29.59.65.88,1.04-1.47,2.44-2.07,3.23-1.82-1.82.31.43.63.65.93.78ZM363.31,993.18v1.82c-1.4.39-2.61-1.68-3.62-4.27,1.12.94,2.27,1.83,3.62,2.45ZM277.12,984.1c-.99.3-1.89.51-2.76.55.93-1.07,1.84-1.48,2.76-.55ZM319.78,983.84c-1.28,4.12-3.49,11.12-3.3,6.77-7.95,1-1.74-4.99,2.77-6.58.64-2.07.9-2.91.24-.08.1-.04.2-.07.29-.1ZM280.48,983.11c-.99-.54-1.88-1.63-2.51-2.78.63-.12,1.32-.18,2.11-.12.11.78.43,1.57.88,2.33.67-.23,1.37-.48,2.15-.74,0,.04,0,.07.01.1-.71.96-1.46,1.33-2.19,1.29-.06-.06-.1-.13-.15-.21-.1.05-.21.09-.31.13ZM384.37,984.11c0-.07,0-.17,0-.28.16-.05.23-.06.43-.11-.07.24-.14.39-.2.54-.06-.06-.16-.1-.23-.15ZM393.85,980.12c0,2.02,0,4.15,0,6.44-1.17-2.63-4.15-2.67-3.62-7.73,1.32.33,2.5.78,3.62,1.29ZM278.7,978.47c-.38.26-.73.56-1.12.8-.44-1.39-.2-2.19,1.12-.8ZM252.69,978.43c-.06,1.93-1,2.63-2.28,2.83-1.73,3.8-3.47,6.73-3.87,2.71-1.27-1.43-2.29-2.78-3.21-4.08,1.82-.56,4.65.3,6.92.39,2.12-4.96,3.86-9.62,2.44-1.84Z"/>
  </g>
</svg>