<?xml version="1.0" encoding="UTF-8"?>
<svg id="Ebene_2" data-name="Ebene 2" xmlns="http://www.w3.org/2000/svg" viewBox="0 0 1017.73 460.44">
  <defs>
    <style>
      .cls-1 {
        fill: #0075bf;
        stroke-width: 0px;
      }
    </style>
  </defs>
  <g id="Layer_1" data-name="Layer 1">
    <path class="cls-1" d="M18.45,454.1c.38.07.71.14,1.04.21.11-.04.23-.07.3-.09,2.26.61,1.59.53-.32.17-.43.12-1,.29-1.65.51-.12.12-.26.26-.39.39,1.16,1.56,2.08,3.33,2.93,5.16h167.32c.32-2.1-1.09-4.62-2.72-7.2,9.74.24,5.39-2.43,13.63-5.08,2.17,6.33-7.45,8.22-4.89,12.28h798.17c1.43-2.93,4.68-5.93,4.5-10.22h5.52c-.15-2.26-1.28-4.23-2.45-5.87.15-.03.24-.05.4-.08-.13-.06-.26-.1-.34-.12-.09.02-.1.03-.17.06-2.35-3.22-4.77-5.05.26-4.9.52,1.29,1.71,2.96,3.07,4.76,1.22-.31,2.81-.73,4.28-1.15-.66,1.09-1.28,2.2-1.77,3.34.33.13.61.26.89.39-.56-2.97,4.24-1.64,3.41-4.8-.18.04-.43.11-.65.18,4.33-7.37,10.86-13.51,4.57-17.27,1.96-2.71-14-7.18-7.67-6.07.1-7.58-1.6-16.75,4.13-19.39-.56-3.15-4.29-3.5-6.91-4.86,1.9-10.95,11.62-14.77,7.68-20.6-.63-1.5-1.61-2.09-2.73-2.31-1.51.37-2.5.26-3.21-.1-1.82.03-3.55-.19-4.5-2.45,2.59-.14,2.96,1.67,4.5,2.45,1.09-.02,2.21-.11,3.21.1.22-.05.37-.06.57-.12,2.17-.11,1.09-3.09,4.15-2.43-4.65-8.03-10.75-14.79-12.43-25.45h15.21c1.89-10.84-32.64-6.11-8.46-8.49.28-5.9-4.88-8.24-7.12-14.54h-.28c.61,0,1.17,0,1.82,0-1.55-.78-1.56-2.79-4.55-2.43.18.88.45,1.66.74,2.41-27.44-.49.74-7.29,4.4-7.55.04-.14.06-.28.08-.38-.02-.62.22-1.11,0,0,.01.14.04.26.07.38.28,0,.31.05.07.17.17.29.51.45,1.24.13-2.72-3.67-1.65-7.18-4.3-10.91,3.13,1.69,3.41,2.4,5.68,4.85,2.34-4.81-1.49-4.54,3.22-7.28.56-2.12.39-3.61-.06-4.85h-.37c.23-.94-.99-1.75-2.51-2.44.56.75,1.09,1.53,1.45,2.44h-4.05v-4.14c-.66-.31-.85-.56,0-.7v.7c.91.41,2.68.99,4.17,1.71-.5-.76-1.02-1.52-1.39-2.41,7.41.85-2.44-13.45,6.9-10.91v-18.18c-1.78.06-1.91,1.54-4.15,1.2,3.01-1.79,3.89-5.48,6.91-7.27-.38-4.52-4.19-6.02-4.15-10.91h6.9c.15-4.17-5.68-3.09-5.52-7.27,4.46-1.5,1.05,3.92,5.52,2.43-1.12-3.87-5.51-4.86-6.9-8.49-3.49,1.52-9.46,6.72-11.05,0,8.76-2.61,14.17-9.74,11.05-19.39h-2.84c-.01.19-.05.37-.07.55.76,1.22,1.45,2.56,1.57,3.99.79.61,1.39,1.38,1.34,2.73-.55-.58-1-1.07-1.38-1.52-.09.49-.22,1-.46,1.52-.85-.34-1.48-.76-1.95-1.21-.23.18-.5.38-.78.6-.45.63-1.28,1.26-2.1,1.88-.91,1-1.66,2.18-1.77,3.57-.12-.09-.17-.18-.24-.27-.19.8-.49,1.74-.82,2.88.09.22.13.44.15.68.37.38.7.86.91,1.57,1.93-.5.13.53-1.61-.09-.04.03-.05.06-.07.09.01-.04.01-.07.01-.11-.51-.19-1.01-.55-1.41-1.12.02-.11.07-.23.07-.35-.1-.09-.2-.17-.29-.24-.02.05-.04.11-.06.16-.04-.08-.07-.17-.1-.26.05.04.1.06.16.09.05-.16.09-.28.12-.43-.04-.11-.15-.2-.21-.31.2,0,.44,0,.68.04-.56-.48-.95-.86-1.2-1.17-.06.11-.15.19-.21.31-.23-.2-.45-.39-.71-.55-.06.42-.1.89-.06,1.43.04,0,.07.02.12.03-1.61,2.2-3.82,3.87-6.76,4.9v-4.85c5.58,1.67,4.35-2.63,8.28-2.43-.06.15-.16.27-.23.41.27.11.6.28.91.51.32-2.21,1.76-2.88,2.6-3.42-.01-.74-.17-1.48-.51-2.34,1.56,1.43,1.28,1.84.51,2.34v.38c.44-.48,1.07-.97,1.72-1.45.67-.74,1.43-1.37,2.1-1.88.27-.4.38-.79.23-1.2-.04-.04-.05-.06-.07-.09.33-.31.31-.49-.39-.55-1.12-1.77-1.22-3.08-5.32.02-1.02-2.75,6.46-9.45,1.22-8.48-17.39,19.39-18.07-25.77-2.2-11.87.02-.08.02-.18.05-.26,4.05.08,4.06,3.69,6.9,4.85,2.51-1.77,1.85-4.81.34-7.05-.52.23-1.12.51-1.61.8.22.38.23.83-.11,1.4-1.15-.37-.71-.9.11-1.4-.9-1.67-5.61-1.9-1.5-3.45.87.27,1.84,1.06,2.66,2.08,3.69-3.55.59-4.4-1.67-6.94.18,0,.33.01.54.01-.69-4.7,4.04-3.23,1.01-6.06,1.28,1.9-1.21,3.56-2.54,4.66-.17-.32-.33-.65-.45-1.02,2.66-.73-1.52-.97-3.55-.73-.05.23-.08.46-.13.73-1.38-.38-.9-.63.13-.73.32-1.55.72-2.35,1.12-2.88,1.56,1.03,3.12.59,4.35-2.39-.29-.17-.48-.43-.6-.73-1.35.73-3.11,1.49-4.85,2.19.21.23.44.44.66.62-1.17.52-2.3,1-3.11,1.42.06.41.12.81.3,1.29-.71.03-1.1,0-1.39-.06v.06c-.85-.24-1.66-.5-2.48-.77-6.55-2.16-12.12-5.18-19.62-6.51.02-2.85-2.38-3.57-1.38-7.27,1.17,2.61,5.07,2.81,9.66,2.43-1.46-3.18-5.28-5.45,2.78-4.86,1.52-5.6-5.94-5.65,0-8.48-5.3-2.64-7.5-7.97-11.06-12.12,9.41,3.46,14.67,10.56,19.34,18.18-2.19.1-5.28-.58-5.54,1.21,3.8.41,5.3,2.82,7.66,4.49-.24.16-.45.33-.55.52.05.19.1.38.16.56,1.22.41,2.63.63,4.49.5v4.84c-2.26.46-2.46-.75-3.08-1.62-.01.07,0,.16,0,.23.91,2.16,2,4.09,3.15,5.32.66-.55,1.28-1.3,1.63-3.93,2.94-.89,2.79.68,3.23,1.77.39-.21.77-.41,1.07-.62.11-.4.22-.85.34-1.32-1.05-1.14-2.56-1.92-4.65-2.25,3-2.33,3.12-4.19,2.13-5.96-2.06.31-4.51.69-6.28,1.24-1.17-5.61-.78-10.67,2.88-9.35-.22.21-.44.44-.68.69.54.33,1.13.75,1.78,1.25h3.21v-3.87c.16-.1.24-.19.43-.3.38-.37.33-.62-.43-.67h0s-.01,0-.02,0c-.11,0-.19-.01-.34-.01.71-1.86-1.8-1.08-3.44-.36-.09.11-.15.24-.24.36-1.73.75-1.01.2.24-.36.22-.27.29-.57.45-.85h3.19c-.35-2.37-1.3-2.41-2.62-2.84.07-.31.2-.59.4-.8-.22-.17-.45-.38-.7-.63,2.15-.61,5.3-.39,4.93-3.01h-3.85c.16-.81.4-1.62.87-2.42,11.94.79,2.51-6.67,4.6-14.55-3.91-.21-2.69,4.09-8.28,2.42-2-4.58,3.79-2.32,2.74-6.06,4.22-.06,3.33,4.37,8.3,3.64-3.39-4.02-.21-4.41-2.77-12.12-6.51-1.84,1.23-6.93-1.94-8.24,1.65,4.61-3.06,3.66-2.82,7.03-2.24-4.35-4.39-9.53-9.66-4.84v-7.28c6.06-1.3,6.05,2.75,8.85,4.31,1.69-1.54,1.71-3.42.72-4.44.33.17.84.24,1.62.12,4.1-2.83,5.78-9.62,1.38-13.34,10.82,1.41-9.67-14.13,1.84-12.12,0-1.4.88-2.8,2.12-4.21-1.59-.56-3.22-.99-4.88-1.22v.24c.59.66.91,1.22,0,1.45v.1c-.13-.03-.21-.04-.33-.06-.23.04-.51.06-.85.06,1.01.48,5.8,1.83,2.1,1.21.51,2.06-1.07,2.29-2.76,2.43v-3.64c.26,0,.44,0,.66,0-.35-.16-.22-.22.85-.06.12-.01.23-.02.33-.04v-1.45c-.09-.09-.17-.18-.26-.27-3.71-.46-7.54.12-11.18,2.76v-6.01c1.82-.19,3.5-.28,5.1-.32-.91-.88,1.45-1.27,3.39-1.15.78-.34,1.67-.68,2.63-1.01,1.94-2.21,4.96-3.45,6.76-5.79-2.7-4.19-5.51,1.48-8.28,1.21,1.94-3.12,2.41-3.3,1.46-4.94-.23.04-.44.09-.7.09v-.38c1.61-.55,2.5-1.69,3.45-2.76-1.51.52-3.5.71-5.27.77h-.15.15v-.48c-.29.14-.6.26-.85.41.02.02.02.04.02.04-.34-.01-.68-.04-.88-.05h0c-.09,0-.15,0-.21-.01-.16-.01-.17-.01,0,0,.06,0,.12,0,.21.01.06-2.18,1.63-3.03,3.15-3.93-1.38-.41-1.85-1.01,2.37-2.11-.5.95-1.43,1.55-2.37,2.11,1.98.59,5.83.78.38,1.52v2.01c3.99-2.19,10.57-2.11,10.27-8.07-4.46-1.49-1.05,3.92-5.51,2.43v-7.28c-4.48-1.49-1.06,3.92-5.52,2.42,5.02-4.53.37-6.18,0-12.12-4.48-1.5,14.89,3.92,10.43,2.43v-7.28h-5.91c-.15.78-.21,1.59-.01,2.35,1.73.24,4.43-.38,3.16,2.5-2.02-.38-2.86-1.35-3.16-2.5-1.06-.14-1.74-.6-.99-2.35h1c.62-2.99,2.65-5.3-2.83,0-1.71,3.92,4.46.93,2.76,4.85-3.17.17-3.02-2.58-5.79-2.76-.07.11-.1.21-.18.33-.35-.06-.63-.19-.95-.28-.43.06-.83.12-1.35.28v-.31c.15,0,.32-.03.45-.02.9-1.52-.79-1.83-2.73-1.62v.56c-.16.06-.34.1-.46.16,0,.04.01.09.01.13,1.15.83,1.93,1.98,2.27,3.52-5.49.83-5.55,6.44-11.05,7.27-1.61-6.37,5.27-5.3,5.74-9.83.13.04.24.11.45.14.05-.33.05-.71.02-1.1-.04-.02-.09-.05-.12-.08-.15.06-.24.13-.34.19-.04-.44-.09-.91-.22-1.45.76.14,1.41.37,2.02.66.02.02.05.06.09.09.01,0,.05,0,.07-.01.32.16.65.32.94.52.02-.01.07-.04.11-.05-.01-.21-.02-.43-.04-.64.16-.03.33-.06.5-.09v-1.38c-.16.07-.33.09-.54.07.01-.16-.01-.33.01-.48-.16-.36-.33-.7-.41-1.11.21.19.4.31.59.46.33-.64,1.06-.93,2.63-.46v1.52c1.16-.61.94-4.01,5.52-5.16-3.18-2.75-2.85-12.13-1.24-14.27h.54c.59-1.22.37-1.8-.19-2.1-.84.68-1.6,1.37-2.2,2.1h-5.65c6.67-5.7-4.95,2.15-6.9-2.7-2.77,1.04-1.55-.61-.17-1.82-3.11.66-5.01.9-6.45.97,0,.29-.09.66-.29,1.13-3.76.57-5.69-.09-7.1-.68-.77.11-1.56.23-2.56.41h-2.38c-.11.07-.19.14-.3.22,1.07,2.97-3.22-5.06-5.61-4.79-1.71,3.92,4.46.93,2.77,4.85-10.86-1.18-16.02-.71-20.72-2.42-5.26,4.29,4.29,12.85,4.15,16.69-4.68,1.48-13,10.1-17.28,3.61l-2.19-10.46c-.56,0-1.11.02-1.67.03-4.98,1.95-10.08,3.8-16.14,4.81.17-1.49.43-2.87,2.77-2.43-.63-.82-1.34-1.1-2.09-1.06-3.13,3.64-6.8,6.96-16.36,6.76,2.2-1.98,5.18-3.5,8.37-4.91-.34-.65-.96-1.06-2.34-.8,3.5-.96,5.23-3.49,9.66-3.64,1.93-5.72-4.13-4.43-5.51-7.27-5.05,1.91,3.19,1.81,1.38,4.84-2.72.36-2.74-1.63-4.16-2.42-1.02,4.35-5.46,5.7-9.65,7.28.12,1.91,3.51.95,2.76,3.64-6.43-1.6-4.62,4.02-11.05,2.43.6-2.71,2.44-4.33,5.52-4.86-1.18-3.55-3.49,1.58-6.91,0-5.76,2.01,2.24,9.01-5.52,9.7,4.43-4.64-.13-3.3,0-9.7,9.46-2.61,17.62-6.36,23.49-12.12-5.45,4.19-17.53-.74-23.49,4.84,2.51,4.39,3.82-2.14,6.91-1.21-2.63,2.94-2.61,8.22-9.66,7.28-.43-2.39,1.85-2.41,2.74-3.64-2.68-4.19-5.5,1.49-8.28,1.21v-4.85c-8.15.12-9.46,6.24-16.57,7.28-.23,2.63,4.9.55,6.9,1.21,1.18-2.19,3.56-3.35,4.15-6.07,3.9,1.85,7.86,3.6,8.29,8.49-4.6.38-1.51-5.96-8.29-3.64.13,1.91,3.52.95,2.76,3.64-5.96-1.22-7.65,1.35-11.04,2.43-1.71,3.91,4.46.92,2.76,4.84-3.89.83-2.13-3.31-5.82-2.67-.32,2.65-.91,5.48,2.61,5.55,8.72-.15,17.42-.3,26.13-.44-3.18-4.81,7.63-1.28,4.45-6.09,1.57-.03,3.17-.05,4.74-.08-3.37,6.39,13.18-.56,9.82,5.85-9.51,2.24-7.68-3.14-14.4-2.77.95,8.17-11.95,19.47-18.78,15.33.1,2,.21,4.01.3,6.01,4.23.26,11.83-1.72,9.66,2.84-5.17.09-10.35.18-15.52.26-.9.56-1.98.98-3.2,1.26-.06-.43-.07-.82-.07-1.2h-.22c-1.13-1.72-.45-2.36.71-2.71.72-1.51,2.11-2.43,3.88-3.01-.07-.13-.05-.21-.15-.36-5.52.09-11.08.19-16.62.28-1.49-3.32,4.43-12.72,4.51-15.09-3.16.06-6.33.11-9.5.16,1.11-4.68,8.17-5.82,11.41-9.21.09.15.1.34.16.51.23-.46.43-.97.37-1.69-3.01,2.61-4.88,6.21-12.43,4.85-1.9-4.91,3-3.84,2.77-7.28,4.46-1.5,1.05,3.92,5.51,2.43.02-7.29-16.14-.37-17.95-6.07-1.74,2.69-5.82,3.33-8.07,5.57v1.77c-.48.11-.87.15-1.29.21-.21.62-.32,1.31-.29,2.14-1.05,1.67-1.02-.21-1.66-1.99-.98-.03-1.77-.22-2.45-.5.6-.27,1.19-.54,1.77-.83-.71-.94-1.88-1.45-3.95-.58-.1-.09-.21-.19-.3-.29-.1.11-.18.24-.28.36.02-.19.06-.36.09-.53-.51-.51-1-1.03-1.56-1.49-1.28.06-1.78,2.55-2.22,5.41-1.27.24-2.55.43-3.87.47.02.94.01,1.86.11,2.88v.46c.8.72,2.08-.33,3.48-1.95-.55,3.65-1.24,7.21-3.48,6.73v-4.78c-.59-.51-.91-1.32-.87-2.58-3.91-.2-2.69,4.11-8.27,2.43-.49-1.21.84-2.2,1.84-2.98,2.4-.06,4.82-.13,7.18-.21-.19-10.88,4.77-10.23,8.06-18.06-6.33,1.5-7.54-1.52-9.94-3.48-4.85,6.04-21.17,2.04-27.53,6.78-8.69-.51-5.26,9.65-12.24,10.65v-3.48h-3.98c-8.78,7.86-21.59-6.34-25.83-13.96h-4c-2.48,5.65,6.45-2.16,4,3.48-6.35,1.49-7.57,1.98-9.97,0-4.41,2.51-7.44,2.76-5.95,10.47-6.68,1.76-13.58,3.32-21.79,3.72-1.37-3.15-1.84-7.08-.43-12.65,3.19,0-70.3-2.65-117.62-2.09-.05-.54-.15-1.05-.38-1.48l-1.66,1.5c-22.03.26-37.89.45-36.63.45h3.99c.7,1.02,1.35,2.06,2.04,3.08.72.14,1.48.35,2.21.52l-21.78.6-31.23-3.47c2.35.63,4.51,1.36,6.58,2.13-3.56-.43-6.84-.03-9.49,2.27l-8.11.23c-.17-.04-.28-.1-.49-.12.04.05.06.09.1.13l-6.52.18c.13-.92.27-1.82.29-2.8l-8.07-1.3s.03.05.04.07c.5.39.95.83,1.36,1.32l-.54.33c-.26-.55-.53-1.1-.82-1.64-.03-.02-.06-.05-.09-.08h.05c-.27-.49-.57-.97-.9-1.44l.58,3.88-2.13,1.3-20.23-7.76c3.35,2.71,6.23,5.65,9.67,8.32.04.14.1.25.13.38l-7.58.21c3.02.7,5.83,1.49,8.56,2.34.13.28.2.58.33.85l-10.83.14c-.17-.25-.21-.57-.39-.8l-17.35-2.11c1.27,1.05,2.71,2.07,4.21,3.1l-5.38.06c-.13-.15-.28-.3-.39-.46h-.4c.05.17.17.31.28.47l-3.61.05c0,.93-.63,2.04-2.67,3.55,3.9.88,6.69.31,8.54-1.56,2.4,2.5,5.43,4.71,8.35,6.97-1.94,1.97-7.89,2.06-5.27,6.19-.66.61-1.41,1.21-2.44,1.49.62.5,1.21,1.13,1.71,1.68,1.05,1.2,1.57,1.91.71-.28.17-.07.33-.14.5-.2,2.18-.86,3.89-1.87,4.46-2.79-.05-.06-.09-.08-.13-.14,1.82-.53,3.56-1.32,4.87-2.23,2.41,2.26,4.41,4.71,5.32,7.67.55-.71.93-1.41,1.23-2.08,7.71-.27,6.68,2.8,10.24,1.71h-.01c.07-.06.12-.11.17-.16h.23c.41-.15.83-.3,1.39-.56.17.19.34.37.51.56h3.33c-.77-.7-1.46-1.29-2.12-1.84-.26-.21-.5-.33-.76-.53,4.48-4.05,8.93-8.12,11.88-13.04,1.73.63,3.48,1.26,5.24,1.87-.15.62-.13,1.28.17,2.02,1.57-.14,2.9-.35,4.19-.56,2.34.75,4.77,1.46,7.29,2.13-5.91,1.37-9.1,2.67-10.97,3.86-1.44-.7-3.65-.98-7.24-.47-1.18.16-2.46.38-3.95.73v5.57c.55-.03.94-.09,1.41-.14,1.45.93,4.18,1.52,5.15,2.58-3.85.2-8.22-.14-13.49-1.43-.9.59-2.18,1.39-3.6,2.32.16,4.06,2.54,6.64,5.82,8,3.01-.35,6.87-.89,9.55-.86-.13.64-.4,1.23-.6,1.85,3.54-.46,6.93-1.79,9.16-3.83-.89,2.31-.88,3.82-.45,4.97-2.35.74-4.4,1.92-5.91,3.82,3.6.49,7.1.87,10.35.9.51.74.88,1.62.79,2.88,5.4,1.52,18.61-3.77,16.68,4.19,5.32-4.86,18.31-5.95,22.51.29,2.04.58,2.99,1.93,1.54,4.95-.62-.16-1.04-.18-1.55-.26.29-.11.6-.15.88-.28-.02-.02-.04-.04-.06-.06-.58.06-1.07.13-1.63.19-1.51-.18-2.54-.02-3.22.36-.3.03-.65.07-.94.11.15.06.3.14.46.21-1.85,1.59-1.01,5.08-4.6,5.45-.06.13-.2.19-.28.31-1.33.36-2.73.7-4.15,1.03-.84-.14-1.62-.35-2.33-.62.52-2.53,4.38-3.52,3.93-6.51-13.23,2.4-9.73-3.12-16.19-3.92-1.11-.57-2.34-1.03-3.88-1.22.49-3.55-9.08-4.3-16.58-5.63.11,1.16.48,2.12,1.02,2.95-.48.04-.79-.01-1.34.06,1.29,2.08-.52,5.62-.51,8.3.07.11.18.2.26.31-.1,0-.16-.03-.24-.04.13,2.34,1.85,3.92,8.72,3.06-.15-.21-.13-.51-.21-.76,3.15-.12,5.65.32,4.13,4.3-.59-.02-1.11-.01-1.7-.03-.48-.11-.95-.18-1.44-.41-.01.15-.01.25-.04.38-2.84-.08-5.71-.15-8.35-.15-1.89-.8-4.32-1.37-8.05-1.3v1.4c-.23,0-.45.01-.68.02-.06.51-.83,1.26-2.11,2.19,5.3,1.54,6.49,5.03,6.35,9.13-4.76-1.28-6.54-4.56-8.79-7.51-2.18,1.36-4.99,2.93-8.05,4.61,1.89.52,3.85.99,3.07,3.3-4.65,1.22-5.19-.32-5.83-1.8-2.1,1.14-4.24,2.29-6.37,3.45.12.16.28.3.39.46-.19-.11-.44-.21-.65-.32-1.65.9-3.27,1.8-4.82,2.68.22.48.45.96.48,1.58-1.13.09-2.11.09-3.1.08-.48.33-1.2.69-2.01,1.06-5.62,3.47-8.69,6.15-5.1,6.71-.79,5.24-8.69,6.25-15.69,7.8-.46-2.11,8.35-7.65,18.81-13.66-3.47,1.42-7.95,2.98-10.12,4.3.16-.85.48-1.56.88-2.2-1.16.56-2.44.99-3.94,1.25,5.37-4.83,3.85-6.91,1.08-9.41-1.21-.38-2.47-.72-3.91-.95.91,0,1.87-.02,2.82-.04-.07-.06-.13-.11-.21-.18.62-.9,1.43-1.72,2.16-2.58.67.91,1.29,1.86,2.07,2.67,7.18-.17,13.97-.08,15.74,3.4,1.56-.88,3.11-1.76,4.66-2.62-8.19-4.11-26.97-1.12-28.22-9.9,12.93.95,23.88,3.23,28.56,9.71,2.17-1.22,4.32-2.42,6.34-3.57-.59-1.3-1.45-2.42-5.62-1.33-3.83-5.77,9.15-1.53,5.33-7.3-1.6-.28-3.58-.31-5.73-.22,1.88-.08,3.71-.16,5.63-.24,2.48-1.14,5.34-1.11,8.51-.6.02-.89.04-1.79.18-2.63-5.55-1.93-10.57-4.22-14.85-7.02,2.17,3.93.98,5.85-1.92,6.76.06,1.38-.38,2.7-1.56,3.9.76-.04,1.57-.07,2.33-.1-2.29.14-4.72.36-7.1.56v-2.81h-11.41c.51,1.24,1.56,2.22,2.95,3.05-3.34-.26-5.65-1.21-5.72-3.67-1.63.61-3.16,1.27-4.43,2.09h3.49c-.34.3-.7.6-1.02.91-1.09-.07-2.18-.19-3.27-.29-.74.59-1.4,1.23-1.83,2.02.4-.83.59-1.51.68-2.13-.27-.02-.54-.04-.79-.06.27-.05.55-.1.82-.15.24-2.44-1.71-3.41-3.63-4.41-.03.21.04.36,0,.56-16.38-.7-19.43,1.32-11.02,7.41-3.82.06-7.62.13-11.4.19.78-7.35-6.77-9.13-9.32-14.26-9.13-.21-12.16,3.22-13.88,7.45,9.34,2.06,1.88-5.87,11.22-3.79.19,3.6.38,7.2.56,10.8-2.68.4-4.87.45-6.78.32,1.38,6.41-9.33,5.62-13.89,8.51,5.39.71,20.38,10.72,11.86,8.81-5.45-2.55-7.94-7.1-17.46-6.91,10.69-7.35-2.69-7.2-6.45-14.32,1.06-.22,2.04-.35,2.98-.41,3.23-1.69,7.8-4.61,12.71-7.83-13.95.15-11.51-5.44-21.89.38-.27-3.19-3.49-4.4-6.63-5.67-1.05,4.21,1.38,6.08,4.39,7.57,1.65,1.97,3.36,3.7,3.17,1.86.32.02.55.02.83.03,3.01,1.52,5.35,3.49,4.02,7.92-11.4-1.03-11.95-9.37-23.36-10.42.99-3.87,5.32-22.43,11.16-23.41-1.83-.76-4.41-16.89-5.43-18.18,6.49,2,10.83.71,17.08-.11,4.17,1.64,7.11,3.25,6.67-.51,1.46-.02,3.04.01,4.74.14v-.06c.06.08.08,1.2.1,2.96-5.72.16-11.39.4-14.84,3.65-2.07-.56-4.29-1.38-7.55-2.66-4.07,5.04,7.54,2.66,5.73,6.62-1.99-.6-4.44-1.13-6.51-1.36,1.83,2.33,5.01,6.29,4.74,3.82,7.72.38,6.15-1.03,2.33-2.27,7.01,1.07,3.48-2.83,7.83-3.02-2.21-.22-3.9-.51-5.61-.91,5.01-.16,10.11-.16,13.88-1.97-.05,9.28-.61,28.84-1.83,30.79.74-.11,1.33-.26,1.96-.39.52,2.52,6.35,1.47,6.02,4.56,7.79-5.13,16.23-10.81,21.36-13.45,1.54-.09-6.05-23.37-4.23-23.97.15,0,.24.03.4.04v-.16c2.8-.96,5.79-2.31,8.63-3.6.11-1.87.57-3.62,1.34-5.24-4.17.11-9.06,2.35-13.41,2.68.27-2.32,1.33-5.03-5.68-3.92,1.08,1.34.56,1.92-.5,2.26-.18-.14-.38-.26-.56-.43-.05.25-.06.42-.09.64-2.57.48-6.77.19-4.56,2.93h5.52c1.24.42,3.69.33,8.13.83-.07.07-.16.14-.22.21-.55-.09-1.15-.2-1.63-.26-1.77.21-3.62.28-5.5.33.87.46,1.32.88,1.68,1.27-1.24.1-2.39.24-3.56.37.37-.65.87-1.25,1.79-1.64-2.49.07-5.04.13-7.58.31,1.04-4.1-3.95-9.36-3.22-12.28-.02-.01-.05-.01-.07-.02,7.4-.93,1.57,4.39,10.36,2.81.49-3.82-9.65-2.63-5.71-8.08-8.25-1.32-5.33,2.66-5.68,5.1-3.24.23-6.15,8.09-6.21,3.2-8.24.79.41,5.02,2.67,6.15-.99.59-2.06,1.05-3.18,1.45-1.96-.68-4.39.38-6.97,1.42.65-1.4.9-2.66.95-3.81.48-.61.95-1.22,1.43-1.83-.59-.16-1.1-.23-1.61-.31-.12-.53-.27-1.03-.46-1.5-1.48-3.7-4.58-5.56-.34-6.38-1.24-6.73-5.05,1.05-11.41,0,6,1.68,6.17,3.89,5.66,6.13-.23,1.04-.51,2.08-.5,3.1-8.16.41-15.05-.29-21.25-1.59.74-.69,1.34-1.45,1.67-2.34.55-1.53.61-3.3.16-5.3-1.88.31-3.29.38-4.54.38v-.02h-.95c-1.88-.11-3.16-.51-4.18-1.02,1.35-.47,2.6-.95,3.46-1.38-2.9-.69-5.24-.63-7.4-.31-.93-.23-1.99-.39-3.5-.35.02.38.17.7.34,1.01-1.33.36-2.65.73-4,1.06-.55-.56-1.01-1.03-1.39-1.42l1.05,1.5c-1.96.44-4.04.73-6.51.48.39.5.96.85,1.61,1.14-.18.53-.22.96-.26,1.4l-10.8-7.13c-8.06-.13-6.5,4.29-5.57,8.41-2,.66-3.76,1.64-5.39,2.81,3.15,2,6.83,2.96,10.71,3.15.73,1.2.68,2.76,5.96,1.81-1.06-.52-1.9-1.15-2.63-1.83,3.71-.24,7.49-1.15,11.08-2.58,1.34.88,2.51,1.87,2.35,3.8-2.71.11-4.11-.7-5.33-1.62-.1.51-.22.98-.44,1.37.1.19.24.35.34.55-.29.03-.52.03-.79.05-1.06,1.28-2.67,2.07-3.96,3.13-2.29-.14-4.46-.07-6.39.96,1.63.88,3.82,1.68,6.32,2.39-.43.36-.95,13.17-1.55,22.76-2.94.12-4.57-.36-5.16-1.35-2.98-1.72-1.63.95-.44,4.41-1.08.03-1.99-.06-2.82-.13.15-.08.24-.17.4-.24-.44.06-.83.13-1.24.19-.8-.03-1.6.01-2.49.32-.55-.2-.66-.06-.51.24-5.11,1.17-8.3,3.24-7.17,7.35,3.29-.21,5-1.17,6.17-2.39-.01.05,0,.08-.01.11.21.04.34.04.54.06-.12-.11-.19-.29-.28-.43.88-1.01,1.46-2.15,2.26-3.2,1.37,1.09,3.52,2.41,6.24,3.4-.02.91-.19,1.75-.65,2.44,1.87.14,3.16,0,4.11-.29.68.51,1.05,1.28.71,2.69-2.05.11-2.93-.82-3.82-1.73-1.65.36-3.22.36-4.28-.27-.24-.5-.24-.88-.24-1.24-.49.07-.98.14-1.6.33-2.04,4.71,5.37,1.1,3.3,5.81-3.61-4.14-9.66-.26-16.1,2.16,2.39,1.11.18,5.51,1.37,7.12.51.08.91.27,1.26.58.37.02.79,0,1.33-.11.01.67-.29.95-.79,1.07.06.2.15.36.16.61,1.23-.41,2.83-1.07,5.4-2.06-1.3,2.48-.23,3.3,1.65,3.54,3.04-5.25,8.4-8.45,19.01-7.07v5.82c-6-5.4-12.6-1.97-17.6,1.35,4.02.06,9.62-.98,7.22,3.58h-17.74c-.8,1.95-3.6,5.05-4.95,8.03,4.37.58,8.29.85,18.12,1.62.02.48.06.97.07,1.45.59,1.03.41,1.87.15,2.68.04.88.1,1.75.13,2.63,3.52,1.46,6.82,3.08,9.38,5.22-6.82.22-10.97-1.42-14.89-3.25-4.69,1.15-8.34,2.56-4.12,5.89-7.78.38-4-4.16-2.13-8.58-1.4-.51-2.89-.98-4.61-1.27-1.11,4.02-4.52,6.42-10.26,7.2-2.01,2.68-5.93,3.87-11.69,4.04-2.55-3.92-1.1-6.83,4.24-8.81,1.38-2.38,4.32-3.65,7.85-4.52-.12-.28-.28-.56-.46-.8-.85.06-1.79.24-2.89.61.24-.68.91-1.27,1.71-1.82-2.82-2.12-7.74-2.82-9.8-5.45,3.38.58,6.08,1.04,8.43,1.44.58-3.52,5.4-.79,8.02-4.17-3.01-.96-4.61-1.61-5.35-2.15h-.07s-.01-.05-.04-.09c-.05-.05-.05-.09-.1-.14-.85,2.55-7.1.37-10,1.12-1.55-5.18,6.28-2.14,9.77-2.88.22-.95,1.26-1.3,2.51-1.53.66-.8,1.24-1.83,1.32-3.25.49.31,1.18.36,1.95.34-.11-.26-.09-.46-.26-.78.66.27,1.16.46,1.71.68.44-.06.89-.15,1.35-.24-.96-3.45-1.87-3.65-1.65-6.2-3.51.5-6.99-.18-10.06-3.6h16.55c-.45-1.81-2-2.67-4.11-3.05-3.15,1.73-7.58,1.17-12.25,1.99-.01-.57.04-1.11.12-1.65-2.6.18-5.06.24-6.95-.19,1.38,1.25,2.11,2.3,2.47,3.29,1.27,1.59,1.84,3.68,1.32,6.54-.84-.16-1.66-.34-2.44-.56-.34.83-.68,1.71-.95,2.73h12.25c1.56,7.11-14.13,2.12-20.59,3.6v-2.39c-4.49.24-6.99,1.97-11.95-1.59-.62.11-1.12.33-1.63.54,1.34.85,2.76,1.62,3.55,3.15-2.43.4-4.13.95-5.46,1.63,1.84,2.01,3.35,4.25,8.23,4.14-.85,3.06-3.06,5.18-6.61,6.36.27,1.65.6,3.65,2.23,5.56-1.13.23-2.19.51-3.26.83,2.85.87,5.1,2.4,5.52,4.61-10.16-.06-3.36,1.79-11.24,4.47-.87-2.26-2.1-4.08-3.82-5.32-1.32.59-2.69,1.2-4.17,1.84,8.77,2.97,9.91,12.61-.3,16.34,2.24,5.83,3.19-1.08,10.29-1.07,5.27,4.9-4.96,5.99.29,10.91-7.9,1.96-13.14.73-22.25,4.16,6.78-7.92,16.22-19.34,8.01-28.69-.48.19-1.02.38-1.54.57-2.11,2.82-7.24,5.92-11.91,7.13-.68-6.49-.74-6.51-12.47-3.07-.33-4.69,5.26-9.37-8.4-5.7-2.34-3.05,1.89-4.5,5.87-6.01-8.49-.36-14.19,2.17-20.27,3.91,4.08-5.57,11.02-7.87,19.35-9.7-.38-1.45-1.43-2.1-2.96-2.17-.28,0-.56.02-.87.02.31-.03.59-.03.87-.02,9.41-.31,4.36-7.45,5.05-13.01-1.71,1.59-3.48,2.69-5.34,2.93-.38,1.53-.5,2.99.5,3.9-1.79.09-2.84-.23-3.46-.78h-4.35c.04.43.02.87-.11,1.25-3.18.83-6.38,1.66-9.56,2.46,5.43-5.29,4.76-12.1,9.16-17.66-.38-.25-.62-.59-.95-.88-1.67-.28-3.4-.51-5.17-.71-1.87,3.41-2.28,7.16-11.23,8.81.85-1.22,1.19-2.57,1.73-3.87-1.35,1.77-5.65,3.85-9.93,4.14,0,.11.05.18.05.28-10.47.73-13.19-3.97-20.58-5.4,7.73.18,17.14-.83,19.79,2.91.39-.79,1.04-1.52.6-2.51.68-.22,1.33-.33,1.98-.4-5.61-2.24-14.64-2.07-19.68-4.71-3.86.06-7.72.11-11.52.11,1.37-1.28,2.01-2.16,2.35-2.9h-7.51c.37-1.27,1.04-2.31,1.84-3.26-1.11-.27-2.27-.59-3.32-1.1,1.63-4.59,4.78-3.57,8.28-2.04,1.06-.34,2.19-.63,3.49-.8v2.27c.98.36,1.94.6,2.89.68.32-1.25.16-2.17-.28-2.89-1.48-.73-3.41-1.07-4.99-1.72-12.56-.6-14.79,1.46-7.94,7.33h-6.39c1.2.45,2.35.97,3.26,1.69-1.37.36-2.32.8-2.95,1.3-.11-2.07-4.01-.82-3.99-2.99h-.22c.84-5.99-3.43-8.38-6.15-11.85-3.46.5-7.57.43-11.71.35-1.23,1.2-2.07,2.68-2.74,4.29,8.34,2.23,1.98-5.83,10.3-3.61v10.82c-.28.04-.5.03-.78.06,2.13.21,4.46,0,8.34-1.44v5.81c-7.88-.21-11.23-1.32-14.18-1.7-1.73,3.62-8.97,3.38-12.53,5.74,4.83.79,17.89,11.06,10.29,9.01-4.79-2.64-6.82-7.23-15.42-7.2,9.99-7.17-2.1-7.25-5.16-14.42,1.01-.21,1.93-.31,2.81-.36,10.52-5.77,21.14-11.45,31.79-17.13-.62,1.89-.49,3.27.07,4.34,1.57-.09,3.19-.11,4.89-.09-.44-.43-.84-.83-1.32-1.29,2.68,2.47,9.06.53,13.56.84-1.54-5.59,10.01.32,10.06-3.91-3.61-4.46-10.41.45-13.28,1.46v-5.82c-4.56,2.72-7.34,1.37-10.38.84-2.11,1.02-6.97.11-4.78,4.17-7.85-.11-14.64.53-19.84,2.3.15.41.23.86.22,1.42h-3.5c.41,2.66,6.5,1.37,5.12,5.3-13.6.17-10.77-5.78-20.59,0-.09-2.74-2.19-4.07-4.55-5.23-2.01-.13-4.1-.32-5.95-.31-.55.87-1.17,1.67-2.04,2.3-.58-.11-1.19-.19-1.8-.27v1.12c-.57.21-1.26.36-1.91.52.01.68.12,1.45.43,2.39-8.57-.69-6.41,1.74-5.66,4.34.9-.51,1.79-1.04,2.41-1.79-1.19-.88-1.56-1.79.85-2.54.04,1.12-.33,1.9-.85,2.54,2.48,1.79,8.45,3.44,1.57,3.27-4.69-.26,2,9.51-4.96,7.28-2.05,4.7,5.35,1.1,3.32,5.81-.65,4.29-7.24,3.34-9.95,5.82.44,1,.96,1.92,1.49,2.83,1.8.33,3.71.55,5.62.63v-.36c.48.2.99.38,1.43.62-.04.05-.05.06-.1.12-.13,0-.28,0-.43-.01v1.41c-.21.25-.33.42-.51.65,4.68-.28,9.18-2.15,10.89-4.76-.17-.33-.06-.71.6-1.12-.15.39-.35.76-.6,1.12.85,1.72,9.5,2.51,3.16,1.79,2.87,4.62,3.06,3.94.65,7.71.29.28.2.62-.65,1.03.24-.4.44-.7.65-1.03-1.28-1.2-10.93-1.35-14.3-.44.01.37-.06.83-.33,1.47-1.34-.65-.94-1.12.33-1.47-.06-1.35-1.71-1.3-2.88-1.67.58,1,1.13,2.04,1.62,3.14-6.74-.6-8.5,3.2-13.25,4.36.63,4.29,7.24,3.34,9.95,5.82-.94,3.52-1.48,5.15-1.66,6.41.76-.3,2.95-.87,4.6-1.33-.09,0-.2,0-.27-.01-.1.01-.22.03-.33.04v.09c-1.5-.29-1.18-.98-.35-1.81v-4.58c5.06.88,2.3,2.93.35,4.61v1.57c.12.01.26.03.38.04.22-.02.37-.04.54-.06.51-.15.98-.29,1.26-.39.4,0,.76,0,1.24-.01v5.41c-3.15-.2-6.1-.53-5.15-3.61-1.28.18-1.95.23-2.29.23-.21,1.75.35,2.93,1.68,7.95-4.87-.11-4.89-4.45-8.3-5.82-2.93,2.26-6.38,4.08-4.98,10.17-.27,4.12,10.24-1.2,9.95,2.9.05,6.83-10.17,4.66-13.24,8.74-.18,5.01,6.82,3.71,6.62,8.72-11.6-2.92-8.8,6.83-16.57,7.28.15,2.3,4.23,1.14,3.3,4.36h9.94c7.19,1.45,9.19-1.62,13.28-2.91-1.67,4.38,3.67,2.58,6.62,2.91.33,11.38-4.04,9.92,0,18.9-12-1.79-12.81,6.2-23.19,5.82,5.18,5.03.91,6.41-3.33,10.18-.28,3.15,5.89.66,8.3,1.46,2.93-1.79.33-8.44,8.27-5.82-4.33,5.3-2.56,4.81,3.33,7.28-.15.68-.49,1.2-.94,1.62h8.16c.34,1.37.46,2.73.57,4.07.67-.04,1.37-.02,2.15.12-.65.7-1.33,1.45-2.04,2.21.07.48.1.99.26,1.45-.21.57-.48,1.17-.9,1.9h-2.29c-.52.63-1.05,1.27-1.55,1.93.51.29,1.1.6,1.77.93.94.62,1.77,1.3,2.66,2.09.27-.14.55-.27.79-.38,2.74,1.37,4.39,2.47,1.02,2.41-1.79,2.03-4.06,3.89-5.88,5.74,5.1.71,10.67,1.67,11.8,3.33-.09.28-.18.57-.28.85-2.06.58-4.44.93-7.62.72v7.21c2.54.44,3.51-.21,4.22-1.05-.22-.54-.5-1.05-.61-1.65.1-.22.19-.44.3-.66.01-1.05.17-2.19.77-3.55h1.29c.01-.06.04-.13.06-.19.15-.04.34-.06.49-.11-.02.27-.12.54-.38.84h-.33c-.28.8-.61,1.59-.94,2.38.33-.12.71-.21,1.19-.23,5.5,2.17,3.01,4.41.45,6.64.35.97.58,2.01.56,3.19.51.4.87.91,1.06,1.54.91.48,1.04.83.09.98-.05-.29-.11-.57-.18-.85-.44-.21-.94-.43-1.6-.7.07-.29.11-.58.17-.86-.7-.27-1.54-.42-2.89-.21-.18-1.08.8-2.19,2.01-3.28-.46-.89-.9-1.79-1.32-2.7-1.38,2.56-2.91,4.8-4.51,6.33-.24-.19-.46-.38-.71-.61-2.68,1.88-5.39,1.54-7.55-2.48-.72.14-1.61.16-3.1-.24.21-.72.62-1.29.99-1.9-.07-.25-.16-.48-.23-.74-4.21.36-3.8,4.79-10.28,3.18v2.91h3.33c.68,6.41-9.27,3.5-9.95,8.72h3.33c3.4-.88,11.5,2.34,9.93-2.91,4.3,2.06,4.54,2.56,6.83,1.52-.21,0-.34.02-.57.02,1.17-6.98-6.84-4.79-1.72-9.02-2.49,3.27,3.46,6.03,5.16,7.61.1-.04.16-.08.26-.13-.05.13-.04.21-.07.33.34.38.33.68-.19.88-.02.18.01.31.04.46,7.36-10.04,25.2.98,30.8,3.71,5.19-1.77,13.22-3.86,22.18-5.45,0-2.09,1.84-3.74,2.4-5.7-7.18,2.91-14.96,4.55-24.58,2.11,21.74-2.19,29.42-14.23,54.04-14.41-10.79,1.82-19.53,8.24-29.39,12.27,1.87-.26,3.46,2.24,3.55,4.75,14.9-2.11,31.2-2.38,41.29,2.8-5.67-.58-10.71-.71-15.35-.58.16,3.07-1.76,7.29-5.01,8.69-4.54,2.2.44-4.9.32-8.45-5.33.38-10.12,1.15-14.74,2.03.65,4.41,4.15,9.52-2.93,12.03.22-2.56-4.15-7.16-2.5-10.94-10.44,2.2-20.57,4.62-34.43,4.44-.95-7.72-12.83-7.77-25.62-7.22.45,2,4.43.89,6.84,1.16.49,1.26-.55,2.18-2.39,2.91h4.05c-.32,1.22-5.07,2.58-10.68,3.67v5.06c-7.85-1.08-5.34,6.96-9.95,8.73.16,2.29,4.22,1.14,3.33,4.36,1.17.34,2.02.42,2.77.41-.29-1.41-.62-3.05-.96-5,2.96.77,4.46,1.67,5.11,2.66.71-.59,1.55-1.06,3.02-.98-.34,2.39-1.2,4.31-2.38,5.95h.82c.15,2.98-2.29,4.17-4.83,5.26-.5.75-1.16,1.52-2.21,2.48-.12-.63-.15-1.22-.08-1.81.72-.44,1.5-.8,2.3-1.17.1-.33.1-.71.13-1.07-2.98,2.04-6.65,3.47-10.34,4.9.54,3.37-.27,5.59-1.66,7.27h14.92c-2.3,3.31-3.28,7.8-6.62,10.19,2.61,5.32,2.46-3.37,6.62-1.46,1.37,3.65-3.22,12.52,3.32,11.63.27,4.13-5.61,2.84-3.32,8.73,5.35,1.8,1.26-4.71,6.63-2.91-6.19,5.85-12.18,11.88-17.39,18.57.38.08.87.18,1.54.34-.18.18-.26.36-.35.55,2.94,1.2,7.39,2.93,2.95,2.36-.24.86-.13,1.4.11,1.84.6.45,1.23.91,1.9,1.39-.78-.34-1.54-.7-1.9-1.39-2.16-1.64-3.54-3.06-3.06-4.2-.54-.23-1.04-.43-1.43-.6-.74.99-1.54,1.94-2.27,2.96,1.46,3.57,4.96,5.34,3.32,11.64,4.17.25,4.04-3.25,6.63-4.36.72-1.64.56-2.51.07-3.1,4.47,3.1,9.65,6.69,9.88,10.38-3.1.2-5.55.95-6.63,2.9.27.59.54.98.77,1.25.58-.06,1.11-.16,1.66-.26.89-1.25,1.87-3.52,4.21-2.44-.63,1.46-2.27,2.08-4.21,2.44-.51.74-.98,1.1-1.66.26-4.02.44-8.74.28-9.99,3.1-10.28,5-6.63,11.66-4.05,23.28,6.71,2.01,5.26-3.15,9.95-2.91,6.3-2.14.33,6.51,6.63,4.36-3.74,4.96-3.38,13.53-9.94,16.01,2.61,5.31,2.46-3.38,6.62-1.46v5.82c7.68.03-9.25,4.88.73,2.91v5.8c1.79-4.71,11.65-2.39,18.23-2.9-4.04,9.06-24.58,3.65-18.23,21.81-5.95.6-2.63,9.33-9.95,8.73-1.24,7.63,3.07,20.14-3.29,23.27.82.67,1.54,1.43,2.2,2.25.32-.1.66-.22.95-.31.12-.13.24-.26.38-.39ZM1002.44,258.49c.68-3.03,4.18-7.78,3.62-2.22,2.35-.12-1.41,1.36-3.62,2.22-.01.07-.05.14-.05.21-2.26.67-1.45.38.05-.21ZM997.96,226.02c.07.02.13.04.21.06-.32.05-.35,0-.21-.06ZM924.6,98.69h-5.54c.61-2.71,2.45-4.32,5.54-4.85v4.85ZM921.84,91.42h-5.52v-4.85c5.6,1.68,4.37-2.63,8.29-2.42.23,3.43-4.68,2.36-2.77,7.27ZM913.54,56.26v-6.05c3.6.49,3.99,3.77,5.52,6.05h-5.52ZM930.12,50.21c1.96-4.75,7.36-6.46,13.8-7.28-.39,6.11-10.19,3.97-13.8,7.28ZM943.92,50.21c-3.95.96-5.41,4.13-11.05,3.63-.07-4.51,6.15-3.5,11.05-3.63ZM938.41,65.96c-.54,3.57-6.05,2.78-8.29,4.84.99-3.18,3-5.44,8.29-4.84ZM935.65,73.23c-3.93,3.43-9.63,5.29-13.82,8.49v-4.85c7.89,1.68,6.44-4.85,13.82-3.64ZM927.36,152.03c4.13-5.04,6.79,1.58,13.8-2.43,1.04,3.74-4.77,1.48-2.76,6.06-4.05-1.08-4.24-1.08-8.29,0,.48-2.43-.28-3.79-2.76-3.63ZM941.16,202.94c-5.58,1.67-4.36-2.63-8.29-2.43.57-5.69,8.87-.61,8.29,2.43ZM935.65,195.66c1.56-3.47,4.33-5.9,8.27-7.28v4.85c-5.58-1.67-4.37,2.63-8.27,2.43ZM953.59,144.75c-.52,3.57-6.04,2.78-8.29,4.85-.5-2.07,1.1-2.29,2.78-2.43,1.7-3.92-4.48-.92-2.78-4.85,3.94-.2,2.71,4.11,8.29,2.43ZM953.59,135.05v4.84c-4.46,1.5-1.05-3.92-5.51-2.41-1.4-3.65,3.06-2.15,5.51-2.43ZM945.3,202.94c3.08.52,4.94,2.14,5.54,4.85h-6.91c-.18-2.18,1.7-2.56,1.38-4.85ZM953.59,233.24c-2.45-.28-6.91,1.22-5.51-2.43,5.58,1.67,4.37-2.63,8.28-2.42,1.71,3.92-4.48.93-2.77,4.85ZM948.08,225.97c-2.22-4.77,5.96-.42,5.51-3.64-5.05-1.22-6.75-5.37-9.67-8.48,5.51,1.41,7.74,3.72,12.44,0-5.35,4.82,1.12,4.88,2.77,9.69-6.44-1.59-4.63,4.03-11.05,2.43ZM959.12,228.39c-1.39-3.65,3.07-2.15,5.51-2.43v4.85c-4.46,1.5-1.05-3.92-5.51-2.42ZM967.4,202.94c-2.45-.29-6.93,1.21-5.52-2.43,5.58,1.67,4.37-2.63,8.28-2.43,1.71,3.92-4.46.93-2.76,4.86ZM964.64,256.27c-.5-2.06,1.09-2.29,2.77-2.42,1.69-3.92-4.48-.93-2.77-4.84,3.91-.21,2.7,4.09,8.29,2.41-.54,3.58-6.05,2.78-8.29,4.85ZM982.58,205.36v-4.85h5.52c-.6,2.71-2.44,4.31-5.52,4.85ZM999.16,185.97c-6.88-.38-13.28-.36-13.79,4.85-15.5.26-22.27-7.13-40.07-4.85,9.52-6.14,29.42-.91,37.29,2.42,3.02-1.84,12.64-9.3,16.57-2.42ZM982.58,182.33c-12.24,3.88-18.96-7.57-29-9.7,13.22.12,17.34,8.22,29,9.7ZM967.4,162.94c1.3,4.38-5.44,1.69-8.28,2.42-1.32-4.38,5.43-1.69,8.28-2.42ZM977.06,142.32c-5.45-1.26-6.55-6.36-15.18-4.84,3.28,6.22,14.47,11.25,11.05,19.39.22,1.42,2.51,1.03,4.13,1.2v7.28h-6.9c-.23-3.44,4.67-2.36,2.77-7.28-3.39,1.08-5.07,3.65-11.05,2.43-1.04-3.73,4.76-1.47,2.76-6.05,2.46-.16,2.9,1.48,5.52,1.2-3.24-6.44-9.96-9.83-13.8-15.76,4.46-1.49,1.05,3.93,5.52,2.43-.98-3.55-4.63-3.57,0-6.05-2.34-3.2-7.24-4.15-11.05-6.07-5.13,1.56-8.63,4.54-15.18,4.85,1.69-3.92-4.48-.93-2.78-4.85,4.27-.91,1.7,4.18,6.91,2.42.77-2.95,7.04-1.1,5.51-6.06-5.22-1.75-2.65,3.33-6.89,2.43,1.69-3.92-4.46-.93-2.76-4.86,3.62,1.29,6.21,4.64,5.51-2.42,3.65-.37,3.56,2.53,4.13,4.85,4.48,1.5,1.06-3.92,5.54-2.43,1.06,6.75,13,3.94,16.57,8.49.43-3.2-2.89-3.12-5.52-3.63-.77-2.69,2.63-1.72,2.76-3.63-7.07-5.1-18.52-6.36-20.72-15.76,2.07,3.43,9.71,1.98,12.44,4.85.15-4.18-5.68-3.09-5.52-7.27,4.76-.14,3.52,4.98,8.29,4.85,2.18,12.62,12.61,18.01,17.94,27.87,4.48,1.5,1.06-3.92,5.52-2.41-.6,2.7-2.44,4.32-5.52,4.84ZM961.88,63.54c3.07.53,4.93,2.15,5.52,4.86-6.43-1.6-4.63,4.02-11.05,2.41-.6-4.56,8.73-.42,5.52-7.27ZM967.4,76.87c-1.71,3.92,4.46.93,2.76,4.85-3.29-2.77-9.78-2.73-16.57-2.42-.19-5.03,9.62-1.27,13.82-2.43ZM990.88,104.75c.84,4.78-7.58,1.42-11.05,2.43.22-1.42-.3-2.16-1.39-2.43-3.1-2.24,7.78,1.26,12.44,0ZM982.58,103.53c.98-3.18,3-5.45,8.29-4.84-.52,3.57-6.02,2.78-8.29,4.84ZM977.06,84.15c.52-2.06-1.06-2.29-2.76-2.43-.84-4.78,7.57-1.42,11.06-2.42-.55,3.57-6.05,2.78-8.3,4.85ZM974.31,124.14c-.24-.56-.29-.95-.27-1.27-.52-2.24-1.28-3.26-3.88-6,5.22-1.75,2.65,3.33,6.9,2.43,1.45,3.36-2.83,1.67-3.02,3.57.09.38.18.79.27,1.27ZM982.58,50.21c-4.62-.01-5.71,3.07-8.28,4.85-4.08,1.37,2.93-5.52,5.52-6.06-2.37-1.97-7.93-1.13-6.9-6.07,4.43,6.44,4.71-4.47,12.44-2.43-1.66,4.83-8.13,4.88-2.78,9.7ZM972.93,93.84c-2.82-2.38-5.59-4.8-8.29-7.28,5.96-.38,8.73,2.04,8.29,7.28ZM948.08,42.93v-4.86c3.07.53,4.91,2.15,5.51,4.86h-5.51ZM1000.39,148.63c-.24-.41-.51-.89-.77-1.46h1c-.12.49-.16.98-.23,1.46ZM1002.52,135.05c-2.38,3.55,7.78,7.63.94,7.27,2.76-3.24-4.63-4.86-.94-7.27ZM1002.39,139.9c-9.3,1.83-13-2.75-14.28,0-6.9-.52,1.09-2.13,0-4.84,3.94,5.84,10.72-1.32,14.28,4.84ZM993.64,130.21c1.3,4.38-5.45,1.69-8.28,2.42-1.32-4.38,5.43-1.69,8.28-2.42ZM999.16,121.72c.74,6.32-3.84,7.95-11.05,7.28,1.91-4.91-3-3.83-2.74-7.28,4.02.09,4.05,3.7,6.89,4.85,5.05-1.9-3.21-1.81-1.38-4.85,4.77,2.29,3.52,2.29,8.28,0ZM1001.46,95.38v.76c2.15.33,4.52.27,5.51,2.56h-5.05c3.84-.22.13,4.06.93,5.57-.87-.56-2.18-.56-3.69.48-1.21.68-1.05-6.56,2.3-6.14v-2.47c-.73-.11-1.41-.29-2.02-.59-2.04-.04-3.98-.6-1.65-1.7.37.87.95,1.36,1.65,1.7.73.01,1.46-.05,2.02-.17v-1.53c1.63.78,1.13,1.28,0,1.53ZM1001.92,81.72c.51,2.06-1.08,2.29-2.77,2.43-1.7,3.92,4.47.93,2.77,4.85-4.85-.21-10.35-1-8.28,4.85h-13.82c2.2-5.75,13.91-3.14,16.57-8.49-2.71-4.2-5.52,1.48-8.29,1.21-1.69-3.92,4.48-.93,2.77-4.85h11.05ZM1001.13,67.32c-2.85-4.5-18.86.19-17.16-7.51,7.41,1.32,16.16,1.71,17.16,7.51ZM964.64,19.9c5.01,4.45,6.1-1.65,15.19,0v4.85c6.73-.81,9.16,2.14,13.82,0-1.32,2.49-5.45,2.51-5.54,6.07-5.27-3.88-3.74.12-11.05,0-.76-2.69,2.65-1.73,2.77-3.65-2.88-1.91-7.27-2.51-12.43-2.42,1.69-3.92-4.48-.93-2.77-4.85ZM964.64,25.97c6.01,4.02,12.02,8.03,17.95,12.11-8.02-1.79-7.69,3.76-15.18,2.43v-7.27c4.46-1.5,1.05,3.92,5.52,2.43-.94-2.82-2.5-5.09-6.91-4.85-1.1,3.47-4.68,4.76-4.13,9.69h-5.52c3.91-4.18,2.39-5.51-5.52-4.84-1.41-8.51,16.25-.27,13.8-9.7ZM948.08,33.23c.23,3.44-4.67,2.36-2.78,7.27-1.61-3.82-7.93-3.53-9.65-7.27,7,.11,7.19,4.2,12.43,0ZM927.36,22.74c-2.52,7.06,6.04,14.89,11.05,15.34.18,5.03-9.61,1.27-13.8,2.43-1.72,3.93,4.46.93,2.76,4.85-4.48-1.5-1.06,3.93-5.52,2.43-.76-2.68,2.63-1.73,2.77-3.63-1.35-1.25-2.74-2.46-4.15-3.65-1.95,2.33-2.22,6.14-5.54,7.28-2.23-2.07-7.74-1.28-8.28-4.85,8.32-1.99,15.67-15.34,20.72-20.19ZM898.36,147.17c-5.29.61-7.3-1.67-8.28-4.85,5.59,1.68,4.35-2.63,8.28-2.43.5,2.07-1.07,2.29-2.76,2.43-1.72,3.93,4.46.93,2.76,4.85ZM890.08,68.39h11.04v2.41c-3.46-1-11.89,2.36-11.04-2.41ZM463.45,12.88s.04-.07.06-.09c.01,0,.04.01.06.01l-.12.08ZM494.73,27.18v-3.89c.74.19,1.44.41,2.19.58.5.92,1.05,1.79,1.83,2.55-.88.48-2.59.55-4.02.76ZM510.07,8.15l-1.63.04c-.23-.31-.46-.63-.68-.95.77.31,1.56.59,2.32.91ZM503.22,26.07c.12-.14.2-.31.31-.46.84,1.4,2.89,2.14,7.43,1.47-.67-1.3-.41-3.14-.09-5.01.2-.09.43-.15.6-.23.5,0,.99-.05,1.46-.15,1.07.16,2.05.3,2.98.43.01.14,0,.26.01.41-.44,1.03-1.17,2.21-2.27,3.92,1.27-.24,2.22-.31,3.17-.4.15.44.15.82.33,1.29.51-.14.87-.3,1.3-.45.02.04.07.08.09.13-4.89,1.96-9.91,2.1-15.32-.97ZM511.99,154.51h-9.54c-2.4-6.29,5.33-3.7,9.54-4.17,2.96-6.79-7.72-1.61-4.79-8.39,5.34.9,8.52,3.7,9.57,8.39-4.06-.79-4.5,1.62-4.78,4.17ZM531.08,206.87c1.6-4.86,4.3-8.8,11.94-8.37-.96,5.44-7.44,6.06-11.94,8.37ZM561.94,115.3c14.4,4.62,10.73,4.7,24.62-.43-5.8,11.06,22.77-.95,16.96,10.1-16.42.27-32.84.56-49.26.83-5.52-8.32,13.18-2.21,7.68-10.51ZM571.65,53.97c3.06,1.59,6.29,3.05,8.93,5.02-.4.14-.77.31-1.21.46-2.88-2.23-4.77-3.03-6.49-3.15-.56-.77-1-1.54-1.23-2.32ZM599.74,93.8h14.34v10.39c-7.77,1.21-12.6.38-14.57-2.42.16-2.7,1.66-6.02.23-7.97ZM557.35,140.27c.13,2.49.26,5,.38,7.5,6.55-6.63,18.24-8.26,4.27-16.77,14.38,8.25,37.39,10.69,50.32,19.91-20.05.92-26.08-7.55-41.58-9.69-1.49,5.84-6.77,9.38-15.88,10.67.18-.44.43-.84.66-1.24-5.74.31-7.36,3.05-13.93,2.87-1.26-8.29,6.3-11.33,15.75-13.25ZM557.32,225.72c-8.61,1.99-3.33-8.24-4.76-12.57,7.71,2.59,1.8-6.78,9.52-4.19-2.09,5.14-7.15,7.7-4.77,16.76ZM571.65,194.31c-4.06,3.4-2.52,11.76-9.56,12.56-1.17-8,3.3-11.08,9.56-12.56ZM535.86,150.34c5.57-4.19,2.68-15.81,11.93-16.77-.02,9.06-5.18,13.59-11.93,16.77ZM545.51,264.18v-10.39c14.72,5.26,24.48,13.99,33.35,23.36-14.74-1.8-12.4-15.55-33.35-12.97ZM593.02,378.6s.06.04.09.04c-.04.26-.06.19-.09-.04ZM594.85,276.54c.04-.11.06-.08.07.05-.04,0-.05-.06-.07-.05ZM613.14,185.18c-5.66,3.62-2.98,12.2-13,13.21-2.13-8.24,4.1-11.51,13-13.21ZM600.95,214.1c-.22-4.34-.44-8.66-.66-12.98,4.55-.09,9.11-.16,13.67-.24,2.12,8.25-4.11,11.52-13.01,13.21ZM624.68,73.6c.84.86,1.37,1.93,1.3,3.39-11.62.65-8.45-8.64-24.89-4.78.23-.97.76-1.78,1.21-2.63,2.4-.88,4.82-1.76,7.24-2.63l-3.12-1.89c2.63-1.69,6.12-2.88,10.54-3.5-3.4,7.01,1.79,8.27,5.6,10.46v-5.7h7.95c1.39,5.33-.57,7.75-5.83,7.27ZM637.82,56.15c3.61-4.14,4.29-10.02,13.13-11.04.11,2.15.22,4.32.33,6.48-11.21-2.48-2.24,7.03-13.46,4.56ZM664.31,207.71c-11.23-1.73-9.97,7.52-17.89,8.72,4.76-6.3,9.99-12.17,17.89-15.71v6.99ZM651.14,133.16c-.99-4.06,3.62-4.83,2.99-8.7,10.18-.22,20.85-.16,20.19-6.83,8.56-.51,8.55,4.7,14.02,6.25-15.69-4.54-25.53,5.26-37.2,9.28ZM674.7,53.01c8.07.84,8.62,6.95,21.62,4.34-.62,4.09,2.08,21.37-3.08,15.15v-10.83c-11.82,1.07-16.34-2.98-18.53-8.66ZM717.02,60.11c-2.45,6.4-20.58,12.43-7.82,18.73.54.2,1.08.44,1.64.74-.6-.25-1.13-.5-1.64-.74-7.14-2.67-12.86,2.69-16.89-1.41h6.17c-.89-10.72,9.47-13.56,18.53-17.31ZM714.03,36.65v-6.97h7.95c1.54,5.99-1.11,8.34-7.95,6.97ZM690.56,331.56c9.88-.42,13.36,3.63,15.45,8.66-5.84-2.41-14.19-3.04-15.45-8.66ZM710.05,120.43c5.71,1.99,9.67,5.48,11.94,10.47h-7.95c2.74-7.06-4.32-5.52-3.99-10.47ZM730.15,206.74c2.93-8.87-2.76-11.73-5.68-16.5-7.07-1.75-5.79-9.35-10.69-12.61,7.55,1.43,13,4.33,12.5,11.39,6.4-.55.99,7.18,10.05,4.75-1.87,4.46,5,15.02-6.17,12.97ZM738.52,50.29c2.06.97,3.74,1.67,5.27,2.24,1.28-.02,2.56-.04,3.84-.06.01.36.04.72.05,1.08,3.6.49,6.73-.57,12.46-3.25.52,6.13-10.45,4.22-6.18,12.97-2.41-.41-4.3-1.2-5.89-2.21v.06c-11.68,1.88-16.4-.93-14.12-8.42,2.15-.04,4.29-.07,6.44-.11-.58-.79-1.19-1.57-1.87-2.29ZM754.49,143.93c-8.72-3.25-15.41-7.95-15.44-17.3,11.95.99,8.21,12.99,15.44,17.3ZM758.6,142.64c.9,6.11-11.35,4.41-6.17,13.08-4.56.08-9.13.16-13.69.23,3.59-6.25,10.21-10.69,19.86-13.31ZM744.15,181.53c9.9-.43,13.36,3.63,15.45,8.66-5.83-2.41-14.19-3.03-15.45-8.66ZM759.76,99.48c3.13-1.32,2.98-5.53,7.95-5.23-.2,5.4,6.01,5.2,11.94,5.23-.26,3.13,2.44,3.68,1.98,6.98-6.89-3.08-12.89-10.86-21.86-6.98ZM778.17,108.06c7.73-.38,7.49,4.83,12.35,6.48-12.5-2.98-9.75,4.7-18.53,4.34-2.32-6.66,10.66-2.64,6.18-10.81ZM785.01,174.57c-.44-.46-.44-.51.11-.01-.05,0-.06.01-.11.01ZM790.45,146.99h-12.36c-.35-2.63-.91-5.11-6.17-4.32,1.35-4.83,5.46-7.71,12.36-8.65,3.82,7-10.01,1.65-6.19,8.65,5.47.48,15.47-2.18,12.36,4.32ZM792.22,128.32c2.15-6.51-2.39-8.34-4.28-12.02h8.57c-1.77,3.77,4.17,12.94-4.29,12.02ZM795.04,74.13c.34.29.71.58,1.15.9-4.79-.66-7.66-2.66-8.58-6.02,2.17.06,3.5-.48,4.54-1.22-.9.08-2.08,0-3.74-.37-.15-2.88-.29-5.77-.44-8.64,6.1.38,17.02-2.48,13.91,4.07-5.19-1.15-6.05.29-6.6,1.91,1.11-1.02,2.55-1.81,5.2-1.75-1.06,2.49-3.43,3.95-5.22,5.25,2.28-.04,4.56-.08,6.84-.11.11,2,.21,4.02.32,6.01-3.24.52-5.67.5-7.37-.01ZM821.39,186.76c-5.21-1.24-8.93-3.79-7.94-10.48h7.94v10.48ZM821.39,171.06c-5.84-.68-4.56-7.65-7.94-10.47,5.22,1.23,8.93,3.79,7.94,10.47ZM823.85,229.87c-.16-2.9-.31-5.76-.45-8.66.98.3,1.56.26,1.87,0,2.8,4.75,3.04,8.09-1.41,8.66ZM834.85,75.66c4.21-4.4,11.88-5.73,16.56-9.7-5.35,4.82,1.13,4.88,2.78,9.7-3.1-.53-4.93-2.14-5.52-4.86-5.17,1.13-7.06,5.13-13.82,4.86ZM840.22,85.24c8.86.8,17.84,1.53,19.29,7.52-5.1-2.5-20.24-5.78-19.29-7.52ZM861.08,76.87c-2.47.16-2.91-1.48-5.52-1.21v-4.86c3.22.83,5.8,2.19,5.52,6.07ZM883.17,53.84c-1.65,4.82-8.12,4.87-2.77,9.7-3.08-.53-4.93-2.14-5.51-4.85,4.76.14,3.51-4.98,8.28-4.85ZM869.36,63.54c-1.9,4.91,3,3.83,2.77,7.27-4.48,1.51-1.05-3.92-5.52-2.41.32-2.15-1.39-6.07,2.76-4.86ZM855.55,53.84h11.05v2.42c-3.46-1-11.88,2.36-11.05-2.42ZM843.13,56.26c4.77,2.29,3.52,2.29,8.28,0-1.71,3.92,4.48.93,2.78,4.86h-16.58c-2.13-5.11,7.67.26,5.52-4.86ZM829.32,15.46c3.08.53,4.91,2.14,5.52,4.86-5.59-1.69-4.38,2.62-8.29,2.42-.23-3.44,4.67-2.37,2.77-7.28ZM816.44,61.31c-1.48-.41-2.89-.74-4.02-.61-3.07-4.69,15.95-4.69,12.86,0-1.29,2.51-4.27,1.89-7.26,1.05-3.1,3.51-9.05,5.03-16.61,5.42,2.66-3.6,8.06-5.28,15.02-5.86ZM808.59,28.75c.24,2.31-1.66,3.35-3.77,4.26-1.28-.63-2.61-1.06,3.77-4.26ZM789.61,29.67c-6.46,2.15-1.54-5.65-7.99-3.5v-4.76c.66.07,1.38.14,2.15.19,3.22,1.57,3.98,5.3,5.84,8.07ZM781.62,6.98c-.34-.06-.62-.07-.93-.11.54-.74,1.05-1.35.93.11ZM624.02,9.3c-.99,1.25-1.95,2.51-2.94,3.76,2.94-.27,5.02.21,6.26,1.43,6.15-.84,12.3-1.52,15.5,2.81-.93.48-1.87.93-2.84,1.35-.71,5.89,9.78,1.95,14.43,3.14h4.79c1.67,0,3.24.06,4.84.11-.1.14-.22.26-.32.39,1.22,1.4,2.39,2.83,3.35,4.46-2.15-.17-4.18-.44-4.77-1.99-.96,2.21-1.19,4.85.35,8.55,6.8.73,11.15,3.1,13.28,6.95.83-.12,1.56-.31,2.33-.46-.51-.03-1.15.05-2.04.35-2-5.25,4.43-3.1,7.97-3.5v1.56c5.55-1.98,9.58-4.86,13.33-7.92-.02.1-.02.21-.06.32,1.33-.1,1.78-.97,2.09-1.96.98-.83,1.94-1.66,2.91-2.48-.15-.23-.22-.41-.33-.62.61-.01,1.35.11,2.35.44-.22.94-.19,1.64.02,2.2.38-.88.85-1.7,1.41-2.48-.93-1.08-1.88-2.14-2.77-3.26,2.9-1.06,8.78-.35,5.72-4.98,3.43-.06,6.84-.11,10.25-.17,8.86,4.51,16.88,9.57,21.44,16.95,14.89-.07,28.84.51,40.93,2.32.35.53,2.49,1.02,5.35,1.47-.26-.25-.59-.46-.8-.74,2.44.45,4.76.97,7,1.54,1.96.22,3.94.43,5.78.61.99-.56,1.85-1.07,2.6-1.54,4.23-.15,9.62-1.1,7.77,2.84-3.05.18-6.04.31-8.82.31.74.26,1.51.49,2.22.78-11.8-.05-8.28,9.04-20.1,8.99-4.57-6.92,11-1.84,6.4-8.76-24.05,1.97-41.57-.45-58.38-3.34,2.06-9.58-3.36-14.14-11.16-17.12-3.24,2.05-5.18,4.88-11.71,4.98-6.22,6.6-14.86,13.71-23.46,15.78v1.25c-2.35.78-3.18.24-3.61-.67-1.26.09-2.51.08-3.74-.11.06,1.07.11,2.14.17,3.2-12.82-1.12-6.11-15.29-24.63-12.56-.49-2.96,2.06-4.12,2.87-6.31-.62.04-1.43-.06-2.51-.43-2.55-1.99-5.6-3.52-9-4.75-2.29-.21-4.67-.36-7.16-.45-2.43,2.48-6.99,3.1-12.27,3.08.52-.21,1.05-.45,1.57-.65-.61-.68-1.44-1.4-2.51-2.2-2.11.63-3.28.43-3.99-.19-.87.19-1.72.39-2.77.54-1.83-2.69-.3-3.51,1.84-3.95.07-1.61.35-3.4.15-4.77.45-.09.83-.12,1.26-.17-1.76-2.14-3.8-3.87-6.66-4.53l10.79.59ZM611.25,27.86c-1.17.74-2.41,1.07-3.73,1.04-.23-.27-.39-.6-.43-1.04h4.16ZM603.62,30.37c1.62.81,2.55,1.47-.95,2.79-.74-1.35-2.18-2.29-3.98-2.9,1.62.04,3.26.09,4.93.11ZM598.19,49.9c3.49-1.07,5.13-3.78,9.24-4.3-.48,1.54-1.13,2.95-1.98,4.18,2.44-.05,4.89-.09,7.34-.14.1,2.16.22,4.33.33,6.5-7.21,1.25-5.37-3.55-9.89-4.06-.73.53-1.58.95-2.54,1.29-1.96,1.49-3.93,2.98-7.6,3.45v.15l-.18-.11c-1.88.22-4.17.2-7.17-.26-.07-1.62-.17-3.23-.24-4.83-4.1.11-4.73-2.07-5.19-4.39-7.12-1.18-23.58,3.89-20.74-3.99,6.83-.1,13.69-.22,20.52-.34-3.55,6.46,8.68,2.36,7.84,7.01,3.43-.06,6.84-.11,10.25-.17ZM529.68,20.86c2.82.14,5.79,0,8.97-.56,3.33.21,2.4,2.45,2.84,4.03h17.12v-6.74c-.12,0-.21.02-.32.02.13-1.19.3-2.39-.28-3.16,1.05-.68,1.02-1.85.79-3.13l12.1,9.9c.72-.05,1.5-.15,2.41-.37.24.58.34,1.04.39,1.44.28-.48.59-.97.79-1.42,2.51,1,5.58,1.85,9.18,2.55.11.51.21,1.02.37,1.5.51-.36.73-.8.84-1.3.84.15,1.68.31,2.58.45-.05-.7-.19-1.4-.43-2.07,1.96,1.17,4.85,2.11,8.86,2.79-1.24,1.1-1.81,2.05-1.96,3.04-1.06.52-2.22.99-3.36,1.47-5.69.22-11.62,1.84-13.74,3.84v-8.73h-1.95c-1.76.85-3.51,1.73-5.28,2.62-.48,0-.98-.01-1.46-.01.71.48,1.13,1.18.72,2.63h-13.9c-2.48,5.65,6.43,1.32,3.96,6.97h-15.89c-2.02-5.25,4.43-3.09,7.94-3.48v-6.47c-.23,0-.43,0-.65,0-5.68,4.34-15.69,3.41-15.27-5.75-5.65-.29-3.87,5.9-11.93,3.5-.15-.36-.23-.66-.3-.94,1.18.32,2.29.73,3.3,1.17-1.05-.68-2.09-1.34-3.11-1.8h.82c-.3-.23-.63-.51-1.02-.79.65-1.84,4.49-.88,6.85-1.22ZM522.59,45.32c-3.38-6.87,33.46-7.48,30.79-.51-3.63.06-7.28.12-10.91.18.65.53,1.37,1.02,2.24,1.43-1.96,3.38-4.19,6.54-8.85,7.56,2.29-5.92-1.13-6.81-3.28-8.82-3.33.05-6.66.11-9.99.16ZM524.83,92.39c10.86,1.67,18.75,5.33,17.23,15.29-10.86-1.66-18.77-5.3-17.23-15.29ZM557.28,111.69c3.04,10.18-22.38,3.43-32.57,5.75-.11-1.73-.18-3.47-.28-5.19,10.96-.19,21.9-.38,32.85-.56ZM521.31,128.06c12.22-2.83,7.57,5.65,8.73,10.23-13.44-2.99-2.69,8.45-16.16,5.47-1.06-7.36,13.62-5.31,7.43-15.7ZM511.99,110.53c-3.45,7.93,6.57,4.02,4.78,10.48-6.78.35-4.67-7.09-14.32-4.2,3.74-1.59,3.57-6.63,9.54-6.28ZM488.99,62.35c.24-1.09.5-2.19.54-3.2,1.32.19,2.83.27,4.44.29-1.67.96-3.05,2.19-4.98,2.91ZM509.58,121.35c-1.48,5.81-6.79,9.37-15.88,10.66,15.41-10.6-3.87-10.37-9.29-20.62,14.12-.53,11.02,10.5,25.17,9.96ZM440.36,69.79c-.01.66-.1,1.37-.13,2.04-.85.02-1.7.02-2.54.04.89-.69,1.78-1.4,2.67-2.08ZM421.84,77.08c-.09.17-.16.33-.24.51-.07-.2-.21-.36-.28-.56.21,0,.34.05.52.06ZM368.78,23.45v.72c-.34.08-.74.14-1.07.21.41-.29.78-.6,1.07-.93ZM361.42,22.39c-.08.02-.12.09-.21.1-.02-.04-.05-.06-.07-.1.1,0,.2,0,.28,0ZM357.15,22.61c-1.93.64-3.61.64-5.15.35,1.59-.18,3.24-.32,5.15-.35ZM349.2,22.04c.26-.34.52-.68.79-1.03.49.16.96.31,1.55.46-.7.28-1.39.54-2.1.78-.33-.11-.66-.22-.98-.34.24.05.49.09.73.13ZM348.83,22.43c-2.41.7-4.84.78-7.07-1.06,2.4-.27,4.84.3,7.07,1.06ZM343.64,19.48c-.3.4-.6.8-.88,1.22-.45.07-.91.21-1.38.39-.01-.02-.04-.03-.06-.06-.18-1.35.93-1.58,2.32-1.56ZM297.12,12.4c.11-.09.22-.17.33-.26l-2-.26c1.61-.08,3.06-.34,4.3-.71.15.71.46,1.3.94,1.77l-3.57-.55ZM41.63,46.21c-.09-.48-.07-1.05-.04-1.62.07-.04.15-.09.22-.12,1.63.64,2.12,1.36-.18,1.74ZM80.11,355.49c4.54,1,4.68,6.25-4.29,7.38-.38-2.91-2.24-6.17,4.29-7.38ZM100.02,319.02c-5.66-.06-5.6-7.01-8.13-10.79-1.57.99-5.23.51-5.49,2.43.52.66,1.11,1.33,1.74,2.02,2.61.25,4.71.84,3.9,3.47-.04-.02-.09-.03-.11-.06.57.46,1.16.93,1.85,1.41-11.34,4.27-1.05,9.19-6.9,12.77-6.44-3.96-10.86-12.94-9.38-19.49-.45-.51-.77-1.1-.93-1.82.6.14,1,.16,1.5.24.73-1.72,1.84-3.25,3.66-4.31,1.16,1.27,2.07,2.45,2.95,3.59,2.09-1.3,3.16-3.31,7.35-3.13.34.63.44,1.1.48,1.52,10.52-2.34,5.11,7.9,7.5,12.16ZM100.13,375.67c-5.6,5.2-6.76-.76-10.1-3.69,10.55-3.89,6.11,4.42,10.1,3.69ZM88.12,338.82c-7.88,4.49,1.55,13.24-10.22,16.77.39-6.33-4.11-13.85,10.22-16.77ZM89.22,372.17c-6.1,2.04-8.86.11-10.1-3.68,6.1-2.04,8.88-.11,10.1,3.68ZM83.45,401.27c-5.34-2.13-5.02-5.97-5.08-9.68,5.51.17,10.21,1.3,14.88,2.46,1.77-5.19,8.64-9.13,11.68-14,8.55,3.75-5.93,12.16-7.11,17.53-10.23-2.85-12.67-2.09-14.36,3.7ZM105.05,352.65c2.9.26,4.15,2.54,8.65.92-.88,3-3.68,5.52-3.57,8.76-3.4.32-5.05-1.46-8.63-.93.87-3,8.8-4.26,3.56-8.76ZM160.43,206.19c4.12.31,9.85-1.29,10.1,3.68-4.22,1.29-5.94-.4-10.32,1.08-1.84-2.05,1.01-2.96.22-4.76ZM175.75,210.59c.16,6.44,2.3,6.41,7.34,9.86.84-.45,1.88-.85,3.4-1.13-4,6.89,11.75,4.95,6.52,12.45-7.73-2.76-3.17-6.19-11.02-.31.95-2.51-1.5-5.85-1.02-8.49-.72.33-1.5.64-2.37.93,3.33,5.16-.32,8.59,4.69,14.16-6.79,2.88-8.29-.58-15.1,2.31,12.49-5.72,2.01-10.54,9.43-16.16-.79.23-1.62.46-2.51.67-.3-3.69.12-7.2-3.43-11.68-4.39.93-4.16,2.99-8.85,3.84-1.57-3.6,6.58-4.8,12.91-6.46ZM188.81,192.67c-2.98.16-7.44-1.06-9.73-.45.61-2.28,3.78-3.9,8.12-5.23.83,2.01,1.68,4.02,4.57,3.52-.07,1.53-1.26,2.04-2.89,2.15,7.13,1.12-5.43,7.43-8.4,9.97-4.98-3.66-1.85-3.08-4.35-8.3,3.8-1.55,5.1-.08,6.24,1.54,3.44-.75,6.84-1.51,6.44-3.2ZM197.34,179.42c-3.15-.21-6.08-.55-5.15-3.61,7.3-.31,5.02,6.1,15.44,3.61-1.83,4.73-5.58,8.1-15.44,7.21-3.18-5.83,8.32-1.37,5.15-7.21ZM197.04,167.19c-16.63-1.52,4.87-10.62,11.67-13.99,7.22,9.17-6.6,9.87-11.67,13.99ZM191.66,150.65c-5.78.03-8.54-9.21.44-9.53.9,3.44.11,6.46-.44,9.53ZM200.88,309.44c5.89-3.72,14.14.63,14.36-3.7,6.78,2.15-2.24,6.97,5.8,11.07-10.29,1.47-5.9,6.57-17.68,7.69-3.74-3.32,3.28-4.01,1.87-6.77-5.72.75-7.68,1.27-10.1,2.08,2.26,7.67-7.49,12.37-8.85,19.14-9.16,1.37,2.8-8.66-7.68-4.31,6.17-4.26,6.65-9.91,13.82-13.92-1.52.51-3.46,1.13-6.33,1.93-1.62-8.64,21.05-3.82,14.79-13.21ZM231.96,252.06c5-5.67-12.19-9.36,4.5-12.15-4.78,5.93,6.99,8.76-4.5,12.15ZM237.76,185.01c3.21-.71,4.05,1.4,4.77,3.65,2.27.92,4.58,1.8,6.93,2.66,2.38-1.13,5.27-2.09,8.06-2.62-1.78-5.56,11.93-7.3,3.16-14.58-3.71,1.9-8.63,2.21-9.25,6.83-5.41,5.13,4.95-9.95,1.16-8.15-1.08-3.4,10.1-3.51,11.97-3.08-.62,2.21-2.07,3.46-3.8,4.36,3.44-.75,6.8-1.5,6.37-3.2,1.35.45,1.94,1.33,2.09,2.48.65-1.46,3.29-3.6,4.38-4.43-.3.21-.77.55-1.45,1.02-4.01-.28,2.24-8.2,11.45-9.23,3.6,3.3-3.55,3.94-5,6-.52,2.67,12.46-.66,9.57-2.46,5.07-1.58,3.66,4.61,6.01,6.29-8.79-.51-15.94-2.22-22.25,4.15-1.61.2-2.42.04-2.73-.36-.16,3.58-3.09,8.84-1.99,12.2-2.3.6-4.63,1.2-6.95,1.79,1.58-.12,3.05-.06,4.24.29-.54,5.77,2.82,5.03,2.68,10.3-3.93.19-7.1-.48-11.01-.29,4.41,5.75,3.11,4.34,7.46,9.06-7.93.46-2.62,4.19-1.89,6.77-5.58-1.52-6.41,3.79-11.04-.3-1.59-6.24,3.34-10.91,3.91-16.62-1.94-.43-3.55-1.08-5.01-1.84-1.41.48-2.48,1.22-2.07,2.01-4-.77-3.78-2.53-1.54-4.33-.93-.75-1.77-1.55-2.6-2.38.29.66.62,1.27,1.13,1.67-7.36.61-5.16,3.54-11.23,4.46-6.89-6.11,5.37-7.53,4.48-12.14ZM256.16,157.97c-11.67-2.29-8.83,4.07-16.93,3.89-1.41-4.47,15.3-12.32,16.93-3.89ZM262.72,133.11c5.65-.78,9.82.24,12.47,3.06-2.05,2.71-11.41,3.62-9.8,7.23-10.01-1.01,3.08-6.36-2.67-10.3ZM273.42,138.09c10,3.22,7.45,3.25,17.11-.29.12,2.4.24,4.8.37,7.2-3.8.06-7.6.14-11.4.19,3.23-5.88-9.29-1.21-6.07-7.1ZM272.05,163.58c-.06,2.46-8.73-10.66-4.13-13.06,3.78,2.26,3.32,7.33,10.6,9.83-4.27-.66-6.63,0-6.46,3.23ZM299.3,201.28c5.71-.09,11.41-.19,17.12-.28-6.1,10.29,12.84,3.79,11.95,10.62-5.72.09-11.4.19-17.11.28,4.41-7.45-4.32-6.12-9.11-7.4,1.54,1.64,2.02,3.71.5,5.66-.19-.04-.34-.13-.52-.19-.17,3.87.15,6.66,6.78,6.83,1.79,2.58.51,4.4-3.49,5.55.69,2.36-.18,4.33-2.87,5.85.93,1.16,2.43,2.73,3.45,6.01-.34.14-.6.32-.93.46.44.59.82,1.25,1.02,2.11-2.12.62-3.74.63-5.09.31-3.43,2.57-6.06,5.6-10.25,7.72.95-.23,1.91-.45,2.93-.64,1.06-.53,2.48-1.4,4.74-2.8.6.62.91,1.17,1.06,1.68,2.55-.56,4.85-1.25,6.34-2.44-1.77,2.26-3.94,4.28-6.82,5.88-.07.33-.12.67-.09,1.03-1.26.32-2.35.47-3.39.54-3.2,1.14-7.08,1.87-12.05,1.96.02-.19.16-.29.21-.46-.43-.83-.87-1.66-1.3-2.5-1.32.14-2.65.27-4.24.25,2.83-6.56,12.47-9.08,18.23-13.89-.38-.56-.73-1.12-1.09-1.69.94.04,1.85.09,2.77.16.66-.75,1.2-1.58,1.63-2.46-1.05.35-2.18.67-3.51.95.27-.46.51-.94.73-1.41-4.89.08-9.79.16-14.67.24-.11,4.35-.45,8.65-.59,13-4.13-.97-9.88.47-8.85,3.85-5.74-6.03,9.44-9.51.66-14.3,2.72-.58,3.67-1.6,5.12-2.48-.46,0-.91.01-1.37.02.32-.36.78-.65,1.17-.97-3.55.39-6.5,1.38-11.83,3.43-.62-1.35,2.39-1.83,4.07-2.61-1.04-1-3.12-.76-3.84-2.15.67-3.17,2.22,1.12,5.51.15,8.93-4.91-5.74-2.73-1.95-8.91,2.16.48,4,1.35,6.55,1.37-1.1-3.06,4.54-4.47,10.54-5.78.49.93.98,1.86,1.45,2.77-2.3.64-.96,2.18-.94,3.39-1.45.13-2.41-.32-3.35-.78,1.12,2.33-.41,3.99.05,6.17,5.94-1.72,13.72-2.35,20.31-3.68,2.26-4.08-12.84-8.47-3.97-12.1-3.8-1.35-6.46-4.07-8.21-7.87,2.4-.39,4.76.03,6.67.9-.15-.38-.22-.8-.16-1.32ZM371.95,149.95c-2.19.44-3.22,1.57-2.66,3.65-7.22-1.36-24.36,3.93-22.99-3.21,9.67,1.71,31.89-3.87,25.64-.44ZM346.73,142.69c10.86-1.08,15.21,2.21,17.47,6.91-4.8-3-16.11-1.63-17.47-6.91ZM371.93,167.56c8.84,1.2,3.15-6.27,14.06-3.84-5.15,4.17-6.61,5.69-7.55,9.06,0-.03-.02-.04-.04-.06-.07.26-.15.52-.33.85.07-.37.16-.67.24-1-.99-2.43-9.06-.11-6.39-5ZM356.38,180.44c3.55-.03,6.05.65,4.93,3.74-5.93-.98-19.64,3.25-17.29-3.31,1.5.25,3.5.17,5.6.01-10.8,0-17.41-2.84-16.53-10.71,10.01,3.23,7.45,3.28,17.11-.28,4,4.44-13.05,4.6-2.48,7.26,5.77-1.81,5.52-7.19,13.89-7.45.73,5.06-9.24,3.73-5.22,10.74ZM346.68,159.75c-11.24-6.77-15.29,1-19.6,7.55.23-5.11-9.82-3.35-6.24-10.71,14.43,1.03,8.8-9.89,25.28-7.65.19,3.62.38,7.21.56,10.81ZM314.07,178.83c3.88,1.36,8.68,1.61,10.8,5.08-4.19,1.27-5.93-.4-10.3,1.07,1.22-1.7.94-3.77-.5-6.15ZM323.53,168.35c-1.02,2.56-1.29,5.31-7.4,6.61-4.13-1.16-2.68-7.74,2.82-10.14.83,2.01,1.67,4.02,4.58,3.52ZM317.16,91.46c-.76-.93-6.66-2.39-11.1-2.81,8.44-1.99,7.32-.18,13.9-3.61-.19,2.33-.93,4.51-2.8,6.42ZM311.18,92.18c2.88.11,4.52.04,5.35-.15-1.62,1.4-3.94,2.66-7.3,3.63-5.88-1.49.11-2.87-3.62-6.91.15-.04.23-.06.38-.09,2.02,2.16,5.48,5.79,5.19,3.52ZM305.67,176.26c-5.67-.32.41-7.85,5.94-9.38,4.54,4.71-7.56,5.37-5.94,9.38ZM311.12,152.98c3.94,4.99-6.21,6.52-8.35,10-3.89,3.71-1.01-9.21,8.35-10ZM305.79,375.43c-6.01-.53-6.71,2.51-15.08,2.32-.72-1.37-1.44-2.76-2.18-4.15,16.81-1.72,8.88-16.09,17.62-23.37,7.77.46,1.2,7.4-3.54,8.76,8.66,4.45-3.08,9.16,3.18,16.44ZM271.88,395.77c10.01-1.11,4.89,6.24-1.16,8.15,1.49-2.44-.33-5.7,1.16-8.15ZM272.08,325.36c-2.65-.21-5.65-2.91-5.51-.14-2.78.32-3.06-2.34-6.24-1.54.82-1.8,4.76-2.84,2.62-5.37,4.96-2.63,12.85,2.17,12.68-1.71,10.34,1.1-1.48,6.75-3.55,8.76ZM264.27,356.33c3.84,5.48-4.62,17.36,2.05,24.61-8.86,1.43-11.71,4.34-12.19,7.84,2.07-11.63-4.96-19.66,10.15-32.44ZM264.86,225.72c1.61,2.4-1.4,3.67.51,6.14-6.05,2.01-10.56,2.15-11.75-1.69,7.43,1.94,3.38-3.2,11.24-4.46ZM261.22,224.52c1.17-.35,2.41-.66,3.82-.89-1.57.65-2.8.89-3.82.89ZM270.36,271.92c3.05-1.63,8.67,3.89,7.91-.46,11.72,4.36-12.66,3.02-8.35,10-2.91.5-3.34-2-4.56-3.55,6.65-.77,8.32-2.77,5-5.99ZM271.78,253c6.47-3.25,5.87,1.99,7.69,4.3,8.71-12.75,11.84.37,22.79,1.99-2.07,2.19-16.81,8.14-28.73,7.38-1.76-4.85-3.76-9.75-1.76-13.68ZM278.16,287.12c-2.29,4.46-8.21,6.76-4.96,14.5-7.67-4.48-11.96-10.42-22.99-3.2.34-9.11,20.77-6.26,27.95-11.3ZM262.07,303.02c4.15.3,8.68.13,10.11,3.68-4.28,1.77-2.27,5.06-10.54,5.85.56-3.08,1.35-6.1.43-9.53ZM264.61,351.12c1.78,3.77-1.99,8.05-7.4,6.61-2.63-3.45.94-5.39,7.4-6.61ZM256.8,415.31c3.73-1.1,9.47-1.69,8.84-3.86,5.76.33-3.33,7.12-9.06,8.61.67-1.43,1.32-2.88.22-4.76ZM259.87,394.54c3.38,3.47,8.33,8.22,8.93,11.83-5.5-.97-11.99-7.51-8.93-11.83ZM278.05,298.61c-.33-5.31,6.49-8.85,6.16-14.15,9.62,1.55,12.77,7.08,9.65,13.21-7.19,2.61-7.63-2.85-15.8.93ZM287.5,367.03c-9.8-1.69,4.62-5.6-4.35-8.29,13.68-2.98,3.66,4.44,4.35,8.29ZM284.65,387.33c5.43-.46,9.28.92,14.16,1.07-.84,3.41-7.62,5.36-15.3,7.08-4.01-3.79,5.18-4.36,1.15-8.15ZM301.66,312.07c-3.19.81-6.39,1.64-9.58,2.46-6.08-7.93,6.78-10.51-5.57-15.84,7.57-1.56,8.84,4.43,15.6,3.85-.84,3-4.84,5.23-.44,9.53ZM293.85,268.33c-.72-5.83,13.33-4.54,15.81-.92-2.45-.08-4.93-.13-6.23-1.54-2.71,2.52-5.19,3.16-9.58,2.46ZM285.04,194.87c4.17.26,6.96,2.15,8.41,5.68-6.61,1.55-3.62,3.54-9.57,2.46-4.04-3.8,5.16-4.36,1.16-8.14ZM250.8,221.52c6.61-3.2,7.86.03,10.95,1.05.55-4.47-.63-4.71,2.62-8.63,6.55.53,4.55,9.06-2.84,10.14.04-.18.04-.31.07-.47-9.41,3.65-11.63,11.18-16.22,17.84.55.33,1.1.64,1.72.87,1.46-2.04,8.61-2.7,5.01-5.99,4.21-1.28,5.95.38,10.29-1.08-1.55,9.13-13.47,6.85-21.74,10.3-1.23-2.29-2.43-4.61-3.62-6.91,1.85-.32,3.23-.08,4.43.41-2.73-4.68,4.97-11.9,9.33-17.54ZM250.37,263.16c.07,4.44,5.27,2.72,6.02,6.31-3.18.81-6.37,1.64-9.57,2.46,1.52-4.94-6.8-5.42,3.55-8.78ZM248.04,250.16c5.82,8.7-23.52,16.29-26.33,6.78,10.35,2.49,21.92-.09,26.33-6.78ZM230.89,292.32c-1.56-3.6.67-6.26,6.68-8,3.38,4.04,1.15,6.71-6.68,8ZM232,310.71c1.21,2.29,2.43,4.61,3.65,6.91-.48,2.29-9.11,2.57-8.12,5.23-3.71-.08-6.02-1.82-7.71-4.3,9.77-2.16,6.23-1.25,12.18-7.84ZM155.42,344.79c-.85-6.32,9.04-2.51,15.3-7.08.11,4.44-1.72,8.42-7.61,11.38-3.5-4.02,3.3-7.86-7.69-4.3ZM142.68,424.13c-5.17-9.51,7.24-18.68,6.1-29.84,12.25-4.07,4.51,5.3,10.82,5.08-8.12,6.03-8.93,13.86-10.45,21.52-3.46.76-6.9,1.51-6.46,3.23ZM151.51,436.27c2.3,4.18-2.24,6.69-2.83,10.15-8.8-.88-3.23-4.99-9.88-8.46,6.17-2.88,7.23.35,12.71-1.69ZM144.69,293.67c9.51-2.68,8.18,1.92,8.4,5.68-2.3-.23-4.62-.45-7.89.46,1.21-1.71.94-3.78-.51-6.14ZM156.1,315.03c.46,1.71,1.83,2.32,3.85,2.14,1.38,4.75-9.52,6.5-13.86,9.85,1.74,1.67,6.61-.4,10.3-1.08,2.8,4.31-.88,7.01-5.94,9.38-10.89-5.65-6.43-14.07,5.65-20.29ZM168.81,225.84c-7.45-.38-2.99-7.85,3.56-8.77,3.4,4.05-4.52,5.31-3.56,8.77ZM173.83,291.64c6.84-4.73,5.62-11.46,7.1-17.53,3.74,4.92,10.52,16.98-1.09,23.84-8.19,1.59,3.13-7.65-6.01-6.31ZM168.65,254.52c6.43-3.91,12.86,8.36,4.35,8.28,3.72-4.22-3.26-3.62-4.35-8.28ZM174.94,263.34c-1.21,1.71-.93,3.77.5,6.14-3.19.83-6.37,1.64-9.57,2.46-1.1-3.89,3.87-6.28,9.07-8.61ZM167.22,248.72c4.49,1.38,12.29-1.21,13.21,4.45-6.05.51-11.36.1-13.21-4.45ZM165.54,275.05c.61,4.77-5.46,3.45-11.27,4.46-1.6-3.58,7.21-5.57,11.27-4.46ZM162.02,292.12c-6.07.32-6.83-7.97,1.15-8.15,4.35,3.89-1.54,5.24-1.15,8.15ZM157.46,370.77c-9.13,2.91-10.73-9.77-2.68-10.31-3.46,5.07,7.26,6.13,2.68,10.31ZM153.16,352.03c-2.74,3.73-1.74,8.4-4.49,12.14-8.5-1.78-1.94-10.05,4.49-12.14ZM168.53,333.39c-3.49.41-3.82-2.95-5.32-4.91,2.4-.62,4.8-1.25,7.19-1.85,5.01,3.64-2.01,4.32-1.88,6.76ZM169.86,305.49c-2.06,2.3-2.27,5.05-10.51,5.84-.45-2.9,14.84-12.11,18.41-6.3-3.65,1.37-4.79-.26-7.9.46ZM186.1,308.19c-.19,5.57-6.82,9.56-11.66,13.98,1.2-5.32-.63-11.4,11.66-13.98ZM175.73,351.59c2.94,1.71,8.67.11,10.07,3.69-7.83,4.9-11.02,1.92-10.07-3.69ZM178.61,349.93c2.74-3.34-2.37-8.6,8.33-9.99,1.05,4.26-1.73,7.6-8.33,9.99ZM193.07,303.46c-3.01,3.36-12.91-7.87.44-9.54,2.46,3.83-6.68,4.79-.44,9.54ZM182.65,214.67c8.22-4.6,6.83,2.31,11.74,1.68-.84,4.41-12.63,3.38-11.74-1.68ZM164.14,237.51c-.01,6.42-13.12,9.63-10.23,16.77-8.38-3.72,1.74-13.2,10.23-16.77ZM158.75,258.74c-3.69-.83-6.41-2.83-13.41.31-2.01-2.91-.34-4.91,5.01-6,.44,4.72,9.13-.43,8.4,5.69ZM145.64,266.99c5.78-1.08,4.57,5.72,3.62,6.91-8.43.54-10.57,2.48-18.92.18-1.4-2.29,18.51-1.42,15.3-7.09ZM137.3,296.99c3.69-4.23-3.27-3.64-4.35-8.3,4.76-1.21,5.01,2.99,11.02.31-2.73,2.54.19,6.47-6.67,7.99ZM141.4,309.44c-.5,4.3.18,8.88-7.61,11.39.49-4.3-.19-8.89,7.61-11.39ZM134.12,344.12c4.44-4.46,3.55-10.24,9.77-14.25,3.5,6.87-5.08,10.79-4.69,16.91-1.85.21-2.61-.87-3.83-1.4.51,2.51,1.05,5.03-4.51,6.04.18,1.29,1.61,1.07,3.12.77-4.18,6.86-10.69-7.39.15-8.08ZM138.35,373.03c3.29,4.83-8.82,5.86-11.47,9.23,6.45,1.57,3.68,7.01-3.55,8.76-.41-7.35,1.66-17.7,15.02-17.99ZM133.06,415.24c-3.99,1.03-7.97,2.06-11.97,3.09-5.89-3.32,13.43-8.29,11.97-3.09ZM119.92,341.97c1.76,1.53-8.3-1.65-11.52-6.45,6.83-2.94,5.41,4.01,13.43-.33-3.66,3.72.15,4.83-1.9,6.78ZM116.6,401.65c.37,1.69-2.01,1.39-2.39.62-4.39.93-4.17,3-8.85,3.85,1.83-3.17,2.1-6.72,9.06-8.61,1.76,2.24-2.21,4.63,2.18,4.14ZM111.36,324.27c-7.9-2.02-.66-10.55,3.78-13.53,4.19,5.85-5.4,8.31-3.78,13.53ZM113.57,449.7c-6.06-.24-3.19-11.2-13.92-5.84.4-1.5.79-3.02,3.33-4,1.6-.41,3.19-.82,4.79-1.23,1.84,6.04,8.39,6.48,12.99,9.22,8.68-3.08-1.68-10.85,3.04-14.92,8.85.73-.57,6.98,2.71,10.3,13.79,3.35,21.99,1.32,29.52,9.68-16.97,2.3-26.36-4.45-42.45-3.2ZM163.37,427.6c-5.85,1.01-10.12.14-17.47,2.93-.07-3.63,6.01-5.75,5.95-9.38,10.44,5.16,7-5.82,20.81-6.93,2.45,5.82-13.94,7.01-9.29,13.37ZM164,397.81c-3.96-3.78,1.99-5.13-1.98-8.91,5.76-1.05,7.45,2.28,5.29,4.91,2.3,1.03,6.26.03,6.99,2.93-6.15-1.17-4.16,2.25-10.3,1.07ZM177.14,371.8c-6.86,4.34,7.67,15.3-.87,19.07-1.74-4.49-8.44-14.06.87-19.07ZM181.01,420.18c-10.39-.74,5.56-4.92,1.17-8.15,3.46-.41,3.79,2.95,5.28,4.91-3.45.75-6.89,1.52-6.45,3.23ZM191.99,379.65c.91-4.19-3.84-9.78,4.5-12.15,6.44.33-2.91,9.7,4.57,3.54,7.61,3.19-2.87,6.63-9.07,8.61ZM209.32,326.41c7.05-3.2,6.85,2.31,11.75,1.69,1.65,3.6-8.3,4.36-6.66,7.99-9.85,1.15-2.49-5.66-5.1-9.68ZM219.23,359.4c-15.04-.52,11.73-10.74-2.48-15.06,5.33-1.87,9.32-2.14,12.69-1.7-2.04,6.38-5.19,7.72,3.4,11.68-8.1.74-14.44-1.89-13.62,5.08ZM224.26,423.25c5.21-2.64-.17-7.91,7.4-9.99-5.52.06-9.83-1.37-11.06-6.46,1.56-1.62,4.62-2.88,8.85-3.84-3.56-1.01-3.57-2.31.95-3.38,2.17,4.55.84,8.22-5.24,10.76,2.27.98,6.13.05,6.93,2.81.83-.21,1.77-.39,2.91-.51.98,1.85,1.94,3.69,2.9,5.53-7.86.87-5.79,4.2-13.64,5.07ZM242.24,428.89c-7.65.65-.91-4.82-3.65-6.91,10.56-2.96,4.39,5.24,3.65,6.91ZM231.4,344.56c-4.93.04.66-1.86,4.06-2.61-4.15-5.57-13.11-6.01-.28-10.91,5.41,1.72.71,1.81,2.9,5.52,4.12-.98,5.66-2.61,5.72-4.6,6.44,2.04-3.94,10.21-12.4,12.61ZM246.6,279.74c-.12-2.04,3.07-3.27,2.6-5.38,9.88.51,3.66,8.57,10.6,9.84.6,4.54-5.8-.01-9.57,2.46-6.28-3.41,9.5-9.23-3.62-6.91ZM250.66,344.07c7.65-.55,3.35,4.91,7.68,4.3.24,2.06-5.39,2.7-8.85,3.84-.34-2.9,3.34-4.8,1.17-8.15ZM270.49,437.67c-6.39,2.97,3.77,4.09,3.62,6.91-5.78,2.22-16.12-1.4-17.49,2.93-6.72,1.72,3.73-5.25-6.22-1.53-1.76-4.12,11.96-10.62,4.5-12.15.94-2.58,6.65-3.99,10.51-5.85-1.22,1.7-.94,3.78.5,6.14-2.39.62-4.79,1.23-7.17,1.85,2.52,2.63.28,4.09.51,6.14,6.06-1.31,6.27-4.08,10.51-5.84,1.54-1.23,3.12-2.45,6.45-3.23,1,2.56,4.48,2.17,5.3,4.92-5.27,1.79-9.18,1.99-11.04-.3ZM281.73,427.51c10.25-1.68,6.79,2.57,9.13,7.07-4.85-.2-7.55-2.97-9.13-7.07ZM298.02,408.5c-12.99-1.18-15.44-.53-23.92,6.17-.21-4.87,1.91-9.17,6.88-12.77,4.79-2.46,12.16,4.72,9.56-2.46,3.73.82,6.43,2.83,13.44-.32,2.65,4.26-13.03,4.02-5.95,9.38ZM308.71,427.63c-5.3-.22-6.89-9.63,2.84-10.14,3.85,4.57-6.71,5.58-2.84,10.14ZM317.9,299.8c-5.94-.99-19.66,3.25-17.29-3.31,5.94.99,19.66-3.24,17.29,3.31ZM314.67,294.76c-1.32-7.77,4.21-11.48,16.56-11.11-5.41,3.77-10.91,7.47-16.56,11.11ZM353.16,337.99c3.1-7.59-4.16-7.9-5.13-12.62,13.29-5.14,7.51,18.32,5.13,12.62ZM340.47,292.22c8.08-.44,5.88,6,17.3,3.32.12,2.41.24,4.8.37,7.21-8.27-1.92-14.15-5.43-17.67-10.53ZM358.37,264.66c3.8-.06,7.61-.13,11.41-.19.12,2.41.24,4.79.38,7.2-6.41-.67-10.34-3.02-11.79-7.01ZM398.6,329.04l5.89,3.5c-4.79-2.98-16.1-1.63-17.47-6.91,11.68,2.29,8.82-4.07,16.91-3.89,3.83,5.77-9.15,1.53-5.33,7.3ZM388.35,261.22c8.08-.45,5.89,6,17.3,3.31,3.15,5.38-6.19,3.3-11.22,3.79,3.22-5.89-9.3-1.22-6.08-7.11ZM411.61,297.87c-9.33-2.07-1.87,5.87-11.22,3.79-.12-2.4-.26-4.8-.38-7.21,5.07.34,14.19-2.06,11.6,3.42ZM419.91,304.27c3.23-5.89-9.29-1.22-6.06-7.11,8.07-.44,5.88,6,17.29,3.32,3.15,5.37-6.18,3.29-11.23,3.79ZM418.98,291.2c-.65,4.78,15.89-1.96,11.68,5.21-13.14,2.6-9.84-5.82-22.98-3.22,3.02-7.23,16.4-7.53,4.96-14.52,9.95,5.38,14.38,1.86,25.64-.44-5.74,4.73-8.94,10.96-19.3,12.97ZM433.8,202.1c14.79,5.72,19.78-4.22,28.7,3.11-5.13-.14-6.58,1.91-5.43,5.5-8.43-1.47-8.84-1.47-17.11.29,3.78-6.89-8.01-3.33-6.17-8.91ZM450.14,259.04c-8.06.45-5.87-5.99-17.28-3.32-.11-2.39-.24-4.8-.37-7.2,8.27,1.92,14.16,5.43,17.64,10.52ZM433.28,266.31c-.46,3.42,3.41,3.91,3.22,7.15-4.76.09-9.51.16-14.27.24,1.04-4.04,4.71-6.51,11.05-7.39ZM455.8,276.61c-5.51-8.3,13.18-2.19,7.68-10.51-3.77-.15-7.36-.41-8.4-2.41-8.06-.13-5.23,6.19-16.89,3.9-1.37-4.37,14.51-11.93,16.77-4.41-.17-.58-.21-1.26.04-2.13,11.62-.63,8.46,8.64,24.9,4.78-2.56,6.85-8.32,11.81-24.09,10.79ZM472.47,173.82h-14.82c4.21-7.43,11.61-12.62,22.23-15.58.63,7.37-12.55,5.07-7.41,15.58ZM458.87,122.99c8.07-.46,5.88,6,17.29,3.31.12,2.4.24,4.8.37,7.21-3.8.06-7.6.12-11.4.19,3.57-7.36-6.46-5.6-6.26-10.72ZM438.32,110.11c15.13-2.07,12.63,7.7,28.79,4.93.13,2.4.26,4.8.38,7.2-8.88-4.61-20.79-7.17-29.17-12.12ZM460.17,138.44c-.06-1.16-.12-2.32-.18-3.48,4.04.43,6.97,1.59,9.05,3.33,1.58-.02,3.17-.05,4.76-.08,3.02,10.2-22.39,3.45-32.58,5.74-.1-1.72-.17-3.45-.27-5.18,6.41-.11,12.82-.21,19.23-.33ZM476.92,82.35c-.05,1.01-.15,2.04-.29,3.08.58-.14,1.04-.3,1.54-.45.11,2.05.21,4.1.32,6.15-3.8.07-7.6.13-11.4.19,2.83-3.25,3.57-7.75,9.84-8.98ZM446.24,103.33c.34-.61.56-1.31.46-2.22,7.68-.04,15.69.17,15.46-5.4,6.44-.31,6.24,4.03,10.28,5.4-9.18-3.17-15.97,1.2-22.83,4.73.83.91,1.5,1.94,2.02,3.05-1.26-.79-3-1.27-4.87-1.67-.88.4-1.76.78-2.63,1.09-.11-.61-.05-1.1.06-1.56-4.55-.79-9.18-1.52-10.02-4.78,5.51-.55,9.33.03,12.06,1.35ZM409.16,152.27c1.29-.48,2.74-.86,4.32-1.15-.89.59-1.5,1.38-2.01,2.24,6.82-2.34,18.73-1.67,22.13-6.07-2.4,8.89-12.71,13.06-23.56,16.92h3.4c1.28,6.91-3.54,9.53-10.29,10.82v-8.38c-3.96,1.45-7.79,2.98-11.11,4.79.4,2.83,7.35,1.28,5.99,5.31-5.4.84-12.24.85-11.13,5.6,7.01-6.89,31.89-3.13,33.57-13.19,5-1.31,5.27.56,6,2.11-.04-.76-.15-1.47-.37-2.07h3.44c1.07-.51,2.49-.82,4.62-.7-.02.25-.02.46-.04.7h1.51c-.4,1-.94,1.9-1.5,2.77.6,5.69,5.24,1.69,11.61-.06,3.78,5.71-8.77,1.67-5.39,7.14,1.66.46,3.05,1.11,3.56,2.34,10.91,2.42,5.22-5.05,14.08-3.86,3.82,5.78-9.17,1.53-5.34,7.31-9.32-.16-15.75-2.24-22.34-4.23-.12,1.52,0,3.24.55,5.33-5,.68-5.48-2.61-5.12-6.63-1.55-.43-3.15-.82-4.83-1.15-7.69,2.98-17.74,4.56-22.33,9.41,9.75,3.54,2.19,3.68.46,9,9.34,2.07,1.88-5.87,11.22-3.79-7.47,8.94-21.09,14.22-27.31,23.92,5.43.31,6.19-2.14,11.32-1.99-1.7,3.1-.23,4.07,1.72,4.72,6.33-.44,13.97-1.74,12.16,3.28-1.95-.33-4.76-.09-7.55.14-.04.24-.06.48-.16.76-12.24,2.01-15.92-1.74-23-3.23-3.24,6.71,4.72,5.89,6.01,9.55,2.33-.63,4.06-1.62,4.9-3.12,2.35,5.47-2.56,6.61-2.28,10.86-12.83,1.86-22.81,5.44-33.51,8.56,4.97,1.74,9.4,3.9,11.82,4.9,16-5.24,56.66-13.71,76.78-4.91-36.9-2.77-50.31,8.46-82.31,8.61-.85-4.53-5.82-6.3-12.58-6.86-1.72.44-3.46.87-5.26,1.27-.11-.52-.22-1.03-.4-1.51-3.37,0-6.96.16-10.65.37,1.43-1.96,3.32-3.15,5.49-3.8,1.92-3.19,10.69-6.52,1.96-9.43-4.49.25-2,4.64-8.38,3.75-.12-2.4-.24-4.81-.37-7.21,15.73.63,15.4-8.29,28.05-9.49-.66-2.66-6.97-1.53-11.5-1.6,9.05-11.51,19.35-22.25,38.52-27.71-7.02,6.3-11.18,14.29-21.88,18.4,12.46,4.01-2.94,4.35.65,12.62,2.87-.21,4.98-.26,6.52-.2-.04-.97-.08-1.94-.15-2.9,3.34-.34,8.11.17,8.45-1.94-7.69-11.99,15.05-19.85,21.33-29.22-17.94-1.97-19.8,5.66-30.98,7.74-5.16-.55-8.62-2.22-10.57-4.92-8.56-1.2-34.76,4.04-51.52,1.97,6.85-9.3,46.12.69,53.79-8.12-1.87,3.75,12.18,5.85,2.99,6.96.67.85,1.91,1.34,5.13.49,10.24-14.83,31.37-23.21,34.92-42.06,9.84.04,6.89-7.53,16.73-7.5.52,5.08-7.45,5.11-10,8.35ZM424.83,200.62c3.5.14,6.78.43,5.89,3.5-4.79-3-16.1-1.62-17.49-6.91,11.68,2.3,8.82-4.06,16.92-3.89,3.83,5.77-9.16,1.53-5.33,7.3ZM421.66,229.33c-20.52,3.5-33.52,20.76-59.11,15.43,23.97-2.6,31.87-14.79,59.11-15.43ZM413.11,185.17c5.08.33,14.18-2.06,11.58,3.4-9.33-2.06-1.87,5.87-11.22,3.8-.12-2.41-.24-4.81-.37-7.21ZM418.35,68.76c.12,2.41.24,4.81.37,7.21-3.79.06-7.58.14-11.39.2,1.02-4.04,4.72-6.51,11.02-7.4ZM395.4,99.3c-6.08,10.29,12.85,3.8,11.96,10.62-13.16,2.6-9.84-5.82-23-3.22,1.02-4.04,4.72-6.51,11.04-7.4ZM384.94,115.88c8.76,1.59,28.7-4.35,28.69,3.13-14.03-.21-27.44-.05-34.03,4.18-3.82-5.77,9.16-1.53,5.34-7.3ZM393.68,126.99c-5.39,3.77-10.9,7.46-16.55,11.11-1.33-7.79,4.21-11.48,16.55-11.11ZM377.42,122.54c-3.45.26-6.73.66-5.51,3.7-4.8-3-16.11-1.62-17.47-6.92,7.23,1.36,24.36-3.92,22.98,3.22ZM347.09,121.24c-3.22,5.89,9.29,1.22,6.07,7.11-5.69.51-11.96-7.84-17.19-1.52,5.89,7.87,29.87,3.57,34.85,12.03-9.5.16-19,.33-28.5.49,3.8-8.77-7.5-7.4-17.49-6.91-3.83-5.77,9.17-1.55,5.34-7.31-3.5-.14-6.78-.42-5.89-3.5,7.6-.14,15.21-.26,22.8-.39ZM324.11,68.8c.41,3.71,1.67,7.65-5.95,9.38-5.98-1.61-.43-7.19,5.95-9.38ZM319.28,10.94c.37.22.74.43,1.01.7-.39.43-.74.73-1.06.98-1.07-.05-2.16-.09-3.23-.14-.6-.46-1.22-1.05-2.01-1.54,1.21-.49,3.5-.04,5.29,0ZM314.33,64.77c10.22-1.06,2.54,5.67,1.95,8.91-11.96.61-.89-5.28-1.95-8.91ZM296.6,64.17c.45-3.3,3.01-4.78,6.18-5.7,2.27.36,4.61.61,6.93.8-1.61,4.04-11.19,1.12-13.11,4.91ZM291.49,99.88c-.23-2.08,5.41-2.7,8.85-3.84-.4,5.05,1.43,3.18,4.35,8.3-2.9.48-4.11,1.4-4.05,2.61-11.1,2.24-.76-7.21-9.16-7.07ZM267.61,118.22c.77,2.36,17.14-1.23,11.23-4.46,1.23.38,2.07.81,2.69,1.25.02-.91.51-1.94,2.07-3.1,3.9,1.57,2.79,4.54,5.08,9.69,5.65-1.02,8.82-2.66,8.11-5.23,9.19,6.19-12.08,8.06-19.58,14.47-7.26-.8,5.04-5.38,1.02-9.83-4.28,2.33-10.57,4.55-14.18,5.99.01-6.05,4.62-17.29-2.98-21.22,7.6-6.53,14.41,9.36,6.52,12.45ZM221.99,108.48c-.31-1.89,4.02-2.61,4.79-1.23,2.16-3.14,11.12-10.82,4.49-12.14.45-1.19,1.48-2.22,3-3.14,1.35-3.29,8.05-2.83,4.91-9.26,7.76-1.82,4.57,4.02,5.15,7.21-.96-.26-1.68-.36-2.3-.37,7.74,8.96-7.93,12.17-8.96,18.97.62-.14,1.3-.36,2.1-.72.96,1.49.76,2.68.27,3.82,5.91,1.68,10.25,4.43,17.23,5.39-1.8-3.4,7.45-7.15-.46-7.5,1.32-4.98,10.51-.83,10.1,3.68-1.91.78-2.54.04-3.13-.76-4.26.66-.17,3.37-.84,4.91.48,0,.9.03,1.41.01.1,1.79.18,3.6.28,5.4-3.49-.14-6.78-.43-5.89-3.51-10.5,1.46-12.39-2.87-22.9-1.41-.05-1.05-.11-2.09-.16-3.13-2.54-1.54-4.34-3.98-6.22-6.32-.78-.17-1.67-.21-2.85.09ZM228.09,212.04c.85,3.42,1.84,6.88-6.69,8.01-3.38-4.05-1.15-6.72,6.69-8.01ZM216.24,212.25c-.3,2.33-1.98,4.34-5.01,5.99,5.82,6.54,19.13,4.1,26.41,8.91-9.99,6.41-13.73,3.13-19.68,8.26,3.24.78,4.21,4.29,5.73,7.13-6.07.69-12.75-2.79-9.15-7.07.69-.16,1.32-.21,1.88-.23,2.15-9.01-2.94-11.34-20.49-9.92,2.3-5.49,11.52-.52,17.47-2.93-6.55-.73-7.21-2-2.9-5.53-1.57-6.37-12.32-1.76-14.66-7.22.33-.04.59-.09.88-.14-5.08-.98-10.89-1.12-18.03.36-.79-5.38,22.46-8.48,22.63-1.67,3.02-1.89-2.56-4.61-4.3-6.69,7.91-.87.4-5.52,10.51-5.85-1.83,5.88.1,17.02,8.71,16.61ZM200.63,132.6c5.4,7.4,17.46,12.94,5.38,20.6-.39-7.33,2.4-10.09-10.58-9.84-1.33-4.13,12.4-3.73,1.87-6.76-1.05-1.06.28-1.54,1.68-2.01,2.17-.26,1.98-1.12,1.66-1.99ZM200.43,109.16c-1.06-1.07.24-1.54,1.66-2.01,1.6-.41,3.19-.81,4.79-1.23.87,3.43,1.85,6.89-6.68,8.01-2.33-1.66,7.56-5.77.23-4.76ZM195.33,122.79c3.49-.41,3.8,2.95,5.29,4.91-5.32,1.88-9.3,2.16-12.69,1.7-3.01-3.55,8.24-3.59,7.4-6.61ZM187.92,108.87c7.6,1.57,4.88,10.77-4.5,12.16,2.76-3.75,1.74-8.42,4.5-12.16ZM182.58,100.81c2.68,3.06-11.3,2.03-5,5.99-4.48,3.32-10.88-1.25-9.58,2.47-8.57-1.42,8.37-6.71,14.58-8.46ZM147.77,135.4c-6.78,1.37-4.94-7.58-13.19-4.45,1.95-5.68,8.07-3.4,17.61-7.65v-2.36c5.74.78,9.17,3.18,10.28,7.2h-10.28v-4.64c-1.15,4.05-6.96,6.94-4.41,11.9ZM142.41,111.96c2.55,3.45,4.44,6.71-4.29,7.38-.38-2.9-2.24-6.19,4.29-7.38ZM164.85,145.35c1.45,2.77,2.9,5.54,4.35,8.32-4.19,1.27-5.94-.41-10.29,1.07,4.23-2.58-1.72-7.65,5.94-9.39ZM167.83,135.57c5.68-.78,4.57,6.58,7.5,9.06-6.97,1.77-9.77-6.35-7.5-9.06ZM159.57,100.87v7.21c-.15-.08-.3-.14-.46-.23.37.54.13,1.39-1.12,2.84-.38-.06-.74-.14-1.11-.21,2.13,1.6,3.58,3.68,10.3,2.08v7.21h-10.29c3.5-7.19-5.27-5.78-5.11-10.62-1.61-.35-3.35-.52-5.55-.16,1.72-1.78-1.21-4.68,3.47-5.72-5.6-2.39-11.35-4.67-15.88-7.82,13.72-1.81,11.02,7.9,25.74,5.4ZM145.9,94.72c-4.17-3.07-14.43-1.9-15.44-7.21,9.86-.89,13.63,2.48,15.44,7.21ZM129.03,120.25c3.95,3.78.21,5.66,1.96,8.91-4.34-1.67-12.95-7.02-1.96-8.91ZM130.12,148.55c-10.72,2.29-9.47-10.38-.29-10.91-1.68,5.89.67,5.79.29,10.91ZM104.96,62.06c.51.58.91,1.23,1.07,2.11h-3.17c1.02-.52,1.79-1.18,2.1-2.11ZM107.56,67.49c7.11.27-1.41,10.47-6.67,8-5.23-4.5,6.63-4.79,6.67-8ZM95.63,84.2c-5.95,10.18,11.43,4.02,10.3,10.81-11.99,2.38-8.62-5.98-20.6-3.6,1.12-4.03,4.56-6.43,10.29-7.21ZM85.39,100.62c7.83,1.73,26.12-3.85,25.74,3.62-12.64-.46-24.74-.53-30.87,3.6-3.18-5.82,8.32-1.37,5.13-7.21ZM92.45,111.87c2.23-2.63,8.5-4.27,13.56-6.22.37,2.58,3.23,2.14,6.24,1.54-3.12,5.6-7.58,8.99-19.36,9.68-1.57-1.87-1.56-3.33-.72-4.6-4.85,3.54-9.82,7.01-14.88,10.42-.82-7.72,4.24-11.31,15.16-10.82ZM71.19,152.04c7.94,1.35,3.15-6.22,12.86-3.6-4.84,4.07-6.23,5.57-7.23,8.92,0-.01-.02-.02-.02-.04-.07.26-.16.51-.34.83.09-.36.18-.66.26-.99-.76-2.46-8.17-.26-5.52-5.13ZM69.48,138.05c-6.45-1.49-22.16,3.51-20.59-3.61,8.66,1.88,28.96-3.32,23.18,0-2.01.41-3,1.52-2.59,3.61ZM56.54,164.67c3.21.02,5.44.74,4.28,3.83-5.29-1.09-17.88,2.91-15.42-3.61,1.39.28,3.29.22,5.28.09-9.91-.14-15.85-3.06-14.68-10.97,8.88,3.38,6.56,3.38,15.44,0,3.41,4.51-11.96,4.37-2.56,7.21,5.28-1.71,5.32-7.09,12.85-7.21.44,5.07-8.52,3.56-5.18,10.67ZM49.64,126.76c9.85-.9,13.62,2.48,15.45,7.21-4.18-3.08-14.45-1.89-15.45-7.21ZM78.28,107.12c-3.13.21-6.1.54-5.15,3.61-4.19-3.08-14.45-1.9-15.45-7.21,6.46,1.49,22.17-3.51,20.59,3.6ZM35.59,108.96c-3.15-.21-6.1-.54-5.16-3.62h20.58c-3.17,5.85,8.34,1.39,5.17,7.22-5.18.41-10.43-8.05-15.46-1.8,4.96,7.95,26.8,4.07,30.89,12.62h-25.73c3.84-8.71-6.41-7.53-15.45-7.21-3.17-5.84,8.34-1.38,5.16-7.21ZM19.88,128.18h11.18c.2-.69.81-1.18,2.31-1.25h-8.56c1.6-2.95,5.15-3.27,8.67-3.62-.93-.42-.84-1.05,1.37-1.89v1.75c.09,0,.17-.02.24-.03v.28c.88.11,1.82.19,2.84.19,1.02-.5,1.94-1.14,2.51-2.21,4.32,1.64.73,2.48-3.09,2.53.11-.04.2-.12.29-.17-.79.28-1.66.48-2.56.61v2.45c6.25-.61,6.56,10.15,4.29,9.14-2.79-1.56-5.26-1.55-6.88-.73.63-.98-.27-2.71-.95-4.34-4.68-.21-12.56,2.4-11.67-2.71ZM30.96,140.49c.06-.01.11-.04.17-.05-.76.1-1.57.16-2.5.14-.46.08-.93.15-1.24.26.05-.13.02-.21.1-.33.46.04.87.04,1.28.04-.01,0-.02,0-.04,0,.68-.08,1.48-.13,2.44-.13.74-.15,1.43-.36,2.01-.61.37.26.62.55,1.07.8-1.27-.09-2.33-.12-3.29-.12ZM101,207.51c-.05.21.01.34-.07.59-1.68-.35-4.12-.19-6.57,0-.04.15-.05.29-.11.46-11.13,1.79-14.27-2.03-20.59-3.61-3.54,7.3,5.6,5.7,5.17,10.81h-12.86v-10.81c3.01-.28,7.3.31,7.69-1.8-6.38-12.11,14.51-19.59,20.59-28.84-16.08-2.27-18.12,5.33-28.29,7.21-4.01-.55-6.8-1.93-8.56-4.04-.11,0-.18.01-.31.02-2.37-4.08-9.19,2.63-26.31.04-.49.98-.41,2.05.89,3.28-12.75.52,6.18-5.53,1.73-10.82,3.46,1.8,1.72,3.31-.24,4.98,6.96-4.34,17.5,2.95,23.94-4.69-1.71,3.4,8.61,5.65,4.07,6.74.51,1.05,1.51,1.77,4.79.89,9.93-14.67,29.37-22.68,33.45-41.45,8.88.2,6.57-7.42,15.45-7.21.29,6.22-10.6,4.59-10.3,10.81,5.08-4.25,19.31-2.09,23.17-7.2-4.07,13.96-25.42,15.85-38.6,23.44.24,2.83,6.56,1.4,5.13,5.4-4.91.76-11.06.65-10.28,5.41,6.65-6.76,28.91-2.59,30.89-12.62,4.82-1.3,4.73.87,5.4,2.48.84-1.92,2.4-3.32,6.45-3-1.27,10.5,3.54,5.51,10.29,3.6.55,1.01.55,1.64.38,2.15,1.48-.38,2.95-.75,4.41-1.14.19.69.71,1.46,1.21,2.22,1.33-1.97,2.54-3.94,2.43-5.43h.13c-4.94-5.58,6.57-10.89,13.94-9.68-2.4,3.73-5.02,7.4-13.3,9.68,17.47-.19,3.73,8.02,10.97,17.28.49-.21,1.02-.35,1.63-.44-.29-.6-.57-1.2-.84-1.82,19.07,2.96,3.29-4.12,14.57-8.47,3.1,4.81,5.89,4.52,5.12,9.33,2.77.53,1.19,6.26,7.47,2.56.43,2.91-8.71,3.48-4.29,7.38-5.54.46-6.69-7.93-5.06-9.68.16-.06.28-.08.43-.12-7.94-1.35-4.57,5.07-11.49,6.69-1.5-.38-2.61-1.23-3.56-2.26.06,2.16-1.85,3.82-2.41,5.83-5.21-.04-6.4-6.42-2.13-8.73-2.99.77-5.95,1.53-8.94,2.29-.01-2.84,3.57-6.48.56-8.84-1.9,1.29-7.39.08-5.07,4.34-1.28-.04-2.48-.16-3.63-.29-2.22,1.42-5.27,2.48-8.97,3.7.13-1.79.96-3.42,2.06-4.96-6.29-1.63-11.36-4.12-17.75-5.66-7.1,2.86-16.22,4.26-20.61,9.02,8.65,3.7,1.83,3.72,0,9.01,8.34,2.22,1.99-5.84,10.3-3.62-7.16,8.81-19.68,13.85-25.73,23.44,4.87.41,5.68-2.02,10.29-1.8-1.89,3.46-.04,4.3,1.99,5.02,1.72-.13,3.48-.28,5.05-.31-.41-.95-.55-2.06-.38-3.38,6.22-1.42,7.19,3.42,9.14,7.08-1.52-.04-2.8-.21-3.91-.45ZM117.77,173.94c-8.33-2.22-1.96,5.83-10.29,3.6v-7.22c4.56.43,12.89-1.8,10.29,3.62ZM105.33,208.94c-1.87-4.47-2.65-8.69,5.22-10.77,1.87,4.48,2.65,8.69-5.22,10.77ZM107.01,182.34c10.43,2.48,8.15-3.91,15.46-3.61,3.17,5.83-8.34,1.38-5.16,7.21,3.15.21,6.08.54,5.16,3.6-4.19-3.07-14.46-1.89-15.46-7.2ZM128.26,209.18c1.06,1.06-.24,1.54-1.66,1.99-2.16.26-1.98,1.12-1.67,2.01-4.6,1-4.05-4.15-9.36-2.31-1.17-11.83,17.66-21.18,5.17-26.44,3.55,1.74,8.49,1.82,11.77,3.87,4.01.33,7.1-.68,9.95-1.11-1.68-1.4-3.02-3.22-4.07-5.39-3.85,1.52-6.11.88-11.8.75-4.06-5.15,15.33-6.81,15.1-2.31-1,.55-1.85.96-2.66,1.3,6.95.34,13.05,3.02,10.32,6.98.59.4,1.17.85,1.78,1.45-3.91-.21-5.41,1.3-5.27,3.94,6.95-.19,6.82-3.14,13.97-2.27,2.63,3.46-8.71,3.48-4.27,7.38-4.35-.17-8.65-.41-10.32-3.79-6.78-1.45-7.45-1.41-14.71.15.8-1.47.84-2.4.57-3.12-3.98,2.6-4.9,5.24.73,8.16-1.98,3.04-15.07,9.51-3.57,8.76ZM139.85,218.82c-.48,3.91-3.24,7.23-8.34,10,2.73-3.35-2.37-8.61,8.34-10ZM119.67,234.15c5.63,1.57,9.94,4.06,12.99,7.43,8-1.82,18.91-2.19,20.38-9.57,5.33-1.14,6.96,2.16,8.43,5.68-10.25,1.67-17.11,4.01-27.17,6.12.26.4.58.74.83,1.14-1.55.06-2.61-.2-3.52-.59-2.11.41-4.32.8-6.79,1.19.85-1.31,2.32-2.21,4.16-2.91-1.73-1.4-3.66-2.64-9.29-1.3v-7.21ZM78,241.17c3.86-1.29,6.86,9.38,9.38,2.3,3.83-.85,1.16,3.3,2.71,6.45,1.51.76,3.63,1.1,7.56.15.79,1.63.51,2.53-.29,3.05,3,2.05-2.82,8.67,3.61,8.48,1.43-1.32,6.29-1.77,5.32-3.67,3.68-.34,4.3,3,9.33,1.04h-4.06c.65-2.34,2.18-4.06,4.4-5.31-.84.23-1.6.46-2.18.75-.83-1.57-1.65-3.14-2.46-4.71-.93,2.07-2.8,4.02-5.99,5.01-4.41-1.69-6-10.4,4.51-12.15,1.89.78,2.66,3.47,1.83,6.19,7.9-1.08,7.35,4.77,15.01-.81.84.75,1.12,1.37,1.01,1.91,3.73-3.81,13.16-6.87,13.97-.31-7.3-.31-5.02,6.09-15.44,3.6-.16-.68.1-1.45.59-2.21-1.06.67-2.93,1.12-4.99,1.54-.02,2.79,2.9,3.53,2.6,6.52h-6.54c1.07,2.06-4,2.63-3.18,4.64-3.27-1.63-9.33-2.16-9.54,1.72,6.02,2.88,10.07,1.19,16.83-.55,1.41-1.31,3.24-2.41,5.41-2.86,1.17,4.29-5.39,6.69-5.22,10.76-1.85-.24-2.67-1.21-2.85-2.43-2.88,2.78-6.23,5.25-11.61,6.28-.08.51.04.86.26,1.15.13.1.26.19.35.31.72.44,1.94.53,3.35.49-.23-.43-.44-.83-.76-1.33,2.55,2.96,11.18-1.37,12.47,3.07-1.73.46-3.46.89-5.21,1.34-.06.14-.1.24-.18.4-.68.13-1.18.13-1.78.19.13,1.97,3.24,2.51,3.83,3.07.22-.04.35-.04.59-.09,2.5,5.21-5.1,3.37-9.74,3.59-.45,2.06-15.46,3.88-6.12,3.92-.69,2.38-2.76,2.52-4.99,1.85,2.23,3.6-3.55,5.22-10.16,6.62-.72-1.37-1.44-2.76-2.17-4.15.15-.04.29-.07.43-.11-7.07-4.2,4.8-8.15-10.68-4.98,2.43-5.3,8.06-6.27,14.24-5.92v-1.69c-.81-.78-.65-2.34-1.6-5.14-4.35,1.35-7.51,2.98-8.12,5.23-6.66-3.27,8.44-11.16,13.1-15.77-2.28.63-6.21.7-9.4,3.19-2.85-1.09-5.1-2.9-6.02-6.3,7.05-.95,9.11,4.1,17.28,1.84-.17.56-.67.9-1.38,1.14,9.32,2.94-.11,7.92-1.06,12.1.77-.03,1.55-.06,2.32-.09-.24-.31-.5-.63-.72-.99,3.11-2.3,7.11-.83,8.84-.96-1.65-.58-3.78-.85-7.25-.16,2.72-6.36,12.5-7.16,7.69-12.26-2.62,3.41-1.56.9-1.51-1.35-.33-.26-.63-.53-1.04-.81.38.24.69.36,1.04.57-.01-1.33-.52-2.39-2.39-2.05-1.15,1.42-5.63,2.02-8.57,3.02-2.04-4.54,2.58-7.44,1.72-11.68-2.22.04-4.98-.28-7-.09.27-.48.29-.82.37-1.17-9,1.12-6.62-4.2-13.79-8.72,2.91-.5,4.1-1.4,4.06-2.61ZM64.64,248.86v7.21c-5.74-.78-9.18-3.2-10.29-7.21h10.29ZM27.13,269.22c-.29.29-.65.59-1.04.88-2.44-1.47-3.23-2.07,1.82-1.82-.43.31-.65.63-.78.93ZM24.55,363.31h-1.82c-.39-1.4,1.68-2.61,4.27-3.62-.94,1.12-1.83,2.27-2.45,3.62ZM33.63,277.12c-.3-.99-.51-1.89-.55-2.76,1.07.93,1.48,1.84.55,2.76ZM33.89,319.78c-4.12-1.28-11.12-3.49-6.77-3.3-1-7.95,4.99-1.74,6.58,2.77,2.07.64,2.91.9.08.24.04.1.07.2.1.29ZM34.62,280.48c.54-.99,1.63-1.88,2.78-2.51.12.63.18,1.32.12,2.11-.78.11-1.57.43-2.33.88.23.67.48,1.37.74,2.15-.04,0-.07,0-.1.01-.96-.71-1.33-1.46-1.29-2.19.06-.06.13-.1.21-.15-.05-.1-.09-.21-.13-.31ZM33.62,384.37c.07,0,.17,0,.28,0,.05.16.06.23.11.43-.24-.07-.39-.14-.54-.2.06-.06.1-.16.15-.23ZM37.61,393.85c-2.02,0-4.15,0-6.44,0,2.63-1.17,2.67-4.15,7.73-3.62-.33,1.32-.78,2.5-1.29,3.62ZM39.26,278.7c-.26-.38-.56-.73-.8-1.12,1.39-.44,2.19-.2.8,1.12ZM39.3,252.69c-1.93-.06-2.63-1-2.83-2.28-3.8-1.73-6.73-3.47-2.71-3.87,1.43-1.27,2.78-2.29,4.08-3.21.56,1.82-.3,4.65-.39,6.92,4.96,2.12,9.62,3.86,1.84,2.44Z"/>
  </g>
</svg>